<?xml version="1.0" encoding="utf-8"?>
<!-- Generator: Adobe Illustrator 24.2.0, SVG Export Plug-In . SVG Version: 6.00 Build 0)  -->
<svg version="1.1" id="レイヤー_1" xmlns="http://www.w3.org/2000/svg" xmlns:xlink="http://www.w3.org/1999/xlink" x="0px"
	 y="0px" viewBox="0 0 272 62" style="enable-background:new 0 0 272 62;" xml:space="preserve">
<style type="text/css">
	.st0{fill:#FFFFFF;}
</style>
<g id="グループ_1210" transform="translate(-12158.568 9691.034)">
	<g id="グループ_1203" transform="translate(11615.568 -11435.033)">
		<polygon points="572.4,1744.3 543.2,1805.7 785.6,1805.7 814.8,1744.3 		"/>
		<path id="パス_1346" class="st0" d="M683.8,1774.9c1.7,0,2.4,0,2.5,0c0.2,0,0.2,0,0.2-0.2c0-0.1,0-0.4,0-1.3v-1.4
			c0-0.8,0-1.2,0-1.3c0-0.2,0-0.2-0.2-0.2c-0.1,0-0.7,0-2.5,0h-7.6c-1.8,0-2.4,0-2.5,0c-0.2,0-0.2,0-0.2,0.2c0,0.1,0,0.9,0,2.8
			c0,1.6-0.1,3.1-0.3,4.7c-0.3,1.4-0.9,2.8-1.9,3.9c0.4,0.3,0.8,0.6,1,1c0.1,0.2,0.3,0.3,0.3,0.3c0.1,0,0.2-0.1,0.4-0.3
			c0.9-1.2,1.5-2.6,1.8-4c0.3-1.4,0.5-2.8,0.5-4.2L683.8,1774.9z M684.7,1773.4h-9.3v-1.2h9.3V1773.4z M678.2,1777
			c-1.8,0-2.4,0-2.5,0c-0.2,0-0.2,0-0.2,0.2v1.3c0,0.2,0,0.2,0.2,0.2c0.1,0,0.7,0,2.4,0h1.4c-0.2,0.5-0.5,1-0.9,1.3
			c-1.2,1.1-2.7,1.8-4.3,2c0.3,0.3,0.6,0.7,0.7,1.2c0.1,0.4,0.2,0.5,0.3,0.5c0.1,0,0.3,0,0.4-0.1c1.6-0.4,3.1-1.3,4.2-2.4
			c0.4-0.4,0.7-0.8,1-1.3c1.4,1.9,3.5,3.2,5.7,3.7c0.1,0,0.3,0.1,0.4,0.1c0.2,0,0.3-0.1,0.4-0.5c0.2-0.4,0.4-0.8,0.6-1.2
			c-2.3-0.2-4.5-1.4-6-3.3h2.7c1.7,0,2.4,0,2.5,0c0.2,0,0.2,0,0.2-0.2v-1.3c0-0.2,0-0.2-0.2-0.2c-0.1,0-0.7,0-2.5,0h-3.1l0-0.3
			c0-0.3,0.1-0.5,0.1-0.7c0-0.1,0.1-0.3,0.1-0.4c0-0.1-0.1-0.2-0.3-0.2c-0.6-0.1-1.2-0.1-1.8-0.1c0.1,0.5,0.1,1,0.1,1.5l0,0.3
			L678.2,1777z M685.2,1769.6c1.6,0,2.2,0,2.3,0c0.2,0,0.2,0,0.2-0.2v-1.3c0-0.2,0-0.2-0.2-0.2c-0.1,0-0.7,0-2.3,0h-10.5
			c-1.6,0-2.2,0-2.3,0c-0.2,0-0.2,0-0.2,0.2v1.3c0,0.2,0,0.2,0.2,0.2c0.1,0,0.7,0,2.3,0H685.2z M698.2,1774.7
			c1.4-1.3,2.6-2.6,3.9-3.9c0.2-0.2,0.5-0.4,0.8-0.6c0.2-0.1,0.3-0.2,0.3-0.4c0-0.2-0.1-0.3-0.2-0.4c-0.4-0.4-0.8-0.8-1.2-1.2
			c-0.1-0.1-0.3-0.1-0.4-0.1c-0.1,0-0.2,0.1-0.3,0.1c-0.3,0.1-0.7,0.2-1,0.3c-1.4,0.3-3,0.5-4.1,0.6c-0.6,0-1.1,0-1.7,0
			c0.1,0.7,0.3,1.3,0.6,1.9c0,0.2,0.2,0.3,0.4,0.3c0.1,0,0.2,0,0.4-0.1c0.2-0.1,0.5-0.2,0.8-0.2c1.1-0.2,2.4-0.5,3.5-0.7
			c-0.8,1-1.7,1.9-2.8,3.1c-1.3,1.4-2.8,2.7-4.3,4c-0.1,0.1-0.2,0.3-0.1,0.4c0.3,0.4,0.7,0.8,1.1,1.2c0.1,0.1,0.2,0.1,0.3,0.2
			c0.1,0,0.2-0.1,0.3-0.2c0.5-0.5,1-1.1,1.6-1.5c1.3-1.2,2.9-1.8,4.6-1.9c1.4-0.1,2.7,1,2.8,2.4c0,0.1,0,0.2,0,0.3
			c0.1,1.2-0.7,2.3-1.8,2.7c-0.3-1.6-1.8-2.7-3.4-2.6c-1.3-0.1-2.4,0.9-2.5,2.2c0,1.7,1.4,2.6,3.6,2.6c3.9,0,6.3-1.9,6.3-4.9
			c0.1-2.3-1.7-4.2-4-4.3c-0.1,0-0.3,0-0.4,0C700,1774,699,1774.2,698.2,1774.7L698.2,1774.7z M699.7,1781.4
			c-0.3,0.1-0.6,0.1-0.8,0.1c-1.1,0-1.6-0.4-1.6-0.9c0-0.4,0.3-0.7,0.9-0.7C698.9,1779.9,699.5,1780.5,699.7,1781.4z"/>
	</g>
	<path class="st0" d="M12275.7-9661.8c-3.1-2.7-9.5-2.7-12.9-2.4l2.5-2.2l-1-1.1l-4.7,4.2l4.8,4l1-1.2l-2.6-2.2
		c3.2-0.2,9.3-0.3,12,2.1c0.9,0.7,1.3,1.7,1.3,2.8c0,1.1-0.4,2-1.2,2.8c-3.6,3.2-13.8,1.8-13.9,1.7l-0.2,1.5c0.2,0,2.5,0.3,5.3,0.3
		c3.4,0,7.5-0.5,9.8-2.5c1.2-1,1.7-2.3,1.7-3.9C12277.5-9659.5,12276.9-9660.8,12275.7-9661.8z"/>
</g>
</svg>
