<?xml version="1.0" encoding="utf-8"?>
<!-- Generator: Adobe Illustrator 24.2.0, SVG Export Plug-In . SVG Version: 6.00 Build 0)  -->
<svg version="1.1" id="レイヤー_1" xmlns="http://www.w3.org/2000/svg" xmlns:xlink="http://www.w3.org/1999/xlink" x="0px"
	 y="0px" viewBox="0 0 70 30" style="enable-background:new 0 0 70 30;" xml:space="preserve">
<style type="text/css">
	.st0{fill:#D10000;}
	.st1{fill:#FFFFFF;}
</style>
<g id="グループ_1193" transform="translate(-314 -814)">
	<path id="長方形_783" class="st0" d="M317,814h64c1.7,0,3,1.3,3,3v24c0,1.7-1.3,3-3,3h-64c-1.7,0-3-1.3-3-3v-24
		C314,815.3,315.3,814,317,814z"/>
	<g>
		<path class="st1" d="M345,827.5c-0.2-0.4-0.5-0.3-0.7-0.2l-0.5,0.3l0,0c-0.2,0.1-0.3,0.2-0.4,0.4c-0.1,0.2,0.1,0.4,0.1,0.4
			c1,1.6,1.7,3.4,2.2,5.3c0,0.1,0.1,0.3,0.3,0.3c0.1,0,0.1,0,0.2,0c0.1,0,0.3-0.1,0.4-0.1l0.6-0.2c0.1-0.1,0.6-0.2,0.4-0.7
			C346.8,831,346,829.2,345,827.5z"/>
		<path class="st1" d="M331.4,833.4l0.6,0.2c0.1,0,0.2,0.1,0.3,0.1c0.1,0,0.3-0.1,0.4-0.3c0.9-1.7,1.5-3.5,1.9-5.4
			c0.1-0.5-0.4-0.6-0.5-0.6l-0.7-0.2c-0.1,0-0.5-0.1-0.6,0.4c-0.3,1.8-0.9,3.4-1.8,5c0,0.1-0.1,0.2,0,0.4
			C331,833.3,331.2,833.4,331.4,833.4z"/>
		<path class="st1" d="M336.2,822.8c1.3,0.5,2.6,1.3,3.6,2.1c0,0,0.2,0.2,0.3,0.2c0,0,0,0,0,0c0.2,0,0.3-0.2,0.5-0.4l0.3-0.5
			c0.1-0.2,0.3-0.5-0.1-0.8c-1.2-0.9-2.5-1.6-3.9-2.1c-0.4-0.2-0.6,0.1-0.7,0.3L336,822c-0.1,0.2-0.2,0.3-0.1,0.5
			C336,822.7,336.1,822.7,336.2,822.8z"/>
		<path class="st1" d="M343.2,832c-0.3-0.1-0.5-0.2-0.8-0.3l-0.6-0.4l0,0.7c0,2.2-0.2,2.8-0.5,3c-0.6,0.3-1.3,0.4-2,0.3
			c-0.6,0-1.1,0-1.6-0.2c-0.2-0.1-0.3-0.2-0.3-0.7v-1c1-0.8,1.9-1.6,2.7-2.5c1.5-1.7,2.7-3.6,3.6-5.6c0.2-0.4,0.4-0.8,0.7-1.2
			c0.1-0.1,0.3-0.3,0.3-0.5c0-0.3-0.2-0.4-0.4-0.6c-0.4-0.2-0.8-0.4-1.2-0.6l-0.4-0.1l-0.1,0.4c-0.1,0.7-0.4,1.3-0.7,1.9
			c-0.8,1.9-2,3.6-3.3,5.2c-0.4,0.4-0.8,0.9-1.3,1.3v-3.6l0,0c0-0.3,0-0.6,0.1-0.9c0.1-0.1,0.1-0.3,0.1-0.4c0-0.1-0.1-0.4-0.5-0.5
			c-0.4-0.1-0.8-0.1-1.3-0.2l-0.4,0l0.1,0.4c0.1,0.5,0.1,1,0.1,1.5v5.2c-1.5,1.1-3.1,2-4.8,2.6l-0.6,0.2l0.5,0.4
			c0.2,0.2,0.4,0.4,0.5,0.6l0.1,0.1c0.1,0.2,0.2,0.3,0.5,0.3c0.1,0,0.3-0.1,0.4-0.1c1.2-0.5,2.3-1.1,3.4-1.8c0,1,0.3,1.5,1.1,1.9
			c0.8,0.3,1.7,0.4,2.6,0.3c0.2,0,0.4,0,0.6,0c0.9,0,1.8-0.2,2.6-0.6c0.9-0.6,1.2-1.5,1.2-3.7C343.8,832.4,343.7,832.2,343.2,832z"
			/>
		<path class="st1" d="M366.9,836c-1.1-0.5-2.2-1.1-3.1-1.9c0.6,0,0.9,0,1.1,0l0.1,0c0.2,0,0.5-0.1,0.5-0.5l0-0.1c0-0.2,0-0.8,0-2
			v-4.6c0-1.1,0-1.7,0-1.9l0-0.1c0-0.3-0.2-0.5-0.5-0.5l-0.1,0c-0.3,0-0.9,0-2.1,0h-1.4c0.1-0.3,0.3-0.7,0.4-1h2c1.4,0,2.1,0,2.3,0
			l0.1,0c0.3,0,0.5-0.2,0.5-0.5l0-0.8c0-0.3-0.2-0.5-0.5-0.5l-0.1,0c-0.3,0-0.9,0-2.3,0H359c-1.4,0-2.1,0-2.3,0l-0.1,0
			c-0.4,0-0.5,0.3-0.5,0.5v0.1c-0.1-0.1-0.1-0.2-0.2-0.2c-0.3-0.2-0.6-0.4-0.9-0.6l-0.3-0.2l-0.1,0.3c-0.1,0.3-0.3,0.5-0.5,0.8
			c-1.1,1.1-2.4,2-3.8,2.6l-0.5,0.2l0.4,0.4c0.2,0.1,0.3,0.3,0.4,0.5c0.1,0.2,0.3,0.5,0.6,0.4c0.1,0,0.3-0.1,0.3-0.1
			c1.4-0.7,2.7-1.7,3.8-2.8c0.2-0.2,0.3-0.3,0.5-0.4c0.1,0,0.2-0.1,0.3-0.2v0.1c0,0.2,0.1,0.5,0.5,0.5l0.1,0c0.2,0,0.9,0,2.3,0h1
			c-0.1,0.3-0.2,0.7-0.4,1h-0.1c-1.3,0-1.9,0-2.1,0l-0.1,0c-0.3,0-0.5,0.2-0.5,0.5l0,0.1c0,0.2,0,0.8,0,1.9v4.6c0,1.2,0,1.7,0,2
			l0,0.1c0,0.4,0.3,0.5,0.5,0.5l0.1,0c0.1,0,0.4,0,0.9,0c0,0.1-0.1,0.1-0.2,0.2c-1.1,0.9-2.4,1.5-3.8,1.8l-0.7,0.2l0.6,0.4
			c0.2,0.2,0.4,0.3,0.5,0.6c0.2,0.3,0.3,0.4,0.5,0.4c0.1,0,0.2,0,0.4-0.1c1.4-0.5,2.6-1.1,3.8-2.1c0.1-0.1,0.2-0.2,0.3-0.2
			c0.1,0,0.2-0.1,0.3-0.2l0.1,0v-0.2c0-0.3-0.2-0.4-0.3-0.5c-0.1-0.1-0.2-0.1-0.3-0.2c0,0,0,0,0,0h3.1l-0.2,0.1
			c-0.1,0.1-0.2,0.2-0.3,0.4c0,0.2,0.1,0.3,0.2,0.4c0.9,0.9,2,1.7,3.2,2.3c0.1,0.1,0.3,0.1,0.5,0.2c0.3,0,0.5-0.3,0.6-0.5
			c0.1-0.2,0.2-0.3,0.4-0.4l0.5-0.4L366.9,836z M363.8,831.2v1.2h-5.3v-1.2H363.8z M358.5,827v-1.1h5.3v1.1H358.5z M358.5,829.6
			v-1.1h5.3v1.1H358.5z"/>
		<path class="st1" d="M350.7,830.6c0.1,0.2,0.2,0.4,0.5,0.4c0.2,0,0.3-0.1,0.4-0.1l0.1,0c1.4-0.8,2.6-1.8,3.7-3
			c0.1-0.2,0.3-0.4,0.5-0.5c0.1-0.1,0.4-0.2,0.4-0.5v0c0-0.2-0.1-0.4-0.3-0.5c-0.3-0.2-0.6-0.4-0.9-0.6l-0.3-0.2l-0.2,0.3
			c-0.1,0.3-0.3,0.5-0.5,0.7c-1,1.2-2.3,2.2-3.7,2.9l-0.5,0.2l0.4,0.3C350.4,830.2,350.6,830.4,350.7,830.6z"/>
		<path class="st1" d="M355.7,832.7c0.1-0.1,0.1-0.2,0.2-0.2c0.1-0.1,0.2-0.3,0.2-0.3c0.2-0.1,0.4-0.3,0.4-0.5v0
			c0-0.3-0.2-0.5-0.3-0.5c-0.3-0.2-0.6-0.4-0.9-0.5l-0.3-0.2l-0.1,0.3c-0.1,0.3-0.3,0.6-0.5,0.9c-1.1,1.5-2.6,2.8-4.2,3.7l-0.5,0.3
			l0.5,0.3c0.2,0.1,0.3,0.3,0.4,0.4c0.1,0.2,0.3,0.4,0.6,0.4c0.2,0,0.3-0.1,0.5-0.2C353.1,835.6,354.5,834.2,355.7,832.7z"/>
	</g>
</g>
</svg>
