<?xml version="1.0" encoding="utf-8"?>
<!-- Generator: Adobe Illustrator 24.2.0, SVG Export Plug-In . SVG Version: 6.00 Build 0)  -->
<svg version="1.1" id="レイヤー_1" xmlns="http://www.w3.org/2000/svg" xmlns:xlink="http://www.w3.org/1999/xlink" x="0px"
	 y="0px" viewBox="0 0 123 27" style="enable-background:new 0 0 123 27;" xml:space="preserve">
<style type="text/css">
	.st0{fill:#FFFFFF;}
	.st1{clip-path:url(#SVGID_2_);}
</style>
<g id="グループ_992" transform="translate(-1127.799 -32.051)">
	<path id="パス_1333" class="st0" d="M1152.8,42.1c0-0.5,0.1-1,0.3-1.4c0.2-0.4,0.4-0.8,0.7-1.1c0.3-0.3,0.7-0.5,1.1-0.7
		c0.4-0.2,0.8-0.2,1.3-0.2c0.4,0,0.9,0.1,1.3,0.2c0.4,0.2,0.8,0.4,1.1,0.7c0.3,0.3,0.6,0.7,0.7,1.1c0.2,0.4,0.3,0.9,0.3,1.4v9.2
		c0,0.5-0.1,1-0.3,1.4c-0.2,0.4-0.4,0.8-0.7,1.1c-0.3,0.3-0.7,0.5-1.1,0.7c-0.4,0.2-0.8,0.2-1.3,0.2c-0.4,0-0.9-0.1-1.3-0.2
		c-0.4-0.1-0.8-0.4-1.1-0.7c-0.3-0.3-0.6-0.7-0.7-1.1c-0.2-0.4-0.3-0.9-0.3-1.4V42.1z M1155,51.3c0,0.3,0.1,0.6,0.3,0.8
		c0.2,0.2,0.5,0.3,0.8,0.3c0.3,0,0.6-0.1,0.8-0.3c0.2-0.2,0.3-0.5,0.3-0.8v-9.2c0-0.3-0.1-0.6-0.3-0.8c-0.2-0.2-0.5-0.3-0.8-0.3
		c-0.3,0-0.6,0.1-0.8,0.3c-0.2,0.2-0.3,0.5-0.3,0.8V51.3z M1161.5,54.6l3.9-13.6h-2.5v1.8h-2v-3.9h6.7v2.2l-3.8,13.4H1161.5z
		 M1175,38.9l-2.6,6.6l0,0c0.1-0.1,0.2-0.1,0.3-0.1c0.2,0,0.4-0.1,0.6-0.1c0.4,0,0.8,0.1,1.1,0.3c0.3,0.2,0.6,0.4,0.8,0.7
		c0.1,0.2,0.2,0.3,0.2,0.5c0.1,0.2,0.1,0.4,0.2,0.6c0,0.3,0.1,0.6,0.1,1c0,0.4,0,0.9,0,1.5c0,0.5,0,0.9,0,1.3c0,0.3,0,0.6-0.1,0.8
		c0,0.2-0.1,0.4-0.2,0.6c-0.1,0.2-0.2,0.3-0.3,0.5c-0.3,0.5-0.7,0.9-1.2,1.1c-0.5,0.3-1.1,0.4-1.7,0.4c-0.6,0-1.1-0.1-1.7-0.4
		c-0.5-0.3-0.9-0.6-1.2-1.1c-0.1-0.2-0.2-0.3-0.3-0.5c-0.1-0.2-0.1-0.4-0.1-0.6c0-0.3-0.1-0.5-0.1-0.8c0-0.3,0-0.8,0-1.3
		c0-0.5,0-0.9,0-1.2s0-0.6,0.1-0.8c0-0.2,0.1-0.4,0.1-0.6c0.1-0.2,0.1-0.4,0.2-0.6l2.9-7.9H1175z M1173.6,48.4
		c0-0.3-0.1-0.6-0.3-0.8c-0.2-0.2-0.5-0.3-0.8-0.3c-0.3,0-0.6,0.1-0.8,0.3c-0.2,0.2-0.3,0.5-0.3,0.8v2.9c0,0.3,0.1,0.6,0.3,0.8
		c0.2,0.2,0.5,0.3,0.8,0.3c0.3,0,0.6-0.1,0.8-0.3c0.2-0.2,0.3-0.5,0.3-0.8V48.4z M1177.6,49.6v-2.2h6.6v2.2H1177.6z M1185.9,54.6
		v-2.1l4-7.6c0.2-0.3,0.3-0.6,0.4-1c0-0.3,0-0.6,0-1.1c0-0.2,0-0.4,0-0.6c0-0.2,0-0.4-0.1-0.6c-0.1-0.2-0.2-0.3-0.3-0.4
		c-0.2-0.1-0.4-0.2-0.6-0.2c-0.3,0-0.6,0.1-0.8,0.3c-0.2,0.2-0.3,0.5-0.3,0.8v1.3h-2.2v-1.2c0-0.5,0.1-0.9,0.3-1.3
		c0.2-0.4,0.4-0.8,0.7-1.1c0.3-0.3,0.7-0.6,1.1-0.7c0.4-0.2,0.9-0.3,1.3-0.3c0.5,0,1,0.1,1.5,0.3c0.4,0.2,0.8,0.5,1,0.9
		c0.3,0.4,0.5,0.8,0.6,1.3c0.1,0.5,0.2,1,0.2,1.5c0,0.4,0,0.7,0,1c0,0.2,0,0.5-0.1,0.7c0,0.2-0.1,0.5-0.2,0.7
		c-0.1,0.2-0.2,0.5-0.4,0.9l-3.3,6.4h4v2.2H1185.9z M1196.8,54.6V41.3l-2.2,1.6v-2.4l2.2-1.6h2.2v15.7H1196.8z M1206.2,54.6v-2.3
		h-4.5v-2.1l3.2-11.2h2.4l-3.4,11.2h2.2v-4.5h2.2v4.5h1.1v2.1h-1.1v2.3H1206.2z M1210.7,49.6v-2.2h6.6v2.2H1210.7z M1221.7,45.5
		c0.5,0,1,0,1.4-0.2c0.3-0.2,0.4-0.5,0.4-1.1v-2c0-0.3-0.1-0.6-0.3-0.8c-0.2-0.2-0.5-0.3-0.8-0.3c-0.3,0-0.6,0.1-0.8,0.4
		c-0.2,0.2-0.2,0.5-0.3,0.7v1.3h-2.2v-1.3c0-0.4,0.1-0.9,0.3-1.3c0.2-0.4,0.4-0.8,0.7-1.1c0.3-0.3,0.7-0.5,1.1-0.7
		c0.4-0.2,0.9-0.3,1.3-0.3c0.5,0,1.1,0.1,1.5,0.4c0.3,0.2,0.7,0.4,0.9,0.7c0.1,0.2,0.3,0.3,0.4,0.5c0.1,0.2,0.2,0.4,0.3,0.6
		c0.2,0.7,0.2,1.4,0.2,2.2c0,0.5,0,1,0,1.3c0,0.3-0.1,0.6-0.2,0.8c-0.1,0.2-0.2,0.4-0.4,0.6c-0.2,0.2-0.5,0.4-0.8,0.5
		c0.3,0.2,0.6,0.4,0.8,0.6c0.2,0.2,0.3,0.4,0.4,0.7c0.1,0.3,0.1,0.6,0.2,0.9c0,0.4,0,0.8,0,1.4c0,0.5,0,0.9,0,1.3
		c0,0.3,0,0.6-0.1,0.8c0,0.2-0.1,0.4-0.2,0.6c-0.1,0.2-0.2,0.3-0.3,0.5c-0.3,0.4-0.6,0.8-1.1,1c-0.5,0.3-1.1,0.4-1.7,0.4
		c-0.4,0-0.8-0.1-1.1-0.2c-0.4-0.1-0.8-0.3-1.1-0.6c-0.3-0.3-0.6-0.6-0.8-1c-0.2-0.5-0.3-1-0.3-1.6v-1.3h2.2v1.2
		c0,0.3,0.1,0.6,0.3,0.9c0.2,0.2,0.5,0.4,0.8,0.3c0.3,0,0.6-0.1,0.8-0.3c0.2-0.3,0.3-0.6,0.3-0.9v-2.2c0.1-0.4-0.1-0.9-0.4-1.2
		c-0.2-0.1-0.3-0.2-0.5-0.2c-0.3,0-0.6,0-0.9,0L1221.7,45.5z M1229.9,45.5c0.5,0,1,0,1.4-0.2c0.3-0.2,0.4-0.5,0.4-1.1v-2
		c0-0.3-0.1-0.6-0.3-0.8c-0.2-0.2-0.5-0.3-0.8-0.3c-0.3,0-0.6,0.1-0.8,0.4c-0.2,0.2-0.2,0.5-0.3,0.7v1.3h-2.2v-1.3
		c0-0.4,0.1-0.9,0.3-1.3c0.2-0.4,0.4-0.8,0.7-1.1c0.3-0.3,0.7-0.5,1.1-0.7c0.4-0.2,0.9-0.3,1.3-0.3c0.5,0,1.1,0.1,1.5,0.4
		c0.3,0.2,0.7,0.4,0.9,0.7c0.1,0.2,0.3,0.3,0.4,0.5c0.1,0.2,0.2,0.4,0.3,0.6c0.2,0.7,0.2,1.4,0.2,2.2c0,0.5,0,1,0,1.3
		c0,0.3-0.1,0.6-0.2,0.8c-0.1,0.2-0.2,0.4-0.4,0.6c-0.2,0.2-0.5,0.4-0.8,0.5c0.3,0.2,0.6,0.4,0.8,0.6c0.2,0.2,0.3,0.4,0.4,0.7
		c0.1,0.3,0.1,0.6,0.2,0.9c0,0.4,0,0.8,0,1.4c0,0.5,0,0.9,0,1.3c0,0.3,0,0.6-0.1,0.8c0,0.2-0.1,0.4-0.2,0.6
		c-0.1,0.2-0.2,0.3-0.3,0.5c-0.3,0.4-0.6,0.8-1.1,1c-0.5,0.3-1.1,0.4-1.7,0.4c-0.4,0-0.8-0.1-1.1-0.2c-0.4-0.1-0.8-0.3-1.1-0.6
		c-0.3-0.3-0.6-0.6-0.8-1c-0.2-0.5-0.3-1-0.3-1.6v-1.3h2.2v1.2c0,0.3,0.1,0.6,0.3,0.9c0.2,0.2,0.5,0.4,0.8,0.3
		c0.3,0,0.6-0.1,0.8-0.3c0.2-0.3,0.3-0.6,0.3-0.9v-2.2c0.1-0.4-0.1-0.9-0.4-1.2c-0.2-0.1-0.3-0.2-0.5-0.2c-0.3,0-0.6,0-0.9,0
		L1229.9,45.5z M1235.4,54.6v-2.1l4-7.6c0.2-0.3,0.3-0.6,0.4-1c0-0.3,0-0.6,0-1.1c0-0.2,0-0.4,0-0.6c0-0.2,0-0.4-0.1-0.6
		c-0.1-0.2-0.2-0.3-0.3-0.4c-0.2-0.1-0.4-0.2-0.6-0.2c-0.3,0-0.6,0.1-0.8,0.3c-0.2,0.2-0.3,0.5-0.3,0.8v1.3h-2.2v-1.2
		c0-0.5,0.1-0.9,0.3-1.3c0.2-0.4,0.4-0.8,0.7-1.1c0.3-0.3,0.7-0.6,1.1-0.7c0.4-0.2,0.9-0.3,1.3-0.3c0.5,0,1,0.1,1.5,0.3
		c0.4,0.2,0.8,0.5,1,0.9c0.3,0.4,0.5,0.8,0.6,1.3c0.1,0.5,0.2,1,0.2,1.5c0,0.4,0,0.7,0,1c0,0.2,0,0.5-0.1,0.7c0,0.2-0.1,0.5-0.2,0.7
		c-0.1,0.2-0.2,0.5-0.4,0.9l-3.3,6.4h4v2.2H1235.4z M1250.3,38.9V41h-4.4v4.2c0.2-0.2,0.5-0.4,0.8-0.5c0.3-0.1,0.7-0.2,1.1-0.2
		c0.7,0,1.4,0.2,1.9,0.7c0.5,0.6,0.8,1.3,0.7,2.1v4c0,0.5-0.1,1-0.3,1.4c-0.2,0.4-0.4,0.8-0.7,1.1c-0.3,0.3-0.7,0.5-1.1,0.7
		c-0.4,0.2-0.8,0.2-1.3,0.2c-0.4,0-0.9-0.1-1.3-0.2c-0.4-0.1-0.8-0.4-1.1-0.7c-0.3-0.3-0.6-0.7-0.7-1.1c-0.2-0.4-0.3-0.9-0.3-1.4
		v-0.7h2.2v0.6c0,0.3,0.1,0.7,0.3,0.9c0.2,0.2,0.5,0.3,0.8,0.3c0.3,0,0.6-0.1,0.8-0.3c0.2-0.2,0.3-0.5,0.3-0.9v-3.7
		c0-0.3-0.1-0.6-0.3-0.8c-0.2-0.2-0.5-0.3-0.8-0.3c-0.2,0-0.3,0-0.5,0.1c-0.1,0.1-0.2,0.1-0.3,0.2c-0.1,0.1-0.2,0.2-0.2,0.3
		c-0.1,0.1-0.1,0.2-0.1,0.2h-2v-8.4L1250.3,38.9z"/>
	<g id="グループ_987" transform="translate(995.785 -809.98) rotate(22)">
		<g>
			<defs>
				<path id="SVGID_1_" d="M452.1,735l1.7-6.6c0,0,7,0.5,5.3,9.2c-1.7,8.7-4.8,13.7-8.8,13.6s-3.8-0.8-3.8-0.8l2.3-6l3.2,1.1
					l3.2-9.5L452.1,735z"/>
			</defs>
			<clipPath id="SVGID_2_">
				<use xlink:href="#SVGID_1_"  style="overflow:visible;"/>
			</clipPath>
			<g id="グループ_351" transform="translate(445.736 728.071)" class="st1">
				<path id="パス_963" class="st0" d="M3.5,14.9C3.5,14.9,3.5,14.9,3.5,14.9c0.2,0.2,0.4,0,0.6-0.1c0.2-0.1,0.3,0.1,0.5,0.2l0,0
					c0.1,0,0.2,0,0.2-0.1l0,0v0c0,0-0.1,0-0.1-0.1c0,0,0,0,0,0l0,0.1h0c0.1-0.2,0.3-0.3,0.4,0c0,0,0,0.1,0.1,0.1s0-0.1,0-0.1
					c0-0.1-0.2-0.1-0.1-0.2c0.1-0.1,0.2,0,0.2,0.1c0.1,0.2,0.2,0.3,0.4,0.3c0,0,0-0.1,0.1-0.1c0.2,0.2,0.3,0,0.4-0.1v0h0l0,0l0,0.1
					c0.1-0.2,0.3-0.1,0.4-0.1c0.1,0,0.1,0.1,0.1,0.1s0,0.1,0,0.2c0.3-0.1,0.5,0.2,0.8,0.3c0,0,0.1,0,0.1,0c0.2,0.1,0.5,0.2,0.6,0
					c0.1-0.2,0.1-0.4,0-0.6c0,0,0-0.1,0-0.1l0,0l0,0v0c0.2,0,0.5,0.1,0.7,0.3c0.2,0.2,0.5,0.2,0.7,0C9.8,15.1,9.8,15,9.7,15v0h0
					c0,0.1-0.1,0-0.1,0h0l0,0L9.4,15c0,0,0,0,0,0l0,0l0,0h0c0,0,0-0.1,0.1-0.1c0,0,0,0,0.1,0h0l0,0h0.1l0,0l0,0
					c-0.1-0.1,0.1-0.3-0.2-0.4c-0.1,0,0.1-0.3,0.3-0.4c0.1,0,0.2,0,0.2,0l0,0l0,0c0-0.1-0.1-0.2,0-0.2c0.1,0,0.3,0.1,0.3,0.1
					c0,0.1-0.1,0.1-0.2,0c0,0-0.1,0-0.1,0v0h0c0,0.1,0,0.1-0.1,0.1c0,0,0,0,0,0c0,0,0,0.1,0,0.1c0.2,0.2,0.1,0.5-0.1,0.7
					c0,0,0,0,0,0v0.2c0,0,0.1,0,0.1,0c0.1,0,0.1,0,0.2,0c0.2-0.1,0.5,0,0.6,0.2v0v0c0,0,0,0,0,0h0c0,0,0,0,0,0l0,0c0,0,0,0,0,0l0,0
					l0,0c-0.1,0-0.2,0.1-0.3,0.2c-0.1,0.1-0.2,0.1-0.3,0.1v0h0v0C10,16,10,16,9.9,15.9c0-0.1-0.1-0.1-0.1-0.1
					c-0.2,0.1-0.4,0-0.6,0.1C8.9,16.2,8.6,16,8.3,16c0,0-0.1,0-0.1-0.1c0.1-0.4-0.2-0.2-0.3-0.2c-0.2,0.1-0.4,0.1-0.5,0l0,0
					c0,0,0,0,0,0v0.1c-0.1,0,0,0,0-0.1v0c0,0-0.1-0.1-0.1,0c-0.2,0.2-0.3,0.4-0.5,0c0-0.1-0.6,0.2-0.6,0.4c-0.1,0.1-0.1,0.3-0.3,0.3
					c0,0,0,0,0,0c-0.1,0.2-0.3,0.2-0.5,0.2c-0.1,0-0.1-0.3-0.1-0.4l0,0l0,0l0,0c0-0.3-0.1-0.3-0.3-0.2c-0.2,0-0.3,0.1-0.5-0.1
					c-0.1-0.1-0.2,0-0.3,0.1C4,16,3.9,16.1,3.8,16.1l0,0H3.7l0,0c-0.1-0.3-0.3-0.5-0.6-0.4l-0.2,0.6l0,0c0.1,0,0.2,0,0.2,0.1
					c0,0.1-0.1,0.1-0.1,0.1c-0.1,0-0.1,0-0.2-0.1L1.1,22c0,0,0,0,0,0c0,0.1,0,0.1-0.1,0.1l-1,3.1c0,0,0,0,0,0
					c0.1,0.1,0.1,0.2,0.1,0.3c-0.1,0-0.2,0-0.3,0l-0.7,2.3c0,0,0,0,0,0c0,0,0,0.1,0,0.1c0,0,0,0,0,0h0l-0.9,2.7
					c-0.1,0.5-0.4,0.9-0.8,1.2l0,0l-0.2,0.2c-0.1,0.1-0.1,0.1-0.2,0.2l0,0l0,0c-0.1,0.1-0.3,0.2-0.4,0.3l-2.6,2.1l0,0h0.3l0,0l0,0
					h4.5c0,0,0-0.1,0-0.1h0l0,0l0,0l0,0c0,0,0,0,0,0c0,0,0,0,0,0l0,0l0,0l0,0c0,0,0,0,0,0l0.2,0c0,0.1-0.1,0.1-0.1,0.2c0,0,0,0,0,0
					h3.3l0.1-0.1c0,0,0,0.1,0,0.1l2.4,0l0.1-0.1c0,0,0-0.1,0.1-0.1L7.9,32l0.5-1.7c0,0,0,0,0-0.1l0.1,0c0,0,0,0,0,0l0.8-2.5
					c0-0.1,0-0.1,0-0.2c-0.1,0,0.1-0.4-0.2-0.2c-0.1,0.1-0.2-0.1-0.2-0.1c-0.3-0.1,0-0.3-0.1-0.4h0l0,0l0,0c0,0,0,0,0,0c0,0,0,0,0,0
					l0,0l0,0c0.1,0,0.3-0.2,0.4,0c0.1,0.1,0.2,0,0.3,0l0,0l0,0l0.1,0l0,0h0.1l0.1-0.2c-0.1,0-0.2-0.1-0.3-0.1h0
					c-0.1-0.1-0.2-0.1-0.3-0.2l0,0c0,0-0.1,0-0.1,0l0.1,0l0.3,0.2c0.1-0.1,0.3-0.1,0.4-0.1l0.1-0.2l0.4-1.1l1.3-4.2l0,0l0.1-0.2
					c0-0.1-0.1-0.1-0.1-0.2c-0.1,0.1-0.1,0.1-0.2,0S11,20.2,11,20.1l0,0c0.1,0.1,0.1,0.1,0.2,0.2s0.1,0.1,0.2,0.1c0,0,0,0,0,0l0,0
					c0.1,0,0.1,0,0.1,0.1l0.1,0.1l0.2-0.6l-2.2,0l0.8-0.7l0,0l0.1,0c0,0,0,0,0,0l0.9-0.8c0,0,0-0.1,0.1-0.1c0,0,0,0,0,0l1.1-1
					l0.1-0.4c0-0.1,0-0.1,0-0.2c0.1-0.2,0.2-0.4,0.1-0.6c0-0.1,0-0.2,0.2-0.1l0.7-2.1c0,0,0,0,0,0c-0.2-0.1-0.3-0.3-0.2-0.4
					c0-0.1,0-0.3,0.1-0.3c0.1,0,0.2,0,0.2,0c0,0.1,0,0.2,0.1,0.3l0.1-0.5c-0.1,0.1-0.3,0.1-0.3-0.1c0-0.2,0.3-0.2,0.4-0.2l0,0
					l2.7-8.4c-0.1-0.1-0.2-0.1-0.2-0.1c0-0.1,0.1-0.1,0.1-0.1c0.1,0,0.1,0,0.2,0.1L16.9,4l0,0c-0.2,0-0.3-0.1-0.3-0.3c0,0,0,0,0,0
					c0-0.1,0.1-0.1,0.2-0.1c0.1,0,0.1,0,0.1,0.1l0.3-0.8c0-0.2-0.2-0.4-0.4-0.4c0,0,0-0.2,0-0.3l0,0l0,0v0l0,0c0,0,0,0,0,0
					c0.2,0.1,0.4,0.3,0.5,0.4L18.2,0c0,0,0-0.1-0.1-0.1c-0.1-0.3-0.3-0.5-0.5-0.6c-0.1,0-0.2-0.1-0.2-0.2l-0.1,0l0-0.1l0,0
					c-0.1-0.1-0.2-0.2-0.3-0.2c-0.2,0-0.3-0.2-0.4-0.4c0-0.2,0-0.5-0.4-0.3c-0.1,0-0.1,0-0.2,0c0,0,0,0,0,0c0-0.1,0.1-0.1,0.2-0.2
					c-0.1-0.1-0.2,0-0.3,0c-0.1,0-0.1,0-0.2-0.2c0-0.1-0.1-0.2-0.1-0.3c-0.1-0.2-0.3-0.4-0.4-0.5c-0.1-0.1-0.2-0.1-0.3,0
					c0,0,0,0,0,0c-0.2,0.2-0.1,0-0.1-0.1l0,0v-0.1l0,0c0-0.1-0.1-0.3-0.2-0.4l-2.8,0c0,0,0,0.1,0,0.1h0l0,0l0,0l0.2,0.1l0.1,0l0,0h0
					l0,0l0,0l-0.1,0l-0.2-0.1l0,0c0,0,0,0,0,0c0,0-0.1,0-0.1,0c0,0-0.1,0-0.1-0.1l-1.7,0c-0.1,0-0.3,0.1-0.4,0.1c-0.1,0-0.2,0-0.4,0
					L9-2.6c0,0,0,0,0,0.1c0,0,0,0.1-0.1,0.1c0,0,0,0,0,0L6.8,4.2l0,0c0,0,0,0-0.1,0s0,0,0,0L6.2,6.1c0,0,0,0,0,0L6,6.7c0,0,0,0,0,0
					c0.1,0,0.2,0,0.2,0.1C6.2,7,6,6.9,6,6.9C6,7,5.9,7,5.9,7L5.6,7.9c0,0,0,0,0,0.1c0,0.1,0,0.1-0.1,0.1l-1.1,3.4l0,0
					c0.1,0,0.1,0.1,0.1,0.1c0,0.1-0.1,0.2-0.2,0.1l-0.7,2.1v0l0,0L3.5,14.9C3.4,14.9,3.4,14.9,3.5,14.9z M9.9,15.4L9.9,15.4l0-0.2
					c0,0,0,0.1,0,0.1C10,15.3,9.9,15.4,9.9,15.4L9.9,15.4z M-4.2,33.6C-4.2,33.6-4.2,33.6-4.2,33.6C-4.2,33.6-4.2,33.6-4.2,33.6
					L-4.2,33.6L-4.2,33.6z M-3.6,33.1L-3.6,33.1L-3.6,33.1L-3.6,33.1L-3.6,33.1z M-3,33.1L-3,33.1L-3,33.1L-3,33.1z M-2.9,32.9
					C-3,32.9-3,32.8-2.9,32.9C-3,32.8-3,32.7-3,32.7l0-0.1c0,0,0.1,0,0.1,0.1c0,0,0,0.1,0,0.1C-2.9,32.8-2.9,32.9-2.9,32.9
					L-2.9,32.9z M-2.2,34.2L-2.2,34.2L-2.2,34.2L-2.2,34.2z M-2.1,33.5C-2.1,33.5-2.1,33.5-2.1,33.5L-2.1,33.5L-2.1,33.5
					C-2.1,33.5-2.1,33.5-2.1,33.5L-2.1,33.5z M-2,33.1C-2,33.1-2,33.1-2,33.1C-2,33-2,33-2,33.1C-2,33-2,33.1-2,33.1
					C-2,33.1-2,33.1-2,33.1L-2,33.1z M-1.8,33.4L-1.8,33.4L-1.8,33.4L-1.8,33.4z M-1.5,34.3c0,0-0.1,0-0.1-0.1
					C-1.5,34.3-1.5,34.2-1.5,34.3C-1.5,34.2-1.4,34.3-1.5,34.3C-1.4,34.3-1.5,34.3-1.5,34.3L-1.5,34.3z M-1.1,33.3
					C-1.1,33.3-1.2,33.3-1.1,33.3C-1.2,33.2-1.1,33.2-1.1,33.3C-1.1,33.2-1.1,33.2-1.1,33.3C-1.1,33.3-1.1,33.3-1.1,33.3L-1.1,33.3z
					 M-0.9,33.6L-0.9,33.6L-0.9,33.6L-0.9,33.6z M-0.9,31.7c-0.1,0-0.1,0-0.2,0c-0.2-0.1-0.3-0.3-0.4-0.5c0-0.1,0-0.2,0.1-0.2
					c0,0,0.1,0,0.1,0c0,0.2,0.2,0.3,0.3,0.5C-0.9,31.7-0.9,31.7-0.9,31.7L-0.9,31.7z M-0.9,31.6L-0.9,31.6L-0.9,31.6L-0.9,31.6z
					 M5.9,16.5L5.9,16.5L5.9,16.5L5.9,16.5L5.9,16.5L5.9,16.5L5.9,16.5L5.9,16.5L5.9,16.5L5.9,16.5c-0.1,0.1-0.1,0.1-0.2,0L5.9,16.5
					z M5.8,29.4L5.8,29.4L5.8,29.4L5.8,29.4L5.8,29.4L5.8,29.4z M5.8,19.9L5.8,19.9C5.8,19.9,5.8,19.9,5.8,19.9
					C5.8,19.9,5.8,19.9,5.8,19.9L5.8,19.9z M5.8,29.6C5.8,29.6,5.9,29.6,5.8,29.6C5.9,29.6,5.9,29.6,5.8,29.6
					C5.8,29.6,5.8,29.6,5.8,29.6C5.8,29.6,5.8,29.6,5.8,29.6L5.8,29.6z M5.5,17.3l0.2,0.1c-0.1,0.1-0.2,0.1-0.4,0.2
					c0,0-0.1,0-0.1-0.1L5.5,17.3z M5.5,21.2C5.5,21.1,5.5,21.1,5.5,21.2c0-0.1,0-0.1,0-0.1c0,0,0.1,0.1,0.1,0.1
					C5.6,21.2,5.5,21.2,5.5,21.2L5.5,21.2z M5.5,22.8L5.5,22.8L5.5,22.8C5.5,22.9,5.5,22.8,5.5,22.8C5.5,22.8,5.5,22.8,5.5,22.8
					L5.5,22.8z M5.5,18.4L5.5,18.4C5.5,18.4,5.5,18.4,5.5,18.4C5.5,18.4,5.5,18.4,5.5,18.4L5.5,18.4z M5.1,21.2L5.1,21.2L5.1,21.2
					L5.1,21.2L5.1,21.2L5.1,21.2z M5,18.5L5,18.5L5,18.5L5,18.5z M5,20.3C5,20.3,5,20.3,5,20.3C5,20.4,5,20.4,5,20.3
					c0.1,0.1,0,0.1,0,0.1C4.9,20.5,4.9,20.4,5,20.3C4.9,20.4,4.9,20.3,5,20.3L5,20.3z M5.1,25.9L5.1,25.9C5,25.9,5,25.9,5.1,25.9
					L5.1,25.9L5.1,25.9z M5,27.6L5,27.6L5,27.6C5,27.6,5,27.6,5,27.6C5,27.6,5,27.6,5,27.6L5,27.6z M5,20.9
					C4.9,20.9,4.9,20.9,5,20.9C4.9,20.8,4.9,20.8,5,20.9C5,20.8,5,20.8,5,20.9C5,20.8,5,20.9,5,20.9L5,20.9z M4.9,22.8L4.9,22.8
					L4.9,22.8L4.9,22.8z M4.9,29.6C4.9,29.6,4.9,29.6,4.9,29.6L4.9,29.6C4.9,29.6,4.9,29.6,4.9,29.6L4.9,29.6z M4.8,19.2L4.8,19.2
					L4.8,19.2L4.8,19.2z M4.5,21.1C4.5,21.1,4.6,21.1,4.5,21.1c0.1,0,0.1,0,0.1,0.1c0,0,0,0-0.1,0C4.6,21.2,4.6,21.2,4.5,21.1
					L4.5,21.1z M4.6,27.9C4.6,27.9,4.5,27.9,4.6,27.9L4.6,27.9L4.6,27.9C4.6,27.9,4.6,27.9,4.6,27.9L4.6,27.9z M4.5,18.9L4.5,18.9
					L4.5,18.9L4.5,18.9z M4.6,19.8L4.6,19.8L4.6,19.8C4.5,19.8,4.5,19.8,4.6,19.8C4.6,19.8,4.6,19.8,4.6,19.8L4.6,19.8z M4.6,19.7
					C4.6,19.7,4.7,19.6,4.6,19.7c0.1-0.1,0.1-0.1,0.1-0.1c0,0,0,0.1,0,0.1L4.6,19.7z M4.7,18.4C4.6,18.3,4.6,18.3,4.7,18.4
					C4.6,18.3,4.6,18.3,4.7,18.4C4.7,18.3,4.7,18.3,4.7,18.4C4.7,18.3,4.7,18.4,4.7,18.4L4.7,18.4z M4.3,16.8L4.3,16.8L4.3,16.8
					L4.3,16.8L4.3,16.8C4.3,16.8,4.3,16.8,4.3,16.8c0.1-0.1,0.2-0.1,0.4-0.1h0l0,0l0,0l0,0l0,0c0,0,0,0,0,0c0,0,0,0,0,0l0,0h0
					C4.5,16.8,4.4,16.9,4.3,16.8c0,0.1-0.1,0.1-0.1,0.1c0,0,0,0,0,0C4.2,16.8,4.2,16.8,4.3,16.8C4.3,16.8,4.3,16.8,4.3,16.8
					L4.3,16.8z M4.1,18.2c0.1,0,0.2,0.1,0.3,0.2c-0.1,0.1-0.1,0.1-0.2,0.1C4,18.5,4,18.4,4,18.3C4,18.2,4,18.2,4.1,18.2z M3.9,16.1
					C4,16.1,4,16.2,3.9,16.1C4,16.2,4,16.2,3.9,16.1L3.9,16.1L3.9,16.1z M4,16.4C4,16.4,4,16.4,4,16.4c0,0.1,0,0.1,0,0.1
					C3.9,16.5,3.9,16.4,4,16.4C3.9,16.4,3.9,16.4,4,16.4L4,16.4z M4,17.4C4,17.4,4,17.4,4,17.4C4,17.4,3.9,17.4,4,17.4L4,17.4
					L4,17.4z M3.9,20.9L3.9,20.9L3.9,20.9L3.9,20.9z M3.8,16.7C3.8,16.7,3.8,16.7,3.8,16.7C3.8,16.7,3.8,16.7,3.8,16.7L3.8,16.7
					L3.8,16.7z M3.5,18.4c0,0,0.1,0,0.1-0.1c0,0,0.1,0,0.1,0c0,0-0.1,0.1-0.1,0.1C3.6,18.4,3.6,18.4,3.5,18.4L3.5,18.4L3.5,18.4
					L3.5,18.4z M3.7,20.2L3.7,20.2L3.7,20.2L3.7,20.2L3.7,20.2z M3.5,16.8C3.5,16.8,3.5,16.8,3.5,16.8C3.5,16.8,3.5,16.8,3.5,16.8
					L3.5,16.8L3.5,16.8z M2.6,20.2L2.6,20.2L2.6,20.2L2.6,20.2L2.6,20.2L2.6,20.2L2.6,20.2L2.6,20.2L2.6,20.2z M2.5,22.8
					C2.5,22.8,2.5,22.8,2.5,22.8c-0.1,0.1-0.1,0.1-0.1,0.1S2.4,22.7,2.5,22.8C2.5,22.7,2.6,22.7,2.5,22.8L2.5,22.8z M2.4,18.6
					C2.5,18.6,2.5,18.6,2.4,18.6c0,0.1,0,0.1,0,0.1C2.4,18.7,2.4,18.6,2.4,18.6C2.4,18.6,2.4,18.6,2.4,18.6L2.4,18.6z M2.1,19.1
					C2.1,19.1,2.1,19.1,2.1,19.1C2.1,19.1,2.1,19.1,2.1,19.1C2.1,19.1,2.1,19.1,2.1,19.1C2.1,19.1,2.1,19.1,2.1,19.1L2.1,19.1z
					 M1.6,20.6L1.6,20.6C1.6,20.7,1.6,20.7,1.6,20.6C1.6,20.7,1.6,20.6,1.6,20.6L1.6,20.6z M1.5,22.8L1.5,22.8L1.5,22.8L1.5,22.8z
					 M1.5,23.5c0.1,0,0.2,0.1,0.3,0.1c0,0-0.1,0.1-0.1,0.1c-0.1,0-0.2,0-0.5,0C1.3,23.5,1.4,23.5,1.5,23.5L1.5,23.5z M1.6,24.6
					L1.6,24.6L1.6,24.6L1.6,24.6L1.6,24.6z M1,22.5L1,22.5l0,0.1C1,22.6,1,22.5,1,22.5C1,22.5,1,22.5,1,22.5L1,22.5z M0.9,32.2
					C0.9,32.2,0.9,32.2,0.9,32.2C0.9,32.2,0.9,32.2,0.9,32.2C0.9,32.2,0.8,32.2,0.9,32.2C0.8,32.2,0.9,32.2,0.9,32.2L0.9,32.2z
					 M0.8,32.4L0.8,32.4L0.8,32.4L0.8,32.4z M0.7,30L0.7,30L0.7,30L0.7,30z M0.3,24.8L0.3,24.8L0.3,24.8L0.3,24.8z M0.2,32.6
					L0.2,32.6L0.2,32.6C0.1,32.6,0.2,32.6,0.2,32.6C0.2,32.6,0.2,32.6,0.2,32.6L0.2,32.6z M0.1,30.2L0.1,30.2L0.1,30.2
					C0.1,30.3,0.1,30.3,0.1,30.2L0.1,30.2z M0,32.6L0,32.6L0,32.6L0,32.6L0,32.6z M-0.2,29.7C-0.2,29.7-0.2,29.7-0.2,29.7
					C-0.1,29.7-0.1,29.8-0.2,29.7C-0.2,29.8-0.2,29.7-0.2,29.7C-0.2,29.7-0.2,29.7-0.2,29.7L-0.2,29.7z M-0.3,30.8l0.1,0
					C-0.2,30.8-0.2,30.9-0.3,30.8C-0.2,30.9-0.2,30.8-0.3,30.8L-0.3,30.8z M-0.3,30.3L-0.3,30.3L-0.3,30.3L-0.3,30.3z M-0.6,27.7
					C-0.6,27.7-0.5,27.7-0.6,27.7L-0.6,27.7C-0.6,27.8-0.6,27.7-0.6,27.7C-0.6,27.7-0.6,27.7-0.6,27.7L-0.6,27.7z M-0.6,33.8
					L-0.6,33.8L-0.6,33.8L-0.6,33.8L-0.6,33.8z M-0.5,31.7L-0.5,31.7L-0.5,31.7C-0.5,31.6-0.5,31.7-0.5,31.7
					C-0.5,31.7-0.5,31.7-0.5,31.7L-0.5,31.7z M-0.3,32.6l0.1,0c0,0-0.1,0.1-0.1,0.1s-0.1,0-0.1-0.1L-0.3,32.6z M-0.3,34.7
					C-0.3,34.7-0.3,34.7-0.3,34.7c0-0.1,0-0.1,0-0.1C-0.3,34.6-0.2,34.6-0.3,34.7C-0.2,34.7-0.3,34.7-0.3,34.7L-0.3,34.7z
					 M-0.4,33.7L-0.4,33.7C-0.3,33.7-0.3,33.7-0.4,33.7C-0.3,33.7-0.3,33.7-0.4,33.7C-0.3,33.7-0.3,33.7-0.4,33.7L-0.4,33.7z
					 M-0.3,33.6L-0.3,33.6L-0.3,33.6C-0.2,33.6-0.2,33.6-0.3,33.6C-0.2,33.6-0.2,33.6-0.3,33.6L-0.3,33.6z M-0.1,33.8
					C-0.1,33.8-0.2,33.8-0.1,33.8C-0.1,33.8-0.1,33.7-0.1,33.8C-0.1,33.7-0.1,33.8-0.1,33.8C-0.1,33.8-0.1,33.8-0.1,33.8L-0.1,33.8z
					 M0,34.5L0,34.5L0,34.5L0,34.5L0,34.5L0,34.5L0,34.5z M0,33.7c0-0.1-0.1-0.2-0.2-0.3c0-0.1-0.2-0.1-0.1-0.2
					c0.1-0.1,0.1-0.3,0.3-0.2c0.1,0,0.2,0.1,0.2,0.2c0.1,0.2,0,0.4,0,0.6c0,0,0,0-0.1,0.1C0,33.7,0,33.7,0,33.7L0,33.7z M0.2,34.2
					L0.2,34.2L0.2,34.2L0.2,34.2L0.2,34.2L0.2,34.2L0.2,34.2l-0.1,0.1l0,0L0.2,34.2L0.2,34.2L0.2,34.2L0.2,34.2L0.2,34.2L0.2,34.2z
					 M0.3,33.7C0.3,33.6,0.3,33.6,0.3,33.7c0.1-0.1,0.1,0,0.1,0L0.3,33.7L0.3,33.7z M0.4,34.6C0.4,34.6,0.4,34.6,0.4,34.6
					C0.4,34.6,0.4,34.6,0.4,34.6L0.4,34.6z M0.6,30.8l0,0.1l0,0l0,0h0l0,0v0L0.6,30.8L0.6,30.8z M0.6,33.9L0.6,33.9L0.6,33.9
					L0.6,33.9z M0.6,34.5C0.6,34.5,0.6,34.5,0.6,34.5C0.6,34.5,0.6,34.5,0.6,34.5c0-0.1,0-0.1,0.1-0.1l0,0
					C0.7,34.4,0.7,34.5,0.6,34.5L0.6,34.5z M0.9,34.3L0.9,34.3L0.9,34.3L0.9,34.3z M0.8,33.8c0,0,0,0-0.1,0c0.1,0,0.1-0.1,0.2-0.1
					c0,0,0,0,0.1,0C0.9,33.7,0.8,33.8,0.8,33.8L0.8,33.8z M0.8,32.2C0.9,32.2,1,32.1,1,32.1c0,0,0.1,0,0.1,0c0,0,0,0,0,0
					c-0.1,0-0.1,0.1-0.2,0.1C0.9,32.3,0.9,32.3,0.8,32.2L0.8,32.2z M1.1,34.4C1.1,34.4,1.1,34.4,1.1,34.4l0-0.1l0,0h0v0
					C1.2,34.3,1.2,34.4,1.1,34.4L1.1,34.4z M1.1,34.1L1.1,34.1L1.1,34.1L1.1,34.1z M1.2,33.9L1.2,33.9L1.2,33.9L1.2,33.9z M1.4,34.4
					c0,0,0,0.1,0,0.1h0L1.4,34.4L1.4,34.4L1.4,34.4L1.4,34.4C1.4,34.4,1.3,34.4,1.4,34.4C1.3,34.4,1.3,34.4,1.4,34.4
					C1.3,34.3,1.3,34.3,1.4,34.4C1.3,34.4,1.4,34.4,1.4,34.4L1.4,34.4L1.4,34.4z M1.3,30.3L1.3,30.3L1.3,30.3L1.3,30.3z M1.3,30.2
					L1.3,30.2L1.3,30.2L1.3,30.2z M1.4,29.4C1.4,29.4,1.5,29.4,1.4,29.4c0,0.1,0,0.1,0,0.1v0l0,0l0,0c0,0,0,0,0,0L1.4,29.4
					C1.4,29.4,1.4,29.4,1.4,29.4L1.4,29.4z M1.4,28.9C1.4,28.9,1.4,28.9,1.4,28.9C1.4,28.9,1.4,28.9,1.4,28.9
					C1.4,28.9,1.4,28.9,1.4,28.9C1.4,28.9,1.4,28.9,1.4,28.9L1.4,28.9z M1.4,28.6L1.4,28.6C1.5,28.6,1.5,28.6,1.4,28.6
					C1.5,28.6,1.5,28.6,1.4,28.6L1.4,28.6z M1.3,29.4L1.3,29.4C1.3,29.4,1.3,29.4,1.3,29.4C1.4,29.4,1.4,29.4,1.3,29.4L1.3,29.4z
					 M1.4,30.4L1.4,30.4L1.4,30.4L1.4,30.4z M1.4,30C1.4,30,1.3,30,1.4,30c0-0.1,0-0.2,0-0.2c0,0,0-0.1,0.1-0.1l0.1,0.1
					C1.5,29.9,1.5,29.9,1.4,30C1.4,30,1.4,30,1.4,30L1.4,30z M1.5,33.3L1.5,33.3L1.5,33.3L1.5,33.3C1.5,33.3,1.5,33.3,1.5,33.3
					C1.5,33.3,1.5,33.3,1.5,33.3L1.5,33.3L1.5,33.3L1.5,33.3L1.5,33.3z M1.6,31.7L1.6,31.7L1.6,31.7L1.6,31.7z M1.6,30.1
					c0,0-0.1,0-0.1-0.1c0,0,0.1-0.1,0.1-0.1C1.6,30,1.6,30.1,1.6,30.1C1.6,30.1,1.6,30.1,1.6,30.1L1.6,30.1z M1.6,33.2
					C1.6,33.2,1.6,33.2,1.6,33.2L1.6,33.2C1.6,33.2,1.6,33.2,1.6,33.2C1.6,33.2,1.6,33.2,1.6,33.2L1.6,33.2z M1.2,28.3
					c-0.1,0.1-0.1-0.1-0.1-0.3c0-0.2,0.1-0.2,0.3-0.2s0.2,0.1,0.3,0.3C1.7,28.4,1.4,28.2,1.2,28.3L1.2,28.3z M1.7,26.3
					C1.7,26.3,1.7,26.3,1.7,26.3L1.7,26.3L1.7,26.3C1.7,26.3,1.7,26.3,1.7,26.3L1.7,26.3z M1.6,25L1.6,25c-0.1-0.1,0-0.1,0-0.2
					c0,0,0,0,0,0C1.7,24.9,1.7,25,1.6,25L1.6,25z M1.8,30L1.8,30L1.8,30L1.8,30l-0.1,0.3C1.7,30.2,1.8,30.1,1.8,30L1.8,30z
					 M1.8,33.1C1.8,33.1,1.8,33.1,1.8,33.1l0-0.1L1.8,33.1C1.9,33.1,1.9,33.1,1.8,33.1L1.8,33.1z M2,31.5L2,31.5
					C2,31.5,2,31.5,2,31.5L2,31.5L2,31.5L2,31.5z M2.1,26.5L2.1,26.5C2.1,26.5,2.1,26.5,2.1,26.5C2.1,26.5,2.1,26.5,2.1,26.5
					L2.1,26.5z M2.2,33.7L2.2,33.7C2.2,33.6,2.2,33.6,2.2,33.7C2.2,33.6,2.2,33.6,2.2,33.7L2.2,33.7z M2.2,32.7
					C2.2,32.7,2.2,32.6,2.2,32.7C2.2,32.6,2.2,32.6,2.2,32.7C2.2,32.6,2.2,32.6,2.2,32.7C2.2,32.7,2.2,32.7,2.2,32.7L2.2,32.7z
					 M2.3,26.6L2.3,26.6C2.4,26.5,2.4,26.5,2.3,26.6C2.4,26.5,2.4,26.6,2.3,26.6L2.3,26.6z M2.5,31.5C2.5,31.5,2.4,31.4,2.5,31.5
					C2.5,31.4,2.5,31.4,2.5,31.5L2.5,31.5C2.5,31.4,2.5,31.4,2.5,31.5L2.5,31.5z M2.6,32.3L2.6,32.3L2.6,32.3L2.6,32.3L2.6,32.3z
					 M2.6,28.3L2.6,28.3C2.6,28.2,2.6,28.2,2.6,28.3C2.7,28.2,2.7,28.2,2.6,28.3L2.6,28.3z M2,23.5c0-0.1,0.1-0.2,0.1-0.2
					c0.2,0,0.4,0,0.6-0.1c0,0,0,0.1,0,0.1L2,23.5z M2.8,32.3L2.8,32.3C2.8,32.3,2.8,32.3,2.8,32.3C2.8,32.3,2.8,32.3,2.8,32.3
					L2.8,32.3z M2.9,22.7L2.9,22.7C2.9,22.7,2.9,22.7,2.9,22.7C2.9,22.7,2.9,22.7,2.9,22.7L2.9,22.7z M3.3,22L3.3,22L3.3,22L3.3,22
					l-0.2,0.1L3,22.1L3.3,22z M3.3,29.4C3.3,29.4,3.4,29.4,3.3,29.4C3.4,29.4,3.3,29.4,3.3,29.4C3.3,29.4,3.3,29.4,3.3,29.4
					L3.3,29.4z M3.3,25C3.3,25,3.4,25,3.3,25c0.1,0,0.1,0,0.1,0l0,0v0v0l0,0L3.3,25L3.3,25C3.4,25,3.4,25,3.3,25
					C3.4,25,3.3,25,3.3,25L3.3,25z M3,32.6L3,32.6L3,32.6L3,32.6z M3.1,33.9L3.1,33.9L3.1,33.9C3.1,33.9,3.1,33.9,3.1,33.9
					C3.1,33.9,3.1,33.9,3.1,33.9L3.1,33.9z M3.1,27.4L3.1,27.4C3.1,27.3,3.1,27.3,3.1,27.4C3.1,27.3,3.1,27.3,3.1,27.4
					C3.1,27.3,3.1,27.3,3.1,27.4L3.1,27.4z M3.1,30.9L3.1,30.9L3.1,30.9C3.2,30.8,3.2,30.8,3.1,30.9C3.2,30.9,3.2,30.9,3.1,30.9
					L3.1,30.9z M3.2,24.3c0,0-0.1-0.1-0.1-0.1c0,0,0-0.1,0.1-0.1c0.1,0,0.1,0.1,0.1,0.1S3.3,24.3,3.2,24.3L3.2,24.3z M3.3,34.1
					L3.3,34.1L3.3,34.1C3.3,34.1,3.3,34.1,3.3,34.1C3.2,34.1,3.3,34.1,3.3,34.1L3.3,34.1z M3.3,34.5C3.3,34.5,3.3,34.5,3.3,34.5
					C3.3,34.5,3.3,34.5,3.3,34.5L3.3,34.5L3.3,34.5z M3.5,34.4c-0.1,0-0.1,0-0.2-0.1c0.1,0,0.1,0,0.2,0c0.1,0,0.1,0,0.2,0
					C3.6,34.3,3.5,34.4,3.5,34.4L3.5,34.4z M3.5,28.3l0-0.1h0l0,0h0L3.5,28.3L3.5,28.3C3.5,28.3,3.5,28.3,3.5,28.3
					c0,0.1-0.1,0.1-0.1,0.1C3.5,28.4,3.5,28.3,3.5,28.3C3.5,28.3,3.5,28.3,3.5,28.3L3.5,28.3L3.5,28.3L3.5,28.3z M3.6,24.6L3.6,24.6
					C3.6,24.6,3.6,24.6,3.6,24.6C3.6,24.7,3.6,24.7,3.6,24.6L3.6,24.6z M3.5,33.7C3.5,33.7,3.5,33.7,3.5,33.7
					C3.5,33.7,3.5,33.7,3.5,33.7L3.5,33.7L3.5,33.7z M3.7,30.9L3.7,30.9l0-0.1C3.7,30.8,3.7,30.8,3.7,30.9
					C3.7,30.8,3.7,30.9,3.7,30.9L3.7,30.9z M3.7,22.8L3.7,22.8C3.7,22.8,3.7,22.8,3.7,22.8C3.7,22.9,3.7,22.9,3.7,22.8L3.7,22.8z
					 M4,34.4l-0.2-0.1L4,34.2c0,0,0.1,0.1,0.1,0.1C4.1,34.3,4,34.4,4,34.4L4,34.4z M3.9,32.7L3.9,32.7L3.9,32.7L3.9,32.7z M3.9,32.8
					L3.9,32.8L3.9,32.8L3.9,32.8z M3.9,24.6L3.9,24.6L3.9,24.6l0.2-0.1l0.2,0.3c-0.1,0-0.1,0.1-0.2,0.1C4,24.8,4,24.7,3.9,24.6
					L3.9,24.6L3.9,24.6z M4.2,23.6L4.2,23.6L4.2,23.6C4.2,23.7,4.2,23.7,4.2,23.6C4.2,23.7,4.2,23.6,4.2,23.6L4.2,23.6z M4,31.4
					C4,31.4,4,31.4,4,31.4L4,31.4L4,31.4C4,31.4,4,31.4,4,31.4L4,31.4z M3.9,33.5L3.9,33.5C4,33.5,4,33.5,3.9,33.5
					C4,33.5,4,33.5,3.9,33.5L3.9,33.5z M4.1,32C4.1,32.1,4.1,32.1,4.1,32l-0.1,0.2c0,0-0.1,0-0.1,0c0,0,0,0,0-0.1L3.9,32L4.1,32
					C4,32,4.1,32,4.1,32c0-0.1,0-0.2,0-0.2L4.1,32C4.1,32,4.1,32,4.1,32L4.1,32z M4.2,31.6C4.2,31.6,4.2,31.6,4.2,31.6L4.2,31.6
					L4.2,31.6C4.2,31.6,4.2,31.6,4.2,31.6L4.2,31.6z M4.3,34.7L4.3,34.7l0-0.2C4.3,34.6,4.3,34.6,4.3,34.7
					C4.3,34.6,4.3,34.6,4.3,34.7L4.3,34.7z M4.2,34.1C4.2,34.1,4.2,34,4.2,34.1c0-0.1,0-0.2,0.1-0.2c0,0,0,0.1,0,0.1
					C4.3,34,4.3,34,4.2,34.1L4.2,34.1z M4.3,24L4.3,24C4.3,24,4.3,24,4.3,24C4.3,24,4.3,24,4.3,24C4.3,24,4.3,24,4.3,24L4.3,24z
					 M4.4,32.1L4.4,32.1L4.4,32.1L4.4,32.1z M4.4,23.3c-0.1,0-0.1,0-0.1-0.1c0,0,0,0,0,0c0,0,0,0,0,0c0,0,0,0,0,0
					C4.4,23.2,4.5,23.2,4.4,23.3C4.5,23.3,4.4,23.3,4.4,23.3L4.4,23.3z M4.3,22.6L4.3,22.6L4.3,22.6C4.4,22.6,4.4,22.6,4.3,22.6
					C4.3,22.6,4.3,22.6,4.3,22.6L4.3,22.6z M4.4,22c-0.1,0.1-0.2,0.2-0.1,0.3c0,0.2-0.1,0.3-0.2,0.3c-0.1,0.1-0.2,0-0.2-0.1
					c0.2-0.3-0.1-0.3-0.2-0.3c-0.4-0.1-0.3-0.5-0.5-0.6c0-0.1,0.1-0.1,0.1-0.2c0,0,0.1,0,0.1,0c0,0,0,0,0,0c0,0.1,0,0.1,0.1,0.2
					c0.1,0,0.1-0.2,0.2-0.3c0.1-0.2,0.2-0.2,0.3,0c0.1,0.1,0.2,0.3,0.4,0.3C4.4,21.7,4.6,21.9,4.4,22L4.4,22z M4.5,17
					C4.5,17,4.5,17,4.5,17C4.5,17,4.5,17,4.5,17L4.5,17L4.5,17z M4.6,33.7L4.6,33.7L4.6,33.7L4.6,33.7L4.6,33.7L4.6,33.7z M4.6,31.3
					C4.6,31.3,4.6,31.3,4.6,31.3C4.6,31.3,4.6,31.3,4.6,31.3C4.6,31.4,4.6,31.4,4.6,31.3C4.6,31.4,4.6,31.3,4.6,31.3L4.6,31.3z
					 M4.8,32L4.8,32l-0.1,0h0h0v0l0,0L4.8,32L4.8,32L4.8,32L4.8,32L4.8,32L4.8,32C4.8,31.9,4.8,31.9,4.8,32l0.4-0.2l0,0.1L4.8,32
					C4.8,31.9,4.8,31.9,4.8,32L4.8,32L4.8,32L4.8,32L4.8,32z M5,32C5,32,5,32,5,32L5,32L5,32C5,32,5,32,5,32L5,32z M4.8,34.4
					L4.8,34.4L4.8,34.4L4.8,34.4L4.8,34.4z M5,33.8l-0.1-0.1L5,33.6c0,0,0.1,0.1,0.1,0.1C5,33.8,5,33.8,5,33.8L5,33.8z M5.1,32.5
					L5,32.3l0.1-0.1C5.1,32.2,5.1,32.3,5.1,32.5C5.1,32.4,5.1,32.5,5.1,32.5L5.1,32.5z M5.4,32.6l-0.2-0.1c0.1,0,0.1-0.1,0.2-0.1
					c0.1,0,0.1,0.1,0.2,0.1L5.4,32.6z M5.5,31.7l-0.1,0.1l0,0c0,0,0,0,0,0c0,0,0,0,0,0c0,0,0,0,0,0c0,0,0,0,0,0
					C5.4,31.7,5.5,31.7,5.5,31.7C5.5,31.7,5.5,31.7,5.5,31.7L5.5,31.7z M5.5,29L5.5,29L5.5,29L5.5,29z M5.4,29.6L5.4,29.6L5.4,29.6
					L5.4,29.6L5.4,29.6L5.4,29.6L5.4,29.6L5.4,29.6z M5.5,25.9c-0.1,0-0.1,0-0.2-0.1h0v0l0,0c0,0,0,0,0,0c0,0,0,0,0,0l0,0l0,0
					c0,0,0,0,0,0C5.4,25.8,5.4,25.8,5.5,25.9C5.5,25.8,5.5,25.9,5.5,25.9L5.5,25.9z M5.3,26.9c0.1,0,0.1,0,0.2,0.1l-0.1,0.1
					L5.3,26.9C5.3,26.9,5.3,26.9,5.3,26.9L5.3,26.9z M5.3,29.4L5.3,29.4L5.3,29.4L5.3,29.4z M5.6,27.5L5.6,27.5L5.6,27.5L5.6,27.5
					L5.6,27.5L5.6,27.5L5.6,27.5L5.6,27.5L5.6,27.5L5.6,27.5z M5.2,24.9l-0.1-0.1c0-0.3,0-0.5,0.4-0.5c0.1,0,0.1,0.1,0.2,0.1
					L5.2,24.9z M5.8,31.9C5.8,31.9,5.8,31.9,5.8,31.9c0-0.1,0-0.1,0-0.1c0,0,0.1,0,0.1,0.1C5.9,31.9,5.9,31.9,5.8,31.9L5.8,31.9z
					 M5.9,21.1L5.9,21.1L5.9,21.1L5.9,21.1z M6.1,22.1C6.1,22.1,6,22.1,6.1,22.1L6.1,22.1L6.1,22.1C6.1,22.1,6.1,22.1,6.1,22.1
					L6.1,22.1z M6.1,16.7C6.1,16.7,6.1,16.7,6.1,16.7C6.1,16.7,6.1,16.7,6.1,16.7L6.1,16.7L6.1,16.7z M8.8,28.7
					C8.8,28.7,8.8,28.8,8.8,28.7c0,0.1,0,0.1,0,0.1C8.8,28.8,8.7,28.8,8.8,28.7C8.8,28.7,8.8,28.7,8.8,28.7z M11.3,21
					C11.3,21,11.3,21,11.3,21C11.3,21,11.3,21,11.3,21C11.3,21,11.3,21,11.3,21C11.3,21,11.3,21,11.3,21L11.3,21z M10,22.3L10,22.3
					L10,22.3L10,22.3L10,22.3L10,22.3L10,22.3L10,22.3z M9.9,25.4L9.9,25.4C9.9,25.5,9.9,25.5,9.9,25.4C9.9,25.5,9.9,25.5,9.9,25.4
					L9.9,25.4z M9,16.8L9,16.8c0.1,0,0.1,0,0.1,0.1c0,0,0,0,0,0L9,16.8L9,16.8L9,16.8z M8.9,17.1C8.9,17.1,8.9,17.1,8.9,17.1
					C8.9,17.1,8.9,17.1,8.9,17.1C8.9,17.1,8.9,17.1,8.9,17.1C8.9,17.1,8.9,17.1,8.9,17.1L8.9,17.1z M8.8,16.5
					C8.8,16.5,8.8,16.5,8.8,16.5C8.8,16.5,8.8,16.5,8.8,16.5L8.8,16.5L8.8,16.5z M8.2,19.1C8.2,19.1,8.3,19.1,8.2,19.1
					C8.3,19.1,8.3,19.1,8.2,19.1L8.2,19.1L8.2,19.1z M8.3,20.3l0,0.2c0,0,0,0,0,0C8.2,20.4,8.2,20.4,8.3,20.3L8.3,20.3z M8.1,18.3
					c0,0-0.1,0.1-0.1,0.1c-0.1-0.1-0.1-0.2-0.2-0.3l0,0l0,0l0,0l-0.1,0c0,0,0,0,0,0c0,0,0.1,0,0.1,0h0.1l0,0L8.1,18.3z M8.1,24.5
					C8.1,24.5,8.1,24.5,8.1,24.5c-0.1,0-0.1,0-0.1,0L8.1,24.5L8.1,24.5z M8,21.7L8,21.7L8,21.7L8,21.7z M7.9,25.6L7.9,25.6L7.9,25.6
					L7.9,25.6z M7.7,21.7L7.7,21.7L7.7,21.7L7.7,21.7L7.7,21.7c0-0.1,0-0.2-0.1-0.3c0,0,0-0.1,0-0.1c0,0,0.1,0,0.1,0.1
					C7.7,21.5,7.7,21.6,7.7,21.7L7.7,21.7z M7.8,17.1c0,0,0.1,0.1,0.1,0.1c0,0,0,0-0.1,0C7.8,17.2,7.8,17.2,7.8,17.1
					C7.8,17.2,7.8,17.1,7.8,17.1L7.8,17.1z M7.7,17.5C7.7,17.5,7.7,17.6,7.7,17.5c0,0.1,0,0.1-0.1,0.1c-0.1,0-0.1,0-0.2-0.1
					C7.6,17.5,7.6,17.5,7.7,17.5L7.7,17.5z M7.2,23.6C7.2,23.6,7.3,23.6,7.2,23.6C7.3,23.6,7.3,23.6,7.2,23.6
					C7.3,23.7,7.3,23.7,7.2,23.6C7.2,23.7,7.2,23.7,7.2,23.6L7.2,23.6z M7.5,24.8c0,0.2-0.1,0.4-0.2,0.5l-0.5-0.5
					c0.1-0.2,0.3-0.2,0.4-0.4C7.2,24.5,7.5,24.5,7.5,24.8L7.5,24.8z M7,27.4L7,27.4l-0.2,0c0,0,0,0,0,0C6.9,27.3,7,27.4,7,27.4z
					 M6.9,25.9C6.9,25.9,6.9,25.9,6.9,25.9C7,25.9,7,25.9,6.9,25.9C7,25.9,7,26,6.9,25.9C6.9,26,6.9,25.9,6.9,25.9L6.9,25.9z
					 M6.8,24.3L6.8,24.3C6.8,24.3,6.8,24.3,6.8,24.3C6.8,24.3,6.8,24.3,6.8,24.3L6.8,24.3z M6.9,24.5L6.9,24.5L6.9,24.5L6.9,24.5z
					 M7,24.3C7,24.3,7,24.2,7,24.3c0.1-0.1,0.1-0.1,0.2,0C7.1,24.3,7.1,24.3,7,24.3C7,24.3,7,24.3,7,24.3L7,24.3z M7.2,24.1
					c0,0.1,0,0.1-0.1,0.1s-0.2-0.1-0.2-0.1C6.9,24,7,23.9,7,23.9C7.1,23.9,7.1,24,7.2,24.1L7.2,24.1z M7,19.7C7,19.7,7,19.7,7,19.7
					C7,19.7,7,19.7,7,19.7L7,19.7L7,19.7z M6.9,17.3c0,0,0,0.1,0.1,0.1c0,0,0,0.1-0.1,0.1L6.9,17.3L6.9,17.3z M6.9,19L6.9,19L6.9,19
					L6.9,19c0,0-0.1,0.1-0.2,0.1c0,0,0,0-0.1,0L6.9,19z M6.5,23.6C6.5,23.6,6.5,23.6,6.5,23.6C6.5,23.6,6.5,23.6,6.5,23.6L6.5,23.6
					L6.5,23.6z M6.5,29.2C6.5,29.3,6.5,29.3,6.5,29.2c-0.1,0-0.1,0-0.1,0c0,0,0-0.1,0-0.1c0,0,0-0.1,0-0.1c0,0,0,0,0.1,0.1
					C6.5,29.2,6.5,29.2,6.5,29.2L6.5,29.2z M6.4,22C6.4,22,6.4,22,6.4,22C6.4,22,6.4,22,6.4,22C6.3,22,6.3,22,6.4,22
					C6.3,22,6.4,22,6.4,22L6.4,22z M6.3,22.1C6.3,22.1,6.3,22.2,6.3,22.1L6.3,22.1C6.3,22.2,6.2,22.2,6.3,22.1
					C6.2,22.2,6.2,22.2,6.3,22.1L6.3,22.1z M6.5,32.4c-0.1,0-0.2,0-0.3,0c0,0,0,0-0.1,0c0,0,0-0.1,0.1-0.1c0.1,0,0.2,0,0.3,0
					C6.5,32.4,6.5,32.4,6.5,32.4L6.5,32.4z M6.6,29.5C6.5,29.5,6.5,29.5,6.6,29.5C6.5,29.4,6.5,29.4,6.6,29.5
					C6.6,29.4,6.6,29.4,6.6,29.5C6.6,29.5,6.6,29.5,6.6,29.5L6.6,29.5z M6.6,16.7L6.6,16.7L6.6,16.7L6.6,16.7z M6.8,21.5l0.1,0.1
					c-0.1,0.1-0.2,0.1-0.3,0L6.8,21.5z M6.8,28.9L6.8,28.9c0,0-0.1-0.1-0.1-0.1l0,0L6.8,28.9L6.8,28.9L6.8,28.9z M6.9,32.7
					C6.9,32.7,6.9,32.7,6.9,32.7C6.9,32.7,6.9,32.7,6.9,32.7C6.9,32.7,7,32.7,6.9,32.7C7,32.7,6.9,32.7,6.9,32.7L6.9,32.7z M7,32.4
					C7,32.5,7,32.5,7,32.4c0,0,0-0.1,0-0.1l0,0C7,32.4,7,32.4,7,32.4L7,32.4z M7,31.7c0-0.1,0-0.1-0.1-0.2c0,0,0,0,0.1-0.1
					c0,0,0.1,0,0.1,0.1C7.1,31.6,7.1,31.6,7,31.7L7,31.7z M7.1,30.9L7.1,30.9L7.1,30.9L7.1,30.9z M7.1,27.7
					C7.1,27.7,7.1,27.7,7.1,27.7C7.1,27.7,7.1,27.7,7.1,27.7C7.1,27.7,7.1,27.7,7.1,27.7C7.1,27.7,7.1,27.7,7.1,27.7L7.1,27.7z
					 M7.2,32.3L7.2,32.3L7.2,32.3L7.2,32.3z M7.5,26.9C7.5,26.9,7.5,26.9,7.5,26.9C7.5,26.9,7.5,26.9,7.5,26.9
					C7.5,26.9,7.5,26.9,7.5,26.9C7.5,26.9,7.5,26.9,7.5,26.9L7.5,26.9z M8,28.3C8,28.3,8,28.3,8,28.3c0.1,0,0.1,0,0.1,0L8,28.3z
					 M7.9,26.1c-0.2,0-0.1-0.1-0.1-0.2h0l0,0l0,0l0,0l-0.1,0c-0.1,0-0.1,0.1-0.1,0.2h0l0,0l0,0l0,0c0,0-0.1,0-0.1,0.1c0,0,0,0,0,0
					c-0.1,0-0.2,0.1-0.4,0.1l0,0l0,0l0,0c0.1-0.1,0.2-0.2,0.3-0.2c0,0,0,0,0,0c0,0,0,0,0-0.1c0,0,0,0,0-0.1l0,0l0,0v0v0h0l0,0l0,0
					l0,0v0l0,0l0,0c0-0.1,0-0.1-0.2-0.1c-0.2,0-0.1-0.1,0-0.2l0,0l-0.1,0h0.1v0c0.1,0,0.2,0.1,0.2-0.1l0,0v0v0c0.1,0.1,0.2,0,0.3,0
					c0.1,0,0.2,0.1,0.1,0.2l0,0l0,0c0,0,0.1,0,0.1,0c0.1,0,0.2-0.1,0.2,0.1S8,26.1,7.9,26.1L7.9,26.1z M7.2,26.2
					C7.2,26.2,7.2,26.2,7.2,26.2C7.2,26.2,7.2,26.2,7.2,26.2L7.2,26.2L7.2,26.2z M8.1,25.4L8.1,25.4l0.1-0.1
					C8.2,25.3,8.2,25.3,8.1,25.4C8.2,25.4,8.1,25.4,8.1,25.4L8.1,25.4z M8.2,21.3L8.2,21.3L8.2,21.3L8.2,21.3z M8.2,25.8
					C8.2,25.8,8.2,25.8,8.2,25.8L8.2,25.8L8.2,25.8C8.3,25.8,8.2,25.8,8.2,25.8L8.2,25.8z M8.3,24.8L8.3,24.8L8.3,24.8L8.3,24.8z
					 M8.4,21.6c0,0-0.1-0.1-0.1-0.1c0-0.1,0-0.1,0.1-0.2l0.1,0.1L8.4,21.6z M8.4,20C8.4,20,8.4,19.9,8.4,20
					C8.4,19.9,8.4,19.9,8.4,20C8.4,20,8.4,20,8.4,20L8.4,20z M8.5,22.1L8.5,22.1L8.5,22.1C8.5,22.1,8.5,22.1,8.5,22.1
					C8.5,22.1,8.5,22.1,8.5,22.1L8.5,22.1z M8.5,18.2L8.5,18.2L8.5,18.2L8.5,18.2L8.5,18.2z M8.6,29.1C8.6,29.1,8.6,29.1,8.6,29.1
					C8.6,29.1,8.6,29,8.6,29.1C8.6,29.1,8.6,29.1,8.6,29.1C8.6,29.1,8.6,29.1,8.6,29.1L8.6,29.1z M8.6,26.8
					C8.6,26.8,8.5,26.8,8.6,26.8C8.5,26.7,8.5,26.7,8.6,26.8C8.6,26.7,8.6,26.7,8.6,26.8C8.6,26.8,8.6,26.8,8.6,26.8L8.6,26.8z
					 M8.8,24.6c-0.1,0-0.2,0-0.3,0c0,0,0,0-0.1,0c0,0,0.1,0,0.1,0C8.7,24.5,8.7,24.6,8.8,24.6L8.8,24.6z M8.6,22.1
					C8.6,22.1,8.6,22,8.6,22.1C8.6,22,8.6,22.1,8.6,22.1C8.7,22.1,8.6,22.1,8.6,22.1C8.6,22.1,8.6,22.1,8.6,22.1L8.6,22.1z
					 M9.1,21.1L9.1,21.1L9.1,21.1L9.1,21.1L9.1,21.1L9.1,21.1L9.1,21.1z M9.1,18.6C9.1,18.6,9.1,18.6,9.1,18.6
					C9.1,18.6,9.1,18.6,9.1,18.6C9.1,18.6,9.1,18.6,9.1,18.6C9.1,18.6,9.1,18.6,9.1,18.6L9.1,18.6z M9.2,20.6
					C9.2,20.6,9.2,20.6,9.2,20.6L9.2,20.6C9.2,20.6,9.2,20.6,9.2,20.6C9.2,20.6,9.2,20.6,9.2,20.6L9.2,20.6z M9.2,19.1
					C9.2,19.1,9.2,19,9.2,19.1C9.2,19,9.2,19,9.2,19.1C9.2,19,9.2,19,9.2,19.1C9.2,19,9.2,19,9.2,19.1L9.2,19.1z M9.4,24.7
					C9.3,24.7,9.3,24.7,9.4,24.7L9.4,24.7L9.4,24.7C9.4,24.7,9.4,24.7,9.4,24.7L9.4,24.7z M9.7,26L9.7,26C9.6,25.9,9.7,25.9,9.7,26
					C9.7,25.9,9.7,25.9,9.7,26L9.7,26z M9.6,23.4c0,0.1,0.1,0.3,0.1,0.4l-0.1,0.1c0,0-0.1-0.1-0.1-0.1c0-0.1-0.1-0.3-0.1-0.4
					C9.5,23.4,9.5,23.3,9.6,23.4C9.6,23.3,9.6,23.3,9.6,23.4L9.6,23.4z M9.6,23L9.6,23L9.6,23L9.6,23z M9.6,18.3c0,0,0,0.1,0,0.1
					c0,0,0,0,0,0c0,0-0.1,0-0.1,0c0,0-0.1-0.1-0.1-0.1c0,0.1-0.1,0.1-0.1,0.1c-0.2,0-0.5,0.2-0.6-0.2c0-0.1,0-0.1,0-0.2h0l0,0l0,0
					l0,0c-0.1,0-0.1,0-0.2,0C8.4,18,8.4,18,8.3,18c0,0,0-0.1,0-0.1c0.1,0,0.1,0,0.2,0.1c0.1,0,0.1,0.1,0.2,0.1h0c0,0,0,0,0,0
					c0.1,0,0.1,0,0.2,0C8.8,18,8.7,18,8.6,18s-0.1-0.1,0-0.2h0c0,0,0,0,0,0c0,0,0,0,0,0c0-0.1-0.2-0.2-0.1-0.3
					c0.1-0.1,0.2,0.1,0.3,0.2h0v0c0.3-0.1,0.5,0.1,0.7,0.1v0h0l0.1-0.1l0,0c0,0,0,0,0,0l0,0c0,0,0,0,0,0l0,0l0,0c0,0,0.1,0,0.1,0.1
					c-0.1,0.1-0.2,0.1-0.3,0l0,0l0,0C9.5,17.9,9.4,18.1,9.6,18.3L9.6,18.3z M9.8,18.5L9.8,18.5L9.8,18.5L9.8,18.5z M10,19.1
					c0,0-0.1,0-0.1-0.1c0,0,0-0.1,0-0.1C10,19,10,19.1,10,19.1C10,19.1,10,19.1,10,19.1L10,19.1z M10,17.3c-0.1,0-0.2-0.1-0.2-0.1
					c0-0.1,0-0.1,0.1-0.1C10,17.1,10.1,17.2,10,17.3C10.1,17.3,10,17.3,10,17.3L10,17.3z M10.3,18.3L10.3,18.3L10.3,18.3L10.3,18.3z
					 M10.6,17.9C10.6,17.9,10.6,17.9,10.6,17.9C10.6,17.8,10.7,17.8,10.6,17.9C10.7,17.8,10.7,17.9,10.6,17.9
					C10.7,17.9,10.7,17.9,10.6,17.9L10.6,17.9z M17.4,1.9L17.4,1.9l0-0.2c0,0,0,0,0,0l0,0c0,0,0,0,0,0c0,0,0,0,0,0h0c0,0,0,0,0,0
					C17.4,1.8,17.4,1.8,17.4,1.9L17.4,1.9z M16.9,0.6c0.1,0,0.2-0.1,0.2-0.1c0.2-0.3,0.3-0.1,0.4,0.1c0.1,0.1,0.1,0.2-0.1,0.2
					c-0.1,0-0.1,0-0.2,0C17,0.9,17,0.9,16.9,0.6L16.9,0.6C16.9,0.6,16.9,0.6,16.9,0.6L16.9,0.6z M5.8,13.3c0,0-0.1,0-0.1-0.1
					c0,0,0.1-0.1,0.1-0.1C5.8,13.2,5.9,13.2,5.8,13.3C5.9,13.3,5.8,13.3,5.8,13.3L5.8,13.3z M6.3,14.7C6.3,14.7,6.3,14.7,6.3,14.7
					C6.3,14.7,6.3,14.7,6.3,14.7C6.4,14.7,6.4,14.7,6.3,14.7C6.4,14.7,6.3,14.7,6.3,14.7L6.3,14.7z M6.3,14c-0.1,0-0.1,0-0.2-0.1
					l0-0.1c0,0,0.1,0,0.1,0C6.3,13.9,6.3,13.9,6.3,14C6.4,13.9,6.3,14,6.3,14L6.3,14z M6.3,13.3C6.3,13.3,6.3,13.3,6.3,13.3
					c0,0.1,0,0.1,0,0.1L6.3,13.3L6.3,13.3z M6.2,9.6C6.2,9.6,6.2,9.6,6.2,9.6C6.2,9.6,6.3,9.6,6.2,9.6L6.2,9.6L6.2,9.6z M6.4,13.5
					C6.4,13.5,6.3,13.5,6.4,13.5c0-0.1,0-0.1,0-0.1c0,0,0.1,0,0.1,0.1C6.5,13.5,6.4,13.6,6.4,13.5C6.4,13.6,6.4,13.5,6.4,13.5
					L6.4,13.5z M6.4,12.8L6.4,12.8L6.4,12.8L6.4,12.8z M6.7,13.8L6.7,13.8L6.7,13.8L6.7,13.8z M6.8,14.2L6.8,14.2L6.8,14.2
					C6.8,14.2,6.8,14.2,6.8,14.2C6.8,14.2,6.8,14.2,6.8,14.2L6.8,14.2z M6.9,15.1C6.9,15.1,6.9,15.1,6.9,15.1c-0.1-0.1,0-0.1,0-0.1
					C6.9,15,7,15,6.9,15.1C7,15.1,6.9,15.1,6.9,15.1L6.9,15.1z M6.9,14.5L6.9,14.5L6.9,14.5L6.9,14.5L6.9,14.5z M7.1,15.3
					C7.1,15.3,7.1,15.2,7.1,15.3L7.1,15.3L7.1,15.3C7.2,15.2,7.1,15.2,7.1,15.3L7.1,15.3z M7.1,15c0,0-0.1-0.1-0.1-0.1
					c0-0.2,0.1-0.2,0.2-0.2c0,0,0.1,0,0.1,0.1C7.3,15,7.2,15,7.1,15L7.1,15z M8.3,15.2C8.3,15.2,8.3,15.2,8.3,15.2
					C8.3,15.2,8.3,15.2,8.3,15.2C8.3,15.2,8.3,15.2,8.3,15.2C8.3,15.2,8.3,15.2,8.3,15.2L8.3,15.2z M8.4,13.8L8.4,13.8
					c-0.1,0.2-0.3,0.2-0.5,0.1c0,0-0.1,0-0.2,0c-0.2,0.3-0.5,0-0.7,0.1c-0.1,0-0.2,0-0.2-0.1c0,0,0,0,0,0c0-0.1,0-0.2,0.1-0.2
					c0,0,0.1-0.1,0.1-0.1c0-0.1,0.1-0.2,0.1-0.2c-0.1-0.1-0.1,0-0.2,0c-0.1,0.1-0.1,0-0.1-0.1l0,0l0,0c-0.1,0.1-0.2,0-0.3,0
					c0,0-0.1,0-0.1-0.1c0-0.1,0.1-0.1,0.1,0c0.1,0,0.1-0.1,0.2-0.2c0-0.1-0.1-0.2-0.1-0.3c0.1-0.1,0.2,0,0.3,0l0,0c0,0,0,0,0,0v0
					c0,0,0,0,0,0v0h0c0,0.3,0.4,0.4,0.4,0.7c0,0.1,0.1,0.1,0.1,0.1c0,0,0,0,0,0c0.1-0.1,0.2-0.1,0.3-0.1c0.1,0,0.2-0.2,0.2,0.1
					C8.1,13.5,8.3,13.7,8.4,13.8L8.4,13.8C8.4,13.8,8.4,13.8,8.4,13.8L8.4,13.8C8.3,13.9,8.3,13.8,8.4,13.8L8.4,13.8z M6.7,11.2
					L6.7,11.2L6.7,11.2L6.7,11.2z M6.8,12.2c0,0.1,0.1,0.1,0.1,0.1c0,0,0,0-0.1,0.1c0,0,0,0,0-0.1C6.7,12.3,6.7,12.2,6.8,12.2
					L6.8,12.2z M7,11.7L7,11.7L7,11.7L7,11.7z M7.1,9.2C7.1,9.2,7.1,9.2,7.1,9.2C7,9,7,8.9,7,8.8c0,0,0,0,0,0c0,0,0,0,0.1,0
					c0,0.1,0.1,0.1,0.1,0.2C7.2,9,7.1,9.1,7.1,9.2L7.1,9.2z M7.1,9.5C7.1,9.5,7.1,9.5,7.1,9.5L7.1,9.5L7.1,9.5
					C7.1,9.5,7.1,9.5,7.1,9.5L7.1,9.5z M7,9.7L7,9.7c0.1,0.1,0,0.1,0,0.1S7,9.8,7,9.7L7,9.7z M6.9,9.2L6.9,9.2L6.9,9.2L6.9,9.2z
					 M7,8.4C7,8.4,7.1,8.3,7,8.4c0.1-0.1,0.1,0,0.1,0L7,8.4L7,8.4z M7.2,8.5C7.2,8.5,7.2,8.5,7.2,8.5C7.2,8.5,7.2,8.5,7.2,8.5
					C7.2,8.6,7.2,8.6,7.2,8.5C7.2,8.6,7.1,8.5,7.2,8.5L7.2,8.5z M7.2,12.3C7.2,12.3,7.2,12.3,7.2,12.3L7.2,12.3
					C7.2,12.3,7.2,12.3,7.2,12.3C7.1,12.3,7.1,12.3,7.2,12.3L7.2,12.3z M7.8,12.9C7.8,12.9,7.8,12.9,7.8,12.9L7.2,13v-0.1L7.8,12.9z
					 M7.2,9.8L7.2,9.8L7.2,9.8L7.2,9.8z M7.5,10.9L7.5,10.9C7.5,11,7.5,11,7.5,10.9C7.4,11,7.4,11,7.5,10.9L7.5,10.9z M7.4,8.2
					L7.4,8.2L7.4,8.2L7.4,8.2z M7.7,8.9c0,0-0.1,0-0.1,0C7.6,8.8,7.6,8.8,7.7,8.9C7.6,8.8,7.6,8.8,7.7,8.9C7.7,8.8,7.7,8.9,7.7,8.9
					L7.7,8.9z M7.7,9.5L7.7,9.5C7.7,9.6,7.7,9.6,7.7,9.5c-0.1,0.1-0.1,0.1-0.1,0L7.7,9.5z M7.8,11.4C7.7,11.4,7.7,11.5,7.8,11.4
					c-0.1,0.1-0.2,0.1-0.3,0.1c0,0,0,0,0,0C7.5,11.5,7.6,11.4,7.8,11.4L7.8,11.4z M7.9,7.8c-0.1,0-0.1,0-0.1-0.1c0,0,0,0,0.1,0
					C7.9,7.7,8,7.7,7.9,7.8C8,7.7,7.9,7.8,7.9,7.8L7.9,7.8z M8,11.1C7.9,11.2,7.9,11.2,8,11.1c-0.1,0.1-0.1,0-0.1,0
					C7.9,11.1,7.9,11.1,8,11.1C7.9,11.1,7.9,11.1,8,11.1L8,11.1z M8.1,9.9C8.1,9.9,8.1,9.9,8.1,9.9L8.1,9.9C8.1,9.9,8.1,9.9,8.1,9.9
					L8.1,9.9z M8.1,12.4L8.1,12.4C8.2,12.4,8.1,12.4,8.1,12.4C8.1,12.4,8.1,12.4,8.1,12.4L8.1,12.4z M8.3,12.6L8.3,12.6L8.3,12.6
					L8.3,12.6z M8.9,9.3C8.7,9.4,8.7,9.7,8.4,9.7c0,0-0.1,0-0.1,0c0,0,0,0.1-0.1,0.1L8.2,9.7l0,0c0,0-0.1,0.1-0.1,0.1c0,0,0,0,0,0h0
					c0,0,0,0,0,0c0,0,0.1-0.1,0.1-0.1l0,0l0,0c0,0,0,0,0.1,0c0.1-0.3,0.3-0.5,0.6-0.5C8.8,9.1,8.9,9.2,8.9,9.3
					C8.9,9.3,8.9,9.3,8.9,9.3L8.9,9.3z M8.2,3.3c0,0,0.1,0.1,0.1,0.1C8.2,3.5,8.1,3.6,8,3.7c-0.1,0-0.1-0.1-0.2-0.2
					C7.9,3.4,8,3.3,8.2,3.3L8.2,3.3z M7.8,3.2L7.8,3.2C7.9,3.2,7.9,3.2,7.8,3.2C7.9,3.2,7.9,3.2,7.8,3.2L7.8,3.2z M8.3,8.2L8.3,8.2
					L8.3,8.2L8.3,8.2z M8.2,4.2L8.2,4.2L8.2,4.2C8.2,4.3,8.2,4.3,8.2,4.2C8.2,4.3,8.2,4.2,8.2,4.2L8.2,4.2z M8.2,4.6
					c0,0,0,0.1,0,0.1C8.2,4.7,8.2,4.6,8.2,4.6C8.1,4.5,8.1,4.5,8.2,4.6C8.2,4.5,8.2,4.5,8.2,4.6L8.2,4.6z M7.8,4.8
					C7.8,4.9,7.8,4.9,7.8,4.8c0,0.1,0,0.1,0,0.1C7.8,5,7.8,4.9,7.8,4.8C7.8,4.9,7.8,4.9,7.8,4.8L7.8,4.8z M7.9,5.4L7.9,5.4
					C7.9,5.4,7.9,5.4,7.9,5.4c0,0,0.1,0,0.1,0c0.1,0.1,0.2-0.1,0.3,0.1c0,0,0,0.1,0,0.1c0,0,0,0,0,0C8.1,5.6,7.9,5.6,7.9,5.4
					L7.9,5.4C7.9,5.4,7.9,5.4,7.9,5.4l-0.1,0c0,0,0,0,0,0l0,0v0.1c0,0,0,0,0,0s0,0,0,0v0h0C7.8,5.4,7.8,5.3,7.9,5.4L7.9,5.4z
					 M8.2,5.7C8.2,5.7,8.2,5.7,8.2,5.7L8.2,5.7L8.2,5.7C8.2,5.7,8.2,5.7,8.2,5.7L8.2,5.7z M7.9,5.7C7.9,5.7,7.8,5.7,7.9,5.7
					C7.8,5.7,7.8,5.7,7.9,5.7C7.8,5.7,7.8,5.7,7.9,5.7L7.9,5.7z M7.7,4.3C7.7,4.3,7.7,4.3,7.7,4.3C7.7,4.3,7.7,4.3,7.7,4.3
					C7.7,4.3,7.7,4.3,7.7,4.3C7.7,4.3,7.7,4.3,7.7,4.3L7.7,4.3z M8,7C8,7,8.1,6.9,8,7c0.1,0,0.1,0,0.1,0C8.1,7.1,8.1,7,8,7
					c0,0.2-0.1,0.2-0.3,0.2c0,0-0.1,0-0.1-0.1C7.8,7.1,7.9,7,8,7L8,7z M8.1,9C8.1,9,8.1,9,8.1,9C8.1,9,8.1,9,8.1,9
					C8.1,9,8.1,9,8.1,9C8.1,9,8.1,9,8.1,9L8.1,9z M8.1,9.2L8.1,9.2L8.1,9.2L8.1,9.2z M8.4,8.2C8.4,8.1,8.4,8.1,8.4,8.2
					C8.4,8.1,8.4,8.1,8.4,8.2C8.4,8.1,8.4,8.1,8.4,8.2C8.4,8.2,8.3,8.2,8.4,8.2L8.4,8.2z M8.5,5.9c-0.1,0-0.1-0.1-0.1-0.1
					c0,0,0-0.1,0.1-0.1C8.5,5.8,8.5,5.8,8.5,5.9C8.5,5.9,8.5,5.9,8.5,5.9L8.5,5.9z M8.5,7.1C8.5,7.2,8.5,7.2,8.5,7.1
					C8.5,7.2,8.4,7.2,8.5,7.1C8.4,7.1,8.5,7.1,8.5,7.1C8.5,7.1,8.5,7.1,8.5,7.1C8.5,7.1,8.5,7.1,8.5,7.1L8.5,7.1z M8.9,3.6
					C9,3.6,9,3.7,9,3.8c0,0.1,0,0.2-0.1,0.2c-0.1,0,0-0.1-0.1-0.1s-0.1,0-0.1-0.1l0,0v0v0l0-0.1h0C8.7,3.7,8.8,3.6,8.9,3.6L8.9,3.6z
					 M8.8,2.9C8.8,2.9,8.8,2.9,8.8,2.9C8.9,2.9,8.9,2.9,8.8,2.9C8.9,2.9,8.9,2.9,8.8,2.9C8.8,2.9,8.8,2.9,8.8,2.9L8.8,2.9z M8.9,2.5
					L8.9,2.5C8.9,2.5,8.9,2.5,8.9,2.5C8.9,2.5,8.9,2.5,8.9,2.5L8.9,2.5z M9.4,3.1c0.1,0.1,0.1,0.2,0,0.3L9.3,3.5l0,0h0
					c0,0.1,0,0.1-0.1,0.1c0,0,0,0-0.1,0c0-0.1,0.1-0.1,0.1-0.1c0,0,0,0,0,0C8.9,3.3,8.9,3.1,9.2,2.8c0.1-0.1,0.2-0.1,0.2,0
					c0.1,0.2-0.1,0-0.1,0.1C9.2,3,9.3,3.1,9.4,3.1L9.4,3.1z M9.4,3.9c0,0,0-0.1,0-0.1c0,0,0,0,0-0.1C9.4,3.7,9.4,3.8,9.4,3.9
					C9.4,3.8,9.4,3.8,9.4,3.9L9.4,3.9z M9.4,8C9.4,8,9.4,8,9.4,8L9.4,8C9.4,8,9.4,8,9.4,8L9.4,8z M9.2,8.2C9.2,8.2,9.2,8.2,9.2,8.2
					L9.2,8.2L9.2,8.2C9.2,8.2,9.2,8.2,9.2,8.2L9.2,8.2z M9.1,4L9.1,4L9.1,4L9.1,4z M9.1,4.6c0,0,0,0.1,0,0.1c0,0,0,0,0,0.1L8.9,4.7
					L9.1,4.6z M9,7L9,7C9,7,9,7.1,9,7C9,7.1,9,7.1,9,7L9,7z M9,8.3C9,8.3,9,8.3,9,8.3L9,8.3L9,8.3C9,8.3,9,8.3,9,8.3L9,8.3z M9,6.7
					L9,6.7L9,6.7C9,6.7,9,6.7,9,6.7C9,6.7,9,6.7,9,6.7L9,6.7z M8.9,5.1C8.9,5.1,8.9,5.1,8.9,5.1L8.9,5.1L8.9,5.1
					C8.9,5,8.9,5,8.9,5.1L8.9,5.1z M8.7,5.9L8.7,5.9L8.7,5.9L8.7,5.9c0-0.1,0.1-0.2,0.2-0.2c0,0,0,0.1,0,0.1
					C8.8,5.9,8.8,5.9,8.7,5.9L8.7,5.9z M8.8,8.3C8.8,8.3,8.8,8.3,8.8,8.3C8.8,8.3,8.8,8.3,8.8,8.3L8.8,8.3L8.8,8.3z M8.6,4.6
					C8.6,4.6,8.6,4.6,8.6,4.6c0.1-0.1,0.2,0,0.2,0c0.1,0.1,0,0.1-0.1,0.1C8.7,4.7,8.6,4.7,8.6,4.6L8.6,4.6z M8.7,5L8.7,5L8.7,5
					L8.7,5L8.7,5L8.7,5z M8.8,4.2L8.8,4.2C8.8,4.2,8.8,4.3,8.8,4.2C8.8,4.3,8.8,4.3,8.8,4.2L8.8,4.2z M9,11.9
					C9,11.9,8.9,11.8,9,11.9c0-0.1,0-0.2,0.1-0.2c0,0,0,0.1,0,0.1S9,11.9,9,11.9L9,11.9z M9.1,13.8C9.1,13.8,9.2,13.8,9.1,13.8
					C9.2,13.8,9.2,13.8,9.1,13.8L9.1,13.8z M9.8,13.5L9.8,13.5C9.8,13.5,9.8,13.5,9.8,13.5C9.8,13.5,9.8,13.5,9.8,13.5L9.8,13.5z
					 M9.8,11.5L9.8,11.5L9.8,11.5C9.9,11.5,9.9,11.5,9.8,11.5C9.8,11.5,9.8,11.5,9.8,11.5L9.8,11.5z M9.9,13.9
					C9.9,13.9,9.9,13.9,9.9,13.9C9.9,13.8,9.9,13.8,9.9,13.9C9.9,13.8,9.9,13.8,9.9,13.9C9.9,13.8,9.9,13.8,9.9,13.9L9.9,13.9z
					 M9.9,11.1L9.9,11.1L9.9,11.1C9.9,11.1,9.9,11.1,9.9,11.1C9.9,11.1,9.9,11.1,9.9,11.1L9.9,11.1z M9.7,9.4L9.7,9.4L9.7,9.4
					L9.7,9.4c-0.2,0-0.4-0.1-0.5-0.3C9.1,9,9,9,8.9,9C8.8,9,8.7,9,8.7,9c0-0.1,0-0.2,0-0.2c0-0.1,0.1-0.1,0.2,0S9,8.8,9.1,8.9
					c0.1,0,0.3,0.1,0.3-0.1C9.3,8.5,9.6,8.4,9.7,8.2h0v0c0,0-0.1-0.1-0.1-0.1c0.1-0.1,0.1,0,0.1,0l0,0v0c0,0,0.1,0.1,0.1,0
					c0-0.3,0.2-0.3,0.3-0.2l0,0c0.1,0,0.2-0.1,0.2,0c0.1,0.2,0.2,0.1,0.3,0c0-0.1,0.1-0.1,0.2-0.1c0,0,0,0,0.1,0C11.1,7.9,11,8,11,8
					c-0.1,0.2-0.3,0.4-0.5,0.5c-0.2,0.1-0.3-0.1-0.4-0.1c-0.1,0-0.2-0.1-0.2,0c-0.1,0.1,0,0.2,0,0.2C10.1,8.9,9.9,9.1,9.7,9.4
					L9.7,9.4z M9.6,3.5L9.6,3.5L9.6,3.5L9.6,3.5z M9.6,2.8L9.6,2.8L9.6,2.8L9.6,2.8z M9.8,0.9L9.8,0.9L9.8,0.9c0,0,0.1-0.1,0.1-0.1
					c0,0,0.1,0,0.1,0.1c0,0.3,0.4,0.3,0.2,0.6c-0.1,0.1-0.1,0.1-0.2,0c-0.2,0-0.4,0-0.4-0.3C9.6,1.1,9.7,1,9.8,0.9L9.8,0.9z
					 M9.6,0.9C9.5,0.9,9.5,0.9,9.6,0.9C9.5,0.9,9.5,0.9,9.6,0.9c-0.1-0.1,0-0.1,0-0.1C9.6,0.8,9.6,0.9,9.6,0.9
					C9.6,0.9,9.6,0.9,9.6,0.9L9.6,0.9z M9.9-0.1L9.9-0.1c-0.1,0-0.1,0.1-0.2,0c0,0,0,0,0-0.1C9.8-0.2,9.9-0.2,9.9-0.1L9.9-0.1
					C9.9-0.1,9.9-0.1,9.9-0.1L9.9-0.1C9.9-0.1,9.9-0.1,9.9-0.1L9.9-0.1z M10.4-0.5C10.4-0.5,10.4-0.5,10.4-0.5
					C10.4-0.5,10.4-0.5,10.4-0.5C10.4-0.5,10.4-0.5,10.4-0.5C10.4-0.5,10.4-0.5,10.4-0.5L10.4-0.5z M10.4-0.6
					C10.4-0.6,10.5-0.6,10.4-0.6c0.1,0,0.1,0,0.1,0.1C10.5-0.5,10.5-0.5,10.4-0.6C10.5-0.5,10.4-0.6,10.4-0.6L10.4-0.6z M10.9,2.1
					c0,0,0,0.1,0.1,0.1l-0.7,0.3C10.4,2.1,10.6,2,10.9,2.1L10.9,2.1z M10.8,3.5C10.8,3.5,10.8,3.5,10.8,3.5c0-0.1,0-0.2,0.1-0.2
					c0,0,0.1,0.1,0.1,0.1C11,3.4,10.9,3.5,10.8,3.5L10.8,3.5z M11,6.6L11,6.6L11,6.6L11,6.6z M10.9,6.2C10.9,6.3,11,6.3,10.9,6.2
					C10.9,6.3,10.9,6.3,10.9,6.2C10.8,6.3,10.8,6.3,10.9,6.2C10.8,6.2,10.9,6.2,10.9,6.2C10.9,6.2,10.9,6.2,10.9,6.2L10.9,6.2z
					 M10.9,5.9L10.9,5.9L10.9,5.9L10.9,5.9z M10.8,6C10.8,6,10.8,6,10.8,6C10.7,6,10.7,6,10.8,6C10.7,6,10.7,6,10.8,6
					C10.8,6,10.8,6,10.8,6L10.8,6z M10.7,7.9L10.7,7.9L10.7,7.9L10.7,7.9z M10.4,5.5c-0.1,0-0.2-0.1-0.2-0.2c-0.2,0-0.3-0.1-0.3-0.3
					h0c0,0,0,0,0,0l0,0c0,0,0,0,0,0c0,0,0,0,0,0l0,0l0,0l0.1,0c-0.1-0.1,0-0.2,0.1-0.3l0,0v0c-0.1,0-0.1,0.1-0.2,0c0,0,0,0,0-0.1
					c0.1-0.1,0.1,0,0.2,0.1h0v0c0.1,0,0.2,0,0.2,0.1c0,0.2,0.1,0.3,0.3,0.4l0,0h0l0,0c0,0,0,0,0,0v0h0c0,0,0,0.1,0,0.1
					C10.4,5.4,10.5,5.5,10.4,5.5L10.4,5.5z M10.4,6L10.4,6L10.4,6L10.4,6L10.4,6z M10.4,7.7c0,0.1,0,0.1-0.1,0.1
					c-0.1,0-0.1,0-0.1-0.1C10.2,7.6,10.3,7.7,10.4,7.7C10.4,7.6,10.4,7.6,10.4,7.7L10.4,7.7z M9.9,4.4L9.9,4.4
					C9.9,4.4,9.9,4.4,9.9,4.4C9.9,4.4,9.9,4.5,9.9,4.4L9.9,4.4z M10,2.3C10,2.2,10,2.2,10,2.3c0.1-0.1,0.2-0.1,0.1,0
					C10.1,2.3,10.1,2.3,10,2.3C10,2.4,10,2.3,10,2.3L10,2.3z M10,2.7C10,2.7,10,2.7,10,2.7C9.9,2.7,9.9,2.7,10,2.7
					C9.9,2.6,9.9,2.6,10,2.7C9.9,2.6,10,2.6,10,2.7C10,2.6,10,2.6,10,2.7L10,2.7z M10.1,1.8l-0.1,0c0-0.1,0.1-0.1,0.2-0.1
					c0,0,0.1,0,0.1,0c0,0,0,0,0,0C10.3,1.8,10.2,1.8,10.1,1.8L10.1,1.8z M10.2,3.5L10.2,3.5L10.2,3.5L10.2,3.5z M10.1,4
					c0,0.1-0.1,0.1-0.1,0.1c-0.1,0-0.1,0-0.1-0.1C9.9,4,10,4,10.1,4C10.1,4,10.1,4,10.1,4L10.1,4z M10.5,4.4
					C10.5,4.4,10.4,4.4,10.5,4.4c-0.1-0.2,0-0.3,0-0.5c0.1,0,0.1,0.1,0.1,0.1C10.6,4.2,10.5,4.3,10.5,4.4L10.5,4.4z M10.6,7.8
					L10.6,7.8L10.6,7.8L10.6,7.8z M10.2-0.6c-0.1,0-0.1,0-0.2-0.1l0,0l0,0l0,0c0,0,0,0,0,0c0-0.1,0.1-0.1,0.2-0.1
					c0.1-0.1,0.1,0,0.1,0.1C10.4-0.5,10.3-0.6,10.2-0.6L10.2-0.6z M10,3.3C10,3.3,10.1,3.3,10,3.3c0,0.1,0,0.2-0.1,0.3
					c0,0-0.1,0-0.1-0.1C9.8,3.4,10,3.4,10,3.3L10,3.3z M9.8,2.8L9.8,2.8L9.8,2.8C9.8,2.8,9.8,2.8,9.8,2.8C9.8,2.8,9.8,2.8,9.8,2.8
					L9.8,2.8z M9.8,5.9C9.8,5.9,9.8,5.9,9.8,5.9C9.8,5.9,9.8,5.9,9.8,5.9C9.8,5.9,9.8,5.9,9.8,5.9L9.8,5.9z M11.1,3.8
					C11.1,3.8,11.1,3.8,11.1,3.8C11.1,3.9,11.1,3.9,11.1,3.8C11.1,3.9,11,3.9,11.1,3.8L11.1,3.8z M11,3.2L11,3.2L11,3.2L11,3.2
					L11,3.2z M11,11.1L10.8,11c0-0.1,0.1-0.1,0.1-0.2s0.2,0.1,0.2,0.1C11.1,11,11.1,11,11,11.1L11,11.1z M11.1,12.3
					C11.1,12.3,11.1,12.2,11.1,12.3L11.1,12.3L11.1,12.3C11.1,12.2,11.1,12.2,11.1,12.3L11.1,12.3z M10.9,9.6c0,0,0.1,0,0.1,0
					c0,0.1,0,0.1,0,0.2c0,0-0.1,0-0.1,0S10.9,9.6,10.9,9.6L10.9,9.6z M10.7,10.2C10.7,10.2,10.7,10.2,10.7,10.2c-0.1,0-0.1,0-0.1,0
					C10.7,10.2,10.7,10.1,10.7,10.2C10.7,10.1,10.7,10.2,10.7,10.2L10.7,10.2z M10.3,10.4c0,0,0.1-0.1,0.1-0.1c0,0,0.1,0.1,0.1,0.2
					l-0.1,0.1C10.4,10.5,10.3,10.5,10.3,10.4L10.3,10.4z M10.4,11.2L10.4,11.2L10.4,11.2L10.4,11.2z M10.4,9.9L10.4,9.9L10.4,9.9
					L10.4,9.9z M10.4,9.8L10.4,9.8L10.4,9.8L10.4,9.8L10.4,9.8z M10.3,8.8L10.3,8.8L10.3,8.8L10.3,8.8z M10.3,11.5
					C10.2,11.5,10.2,11.5,10.3,11.5C10.2,11.5,10.2,11.4,10.3,11.5L10.3,11.5L10.3,11.5z M10.1,11.9c0,0,0,0.1,0.1,0.1
					c0,0-0.1,0-0.1,0s0-0.1-0.1-0.1C10,11.9,10.1,11.9,10.1,11.9L10.1,11.9z M10.7,15.2L10.5,15l0.2-0.2c0,0.1,0.1,0.2,0.1,0.2
					C10.8,15,10.7,15.1,10.7,15.2L10.7,15.2z M10.8,15.4L10.8,15.4L10.8,15.4L10.8,15.4z M10.9,17.2C10.8,17.2,10.8,17.2,10.9,17.2
					c-0.1-0.1,0-0.1,0-0.1S10.9,17.1,10.9,17.2C10.9,17.1,10.9,17.1,10.9,17.2L10.9,17.2z M11.1,18L11.1,18L11.1,18L11.1,18L11.1,18
					L11.1,18z M11.2,18c-0.1,0-0.1,0-0.1-0.1c0-0.1,0.1-0.1,0.1-0.1c0.1,0,0.1,0,0.1,0.1C11.4,17.9,11.3,18,11.2,18
					C11.2,18,11.2,18,11.2,18L11.2,18z M11.1,17.5C11.1,17.5,11.2,17.5,11.1,17.5C11.2,17.5,11.1,17.6,11.1,17.5
					C11.1,17.5,11.1,17.5,11.1,17.5L11.1,17.5z M11.1,16.4L11.1,16.4L11.1,16.4C11.1,16.4,11.1,16.4,11.1,16.4
					C11.1,16.4,11.1,16.4,11.1,16.4L11.1,16.4z M11.4,14.3L11.4,14.3L11.4,14.3L11.4,14.3C11.4,14.4,11.4,14.4,11.4,14.3
					c0,0.2,0,0.3-0.1,0.2c-0.1,0-0.1-0.1-0.2-0.2c0,0,0-0.1,0.1-0.1C11.3,14.3,11.4,14.3,11.4,14.3L11.4,14.3L11.4,14.3z M11.4,15.9
					C11.4,15.9,11.4,15.9,11.4,15.9C11.4,15.9,11.4,15.9,11.4,15.9C11.4,15.9,11.4,15.9,11.4,15.9C11.4,15.8,11.4,15.8,11.4,15.9
					L11.4,15.9z M11.3,15.2L11.3,15.2C11.2,15.2,11.3,15.2,11.3,15.2C11.3,15.2,11.3,15.2,11.3,15.2L11.3,15.2z M11.3,15.4
					C11.3,15.4,11.2,15.4,11.3,15.4C11.2,15.4,11.2,15.4,11.3,15.4C11.2,15.4,11.2,15.4,11.3,15.4C11.2,15.4,11.2,15.4,11.3,15.4
					L11.3,15.4z M11.2,14.8c0,0,0.1,0,0.1-0.1c0,0,0,0,0,0.1C11.4,14.8,11.3,14.8,11.2,14.8C11.3,14.8,11.3,14.8,11.2,14.8
					L11.2,14.8z M11.4,18.3L11.4,18.3L11.4,18.3c0-0.1,0-0.1,0-0.2c0,0,0,0,0-0.1c0,0,0,0,0,0c0,0,0,0.1,0,0.1
					C11.4,18.2,11.4,18.2,11.4,18.3L11.4,18.3z M11.5,14.1L11.5,14.1L11.5,14.1L11.5,14.1L11.5,14.1L11.5,14.1z M11.4,12.7
					c0,0.2-0.1,0.1-0.3,0c-0.2-0.1-0.4-0.2-0.6,0.1c0,0-0.1,0.2-0.2,0c-0.1-0.1-0.3-0.2-0.2-0.4s0.3,0,0.4-0.1
					c0-0.1,0.1,0.1,0.1,0.1c0.1,0.1,0.1,0.3,0.2,0c0-0.1,0.1-0.1,0.2-0.1c0,0,0.1,0,0.1,0.1c0.1,0.1,0.1,0.1,0.2,0c0,0,0,0,0-0.1
					c0-0.1,0.1-0.2,0.2-0.1l0,0l0,0h0c0,0-0.1,0.1,0,0.1C11.7,12.5,11.4,12.6,11.4,12.7L11.4,12.7z M11.5,5.7c0.1,0,0.1,0,0.2,0.1
					l0,0v0.1l0,0c0,0.1-0.1,0.3-0.2,0.1c0,0,0,0-0.1,0c-0.1-0.1-0.2,0.2-0.2,0C11.2,5.8,11.3,5.7,11.5,5.7
					C11.5,5.7,11.5,5.7,11.5,5.7L11.5,5.7z M11.3,5.1C11.3,5.1,11.3,5.1,11.3,5.1C11.3,5,11.3,5.1,11.3,5.1
					C11.3,5.1,11.3,5.1,11.3,5.1C11.3,5.1,11.3,5.1,11.3,5.1L11.3,5.1z M11.5,4.8L11.5,4.8L11.5,4.8L11.5,4.8z M12.1,5.7L12.1,5.7
					c-0.1-0.1,0-0.1,0-0.1C12.1,5.6,12.2,5.6,12.1,5.7C12.1,5.7,12.1,5.7,12.1,5.7L12.1,5.7z M12.1,6.2C12.1,6.2,12.1,6.2,12.1,6.2
					C12.1,6.2,12.1,6.2,12.1,6.2C12.1,6.1,12.1,6.1,12.1,6.2L12.1,6.2z M12.1,6.6L12.1,6.6c0-0.2,0.2-0.3,0.2-0.5
					c0-0.1,0.1-0.1,0.1-0.1s0.1,0.1,0.1,0.2c-0.2,0.2-0.1,0.3-0.1,0.5h0l0,0l0,0v0C12.3,6.6,12.2,6.5,12.1,6.6
					C12.1,6.6,12.1,6.6,12.1,6.6L12.1,6.6c0,0.1,0,0.1,0,0.1c-0.1-0.2-0.3,0-0.4-0.2c0,0,0-0.1,0-0.1C11.9,6.3,11.9,6.5,12.1,6.6
					L12.1,6.6z M12.3,2.6C12.3,2.5,12.3,2.5,12.3,2.6L12.3,2.6L12.3,2.6l0.4-0.4c0,0.2,0,0.3,0,0.5c0,0.1-0.1,0.3-0.2,0.4
					c-0.1-0.1-0.2-0.2-0.2-0.3C12.4,2.7,12.4,2.6,12.3,2.6L12.3,2.6L12.3,2.6L12.3,2.6z M12.8,1.4c0,0,0,0.1,0,0.1
					c-0.1,0.1-0.2,0.1-0.3,0.2c0.1,0.1,0.1,0.2,0.2,0.3c0,0,0,0.1-0.1,0.1c-0.1-0.1-0.2-0.1-0.2-0.3c0,0-0.1,0-0.1-0.1
					c0,0,0-0.1,0.1-0.1C12.5,1.5,12.6,1.5,12.8,1.4L12.8,1.4z M12.4,1.2C12.4,1.2,12.4,1.2,12.4,1.2C12.5,1.2,12.5,1.2,12.4,1.2
					C12.5,1.2,12.5,1.2,12.4,1.2C12.5,1.2,12.4,1.2,12.4,1.2L12.4,1.2z M12.5-0.4C12.6-0.4,12.6-0.4,12.5-0.4
					C12.6-0.4,12.6-0.4,12.5-0.4L12.5-0.4L12.5-0.4z M12.9,1.6C12.9,1.6,12.9,1.7,12.9,1.6C12.9,1.7,12.9,1.7,12.9,1.6
					C12.8,1.7,12.8,1.7,12.9,1.6C12.8,1.6,12.8,1.6,12.9,1.6L12.9,1.6z M12.5,6.5C12.5,6.5,12.5,6.5,12.5,6.5
					C12.5,6.5,12.5,6.4,12.5,6.5L12.5,6.5L12.5,6.5z M11.8,7c-0.1,0-0.1,0-0.1-0.1c0-0.1,0-0.2,0.1-0.2c0.1,0,0.1,0.1,0.1,0.1
					C11.9,7,11.9,7,11.8,7L11.8,7z M11.7,4.9C11.7,4.9,11.7,4.9,11.7,4.9C11.7,4.8,11.7,4.8,11.7,4.9C11.7,4.8,11.7,4.8,11.7,4.9
					C11.7,4.8,11.7,4.8,11.7,4.9L11.7,4.9z M11.6,6.3C11.6,6.3,11.6,6.3,11.6,6.3C11.6,6.3,11.5,6.3,11.6,6.3
					C11.5,6.3,11.5,6.3,11.6,6.3L11.6,6.3z M11.3,7C11.3,7,11.2,7,11.3,7C11.2,7,11.2,7,11.3,7C11.2,6.9,11.2,6.9,11.3,7
					C11.3,6.9,11.3,7,11.3,7L11.3,7z M11.5,10.6c0-0.1,0-0.1,0-0.2l0,0l0,0l0,0l0,0h-0.1l0-0.1l0.1,0.1h0c0,0,0,0,0,0
					C11.5,10.4,11.6,10.5,11.5,10.6c0.1,0,0.1,0,0.2,0.1C11.6,10.6,11.5,10.6,11.5,10.6L11.5,10.6z M11.7,11.9
					C11.7,11.9,11.6,11.9,11.7,11.9c0,0-0.1,0-0.1,0L11.7,11.9L11.7,11.9z M11.3,10.2L11.3,10.2C11.3,10.1,11.3,10.1,11.3,10.2
					C11.3,10.1,11.4,10.1,11.3,10.2C11.3,10.2,11.3,10.2,11.3,10.2L11.3,10.2z M11.3,8.8l0-0.1l0,0L11.3,8.8z M11.6,12.5
					C11.6,12.5,11.6,12.5,11.6,12.5C11.6,12.5,11.6,12.5,11.6,12.5L11.6,12.5L11.6,12.5z M11.7,14.6L11.7,14.6L11.7,14.6L11.7,14.6z
					 M11.7,12.2c0,0-0.1,0-0.1-0.1l0.1-0.1l0.1,0.1C11.7,12.2,11.7,12.2,11.7,12.2L11.7,12.2z M11.8,13.1
					C11.8,13.1,11.8,13.1,11.8,13.1C11.8,13.1,11.8,13.1,11.8,13.1C11.9,13.1,11.9,13.1,11.8,13.1C11.9,13.1,11.8,13.1,11.8,13.1
					L11.8,13.1z M11.9,10.2L11.9,10.2L11.9,10.2L11.9,10.2z M12,13.3L12,13.3L12,13.3L12,13.3z M12.1,11.6c0,0,0.1,0,0.1,0
					c0,0,0,0.1,0.1,0.1l0,0v0l0,0h0v0h0c0,0-0.1,0-0.1,0S12.1,11.7,12.1,11.6L12.1,11.6z M12.7,9.8L12.7,9.8L12.7,9.8
					c0,0-0.1,0-0.1,0c-0.1,0-0.2,0.1-0.3,0s0-0.2,0.1-0.2c0.1-0.2,0.2-0.1,0.3,0C12.8,9.5,12.7,9.6,12.7,9.8
					C12.7,9.7,12.7,9.8,12.7,9.8L12.7,9.8z M12.3,13.7L12.3,13.7L12.3,13.7L12.3,13.7z M12.2,13.3L12.2,13.3L12.2,13.3
					C12.2,13.2,12.2,13.2,12.2,13.3C12.2,13.2,12.2,13.2,12.2,13.3L12.2,13.3z M12.3,15.2c0,0-0.1,0-0.1,0L12.3,15.2L12.3,15.2
					C12.4,15.2,12.3,15.2,12.3,15.2L12.3,15.2z M12.3,13.2c0-0.1,0.2-0.1,0.2-0.1c0,0,0.1,0,0.1,0.1c0,0.1-0.2,0.1-0.2,0.1
					C12.4,13.3,12.3,13.2,12.3,13.2L12.3,13.2z M12.5,13.4C12.5,13.4,12.5,13.4,12.5,13.4C12.5,13.4,12.5,13.4,12.5,13.4
					C12.5,13.5,12.5,13.5,12.5,13.4C12.5,13.4,12.5,13.4,12.5,13.4L12.5,13.4z M12.7,17.1c0,0-0.1,0.1-0.1,0.1l0-0.1l0-0.1l0-0.2
					C12.6,16.8,12.6,16.9,12.7,17.1C12.7,17,12.7,17.1,12.7,17.1L12.7,17.1z M12.7,14.4C12.7,14.4,12.7,14.4,12.7,14.4
					C12.6,14.4,12.7,14.3,12.7,14.4C12.7,14.4,12.7,14.4,12.7,14.4C12.7,14.4,12.7,14.4,12.7,14.4L12.7,14.4z M12.8,12.9L12.8,12.9
					L12.8,12.9L12.8,12.9z M13.2,12.6c-0.2,0-0.4,0-0.7-0.1c-0.1,0-0.1-0.1-0.2-0.3c0.1,0,0.2,0,0.2,0c0.3,0,0.5,0.1,0.8,0.1
					C13.3,12.4,13.2,12.5,13.2,12.6L13.2,12.6z M13.4,10.3C13.4,10.3,13.4,10.3,13.4,10.3C13.4,10.2,13.5,10.2,13.4,10.3
					C13.5,10.2,13.5,10.3,13.4,10.3C13.5,10.3,13.5,10.3,13.4,10.3L13.4,10.3z M13.5,10.1c0,0-0.1,0-0.1-0.1c0.1,0,0.1-0.1,0.2-0.1
					c0,0,0,0,0,0.1C13.5,10,13.5,10,13.5,10.1L13.5,10.1z M13.4,8.3C13.3,8.3,13.4,8.2,13.4,8.3c0.1-0.1,0.1-0.1,0.1-0.1
					C13.5,8.3,13.5,8.3,13.4,8.3C13.4,8.4,13.4,8.4,13.4,8.3C13.4,8.4,13.3,8.3,13.4,8.3L13.4,8.3z M13.5,9.2L13.5,9.2l0-0.1
					C13.6,9.1,13.6,9.1,13.5,9.2C13.6,9.2,13.6,9.2,13.5,9.2L13.5,9.2z M13.6,8.8C13.6,8.8,13.6,8.8,13.6,8.8
					C13.6,8.8,13.6,8.8,13.6,8.8C13.6,8.8,13.6,8.8,13.6,8.8C13.6,8.8,13.6,8.8,13.6,8.8L13.6,8.8z M13.6,8.5
					C13.6,8.5,13.5,8.5,13.6,8.5C13.5,8.5,13.5,8.5,13.6,8.5c-0.1-0.1,0-0.2,0-0.2C13.7,8.4,13.7,8.4,13.6,8.5
					C13.7,8.5,13.6,8.5,13.6,8.5C13.6,8.5,13.6,8.5,13.6,8.5L13.6,8.5z M13.8,11.1C13.8,11.1,13.8,11.1,13.8,11.1L13.8,11.1
					L13.8,11.1C13.8,11.1,13.8,11.1,13.8,11.1L13.8,11.1z M13.8,8.2C13.8,8.2,13.8,8.2,13.8,8.2C13.8,8.2,13.8,8.1,13.8,8.2
					C13.8,8.1,13.9,8.2,13.8,8.2C13.8,8.2,13.8,8.2,13.8,8.2L13.8,8.2z M14.3,10.8C14.3,10.8,14.3,10.8,14.3,10.8
					C14.3,10.8,14.3,10.8,14.3,10.8C14.4,10.8,14.4,10.8,14.3,10.8C14.4,10.8,14.3,10.8,14.3,10.8L14.3,10.8z M14.4,10.3
					c-0.1,0-0.1,0-0.2-0.1s0-0.1,0.1-0.1C14.4,10.1,14.5,10.1,14.4,10.3C14.5,10.3,14.4,10.3,14.4,10.3L14.4,10.3z M14.2,9.9
					c0.1,0,0.1-0.1,0.1-0.1c0,0,0.1,0.1,0.1,0.1c0,0,0,0.1-0.1,0.1L14.2,9.9z M14.6,9.1C14.6,9.1,14.6,9.1,14.6,9.1
					C14.6,9.1,14.6,9.1,14.6,9.1C14.6,9.1,14.6,9.1,14.6,9.1C14.6,9.1,14.6,9.1,14.6,9.1L14.6,9.1z M14.6,8.7c0-0.1-0.1-0.1-0.1-0.2
					h0l0,0c0,0,0,0,0,0l0,0c0,0.1-0.1,0-0.1,0h0v0l-0.1,0l0.1-0.1l0,0.1h0l0,0l0,0h0l0.1,0l0.1,0l0,0l0,0
					C14.6,8.5,14.6,8.6,14.6,8.7C14.7,8.6,14.7,8.7,14.6,8.7C14.6,8.7,14.6,8.7,14.6,8.7L14.6,8.7z M14.4,8.2L14.5,8
					c0,0,0.1,0,0,0.1C14.5,8.1,14.5,8.2,14.4,8.2L14.4,8.2z M14.7,8.9L14.7,8.9C14.7,8.9,14.7,8.9,14.7,8.9
					C14.7,8.9,14.7,8.9,14.7,8.9L14.7,8.9z M15.7,7.5L15.7,7.5L15.7,7.5L15.7,7.5z M15.8,7C15.8,7,15.8,7,15.8,7
					C15.8,7,15.8,7,15.8,7L15.8,7L15.8,7z M15.8,6.6c-0.2,0,0-0.1-0.1-0.2c-0.1-0.1-0.3-0.1-0.5,0c-0.1,0-0.2,0-0.3,0
					c0.1,0.1,0.3,0.2,0.4,0.3c0.1,0.1,0.2,0.3,0.4,0.4c-0.1,0.1-0.3,0.2-0.4,0.3l-0.2,0.1L15,7.4c0,0.1,0,0.1,0,0.2
					c0,0.2-0.1,0.2-0.3,0.1c-0.1,0-0.2,0-0.2,0.1c0,0.4-0.2,0.3-0.5,0.3l0,0l0,0c0,0.1,0.1,0.1,0,0.2c0,0,0,0-0.1,0
					C13.9,8.2,14,8.2,14,8.2c0,0,0,0,0,0h0c0-0.1,0-0.2-0.1-0.3c0,0,0,0,0,0c-0.3,0-0.6-0.2-0.9-0.2c0.1,0.2-0.1,0.3-0.2,0.4l0,0v0
					c0,0,0.1,0,0.1,0.1c0,0,0,0,0,0c-0.1,0-0.1-0.1-0.1-0.1h0l0,0c-0.2,0.1-0.3,0.3-0.3,0.5c0,0,0,0,0,0C12.6,9,12.6,9,12.2,9.2
					c0,0,0,0,0,0l0,0c0,0-0.1,0-0.1,0c0,0,0,0,0,0l0.1,0l0,0h0c0.1-0.1,0-0.2,0-0.3c0,0,0,0,0,0C12.1,9,12.1,9,12,9.1L12,8.9L12,8.9
					c0,0-0.1,0-0.1,0c-0.1,0-0.2,0-0.3,0c-0.2-0.1-0.3-0.2-0.2-0.4c0.1-0.2,0.1-0.3-0.1-0.5h0v0c-0.1,0-0.1-0.1-0.1-0.1c0,0,0,0,0,0
					c0.1,0,0.1,0.1,0.1,0.2h0l0,0c0.1,0,0.3,0,0.3-0.1l0,0v0v0c0,0,0,0,0.1,0c0,0,0-0.1,0-0.1c0-0.1-0.2-0.1-0.1-0.2
					c0.1-0.1,0.2,0,0.2,0c0.1,0,0.1,0,0.1-0.1c0-0.1,0.1-0.1,0.1-0.1c0.1,0,0.1,0,0.2,0c0.1,0.1,0,0.1-0.1,0.2s-0.1,0.1-0.1,0.2
					s0.1-0.1,0.1-0.1c0,0,0,0,0,0l0-0.1c0,0,0,0,0,0.1c0.1-0.1,0.2-0.1,0.2-0.1c0-0.1,0.1-0.2,0.1-0.3C12.8,7,12.9,7,12.9,7
					c0,0.1,0,0.2,0,0.3c0,0,0.1,0,0.1,0h0l0,0c0-0.1,0-0.2,0.1-0.2c0.1,0,0.1,0,0.1,0.1c0,0.1-0.1,0.1-0.1,0.2l0,0h0
					c0.1,0.1,0.1,0.1,0.2,0.1l0,0c0.1,0.1,0.2,0.1,0.3,0.1h0c0,0,0.2-0.2-0.1-0.2c-0.1,0-0.1,0-0.1-0.1c0-0.1,0.1-0.1,0.1-0.2
					c0,0-0.1,0-0.1-0.1c0-0.1-0.2,0.1-0.2-0.1s0.3-0.3,0.3-0.3c0.2,0.1,0.3,0,0.5-0.1c0-0.1,0-0.1,0-0.2c0-0.1,0.1-0.1,0.1-0.1
					C14,6.2,14,6.2,14,6.1C14,5.9,14.2,6,14.3,6l0,0l0,0.1l0,0v0c0,0,0,0,0,0c0,0,0,0,0,0v0h0v0c0.1,0,0.1,0,0.1,0c0,0,0-0.1,0-0.1
					c0.1-0.1,0.1-0.3,0.4-0.2C15,6,15,6,15,6.1c0,0.2,0,0.2,0.2,0.1c0.2-0.1,0.3-0.1,0.5-0.1c0.2,0,0.2,0.1,0.2,0.2
					C15.9,6.5,15.9,6.6,15.8,6.6L15.8,6.6z M13,3.3L13,3.3L13,3.3L13,3.3c0,0,0,0.1,0,0.1h0c0.2-0.2,0.3-0.2,0.6-0.2
					c0.3,0,0.2,0.3,0.4,0.4c0,0,0,0,0,0c0,0,0,0,0,0c0,0,0,0,0,0.1l0-0.1c0,0,0,0,0,0c-0.2-0.1-0.3,0-0.3,0.1h0
					c-0.1,0.2,0.2,0.4,0.1,0.6c-0.1,0.2-0.3,0.2-0.4,0.2c-0.1,0-0.1-0.1-0.1-0.2c0,0,0,0,0,0c0,0,0,0,0,0l0,0l0,0c0,0,0,0,0,0
					c0-0.1,0-0.2-0.1-0.3c-0.2-0.2-0.4-0.3-0.1-0.6l0,0v0c-0.1,0-0.1,0-0.1-0.1C12.9,3.3,13,3.3,13,3.3L13,3.3z M13.2,2.1
					c0,0,0.1-0.1,0.1-0.1c0,0,0,0,0,0c0.2-0.2,0.5-0.3,0.8-0.2c0,0,0,0,0,0.1c0,0,0,0.1,0,0.1c-0.1,0-0.1,0.1-0.2,0.1c0,0,0,0,0,0.1
					c0.1,0.1,0.2,0.2,0.4,0.2c0,0,0,0,0.1,0.1c0,0,0,0-0.1,0C14,2.3,14.1,2.6,14,2.7c-0.1,0.1-0.2,0.3-0.3,0c0-0.1-0.2-0.2-0.3-0.2
					c0,0,0,0,0,0l0,0c0,0-0.1-0.1-0.1-0.1c0,0,0,0,0-0.1C13.1,2.2,13.1,2.2,13.2,2.1C13.2,2.2,13.2,2.2,13.2,2.1L13.2,2.1z
					 M13.2,1.9L13.2,1.9L13.2,1.9C13.2,1.9,13.2,1.9,13.2,1.9C13.2,1.9,13.2,1.9,13.2,1.9L13.2,1.9z M14.5,2.7c0-0.1-0.1-0.1,0-0.2
					c0,0,0.1,0,0.1,0c0.2,0.2,0.4,0.2,0.6,0c0.1,0,0.1-0.1,0.2,0c0.1,0,0,0.1,0,0.2c0,0.3-0.1,0.4-0.5,0.5c-0.1,0-0.2,0-0.3,0.1l0,0
					c0,0,0,0,0,0s0,0,0,0c0.1,0,0.2-0.1,0.2,0c0,0,0,0,0,0c-0.1,0-0.2,0.1-0.3,0h0c0,0,0,0,0,0c-0.1,0.1-0.3-0.3-0.3,0.1
					c0,0.1-0.2,0-0.3-0.1l0,0l0,0v0l0,0C14,3.3,14,3.2,14,3.1c0-0.1,0-0.2,0.1-0.3s0.1,0.1,0.1,0.1c0.1,0,0.1,0.1,0.2,0
					C14.5,2.9,14.5,2.8,14.5,2.7L14.5,2.7z M15.1,1.8L15.1,1.8L15.1,1.8L15.1,1.8z M15.6,5.4c0,0,0.1-0.1,0.1-0.1
					c0.1,0,0.1,0,0.1,0.1c0,0,0,0,0,0c0.1,0,0.3,0.1,0.4,0.2c-0.1,0-0.2,0.1-0.2,0.1c0,0,0,0,0,0.1l0,0v0v0c0,0,0,0-0.1,0
					c-0.1,0-0.1,0.1-0.2,0.1c0,0-0.1,0-0.1-0.1l0,0.1v0l0,0l0,0h0v0V5.7l0,0c0,0-0.1-0.1-0.1-0.1C15.5,5.6,15.6,5.6,15.6,5.4
					C15.6,5.5,15.6,5.5,15.6,5.4L15.6,5.4z M15.8,5.1C15.8,5.1,15.8,5.1,15.8,5.1C15.9,5.1,15.9,5.1,15.8,5.1c0.1,0.1,0,0.1,0,0.1
					c0,0,0,0,0,0h0c0,0,0,0,0,0c0,0,0,0,0,0h0l0,0l0,0C15.8,5.2,15.8,5.2,15.8,5.1L15.8,5.1z M16.2,4.6c0,0.1,0,0.1,0,0.2
					C16.1,4.7,16.1,4.6,16.2,4.6C16.1,4.6,16.1,4.5,16.2,4.6C16.1,4.5,16.1,4.5,16.2,4.6L16.2,4.6z M16.1,4L16.1,4
					C16.2,4,16.2,4,16.1,4C16.2,4,16.2,4,16.1,4L16.1,4z M16.1,5.3C16.1,5.3,16.1,5.3,16.1,5.3C16,5.3,16,5.3,16.1,5.3L16.1,5.3
					L16.1,5.3z M15.3,3.6L15.3,3.6L15.3,3.6C15.3,3.6,15.3,3.6,15.3,3.6C15.3,3.6,15.3,3.6,15.3,3.6L15.3,3.6z M15.2,5.9L15.2,5.9
					L15.2,5.9L15.2,5.9z M15.1,5.8C15.1,5.8,15.1,5.8,15.1,5.8C15.1,5.8,15.1,5.8,15.1,5.8C15.1,5.8,15.1,5.8,15.1,5.8
					C15.1,5.8,15.1,5.8,15.1,5.8L15.1,5.8z M14.8,5.3L14.8,5.3L14.8,5.3L14.8,5.3L14.8,5.3c0.2,0.1,0.1,0.2,0.1,0.3c0,0-0.1,0-0.1,0
					c0,0,0,0,0,0C14.6,5.5,14.8,5.5,14.8,5.3L14.8,5.3L14.8,5.3z M14.5,4.6c0.1,0.1,0.2,0.2,0.1,0.4c0-0.1,0-0.2-0.2-0.3
					c0,0,0-0.1,0-0.1C14.4,4.6,14.4,4.6,14.5,4.6L14.5,4.6z M14.4,3.8C14.4,3.8,14.4,3.8,14.4,3.8C14.4,3.8,14.5,3.8,14.4,3.8
					C14.4,3.9,14.4,3.9,14.4,3.8C14.3,3.9,14.3,3.8,14.4,3.8L14.4,3.8z M14.6,3.6C14.6,3.5,14.5,3.5,14.6,3.6
					C14.6,3.5,14.7,3.5,14.6,3.6c0.1,0.1,0.1,0.1,0.1,0.1C14.6,3.6,14.6,3.6,14.6,3.6L14.6,3.6z M14.2,5.3c-0.1-0.1-0.1-0.2-0.2-0.3
					c0-0.1,0-0.2,0-0.3c0-0.1,0-0.2,0-0.3c0-0.1,0-0.2,0.1-0.2c0,0.1,0.1,0.1,0.1,0.2c0.1,0.2,0.1,0.4,0.1,0.7
					C14.3,5.1,14.3,5.2,14.2,5.3L14.2,5.3z M14.2,5.4L14.2,5.4L14.2,5.4C14.2,5.4,14.2,5.4,14.2,5.4C14.2,5.4,14.2,5.4,14.2,5.4
					L14.2,5.4z M14.1,3.6L14.1,3.6L14.1,3.6L14.1,3.6z M13.9,3.3C13.9,3.3,13.9,3.3,13.9,3.3C13.9,3.3,13.9,3.3,13.9,3.3
					C13.9,3.3,13.9,3.3,13.9,3.3C13.9,3.3,13.9,3.3,13.9,3.3L13.9,3.3z M13.9,5.8L13.9,5.8L13.9,5.8L13.9,5.8z M13.9,5.6
					C13.9,5.6,13.8,5.7,13.9,5.6C13.8,5.7,13.8,5.6,13.9,5.6C13.8,5.6,13.8,5.6,13.9,5.6C13.8,5.6,13.8,5.6,13.9,5.6L13.9,5.6z
					 M13.8,6.4C13.8,6.5,13.8,6.5,13.8,6.4c-0.1,0-0.1,0-0.1,0L13.8,6.4C13.7,6.4,13.8,6.4,13.8,6.4L13.8,6.4z M13.3,6.6
					c0,0-0.1,0-0.1,0s0-0.1,0-0.1l0.1-0.1L13.3,6.6z M13.3,7.5C13.3,7.4,13.4,7.4,13.3,7.5C13.4,7.4,13.4,7.4,13.3,7.5
					c0.1,0,0.1,0.1,0,0.1C13.3,7.5,13.3,7.5,13.3,7.5L13.3,7.5z M16.1,5.9l0-0.1l0.1-0.1c0,0,0,0.1,0,0.1
					C16.2,5.9,16.1,5.9,16.1,5.9L16.1,5.9z M16.2,5.2L16.2,5.2L16.2,5.2L16.2,5.2z M16.3,0.8c0.2,0.1,0.3,0.2,0.4,0.3
					c0,0.1,0,0.1,0,0.1c-0.1-0.2-0.4,0.1-0.5-0.1C16.2,1,16.2,0.8,16.3,0.8L16.3,0.8z M16.6,1.7c0.1,0,0.1,0,0.1,0.1
					c0,0.1-0.1,0.1-0.1,0.1c-0.1,0-0.1,0-0.1-0.1c0,0,0,0,0,0C16.4,1.7,16.5,1.7,16.6,1.7L16.6,1.7z M16.4,1.4L16.4,1.4
					C16.4,1.4,16.4,1.4,16.4,1.4L16.4,1.4l0.1,0.1L16.4,1.4z M16.2,0.7C16.2,0.7,16.2,0.7,16.2,0.7c-0.1,0-0.1,0-0.1,0
					C16.1,0.7,16.2,0.6,16.2,0.7C16.2,0.7,16.2,0.7,16.2,0.7L16.2,0.7z M16.2,2.1C16.2,2.1,16.1,2.1,16.2,2.1L16.2,2.1L16.2,2.1
					C16.1,2.1,16.1,2.1,16.2,2.1L16.2,2.1z M15.9-1.1L15.9-1.1L15.9-1.1L15.9-1.1z M15.9-0.7C15.9-0.7,16-0.7,15.9-0.7
					C16-0.6,16-0.6,15.9-0.7C15.9-0.6,15.9-0.6,15.9-0.7C15.8-0.7,15.9-0.7,15.9-0.7L15.9-0.7z M15.9-1.7L15.9-1.7L15.9-1.7
					L15.9-1.7z M15.6-0.8C15.6-0.8,15.6-0.8,15.6-0.8L15.6-0.8L15.6-0.8C15.5-0.8,15.5-0.8,15.6-0.8L15.6-0.8z M16-0.5
					c0.1,0,0.1,0,0.2,0.1c0,0.1,0,0.2-0.1,0.2c-0.3,0.1-0.6,0.2-1,0.4C15.2-0.4,15.6-0.5,16-0.5L16-0.5z M15.9,1
					C15.9,1.1,15.9,1.1,15.9,1L15.9,1L15.9,1C15.9,1,15.9,1,15.9,1L15.9,1z M15.4,0.2L15.4,0.2L15.4,0.2C15.4,0.2,15.4,0.2,15.4,0.2
					C15.4,0.2,15.4,0.2,15.4,0.2L15.4,0.2z M15.4,1.2L15.4,1.2L15.4,1.2C15.4,1.2,15.4,1.2,15.4,1.2C15.4,1.2,15.4,1.2,15.4,1.2
					L15.4,1.2z M15.1,0.7c0,0,0,0.1,0,0.1c0,0,0,0,0,0L15.1,0.7L15.1,0.7z M14.7,0.2c0,0.1-0.1,0.2-0.1,0.3c0,0,0-0.1-0.1-0.1
					l0.2-0.3C14.7,0.1,14.7,0.1,14.7,0.2L14.7,0.2z M14.7,0.8C14.7,0.8,14.6,0.8,14.7,0.8c-0.1,0.1-0.1,0-0.1,0
					C14.5,0.7,14.6,0.7,14.7,0.8C14.6,0.7,14.6,0.7,14.7,0.8L14.7,0.8z M14.4,0C14.4,0,14.5,0,14.4,0C14.5,0,14.5,0,14.4,0L14.4,0
					L14.4,0z M14.6,0C14.6,0,14.6,0,14.6,0C14.6,0,14.6,0.1,14.6,0C14.6,0.1,14.6,0.1,14.6,0C14.5,0,14.6,0,14.6,0L14.6,0z M14.3-3
					c0.1,0.1,0.1,0.2,0.2,0.4c0,0-0.1,0.1-0.1,0.2l-0.2-0.3L14.3-3z M14.3,0.3C14.3,0.3,14.3,0.3,14.3,0.3
					C14.3,0.3,14.3,0.3,14.3,0.3c0,0.1,0,0.1,0,0.1C14.2,0.4,14.2,0.3,14.3,0.3C14.2,0.3,14.2,0.3,14.3,0.3L14.3,0.3z M14.2,0
					L14.2,0z M14.1-0.4L14.1-0.4L14.1-0.4L14.1-0.4z M14-0.7C14-0.7,14-0.7,14-0.7L14-0.7L14-0.7L14-0.7C14-0.6,14-0.6,14-0.7
					C14-0.6,14-0.6,14-0.7C13.9-0.6,13.9-0.6,14-0.7L14-0.7z M14.1,0.8C14.2,1,14.4,1,14.5,1.1c0-0.2,0.2-0.2,0.3-0.1
					c0.2,0.1,0.3,0.3,0.2,0.5h0l0,0c0.2-0.1,0.4-0.1,0.4,0.2c0,0.1,0.1,0.3,0.2,0.3c0.2,0.1,0.4,0.2,0.6,0.4
					c0.1,0.1,0.2,0.1,0.3,0.1c0.2,0,0.2,0,0.2,0.2c0,0.2-0.1,0.4,0.2,0.2c0.1,0,0.1,0,0.2,0c0,0.1,0,0.1,0,0.2
					c-0.2,0.5-0.6,0.4-0.9,0.4c-0.1,0-0.1,0-0.1,0.1l0,0c0,0,0,0,0,0c0,0,0.1,0.1,0.1,0.2c0,0,0,0-0.1,0c-0.1,0,0-0.1,0-0.2l0,0
					c0,0,0,0,0,0c-0.1-0.1-0.2-0.2-0.3-0.2c0,0-0.1,0-0.1,0c0,0,0,0,0,0c0-0.1,0-0.1,0.1-0.1c0.5-0.3,0.2-0.7,0.1-1
					c0-0.2-0.3-0.1-0.5-0.1c-0.1,0-0.2,0-0.1-0.1c0.1-0.2-0.1-0.4,0-0.6h0l0,0C15,1.5,15,1.3,14.9,1.4c-0.1,0.1,0,0.1,0,0.2h0l0,0
					c0.1,0,0.1,0,0.1,0.1c0,0,0,0-0.1,0.1l0-0.1h0l0,0c-0.2,0.1-0.3-0.1-0.4-0.2c-0.2-0.1-0.2,0-0.1,0.1c0,0.2,0,0.3-0.2,0.2
					c-0.1-0.1-0.3-0.1-0.3-0.2c0,0-0.1,0-0.1,0c0-0.4-0.2-0.3-0.5-0.3v0l0,0h0c0-0.2,0.2-0.2,0.3-0.2c0.1,0.1,0.2,0.1,0.3-0.1
					C13.9,0.7,14.1,0.7,14.1,0.8L14.1,0.8z M13.3,0.6L13.3,0.6L13.3,0.6C13.4,0.6,13.4,0.6,13.3,0.6C13.4,0.6,13.3,0.6,13.3,0.6
					L13.3,0.6z M13.1-2.1c0,0,0.1,0,0.2,0c0.1,0,0.1,0,0.1,0.1c0.1,0.2,0.3,0.4,0.4,0.6c-0.1,0-0.1,0-0.2,0.1
					c-0.2-0.2-0.3-0.3-0.5-0.5C13.1-2,13.1-2,13.1-2.1L13.1-2.1z M13-2C13-2,13-2,13-2C13-2,13-2,13-2L13-2L13-2z M13,0.6L13,0.6
					l0.1,0.1c0,0-0.1,0.1-0.1,0.1C12.9,0.7,12.9,0.7,13,0.6L13,0.6L13,0.6c-0.1,0.1-0.2,0.1-0.2,0C12.8,0.5,12.9,0.5,13,0.6
					C12.9,0.5,13,0.5,13,0.6L13,0.6z M12.5-0.7c0,0-0.1-0.1-0.3-0.2c0.2-0.1,0.3-0.2,0.5-0.3c0,0,0.1,0.1,0.2,0.2
					C12.8-0.9,12.6-0.8,12.5-0.7L12.5-0.7z M12.5-2C12.5-2,12.5-2,12.5-2C12.5-2,12.5-2,12.5-2C12.5-1.9,12.5-1.9,12.5-2
					C12.5-1.9,12.5-2,12.5-2L12.5-2z M12.8-2.5L12.8-2.5C12.9-2.5,12.9-2.5,12.8-2.5C12.8-2.5,12.8-2.5,12.8-2.5L12.8-2.5z
					 M12.5-2.8L12.5-2.8L12.5-2.8L12.5-2.8l0.3,0.1l-0.1,0.1L12.5-2.8L12.5-2.8L12.5-2.8z M12.3-2.9C12.3-2.9,12.3-2.9,12.3-2.9
					c0,0.1,0,0.1,0,0.1S12.2-2.8,12.3-2.9C12.2-2.9,12.3-2.9,12.3-2.9L12.3-2.9z M12.2-0.7c0,0,0.1,0,0.1,0.1l-0.1,0.1
					C12.2-0.6,12.1-0.6,12.2-0.7C12.1-0.7,12.1-0.7,12.2-0.7L12.2-0.7z M12.1,3.9c0.3,0.3,0.3,0.5,0,0.8l0,0c0,0,0.1-0.1,0.1,0
					c0,0,0,0,0,0c0,0-0.1,0-0.1,0l0,0v0c-0.1,0-0.2-0.1-0.2-0.1c0-0.4-0.3-0.2-0.4-0.2c-0.1,0-0.2,0.1-0.3,0c-0.1-0.1,0-0.2,0.1-0.2
					s0.1-0.1,0.1-0.2c0-0.3,0.2-0.2,0.3-0.3C12,3.7,12,3.8,12.1,3.9L12.1,3.9z M12-2.6L12-2.6C12.1-2.6,12.1-2.5,12-2.6
					C12-2.5,12-2.5,12-2.6L12-2.6z M12-2.9C12-2.9,12-2.9,12-2.9C12-2.9,12-2.8,12-2.9C12-2.8,12-2.8,12-2.9
					C11.9-2.9,11.9-2.9,12-2.9L12-2.9z M12-0.1C12,0,12.1,0,12.1,0.1c0,0-0.1,0.1-0.1,0.1c0,0-0.1,0-0.1-0.1L12-0.1z M11.8-3
					C11.9-3,11.9-3,11.8-3C11.9-3,11.8-3,11.8-3C11.8-3,11.8-3,11.8-3L11.8-3z M11.9,0.4L11.9,0.4C11.8,0.4,11.8,0.4,11.9,0.4
					C11.8,0.4,11.8,0.4,11.9,0.4L11.9,0.4z M11.7,1.4C11.7,1.4,11.8,1.4,11.7,1.4C11.8,1.4,11.8,1.5,11.7,1.4L11.7,1.4
					C11.7,1.4,11.7,1.4,11.7,1.4L11.7,1.4z M11.8,1.9c0,0,0.1,0.1,0.1,0.1c0,0.4,0,0.8-0.1,1.2c0,0-0.1,0.1-0.1,0.1
					c0,0-0.1,0-0.1-0.1c0-0.1-0.1-0.3-0.1-0.4c0,0-0.1,0-0.1,0c0,0-0.1,0-0.1,0c-0.2-0.1-0.4,0-0.5-0.3c0-0.1,0-0.1,0.1-0.1
					c0.1-0.1,0.3-0.1,0.4-0.2l0-0.1C11.4,2,11.5,1.9,11.8,1.9L11.8,1.9z M11,0.5C11,0.5,11.1,0.5,11,0.5C11.1,0.5,11.1,0.5,11,0.5
					L11,0.5L11,0.5z M11.6-0.8C11.6-0.7,11.6-0.7,11.6-0.8c0,0.1,0,0.1-0.1,0.1C11.5-0.6,11.5-0.7,11.6-0.8
					C11.5-0.7,11.6-0.7,11.6-0.8L11.6-0.8z M11.1-2.9c0.1,0,0.1,0,0.2,0.1c0,0,0,0,0,0c0,0,0,0,0,0l0,0c0,0,0.1,0.1,0.1,0.1
					c0,0.1,0,0.1-0.1,0.2c0,0,0,0,0,0c-0.2,0-0.1-0.3-0.3-0.3C11-2.9,11-2.9,11.1-2.9L11.1-2.9z M11.1,0.1L11.1,0.1L11.1,0.1
					L11.1,0.1z M10.9,1.8l-0.1-0.1l0.1-0.1C10.9,1.6,11,1.7,10.9,1.8C11,1.8,10.9,1.8,10.9,1.8L10.9,1.8z M10.8,1.3l0.1-0.1
					c0,0,0.1,0.1,0.1,0.1c0,0,0,0.1-0.1,0.1L10.8,1.3z M10.8-2.1C10.8-2.1,10.8-2.1,10.8-2.1L10.8-2.1C10.8-2,10.8-2.1,10.8-2.1
					L10.8-2.1z M10.4-2.1L10.4-2.1C10.4-2,10.4-2,10.4-2.1C10.4-2,10.4-2,10.4-2.1L10.4-2.1z M10.2-1.9C10.2-1.9,10.3-1.8,10.2-1.9
					c0,0.1,0,0.1,0,0.1c0,0,0,0-0.1,0L10.2-1.9z M9.7-1.5c0.3-0.1,0.7-0.2,1-0.3C10.8-1.9,11-2,10.9-1.6l0,0l0,0h0
					c-0.1,0.3-0.3,0.3-0.5,0.1c0-0.1-0.2,0-0.2,0c0,0.1-0.1,0.2-0.2,0.2c0,0,0,0,0,0.1c0,0.1,0,0.1,0,0.2c0,0-0.1,0-0.1,0
					c0-0.1,0-0.1,0-0.2l0,0c-0.1,0-0.2,0-0.3,0c-0.1,0-0.1,0-0.2,0c0,0,0,0,0,0C9.5-1.5,9.6-1.5,9.7-1.5L9.7-1.5z M9.8,2.7l-0.7,0
					c0,0,0,0,0,0l0,0l0,0l0,0c0,0.1,0,0.1,0,0.2L9,2.8l0.1-0.1l0,0h0C9.3,2.4,9.6,2.6,9.8,2.7L9.8,2.7z M9.1,2.4L9.1,2.4
					C9.1,2.3,9.1,2.3,9.1,2.4C9.2,2.3,9.2,2.3,9.1,2.4L9.1,2.4z M9.1,2.5C9.1,2.5,9.1,2.5,9.1,2.5C9.1,2.5,9.1,2.5,9.1,2.5
					C9.1,2.5,9.1,2.5,9.1,2.5C9.1,2.5,9.1,2.5,9.1,2.5L9.1,2.5z M9.3,0.4C9.4,0.4,9.4,0.5,9.3,0.4C9.4,0.5,9.4,0.5,9.3,0.4
					C9.4,0.5,9.3,0.5,9.3,0.4C9.3,0.5,9.3,0.4,9.3,0.4L9.3,0.4z M9.2-2.6C9.3-2.5,9.3-2.5,9.2-2.6c0,0.1,0,0.1,0,0.2
					C9.2-2.4,9.2-2.4,9.2-2.6C9.2-2.5,9.2-2.5,9.2-2.6L9.2-2.6z M9.1-2C9.1-1.9,9.1-1.9,9.1-2c0,0.1,0,0.1,0,0.1
					C9.1-1.8,9.1-1.9,9.1-2C9.1-1.9,9.1-1.9,9.1-2L9.1-2z M9.1-1.5c0,0,0.1,0.1,0.1,0.1h0c0,0,0,0,0,0l0,0l0,0c0,0,0,0,0,0
					c0,0,0,0-0.1,0l-0.1,0L9-1.4C9-1.5,9-1.5,9.1-1.5L9.1-1.5z M9,1.4C9,1.4,9,1.5,9,1.4c0,0.1,0,0.2,0,0.2L8.9,1.5L9,1.4z M8.9-0.4
					C8.9-0.4,8.9-0.3,8.9-0.4c0,0.1,0,0.2,0,0.2c0,0-0.1-0.1-0.1-0.1C8.8-0.4,8.8-0.4,8.9-0.4L8.9-0.4z M8.8,1.2
					c0,0-0.1,0.1-0.1,0.1c-0.1,0-0.2-0.1-0.3-0.1l0-0.1c0.1,0,0.1,0,0.2-0.1C8.6,1,8.7,1.1,8.8,1.2C8.7,1.2,8.7,1.2,8.8,1.2L8.8,1.2
					z M8.6,0.9L8.6,0.9L8.6,0.9L8.6,0.9z M8.3,0L8.3,0c0.1,0,0.1,0,0.2,0.1c0,0,0,0,0,0C8.4,0.1,8.3,0.1,8.3,0L8.3,0L8.3,0L8.3,0z
					 M8.3,1.9c0-0.2,0.2-0.1,0.3-0.2c0.1,0,0.3,0.1,0.3,0.1c0,0.2,0,0.4-0.1,0.5C8.7,2.5,8.5,2.4,8.4,2.4c0,0-0.1,0-0.1,0
					c0-0.1,0.1-0.1,0.1-0.1c0-0.1,0.4-0.2,0-0.2C8.3,2.1,8.3,2,8.3,1.9L8.3,1.9z M7.7,2.2c0,0,0.1,0,0.2,0C8,2.4,8.4,2.4,8.3,2.7
					c0,0.1,0,0.3-0.2,0.2c-0.2,0-0.3-0.1-0.3-0.3c0,0,0-0.1,0-0.2c0,0,0-0.1,0-0.1C7.7,2.3,7.6,2.3,7.7,2.2L7.7,2.2z M7.6,6.1
					L7.6,6.1L7.6,6.1L7.6,6.1z M7.4,3.9C7.4,3.9,7.4,3.9,7.4,3.9L7.4,3.9L7.4,3.9L7.4,3.9L7.4,3.9C7.3,3.8,7.3,3.8,7.4,3.9L7.4,3.9z
					 M7.3,3.7C7.3,3.7,7.3,3.7,7.3,3.7L7.3,3.7L7.3,3.7C7.3,3.7,7.3,3.7,7.3,3.7L7.3,3.7z M7.2,5.9L7.2,5.9C7.2,5.9,7.2,5.9,7.2,5.9
					C7.2,5.9,7.2,5.9,7.2,5.9L7.2,5.9z M7.4,7.4c0.1,0,0.2,0,0.2,0.2c0.1,0,0.2,0,0.3,0c0,0,0,0,0.1,0c0,0-0.1,0-0.1,0
					c-0.1,0-0.2,0-0.3,0c0,0,0,0,0,0c0,0.2-0.1,0.4-0.3,0.5C7.2,8,7.2,7.8,7.1,7.6C7,7.5,7.2,7.4,7.4,7.4L7.4,7.4z M7,8C7,8,7,8,7,8
					c0.1,0,0.2,0,0.2,0.1c0,0,0,0-0.1,0.1C6.9,8.2,6.9,8.1,7,8L7,8z M6.9,7.3C6.9,7.3,6.9,7.3,6.9,7.3C6.9,7.3,6.9,7.3,6.9,7.3
					C6.9,7.2,6.9,7.3,6.9,7.3C6.9,7.3,6.9,7.3,6.9,7.3L6.9,7.3z M6.9,5.2L6.9,5.2L6.9,5.2L6.9,5.2z M6.9,6.9C6.9,6.9,6.9,7,6.9,6.9
					C6.8,7,6.8,7,6.8,6.9C6.8,6.9,6.8,6.9,6.9,6.9C6.8,6.9,6.9,6.9,6.9,6.9C6.9,6.8,6.9,6.9,6.9,6.9L6.9,6.9z M6.8,7.8L6.8,7.8
					L6.8,7.8L6.8,7.8z M6.8,5.8C6.8,5.8,6.8,5.9,6.8,5.8C6.8,5.9,6.8,5.8,6.8,5.8C6.8,5.8,6.8,5.8,6.8,5.8L6.8,5.8z M6.9,10.1
					c0.1,0.1,0.1,0.2,0.2,0.2c0,0,0.1,0.1,0,0.1c-0.2,0-0.1,0.1-0.1,0.2c0,0.1-0.1,0.1-0.2,0.1c0,0,0,0,0,0c0,0,0,0,0,0
					c0,0,0,0.1-0.1,0.1c0-0.1-0.1-0.1-0.1-0.2c0,0,0,0,0,0c-0.1,0-0.1,0-0.2,0c-0.1,0-0.2,0-0.2-0.1s0-0.2,0.1-0.3
					c0-0.1,0.2-0.1,0.2-0.2C6.7,10,6.8,10,6.9,10.1L6.9,10.1z M6.6,8.1c0.1,0,0.1,0,0.2,0.1L6.6,8.2L6.5,8.1
					C6.5,8.1,6.5,8.1,6.6,8.1L6.6,8.1z M6.5,7.6C6.5,7.6,6.5,7.6,6.5,7.6C6.5,7.6,6.5,7.6,6.5,7.6L6.5,7.6L6.5,7.6z M6.4,6.6
					C6.5,6.6,6.5,6.6,6.4,6.6C6.5,6.6,6.5,6.6,6.4,6.6C6.5,6.6,6.5,6.6,6.4,6.6C6.4,6.6,6.4,6.6,6.4,6.6L6.4,6.6z M6.7,7.1L6.7,7.1
					C6.7,7.1,6.7,7.1,6.7,7.1L6.7,7.1C6.7,7.2,6.7,7.2,6.7,7.1L6.7,7.1C6.7,7.2,6.7,7.2,6.7,7.1c-0.1,0-0.2,0-0.3-0.1l0,0v0l0,0
					C6.5,6.7,6.5,7.1,6.7,7.1L6.7,7.1z M6.1,6.6L6.1,6.6L6.1,6.6L6.1,6.6C6.1,6.6,6.1,6.6,6.1,6.6c0,0,0.1,0,0.1,0L6.1,6.6
					C6.2,6.7,6.1,6.6,6.1,6.6L6.1,6.6z M6.2,8.1C6.3,8.1,6.3,8.1,6.2,8.1l0,0.1L6.1,8.1C6.1,8.1,6.2,8.1,6.2,8.1L6.2,8.1z M6,7.5
					l0.2,0.1l0,0L6,7.5L6,7.5L6,7.5L6,7.5z M5.9,10.4C5.9,10.4,6,10.4,5.9,10.4c0.1,0.1,0,0.1,0,0.1C5.9,10.5,5.9,10.5,5.9,10.4
					C5.9,10.4,5.8,10.3,5.9,10.4L5.9,10.4z M5.8,11.3L6,11.2l0,0.1L5.8,11.3L5.8,11.3L5.8,11.3L5.8,11.3l-0.1,0.2L5.8,11.3L5.8,11.3
					z M5.7,10.5C5.7,10.5,5.7,10.5,5.7,10.5c0.1,0.1,0,0.1-0.1,0.2v0h0h0C5.6,10.6,5.6,10.5,5.7,10.5L5.7,10.5z M5.6,15L5.6,15
					L5.6,15L5.6,15L5.6,15z M5.5,8.2L5.5,8.2L5.5,8.2L5.5,8.2z M5.4,8.7C5.5,8.7,5.5,8.7,5.4,8.7L5.4,8.7L5.4,8.7
					C5.4,8.7,5.4,8.6,5.4,8.7L5.4,8.7z M5.4,10L5.4,10L5.4,10C5.5,10,5.5,10,5.4,10C5.5,10,5.5,10,5.4,10L5.4,10z M5.5,13.9
					L5.5,13.9L5.5,13.9L5.5,13.9z M5.4,11.2C5.4,11.2,5.4,11.2,5.4,11.2C5.4,11.3,5.4,11.3,5.4,11.2L5.4,11.2L5.4,11.2z M5.5,14
					C5.5,14.1,5.5,14.1,5.5,14c0,0.1,0,0.2,0,0.2l-0.1-0.1L5.5,14z M5.3,14.5C5.3,14.5,5.3,14.5,5.3,14.5L5.3,14.5L5.3,14.5
					L5.3,14.5L5.3,14.5L5.3,14.5L5.3,14.5L5.3,14.5C5.3,14.5,5.3,14.5,5.3,14.5L5.3,14.5z M5.2,14.4C5.2,14.4,5.2,14.4,5.2,14.4
					C5.2,14.4,5.2,14.4,5.2,14.4C5.2,14.4,5.2,14.4,5.2,14.4C5.2,14.4,5.1,14.4,5.2,14.4L5.2,14.4z M5.2,14.5L5.2,14.5L5.2,14.5
					L5.2,14.5z M5.2,11.6C5.2,11.6,5.2,11.6,5.2,11.6L5.2,11.6C5.2,11.6,5.3,11.6,5.2,11.6C5.2,11.6,5.2,11.6,5.2,11.6L5.2,11.6z
					 M5.2,10C5.2,10,5.2,10,5.2,10C5.2,10,5.2,10.1,5.2,10L5.2,10L5.2,10z M5.1,12.5L5.1,12.5L5.1,12.5L5.1,12.5z M5,14.3L5,14.3
					L5,14.3L5,14.3z M5,9.9C5,10,5,10,5,9.9C5,10,5,10,5,9.9C5,10,5,10,5,9.9L5,9.9z M4.8,10.7C4.8,10.7,4.9,10.7,4.8,10.7
					c0.1,0.1,0,0.1,0,0.1C4.8,10.8,4.7,10.8,4.8,10.7C4.7,10.8,4.7,10.8,4.8,10.7C4.7,10.7,4.7,10.7,4.8,10.7L4.8,10.7z M4.5,13.1
					C4.5,13.1,4.5,13.1,4.5,13.1C4.5,13.2,4.5,13.2,4.5,13.1C4.5,13.2,4.5,13.2,4.5,13.1C4.4,13.1,4.4,13.1,4.5,13.1L4.5,13.1z
					 M4.4,14.5C4.5,14.5,4.5,14.5,4.4,14.5C4.5,14.5,4.5,14.5,4.4,14.5L4.4,14.5L4.4,14.5z M4.3,14.5L4.3,14.5L4.3,14.5L4.3,14.5z
					 M4.2,12.4L4.2,12.4L4.2,12.4L4.2,12.4z M4.1,13.1C4.1,13.1,4.1,13.1,4.1,13.1L4.1,13.1C4.1,13.1,4.1,13.1,4.1,13.1L4.1,13.1z"
					/>
			</g>
		</g>
	</g>
</g>
</svg>
