<?xml version="1.0" encoding="utf-8"?>
<!-- Generator: Adobe Illustrator 24.2.0, SVG Export Plug-In . SVG Version: 6.00 Build 0)  -->
<svg version="1.1" id="レイヤー_1" xmlns="http://www.w3.org/2000/svg" xmlns:xlink="http://www.w3.org/1999/xlink" x="0px"
	 y="0px" viewBox="0 0 148 56" style="enable-background:new 0 0 148 56;" xml:space="preserve">
<style type="text/css">
	.st0{fill:#FFFFFF;}
	.st1{font-family:'Helvetica';}
	.st2{font-size:4px;}
	.st3{fill:none;stroke:#FFFFFF;stroke-width:0.2;}
	.st4{fill:#FFFFFF;stroke:#FFFFFF;stroke-width:0.3;stroke-miterlimit:10;}
</style>
<g id="グループ_1193" transform="translate(-22.255 -13.535)">
	<g id="グループ_224" transform="translate(-90.125 -162.379)">
		<g id="グループ_219" transform="translate(117.387 183.795)">
			<path id="パス_605" class="st0" d="M111.1,0.8"/>
			<path id="パス_606" class="st0" d="M68.3,26l1.8-5.4l0,0L68.3,26z"/>
			<path id="パス_607" class="st0" d="M14.9,13.2l1.6-5.1l0,0L14.9,13.2H29l0,0l0,0l0,0H14.9z"/>
			<path id="パス_608" class="st0" d="M108.3,0.8L108.3,0.8l-5,15.6l0,0L108.3,0.8z"/>
			<path id="パス_609" class="st0" d="M132.9,0.8L132.9,0.8z"/>
			<path id="パス_610" class="st0" d="M125.1,25.6L125.1,25.6z"/>
			<path id="パス_611" class="st0" d="M94.4,17.3l4.3,15.6l0,0L94.4,17.3z"/>
			<path id="パス_612" class="st0" d="M87.2,0.8L87.2,0.8z"/>
			<path id="パス_613" class="st0" d="M64.1,20.6L64.1,20.6l2.3-7.3l0,0L64.1,20.6z"/>
			<path id="パス_614" class="st0" d="M24.5,27.8l-1.6,5.2l0,0L24.5,27.8l0.5-0.4l0,0L24.5,27.8z"/>
			<path id="パス_615" class="st0" d="M79.6,12.4L79.6,12.4l1.1-3.5l0,0L79.6,12.4z"/>
			<path id="パス_616" class="st0" d="M32.4,2.9l0.5-0.4l0,0L32.4,2.9l-1.7,5.2l0,0L32.4,2.9z"/>
			<path id="パス_617" class="st0" d="M95.7,0.8L95.7,0.8C95.7,0.8,95.7,0.8,95.7,0.8L95.7,0.8C95.7,0.8,95.7,0.8,95.7,0.8z"/>
			<path id="パス_618" class="st0" d="M58.2,3.7L58.2,3.7l-0.8,2.4v0L58.2,3.7z"/>
			<path id="パス_619" class="st0" d="M26.6,20.5l1.7-5.1l0.7-0.5l0,0l-0.7,0.5L26.6,20.5h-14L11,25.6l0,0l1.6-5.2H26.6z"/>
			<path id="パス_620" class="st0" d="M115.8,3.9l-9.3,29h20.7l1.5-4.6l3.3-2.7h-16.7l1.6-5.2h14l1.5-4.5l3.4-2.7h-2.5l0,0H125
				l0,0h-5.7l1.6-5.1h14.2l1.5-4.6l3.3-2.7h-20.3l-0.9,0.7L115.8,3.9z"/>
			<path id="パス_621" class="st0" d="M115.6,0.8l-10.2,32.1l0,0L115.6,0.8L115.6,0.8z"/>
			<path id="パス_622" class="st0" d="M114.6,0.8h-6.3l-5,15.6l0,0L99.6,3.3l3-2.5h-7c0,0,0,0-0.1,0l-0.9,0.7l-3.2,2.6l-9.2,28.8
				h7l5-15.6l0,0l4.3,15.6h5.6l0.1-0.3L114.6,0.8z"/>
			<path id="パス_623" class="st0" d="M118.1,0.8h-2.5l-10.2,32.1h0.2L115,3.4L118.1,0.8z"/>
			<path id="パス_624" class="st0" d="M115.6,0.8h-1l-10.2,31.8l-0.1,0.3h1L115.6,0.8L115.6,0.8z"/>
			<path id="パス_625" class="st0" d="M81,8l2.3-7.1l0,0L81,8z"/>
			<path id="パス_626" class="st0" d="M73,32.9L73,32.9l6.2-19.5l0,0L73,32.9z"/>
			<path id="パス_627" class="st0" d="M78.3,13.4H66.4l-2.3,7.3H70L68.3,26h-10l5.9-18H80l2.3-7.1H61.7l-0.7,0.6l-2.7,2.2
				l-0.8,2.4l-8.6,27H72l0.1-0.4L78.3,13.4z"/>
			<path id="パス_628" class="st0" d="M35,0.8L35,0.8l-0.7,0.6l0,0L35,0.8z"/>
			<path id="パス_629" class="st0" d="M59.1,0.9L59.1,0.9l-0.4,1.2l0,0L59.1,0.9z"/>
			<path id="パス_630" class="st0" d="M30.3,13.8l0.7-0.5l0,0L30.3,13.8z"/>
			<path id="パス_631" class="st0" d="M27.1,25.6l-0.8,0.6l0,0L27.1,25.6z"/>
			<path id="パス_632" class="st0" d="M53.4,0.8h-2.7l-5,15.6L42,3.3l3-2.5h-7c0,0-0.1,0-0.1,0l-1.5,0l-0.9,0.7L33.7,3l-3,9.3h2.8
				l-2,1.6l-1.8,1.4l-3,9.3h2.9l-2,1.6l-1.9,1.5l-1.6,5h7.6l5-15.6l4.3,15.6h6.5l0-0.1l8.9-27l0.8-2.6l0,0l0.8-2.4L53.4,0.8z"/>
			<path id="パス_633" class="st0" d="M59.6,0.9h-0.4l-0.4,1.2l1.5-1.2H59.6L59.6,0.9z"/>
			<path id="パス_634" class="st0" d="M59.1,0.9h1.1l0.2-0.1h-2.2l-0.8,2.4l1.3-1.1L59.1,0.9L59.1,0.9z"/>
			<path id="パス_635" class="st0" d="M47.6,32.9h0.3l8.7-27.1l-8.9,27L47.6,32.9z"/>
			<path id="パス_636" class="st0" d="M91.3,3.1L92,0.8l0,0L91.3,3.1L91.3,3.1z"/>
			<path id="パス_637" class="st0" d="M91.1,0.8h-6.8l-0.1,0.4l-2.2,7.1l-0.2,0.6h-1l-1.1,3.5h1.2l-0.4,1.2l-0.8,2.5h0l-0.4,1.2
				l-5.1,15.6h6.7l0.1-0.3L91.1,0.8z"/>
			<path id="パス_638" class="st0" d="M92.9,0.8H92l-0.7,2.3l2.9-2.3L92.9,0.8z"/>
			<path id="パス_639" class="st0" d="M91.3,3.1L92,0.8h-1L80.9,32.6l-0.1,0.3h0.6l9.4-29.4L91.3,3.1z"/>
			<path id="パス_640" class="st0" d="M94.2,0.8h-1.3H94.2L94.2,0.8z"/>
			<path id="パス_641" class="st0" d="M94.2,0.8L94.2,0.8l-1.2,0l0,0L94.2,0.8z"/>
			<path id="パス_642" class="st0" d="M73.1,32.9l5.2-15.8h0l1.2-3.7h-0.3L73.1,32.9L73.1,32.9z"/>
			<path id="パス_643" class="st0" d="M83.3,0.9L83.3,0.9L81,8h0L83.3,0.9z"/>
			<path id="パス_644" class="st0" d="M83.3,0.9L83.3,0.9L81,8h0l-0.3,0.9h1l0.2-0.6l2.2-7.1l0.1-0.4h-1L83.3,0.9L83.3,0.9z"/>
			<path id="パス_645" class="st0" d="M79.6,16.2L79.6,16.2l0.8-2.5l0.4-1.2h-1.2l-0.3,0.9h0.3l-1.2,3.7h0l-5.2,15.8h1l5.1-15.6
				L79.6,16.2z"/>
			<path id="パス_646" class="st0" d="M78.3,17.1l1.2-3.7l0,0L78.3,17.1z"/>
			<path id="パス_647" class="st0" d="M78.3,17.1l-5.2,15.8l0,0L78.3,17.1z"/>
			<path id="パス_648" class="st0" d="M81,8l2.2-7.1l0,0L81,8z"/>
			<path id="パス_649" class="st0" d="M25,27.4l0.5-1.7H11l1.6-5.2h14l1.7-5.1l0.7-0.5l0.5-1.6H29l0,0H14.9l1.6-5.1h14.2l1.7-5.2
				l0.5-0.4l0.5-1.7H11.2l-10.6,32l22.3,0.1l1.6-5.2L25,27.4z"/>
			<path id="パス_650" class="st0" d="M30.9,13.3h-0.5l-0.2,0.5L30.9,13.3z"/>
			<path id="パス_651" class="st0" d="M27.1,25.6h-0.6l-0.2,0.6L27.1,25.6z"/>
			<path id="パス_652" class="st0" d="M35,0.8h-0.6l-0.2,0.6L35,0.8z"/>
			<path id="パス_653" class="st0" d="M34.2,1.4l0.2-0.6h-1l-0.5,1.7L34.2,1.4z"/>
			<path id="パス_654" class="st0" d="M25,27.4l1.3-1.1l0.2-0.6h-1L25,27.4z"/>
			<path id="パス_655" class="st0" d="M30.4,13.3h-1L29,14.9l1.3-1.1L30.4,13.3z"/>
		</g>
		<text transform="matrix(1 0 0 1 206.6175 222.5045)" class="st0 st1 st2">Powered by MITANI</text>
		<text transform="matrix(1 0 0 1 206.6175 222.5045)" class="st3 st1 st2">Powered by MITANI</text>
		<text transform="matrix(1 0 0 1 206.6175 227.5045)" class="st0 st1 st2">SERVICE ENGINE Co.,Ltd</text>
		<text transform="matrix(1 0 0 1 206.6175 227.5045)" class="st3 st1 st2">SERVICE ENGINE Co.,Ltd</text>
		<path id="パス_656" class="st0" d="M118.7,222h5.2l0.9-2.5h-7.7l-4.2,11.6h2.5l1.7-4.5h4.4l0.9-2.5H118L118.7,222z"/>
		<path id="パス_657" class="st0" d="M131.1,219.5h-3.8l-1.9,0l-0.7,1.9L122,229l-0.8,2.1h2.1h3.7l1.9,0l0.7-2l2.7-7.5l0.8-2.1
			L131.1,219.5z M129.6,222.4l-2,5.5l-0.2,0.6l-0.6,0H125l-0.4,0l0.1-0.4l2-5.5l0.2-0.6h0.6h2.2L129.6,222.4z"/>
		<path id="パス_658" class="st0" d="M134,219.5l-4.2,11.6h2.5l1.7-4.5h0.9l0.2,4.5h2.6l-0.2-4.7l2.4-1.8l1.1-3l-1.3-2.1
			L134,219.5z M137.9,222l0.3,0.4l-0.4,1L137,224h-2.2l0.7-2L137.9,222z"/>
		<path id="パス_659" class="st0" d="M146.3,219.5l-4.2,11.6h2.5l4.2-11.6H146.3z"/>
		<path id="パス_660" class="st0" d="M154.2,224h-2.8l-0.3-0.4l0.4-1l0.8-0.6h1.7l0.3,0.4l-0.2,0.5h2.5l0.5-1.3l-1.3-2.1h-3.8
			l-2.6,1.9l-1.1,3l1.3,2.1h2.8l0.3,0.4l-0.4,1l-0.8,0.6h-1.8l-0.3-0.4l0.2-0.5h-2.5l-0.5,1.3l1.3,2.1h3.8l2.6-1.9l1.1-3L154.2,224z
			"/>
		<path id="パス_661" class="st0" d="M164.6,219.5l-1.7,4.5h-2.8l1.7-4.5h-2.5l-4.2,11.6h2.5l1.7-4.5h2.8l-1.7,4.5h2.5l4.2-11.6
			H164.6z"/>
		<path id="パス_662" class="st0" d="M168.6,219.5l-4.2,11.6h2.5l4.2-11.6H168.6z"/>
		<path id="パス_663" class="st0" d="M180.7,219.5h-3.2l-3.6,3.3l1.2-3.3h-2.5l-4.2,11.6h2.5l1.4-3.8l0.6-0.5l0.8,4.3h2.7
			l-1.1-6.5L180.7,219.5z"/>
		<path id="パス_664" class="st0" d="M183.1,219.5l-6.9,11.6h2.6l1-1.6h2l-0.2,1.6h2.5l1.5-11.6H183.1z M182.3,225.3l-0.2,2l-1,0
			L182.3,225.3z"/>
		<path id="パス_665" class="st0" d="M196.3,219.5l-2.5,4.8l0.6-4.8H192l-2.9,4.7l1-4.7h-2.5l-2.5,11.6h2.4l3.7-6l-0.7,6h2.4
			l6-11.6H196.3z"/>
		<path id="パス_666" class="st0" d="M201.5,219.5l-6.9,11.6h2.6l1-1.6h2l-0.2,1.6h2.5l1.5-11.6H201.5z M200.6,225.3l-0.2,2h-0.9
			L200.6,225.3z"/>
		<g id="グループ_220" transform="translate(128.559 176.065)">
			<path id="パス_667" class="st4" d="M4.8,1.9l-1.6,0L1.7,7.1H0.6l1.5-5.3l-1.6,0l0.3-1.1l4.2,0L4.8,1.9z"/>
			<path id="パス_668" class="st4" d="M8.8,7.2l-4.2,0l1.8-6.3l4.2,0l-0.3,1.1l-3.2,0L6.6,3.5l1.6,0L7.9,4.5l-1.6,0L5.9,6.1l3.2,0
				L8.8,7.2z"/>
			<path id="パス_669" class="st4" d="M14.2,7.2h-1.1l0-1.1l-1.5,0l-0.6,1.1H10l3.3-6.3h1.1L14.2,7.2z M13.2,5.1l0.1-1.9l-1,1.9
				L13.2,5.1z"/>
			<path id="パス_670" class="st4" d="M21.8,7.2h-1.1l1-3.6l-2.6,3.6h-1.1l-0.5-3.6l-1,3.6h-1.1l1.8-6.3h1.1l0.7,5l3.5-4.9h1.1
				L21.8,7.2z"/>
		</g>
		<path id="パス_671" class="st0" d="M138.1,180.7h-1.6v-1.4h2L138.1,180.7z"/>
	</g>
</g>
</svg>
