<?xml version="1.0" encoding="utf-8"?>
<!-- Generator: Adobe Illustrator 24.2.0, SVG Export Plug-In . SVG Version: 6.00 Build 0)  -->
<svg version="1.1" id="レイヤー_1" xmlns="http://www.w3.org/2000/svg" xmlns:xlink="http://www.w3.org/1999/xlink" x="0px"
	 y="0px" viewBox="0 0 139 16" style="enable-background:new 0 0 139 16;" xml:space="preserve">
<style type="text/css">
	.st0{fill:#D10000;}
</style>
<path id="パス_1164" class="st0" d="M0.8,15.1V0.9h2l2.6,7.5h0l2.6-7.5h2v14.2H8V6.5h0l-2,6.1h-1l-2-6.1h0v8.7H0.8z M12.8,15.1
	V0.9h2v14.2H12.8z M24.2,5h-2V4.5c0-0.4-0.1-0.8-0.3-1.2c-0.3-0.4-0.7-0.6-1.1-0.5c-0.2,0-0.5,0-0.7,0.2c-0.2,0.1-0.3,0.2-0.4,0.4
	c-0.1,0.2-0.2,0.4-0.2,0.6c0,0.2-0.1,0.5-0.1,0.7c0,0.2,0,0.5,0,0.7c0,0.2,0.1,0.3,0.1,0.5c0.1,0.2,0.2,0.3,0.4,0.4
	c0.2,0.1,0.4,0.2,0.6,0.3l1.6,0.6c0.4,0.1,0.8,0.3,1.1,0.6c0.3,0.2,0.5,0.5,0.7,0.8c0.2,0.3,0.3,0.7,0.3,1.1
	c0.1,0.5,0.1,0.9,0.1,1.4c0,0.6-0.1,1.1-0.2,1.7c-0.1,0.5-0.3,0.9-0.6,1.3c-0.3,0.4-0.7,0.7-1.1,0.9c-0.5,0.2-1.1,0.3-1.7,0.3
	c-0.5,0-0.9-0.1-1.4-0.3c-0.4-0.2-0.8-0.4-1.1-0.7c-0.3-0.3-0.6-0.7-0.7-1.1c-0.2-0.4-0.3-0.9-0.3-1.3v-0.8h2v0.6
	c0,0.4,0.1,0.7,0.3,1c0.3,0.3,0.7,0.5,1.1,0.4c0.3,0,0.6,0,0.8-0.1c0.2-0.1,0.3-0.2,0.5-0.4c0.1-0.2,0.2-0.4,0.2-0.7
	c0-0.3,0-0.6,0-0.9c0-0.3,0-0.6,0-0.9c0-0.2-0.1-0.4-0.2-0.6c-0.1-0.1-0.2-0.3-0.4-0.4C21.4,9.1,21.2,9,21,8.9l-1.5-0.6
	c-0.7-0.2-1.4-0.8-1.8-1.4c-0.3-0.7-0.5-1.5-0.5-2.2c0-0.5,0.1-1,0.2-1.5c0.1-0.5,0.4-0.9,0.7-1.2c0.3-0.4,0.7-0.6,1.1-0.8
	c0.5-0.2,1-0.3,1.5-0.3c0.5,0,1,0.1,1.4,0.3c0.4,0.2,0.8,0.4,1.1,0.7c0.6,0.6,0.9,1.4,0.9,2.2L24.2,5z M33.2,5h-2V4.5
	c0-0.4-0.1-0.8-0.3-1.2c-0.3-0.4-0.7-0.6-1.1-0.5c-0.2,0-0.5,0-0.7,0.2c-0.2,0.1-0.3,0.2-0.4,0.4c-0.1,0.2-0.2,0.4-0.2,0.6
	c0,0.2-0.1,0.5-0.1,0.7c0,0.2,0,0.5,0,0.7c0,0.2,0.1,0.3,0.1,0.5c0.1,0.2,0.2,0.3,0.4,0.4c0.2,0.1,0.4,0.2,0.6,0.3L31,7.2
	c0.4,0.1,0.8,0.3,1.1,0.6c0.3,0.2,0.5,0.5,0.7,0.8c0.2,0.3,0.3,0.7,0.3,1.1c0.1,0.5,0.1,0.9,0.1,1.4c0,0.6-0.1,1.1-0.2,1.7
	c-0.1,0.5-0.3,0.9-0.6,1.3c-0.3,0.4-0.7,0.7-1.1,0.9c-0.5,0.2-1.1,0.3-1.7,0.3c-0.5,0-0.9-0.1-1.4-0.3c-0.4-0.2-0.8-0.4-1.1-0.7
	c-0.3-0.3-0.6-0.7-0.7-1.1c-0.2-0.4-0.3-0.9-0.3-1.3v-0.8h2v0.6c0,0.4,0.1,0.7,0.3,1c0.3,0.3,0.7,0.5,1.1,0.4c0.3,0,0.6,0,0.8-0.1
	c0.2-0.1,0.3-0.2,0.5-0.4c0.1-0.2,0.2-0.4,0.2-0.7c0-0.3,0-0.6,0-0.9c0-0.3,0-0.6,0-0.9c0-0.2-0.1-0.4-0.2-0.6
	c-0.1-0.1-0.2-0.3-0.4-0.4c-0.2-0.1-0.4-0.2-0.6-0.3l-1.5-0.6c-0.7-0.2-1.4-0.8-1.8-1.4c-0.3-0.7-0.5-1.5-0.5-2.2
	c0-0.5,0.1-1,0.2-1.5c0.1-0.5,0.4-0.9,0.7-1.2c0.3-0.4,0.7-0.6,1.1-0.8c0.5-0.2,1-0.3,1.5-0.3c0.5,0,1,0.1,1.4,0.3
	c0.4,0.2,0.8,0.4,1.1,0.7c0.6,0.6,0.9,1.4,0.9,2.2L33.2,5z M35.5,15.1V0.9h2v14.2H35.5z M40.2,4.2c0-0.5,0.1-1,0.3-1.5
	c0.2-0.4,0.5-0.8,0.8-1.1C41.7,1.3,42,1.1,42.4,1c0.4-0.1,0.8-0.2,1.2-0.2c0.4,0,0.8,0.1,1.2,0.2c0.4,0.1,0.8,0.4,1.1,0.6
	c0.3,0.3,0.6,0.7,0.8,1.1c0.2,0.5,0.3,1,0.3,1.5v7.5c0,0.5-0.1,1.1-0.3,1.5c-0.2,0.4-0.4,0.8-0.8,1.1c-0.3,0.3-0.7,0.5-1.1,0.7
	c-0.4,0.1-0.8,0.2-1.2,0.2c-0.4,0-0.8-0.1-1.2-0.2c-0.4-0.1-0.8-0.4-1.1-0.7c-0.3-0.3-0.6-0.7-0.8-1.1c-0.2-0.5-0.3-1-0.3-1.5V4.2z
	 M42.3,11.8c0,0.4,0.1,0.8,0.4,1.1c0.3,0.2,0.6,0.4,1,0.3c0.4,0,0.7-0.1,1-0.3c0.3-0.3,0.4-0.7,0.4-1.1V4.2c0-0.4-0.1-0.8-0.4-1.1
	c-0.3-0.2-0.6-0.4-1-0.4c-0.4,0-0.7,0.1-1,0.4c-0.3,0.3-0.4,0.7-0.4,1.1V11.8z M49.6,15.1V0.9h2l3.1,8.6h0V0.9h2v14.2h-1.9l-3.1-8.6
	h0v8.6H49.6z M70.5,5h-2V4.5c0-0.4-0.1-0.8-0.3-1.2C67.9,3,67.4,2.8,67,2.8c-0.2,0-0.5,0-0.7,0.2c-0.2,0.1-0.3,0.2-0.4,0.4
	c-0.1,0.2-0.2,0.4-0.2,0.6c0,0.2-0.1,0.5-0.1,0.7c0,0.2,0,0.5,0,0.7c0,0.2,0.1,0.3,0.2,0.5C65.9,6,66,6.1,66.1,6.2
	c0.2,0.1,0.4,0.2,0.6,0.3l1.6,0.6c0.4,0.1,0.8,0.3,1.1,0.6c0.3,0.2,0.5,0.5,0.7,0.8c0.2,0.3,0.3,0.7,0.3,1.1
	c0.1,0.5,0.1,0.9,0.1,1.4c0,0.6-0.1,1.1-0.2,1.7c-0.1,0.5-0.3,0.9-0.6,1.3c-0.3,0.4-0.7,0.7-1.1,0.9c-0.5,0.2-1.1,0.3-1.7,0.3
	c-0.5,0-0.9-0.1-1.4-0.3c-0.4-0.2-0.8-0.4-1.1-0.7c-0.3-0.3-0.6-0.7-0.7-1.1c-0.2-0.4-0.3-0.9-0.3-1.3v-0.8h2v0.6
	c0,0.4,0.1,0.7,0.3,1c0.3,0.3,0.7,0.5,1.1,0.4c0.3,0,0.6,0,0.8-0.1c0.2-0.1,0.3-0.2,0.4-0.4c0.1-0.2,0.2-0.4,0.2-0.7
	c0-0.3,0-0.6,0-0.9c0-0.3,0-0.6,0-0.9c0-0.2-0.1-0.4-0.2-0.6c-0.1-0.1-0.2-0.3-0.4-0.4c-0.2-0.1-0.4-0.2-0.6-0.3l-1.5-0.6
	c-0.7-0.2-1.4-0.8-1.8-1.4c-0.3-0.7-0.5-1.5-0.5-2.2c0-0.5,0.1-1,0.2-1.5c0.1-0.5,0.4-0.9,0.7-1.2c0.3-0.4,0.7-0.6,1.1-0.8
	c0.5-0.2,1-0.3,1.6-0.3c0.5,0,1,0.1,1.4,0.3c0.4,0.2,0.8,0.4,1.1,0.7c0.6,0.6,0.9,1.4,0.9,2.2L70.5,5z M74.1,15.1V2.8h-2.4V0.9h6.8
	v1.9h-2.4v12.3H74.1z M83.3,10.1l-1-5.2h0l-1,5.2L83.3,10.1z M78.2,15.1l3.2-14.2h1.7l3.2,14.2h-2l-0.6-3.1h-2.8l-0.6,3.1H78.2z
	 M88.3,15.1V2.8H86V0.9h6.8v1.9h-2.4v12.3H88.3z M94.4,15.1V0.9h6.1v1.9h-4V7h3.5v1.9h-3.5v4.2h4v2H94.4z M102.6,15.1V0.9h2l2.6,7.5
	h0l2.6-7.5h2v14.2h-2V6.5h0l-2,6.1h-1l-2-6.1h0v8.7H102.6z M114.5,15.1V0.9h6.1v1.9h-4V7h3.5v1.9h-3.5v4.2h4v2H114.5z M122.7,15.1
	V0.9h2l3.1,8.6h0V0.9h2v14.2h-1.9l-3.1-8.6h0v8.6H122.7z M133.8,15.1V2.8h-2.4V0.9h6.8v1.9h-2.4v12.3H133.8z"/>
</svg>
