<?xml version="1.0" encoding="utf-8"?>
<!-- Generator: Adobe Illustrator 24.2.0, SVG Export Plug-In . SVG Version: 6.00 Build 0)  -->
<svg version="1.1" id="レイヤー_1" xmlns="http://www.w3.org/2000/svg" xmlns:xlink="http://www.w3.org/1999/xlink" x="0px"
	 y="0px" viewBox="0 0 247 220" style="enable-background:new 0 0 247 220;" xml:space="preserve">
<style type="text/css">
	.st0{fill:#6A6A6A;}
	.st1{fill:#FFFFFF;}
	.st2{fill:none;stroke:#FFFFFF;}
</style>
<g id="グループ_1195" transform="translate(-711 -12093.124)">
	<rect id="長方形_330" x="711" y="12093.1" class="st0" width="247" height="220"/>
	<path id="パス_1342" class="st1" d="M851.1,12134.4c0.6,0,1.2-0.1,1.8-0.3c0.3-0.2,0.5-0.7,0.5-1.4v-2.6c0-0.4-0.1-0.7-0.4-1
		c-0.3-0.3-0.6-0.4-1-0.4c-0.4,0-0.8,0.1-1.1,0.5c-0.2,0.3-0.3,0.6-0.3,0.9v1.6h-2.9v-1.7c0-0.6,0.1-1.1,0.3-1.7
		c0.2-0.5,0.5-1,0.9-1.3c0.4-0.4,0.9-0.7,1.4-0.9c0.5-0.2,1.1-0.3,1.7-0.3c0.7,0,1.3,0.1,1.9,0.5c0.4,0.2,0.8,0.6,1.2,0.9
		c0.2,0.2,0.3,0.4,0.5,0.7c0.2,0.3,0.3,0.5,0.3,0.8c0.2,0.9,0.3,1.8,0.3,2.7c0,0.7,0,1.2,0,1.7c0,0.4-0.1,0.7-0.2,1.1
		c-0.1,0.3-0.3,0.5-0.5,0.8c-0.3,0.3-0.6,0.5-1,0.7c0.4,0.2,0.7,0.5,1,0.8c0.2,0.2,0.4,0.5,0.5,0.8c0.1,0.4,0.2,0.8,0.2,1.2
		c0,0.5,0,1,0,1.8c0,0.7,0,1.2,0,1.6c0,0.4-0.1,0.7-0.1,1.1c0,0.3-0.1,0.5-0.2,0.8c-0.1,0.2-0.2,0.4-0.4,0.6c-0.4,0.5-0.8,1-1.4,1.3
		c-0.7,0.4-1.4,0.6-2.2,0.5c-0.5,0-1-0.1-1.4-0.2c-0.5-0.1-1-0.4-1.4-0.7c-0.4-0.4-0.8-0.8-1-1.3c-0.3-0.6-0.4-1.3-0.4-2v-1.6h2.9
		v1.5c0,0.4,0.1,0.8,0.4,1.1c0.3,0.3,0.6,0.5,1,0.4c0.4,0,0.8-0.1,1-0.4c0.3-0.3,0.4-0.7,0.4-1.2v-2.9c0.1-0.6-0.1-1.1-0.4-1.5
		c-0.2-0.2-0.4-0.3-0.7-0.3c-0.4,0-0.8-0.1-1.1-0.1V12134.4z"/>
	<line id="線_7836" class="st2" x1="756.5" y1="12159.5" x2="911.5" y2="12159.5"/>
	<path id="パス_1340" class="st1" d="M797.8,12220.9c-2.1,0-2.8,0-2.9,0c-0.2,0-0.2,0-0.2,0.2v1.6c0,0.2,0,0.2,0.2,0.2
		c0.1,0,0.5,0,1.4,0c0.7,1.7,1.7,3.2,2.9,4.5c-1.7,1.1-3.7,1.9-5.7,2.4c0.4,0.4,0.7,0.8,0.9,1.3c0.3,0.7,0.3,0.7,0.9,0.5
		c2-0.6,3.9-1.5,5.6-2.7c1.8,1.2,3.7,2.1,5.8,2.6c0.7,0.2,0.7,0.2,0.9-0.5c0.2-0.5,0.5-1,0.8-1.5c-2.1-0.3-4.1-1-5.9-2.1
		c1.2-1.2,2.2-2.5,2.9-4c0.3-0.5,0.4-0.7,0.6-0.8c0.1-0.1,0.2-0.2,0.2-0.3c0-0.2-0.2-0.4-0.7-1c-0.5-0.5-0.7-0.6-0.8-0.6
		c-0.1,0-0.2,0-0.3,0.1c-0.2,0.1-0.3,0.1-0.5,0.1L797.8,12220.9z M803.4,12222.8c-0.6,1.2-1.5,2.3-2.5,3.3c-1-0.9-1.8-2-2.4-3.3
		H803.4z M801.9,12214.3v3.4c-0.1,0.6,0.2,1.1,0.6,1.5c0.7,0.3,1.4,0.4,2.2,0.4c1.6,0,2.3-0.1,2.8-0.6c0.4-0.4,0.6-0.8,0.7-2.3
		c0.1-0.7,0.1-0.7-0.5-0.8c-0.5-0.1-1-0.3-1.4-0.5c0.1,0.6,0,1.3-0.3,1.9c-0.2,0.2-0.3,0.3-0.9,0.3c-0.5,0-0.7-0.1-0.8-0.2
		c-0.1-0.1-0.1-0.3-0.1-0.7v-2.4c0-1.1,0-1.7,0-1.8c0-0.2,0-0.2-0.3-0.2c-0.1,0-0.6,0-2.1,0h-2.5c-1.5,0-2,0-2.1,0
		c-0.2,0-0.2,0-0.2,0.2c0,0.1,0,0.5,0,1c0,2.8-0.4,4.1-2.4,5.4c0.5,0.2,0.9,0.6,1.3,1c0.2,0.3,0.4,0.4,0.5,0.4
		c0.1,0,0.3-0.1,0.5-0.4c1.6-1.5,2.2-3,2.3-5.7L801.9,12214.3z M790.6,12228.8c0,1.8,0,2.6,0,2.7c0,0.2,0,0.3,0.2,0.3h1.8
		c0.2,0,0.2,0,0.2-0.3c0-0.1,0-0.9,0-2.7v-8c0.5-0.7,1-1.3,1.4-2c0.1-0.2,0.3-0.4,0.5-0.5c0.1,0,0.2-0.1,0.2-0.2
		c0-0.2-0.1-0.2-0.3-0.4c-0.6-0.4-1.1-0.7-1.7-1c-0.1,0.4-0.3,0.8-0.5,1.2c-1.1,1.9-2.6,3.6-4.4,4.9c0.3,0.5,0.6,1,0.7,1.6
		c0.1,0.3,0.2,0.5,0.3,0.5s0.3-0.1,0.5-0.3c0.4-0.4,0.8-0.8,1.3-1.2c0,0.8,0,1.7,0,2.3L790.6,12228.8z M792.7,12211.6
		c-0.2,0.4-0.4,0.7-0.7,1c-1.1,1.4-2.4,2.6-3.9,3.5c0.4,0.4,0.7,0.8,0.9,1.3c0.2,0.4,0.3,0.5,0.4,0.5c0.1,0,0.2-0.1,0.5-0.3
		c1.4-1,2.7-2.3,3.8-3.7c0.2-0.2,0.4-0.4,0.6-0.6c0.2-0.1,0.3-0.2,0.3-0.4c0-0.2-0.1-0.3-0.3-0.4
		C793.9,12212.2,793.3,12211.8,792.7,12211.6z M826.3,12227.8c2.2,0,2.9,0,3.1,0c0.2,0,0.2,0,0.2-0.2c0-0.1,0-0.8,0-2.3v-4.6
		c0-1.5,0-2.2,0-2.3c0-0.2,0-0.2-0.2-0.2c-0.1,0-0.9,0-3.1,0h-8.5c-2.2,0-2.9,0-3.1,0c-0.2,0-0.3,0-0.3,0.2c0,0.1,0,0.8,0,2.3v4.6
		c0,1.5,0,2.2,0,2.3c0,0.2,0,0.2,0.3,0.2c0.1,0,0.9,0,3.1,0h0.5c-0.3,0.3-0.7,0.5-1.1,0.7c-1.6,0.7-3.2,1.2-4.9,1.4
		c0.4,0.4,0.7,0.9,1,1.4c0.2,0.4,0.3,0.6,0.5,0.6c0.2,0,0.3,0,0.5-0.1c1.7-0.4,3.4-1,4.9-1.9c0.3-0.2,0.6-0.3,0.9-0.4
		c0.2,0,0.4-0.2,0.4-0.3c0-0.1-0.1-0.2-0.3-0.4c-0.5-0.4-1.1-0.7-1.7-1L826.3,12227.8z M827.3,12226.1h-10.5v-1.1h10.5V12226.1z
		 M816.8,12223.5v-1.1h10.5v1.1H816.8z M816.8,12219.8h10.5v1.1h-10.5V12219.8z M819,12212.3c-2.1,0-2.8,0-2.9,0
		c-0.2,0-0.2,0-0.2,0.2c0,0.1,0,0.5,0,1.5v1.4c0,0.9,0,1.3,0,1.5c0,0.2,0,0.2,0.2,0.2c0.2,0,0.9,0,2.9,0h6.3c2.1,0,2.8,0,2.9,0
		c0.2,0,0.2,0,0.2-0.2c0-0.1,0-0.5,0-1.5v-1.4c0-1,0-1.3,0-1.5c0-0.2,0-0.2-0.2-0.2c-0.1,0-0.9,0-2.9,0H819z M826.1,12215.4h-8v-1.4
		h8L826.1,12215.4z M824,12228.8c-0.2,0.1-0.2,0.2-0.2,0.2c0,0.1,0,0.1,0.1,0.2c1.8,1.2,3.8,2,5.8,2.4c0.2,0,0.3,0.1,0.5,0.1
		c0.2,0,0.3-0.2,0.6-0.6c0.3-0.5,0.7-0.9,1.1-1.3c-2.1-0.2-4.2-0.9-6-1.9c-0.1,0-0.1-0.1-0.2-0.1c-0.1,0-0.2,0.1-0.3,0.1
		L824,12228.8z M844.4,12214.6c-0.3,0.9-0.7,1.7-1.1,2.5h-3c-2.1,0-2.8,0-3,0c-0.2,0-0.2,0-0.2,0.2c0,0.2,0,1.1,0,4.6v3.5
		c0,4.9,0,5.8,0,6c0,0.2,0,0.2,0.2,0.2h1.8c0.2,0,0.2,0,0.2-0.2v-0.9h13.1v0.8c0,0.2,0,0.2,0.2,0.2h1.9c0.2,0,0.2,0,0.2-0.2
		c0-0.1,0-1.1,0-5.9v-4c0-3.1,0-4,0-4.2c0-0.2,0-0.2-0.2-0.2c-0.2,0-0.9,0-3,0h-5.8c0.4-0.8,0.8-1.6,1.1-2.5h5.7c2,0,2.6,0,2.8,0
		c0.2,0,0.3,0,0.3-0.2v-1.7c0-0.2,0-0.2-0.3-0.2c-0.1,0-0.8,0-2.8,0h-13.4c-2,0-2.6,0-2.8,0c-0.2,0-0.2,0-0.2,0.2v1.7
		c0,0.2,0,0.2,0.2,0.2c0.1,0,0.8,0,2.8,0L844.4,12214.6z M852.4,12219v9.6h-2.8v-9.6H852.4z M839.3,12219h2.7v9.6h-2.7V12219z
		 M844.1,12228.6v-2.1h3.5v2.1L844.1,12228.6z M844.1,12224.6v-1.9h3.5v1.9H844.1z M844.1,12220.9v-1.9h3.5v1.9H844.1z
		 M879.6,12222.9c0-0.3,0-0.2-0.2-0.2c-0.1,0-0.9,0-3,0h-4.1l0.1-0.1c0.1-0.3,0.3-0.6,0.5-0.8c0.2-0.1,0.3-0.2,0.3-0.4
		s-0.1-0.2-0.3-0.3l-1.3-0.4h4.9c2.1,0,2.9,0,3,0c0.2,0,0.2,0,0.2-0.2v-1.4c0-0.2,0-0.3-0.2-0.3c-0.1,0-0.9,0-3,0h-0.5
		c0.3-0.6,0.5-1,0.7-1.6c0.1-0.2,0.1-0.3,0.3-0.5c0.1-0.1,0.2-0.2,0.2-0.3c0-0.2-0.2-0.2-0.4-0.2c-0.7-0.1-1.2-0.2-2-0.3
		c0,0.3-0.1,0.7-0.2,1c-0.2,0.7-0.5,1.3-0.7,2h-4.3c-2.1,0-2.9,0-3,0c-0.2,0-0.2,0-0.2,0.3v1.5c0,0.2,0,0.2,0.2,0.2c0.1,0,0.9,0,3,0
		h1.2c-0.1,0.6-0.3,1.2-0.6,1.7l-0.2,0.3h-0.5c-2.1,0-2.9,0-3,0c-0.2,0-0.2,0-0.2,0.2v1.4c0,0.2,0,0.3,0.2,0.3c0.1,0,0.8,0,2.6,0
		c-0.2,0.4-0.4,0.7-0.6,1c-0.4,0.5-0.8,1.1-1.2,1.6c-0.1,0.1-0.1,0.2-0.1,0.2c0,0.1,0.1,0.2,0.4,0.3l1,0.4c0.5,0.2,0.6,0.1,0.8-0.3
		l0.2-0.2c0.7,0.2,1.3,0.4,1.9,0.7c-1.9,0.9-3.9,1.3-6,1.4c0.3,0.4,0.6,0.8,0.8,1.3c0.2,0.5,0.3,0.6,0.5,0.6c0.1,0,0.3,0,0.4,0
		c2.4-0.2,4.6-1,6.6-2.3c1.5,0.7,2.8,1.5,4.2,2.4c0.1,0.1,0.1,0.1,0.2,0.1c0.1,0,0.1,0,0.3-0.2l0.9-1.3c0.1-0.1,0.2-0.2,0.2-0.3
		c0-0.1-0.1-0.1-0.2-0.2c-1.3-0.8-2.6-1.4-4-2c0.8-1,1.4-2,1.8-3.2c1.7,0,2.4,0,2.5,0c0.2,0,0.2,0,0.2-0.3V12222.9z M874.5,12224.6
		c-0.4,0.9-0.9,1.7-1.6,2.4c-0.9-0.3-1.8-0.6-2.6-0.9c0.3-0.5,0.6-1,0.9-1.5H874.5z M864.3,12223.6l1.1-0.5c0.4-0.2,0.4-0.2,0.4-0.6
		c0-0.6,0.1-1.1,0.1-1.7c-0.6,0.3-1.1,0.5-1.6,0.7v-3.5c1.1,0,1.5,0,1.7,0c0.2,0,0.2,0,0.2-0.2v-1.6c0-0.2,0-0.2-0.2-0.2
		c-0.1,0-0.5,0-1.7,0v-1.2c-0.1-0.7,0-1.5,0.1-2.2c0.1-0.1,0.1-0.3,0.2-0.5c0-0.1-0.2-0.2-0.4-0.2c-0.7-0.1-1.5-0.2-2.2-0.2
		c0.1,1,0.2,2.1,0.2,3.1v1.2h-0.4c-1.4,0-1.8,0-1.9,0c-0.2,0-0.2,0-0.2,0.2v1.6c0,0.2,0,0.2,0.2,0.2c0.1,0,0.5,0,1.9,0h0.4v4.3
		l-0.6,0.2c-0.7,0.2-1.3,0.3-2,0.4c0.1,0.7,0.2,1.4,0.3,2.1c0,0.2,0.2,0.3,0.3,0.3c0.1,0,0.3,0,0.4-0.1c0.2-0.2,0.5-0.3,0.8-0.4
		l0.9-0.3v4.2c0,0.6-0.1,0.8-0.5,0.8c-0.6,0-1.1,0-1.7-0.1c0.3,0.5,0.4,1,0.5,1.6c0.1,0.7,0.1,0.7,0.8,0.7c1.4,0,1.9-0.1,2.4-0.5
		c0.5-0.4,0.7-1,0.7-2.2c0-1.1-0.1-2.3-0.1-4.4V12223.6z M875.9,12215.8c2.1,0,2.8,0,2.9,0c0.2,0,0.2,0,0.2-0.2v-1.4
		c0-0.2,0-0.2-0.2-0.2c-0.1,0-0.9,0-2.9,0h-2.2v-0.6c0-0.4,0-0.7,0.1-1.1c0.1-0.1,0.1-0.2,0.1-0.4c0-0.1-0.1-0.2-0.4-0.2
		c-0.7-0.1-1.4-0.1-2.2-0.1c0.1,0.6,0.2,1.2,0.1,1.8v0.6h-1.5c-2.1,0-2.8,0-2.9,0c-0.2,0-0.2,0-0.2,0.2v1.4c0,0.2,0,0.2,0.2,0.2
		c0.1,0,0.9,0,2.9,0H875.9z M871.1,12218.4c0.3-0.1,0.3-0.2,0.2-0.4c-0.2-0.7-0.4-1.3-0.7-1.9c-0.1-0.2-0.2-0.2-0.4-0.1l-1.3,0.3
		c-0.3,0.1-0.3,0.1-0.2,0.4c0.3,0.6,0.5,1.2,0.6,1.9c0.1,0.2,0.2,0.2,0.4,0.2L871.1,12218.4z"/>
	<path id="パス_1341" class="st1" d="M816.4,12134.9h-1.8v-0.4c0-0.4-0.1-0.8-0.3-1.1c-0.2-0.3-0.6-0.5-1-0.5
		c-0.2,0-0.4,0-0.6,0.1c-0.2,0.1-0.3,0.2-0.4,0.4c-0.1,0.2-0.2,0.3-0.2,0.5c0,0.2-0.1,0.4-0.1,0.6c0,0.2,0,0.4,0,0.6
		c0,0.2,0.1,0.3,0.1,0.5c0.1,0.1,0.2,0.3,0.3,0.3c0.2,0.1,0.4,0.2,0.6,0.3l1.4,0.6c0.4,0.1,0.7,0.3,1,0.5c0.2,0.2,0.4,0.4,0.6,0.7
		c0.1,0.3,0.2,0.6,0.3,1c0.1,0.4,0.1,0.8,0.1,1.3c0,0.5-0.1,1-0.2,1.5c-0.1,0.4-0.3,0.8-0.5,1.2c-0.3,0.3-0.6,0.6-1,0.8
		c-0.5,0.2-1,0.3-1.5,0.3c-0.4,0-0.8-0.1-1.2-0.2c-0.4-0.1-0.7-0.4-1-0.6c-0.3-0.3-0.5-0.6-0.7-1c-0.2-0.4-0.2-0.8-0.2-1.2v-0.7h1.8
		v0.6c0,0.3,0.1,0.6,0.3,0.9c0.2,0.3,0.6,0.4,1,0.4c0.3,0,0.5,0,0.7-0.1c0.2-0.1,0.3-0.2,0.4-0.4c0.1-0.2,0.2-0.4,0.2-0.6
		c0-0.2,0-0.5,0-0.8c0-0.3,0-0.6,0-0.8c0-0.2-0.1-0.4-0.1-0.5c-0.1-0.1-0.2-0.2-0.3-0.3c-0.2-0.1-0.4-0.2-0.5-0.3l-1.3-0.5
		c-0.7-0.2-1.2-0.7-1.6-1.3c-0.3-0.6-0.4-1.3-0.4-2c0-0.5,0.1-0.9,0.2-1.4c0.1-0.4,0.3-0.8,0.6-1.1c0.3-0.3,0.6-0.6,1-0.7
		c0.4-0.2,0.9-0.3,1.4-0.3c0.4,0,0.9,0.1,1.3,0.3c0.4,0.2,0.7,0.4,1,0.7c0.5,0.5,0.8,1.2,0.8,2L816.4,12134.9z M819.5,12144v-11.1
		h-2.1v-1.7h6.1v1.7h-2.1v11.1H819.5z M824.8,12144v-12.8h5.5v1.7h-3.6v3.8h3.2v1.7h-3.2v3.8h3.6v1.8H824.8z M832,12144v-12.8h2.8
		c0.5,0,0.9,0.1,1.3,0.2c0.4,0.1,0.8,0.4,1,0.7c0.3,0.3,0.5,0.7,0.6,1.2c0.1,0.6,0.2,1.2,0.2,1.8c0,0.5,0,1-0.1,1.5
		c-0.1,0.4-0.2,0.8-0.4,1.1c-0.2,0.4-0.6,0.8-1,1c-0.5,0.3-1.1,0.4-1.7,0.4h-0.9v5H832z M833.8,12132.9v4.4h0.9c0.3,0,0.6,0,0.9-0.2
		c0.2-0.1,0.4-0.3,0.4-0.5c0.1-0.2,0.2-0.4,0.2-0.7c0-0.3,0-0.6,0-0.9c0-0.3,0-0.6,0-0.9c0-0.2-0.1-0.5-0.2-0.7
		c-0.1-0.2-0.2-0.4-0.4-0.5c-0.3-0.1-0.5-0.2-0.8-0.2H833.8z"/>
</g>
</svg>
