<?xml version="1.0" encoding="utf-8"?>
<!-- Generator: Adobe Illustrator 24.2.0, SVG Export Plug-In . SVG Version: 6.00 Build 0)  -->
<svg version="1.1" id="レイヤー_1" xmlns="http://www.w3.org/2000/svg" xmlns:xlink="http://www.w3.org/1999/xlink" x="0px"
	 y="0px" viewBox="0 0 247 220" style="enable-background:new 0 0 247 220;" xml:space="preserve">
<style type="text/css">
	.st0{fill:#6A6A6A;}
	.st1{fill:none;stroke:#707070;stroke-width:1.0014;}
	.st2{fill:#FFFFFF;}
	.st3{fill:none;stroke:#FFFFFF;}
</style>
<g id="グループ_1194" transform="translate(-413 -12091.124)">
	<g id="長方形_333" transform="translate(413 12091.124)">
		<rect class="st0" width="247" height="220"/>
		<rect x="0.5" y="0.5" class="st1" width="246" height="219"/>
	</g>
	<path id="パス_1339" class="st2" d="M550.7,12145v-2.7l5.2-9.7c0.2-0.4,0.4-0.8,0.4-1.3c0-0.4,0.1-0.8,0.1-1.4c0-0.2,0-0.5,0-0.8
		c0-0.2-0.1-0.5-0.2-0.7c-0.1-0.2-0.2-0.4-0.4-0.5c-0.2-0.2-0.5-0.2-0.8-0.2c-0.4,0-0.7,0.1-1,0.4c-0.3,0.3-0.4,0.7-0.4,1.1v1.6
		h-2.9v-1.6c0-0.6,0.1-1.1,0.3-1.7c0.2-0.5,0.5-1,0.9-1.4c0.4-0.4,0.8-0.7,1.3-0.9c0.5-0.2,1.1-0.4,1.7-0.3c0.7,0,1.3,0.1,1.9,0.4
		c0.5,0.3,1,0.6,1.3,1.1c0.3,0.5,0.6,1,0.7,1.6c0.2,0.6,0.2,1.3,0.2,1.9c0,0.5,0,0.9,0,1.2c0,0.3-0.1,0.6-0.1,0.9
		c-0.1,0.3-0.2,0.6-0.3,0.9c-0.1,0.3-0.3,0.7-0.5,1.1l-4.2,8.1h5.2v2.9H550.7z"/>
	<line id="線_7835" class="st3" x1="459.5" y1="12158.5" x2="614.5" y2="12158.5"/>
	<path id="パス_1337" class="st2" d="M502.5,12216.5v10.5c0,2.2,0,3.3,0,3.4c0,0.2,0,0.2,0.2,0.2h1.9c0.2,0,0.2,0,0.2-0.2
		c0-0.1,0-1.2,0-3.4v-1.2h2.8c1.8,0,2.4,0,2.5,0c0.2,0,0.2,0,0.2-0.3v-1.6c0-0.2,0-0.2-0.2-0.2c-0.1,0-0.7,0-2.5,0h-2.8v-2.7h2.8
		c1.7,0,2.3,0,2.4,0c0.2,0,0.2,0,0.2-0.2v-1.6c0-0.2,0-0.2-0.2-0.2c-0.1,0-0.7,0-2.4,0h-2.8v-2.6h3.6c2,0,2.6,0,2.7,0
		c0.2,0,0.3,0,0.3-0.3v-1.6c0-0.2,0-0.3-0.3-0.3c-0.1,0-0.8,0-2.7,0h-5.7c0.3-0.6,0.5-1.1,0.7-1.6c0.1-0.4,0.3-0.8,0.6-1.1
		c0.1-0.1,0.2-0.3,0.2-0.4c0-0.2-0.2-0.3-0.4-0.3c-0.7-0.2-1.4-0.3-2.2-0.5c-0.1,0.6-0.2,1.1-0.4,1.7c-0.9,2.5-2.2,4.9-4,6.9
		c0.4,0.4,0.8,0.8,1.1,1.3c0.2,0.3,0.3,0.4,0.4,0.4c0.1,0,0.2-0.1,0.4-0.4c1-1.2,1.9-2.6,2.6-4H502.5z M494.2,12227.1
		c0,2.2,0,3.2,0,3.3c0,0.2,0,0.2,0.2,0.2h1.9c0.2,0,0.2,0,0.2-0.2c0-0.1,0-1.2,0-3.3v-11.5c0.5-0.9,0.9-1.9,1.3-2.9
		c0.2-0.6,0.3-0.8,0.5-0.9c0.2-0.2,0.2-0.2,0.2-0.4c0-0.1-0.1-0.2-0.4-0.3c-0.6-0.2-1.3-0.4-2.1-0.6c-0.1,0.5-0.2,1.1-0.4,1.6
		c-1,2.7-2.5,5.2-4.5,7.2c0.4,0.6,0.7,1.2,0.8,1.9c0.1,0.3,0.2,0.4,0.3,0.4c0.1,0,0.2-0.1,0.4-0.3c0.6-0.6,1.1-1.3,1.6-2
		c0,1,0,2,0,2.8L494.2,12227.1z M531.6,12216.4c2,0,2.7,0,2.8,0c0.2,0,0.3,0,0.3-0.2v-1.8c0-0.2,0-0.2-0.3-0.2c-0.1,0-0.8,0-2.8,0
		h-5.4v-1.1c0-1.2,0-1.4,0.1-1.6c0.1-0.1,0.1-0.3,0.1-0.4c0-0.1-0.1-0.2-0.4-0.2c-0.8-0.1-1.6-0.1-2.4-0.2c0.1,0.8,0.2,1.7,0.2,2.5
		v1.1h-5.1c-2,0-2.7,0-2.8,0c-0.2,0-0.2,0-0.2,0.2v1.8c0,0.2,0,0.2,0.2,0.2c0.1,0,0.8,0,2.8,0h0.4c0.8,2.9,2.3,5.7,4.3,8
		c-2.4,1.8-5.1,3.1-8,3.9c0.4,0.5,0.8,1,1,1.6c0.2,0.4,0.2,0.6,0.4,0.6c0.2,0,0.4-0.1,0.5-0.1c2.9-0.9,5.5-2.4,7.9-4.3
		c2.3,1.9,5,3.4,7.9,4.4c0.2,0.1,0.3,0.1,0.5,0.1c0.2,0,0.3-0.2,0.4-0.6c0.2-0.7,0.6-1.3,1-1.8c-2.9-0.7-5.6-2-8.1-3.7
		c2-2.3,3.4-5,4.1-8H531.6z M528.5,12216.4c-0.5,2.4-1.6,4.6-3.3,6.4c-1.7-1.8-3-4-3.6-6.4H528.5z M552.8,12216.7c0,3,0.4,6,1,8.9
		c0.9,3.5,2.2,4.6,3.4,4.6c1.3,0,2-1,2.3-4c0.1-0.7,0.1-0.8-0.5-1c-0.4-0.2-0.9-0.4-1.2-0.7c-0.1,2.2-0.3,2.9-0.6,2.9
		c-0.4,0-0.8-0.9-1.1-2.6c-0.5-2.7-0.8-5.4-0.9-8.2h0.6c2,0,2.8,0,2.9,0c0.2,0,0.2,0,0.2-0.3v-1.7c0-0.2,0-0.2-0.2-0.2
		c-0.1,0-0.8,0-2.9,0H555v-1.4c0-1.2,0-1.4,0.2-1.7c0.1-0.1,0.1-0.3,0.1-0.4c0-0.1-0.2-0.2-0.4-0.2c-0.8-0.1-1.4-0.1-2.2-0.2
		c0.1,1,0.2,2.1,0.2,3.1v0.8H550c-2.1,0-2.8,0-2.9,0c-0.2,0-0.2,0-0.2,0.2v1.7c0,0.2,0,0.3,0.2,0.3c0.1,0,0.8,0,2.9,0H552.8z
		 M545.9,12225.4c0-1,0-1.6,0-1.7c0-0.2,0-0.2-0.2-0.2c-0.2,0-0.6,0-2,0H542c-1.4,0-1.9,0-2,0c-0.2,0-0.3,0-0.3,0.2
		c0,0.2,0,0.7,0,2.1v1.4c0,2.7,0,3.2,0,3.3c0,0.2,0,0.2,0.3,0.2h1.6c0.2,0,0.2,0,0.2-0.2v-1h2v0.6c0,0.2,0,0.2,0.2,0.2h1.6
		c0.2,0,0.2,0,0.2-0.2c0-0.1,0-0.6,0-3.2V12225.4z M543.8,12225.4v2.4h-2v-2.4H543.8z M548.6,12219.1c-1.2,0-1.6,0-1.7,0
		c-0.2,0-0.2,0-0.2,0.3v1.5c0,0.2,0,0.3,0.2,0.3c0.1,0,0.5,0,1.6,0v5l-0.4,0.1c-0.6,0.1-1.3,0.2-1.9,0.3c0.1,0.7,0.3,1.4,0.5,2
		c0.1,0.2,0.2,0.3,0.3,0.3c0.1,0,0.2-0.1,0.3-0.1c0.2-0.1,0.4-0.2,0.7-0.3c1.4-0.4,2.8-0.9,4.3-1.5c0.6-0.2,0.6-0.2,0.6-0.9
		c0-0.5,0-0.9,0.1-1.3c-0.8,0.3-1.7,0.6-2.4,0.8v-4.4c0.9,0,1.2,0,1.4,0c0.2,0,0.3,0,0.3-0.3v-1.5c0-0.2,0-0.3-0.3-0.3
		c-0.1,0-0.5,0-1.7,0L548.6,12219.1z M541.5,12214.4c-1.7,0-2.2,0-2.4,0c-0.2,0-0.2,0-0.2,0.2v1.6c0,0.2,0,0.3,0.2,0.3
		c0.1,0,0.7,0,2.4,0h2.2c1.7,0,2.2,0,2.3,0c0.2,0,0.2,0,0.2-0.3v-1.6c0-0.2,0-0.2-0.2-0.2c-0.1,0-0.7,0-2.3,0H541.5z M542,12211.4
		c-1.4,0-1.9,0-2,0c-0.2,0-0.2,0-0.2,0.2v1.5c0,0.2,0,0.2,0.2,0.2c0.1,0,0.6,0,2,0h1.7c1.4,0,1.8,0,2,0c0.2,0,0.2,0,0.2-0.2v-1.5
		c0-0.2,0-0.2-0.2-0.2c-0.1,0-0.6,0-2,0H542z M542.1,12217.6c-1.3,0-1.7,0-1.9,0c-0.2,0-0.2,0-0.2,0.2v1.4c0,0.2,0,0.2,0.2,0.2
		c0.1,0,0.5,0,1.9,0h1.6c1.3,0,1.7,0,1.8,0c0.2,0,0.3,0,0.3-0.2v-1.4c0-0.2,0-0.2-0.3-0.2c-0.1,0-0.5,0-1.8,0H542.1z M542.1,12220.5
		c-1.3,0-1.7,0-1.9,0c-0.2,0-0.2,0-0.2,0.2v1.4c0,0.2,0,0.2,0.2,0.2c0.1,0,0.5,0,1.9,0h1.6c1.3,0,1.7,0,1.8,0c0.2,0,0.3,0,0.3-0.2
		v-1.4c0-0.2,0-0.2-0.3-0.2c-0.1,0-0.5,0-1.8,0H542.1z M555.8,12211.6c-0.3,0.1-0.3,0.2-0.2,0.4c0.5,0.7,0.9,1.4,1.2,2.2
		c0.1,0.2,0.1,0.3,0.4,0.1l1-0.5c0.3-0.1,0.4-0.2,0.3-0.4c-0.3-0.8-0.7-1.5-1.2-2.2c-0.2-0.2-0.2-0.2-0.5-0.1L555.8,12211.6z
		 M577.9,12217.5c1.4,0,1.8,0,2,0c0.2,0,0.2,0,0.2-0.2v-0.9c0.5,0.4,1.1,0.8,1.7,1.1c0.2,0.1,0.3,0.2,0.5,0.2c0.2,0,0.2-0.2,0.3-0.5
		c0.1-0.6,0.4-1.1,0.7-1.6c-2.2-0.8-4.1-2.2-5.5-4.1l0.2-0.1c0.1,0,0.2-0.2,0.2-0.3c0-0.2-0.1-0.2-0.3-0.3c-0.6-0.1-1.3-0.3-2-0.4
		c-0.1,0.5-0.4,0.9-0.6,1.3c-1.1,1.7-2.7,3.2-4.6,4.1v-1c0-0.2,0-0.2-0.2-0.2c-0.1,0-0.5,0-1.7,0v-1.5h0.3c1.3,0,2,0,2.1,0
		c0.2,0,0.3,0,0.3-0.2v-1.4c0-0.2,0-0.2-0.3-0.2c-0.1,0-0.7,0-2.1,0h-3.3c-1.5,0-2,0-2.2,0c-0.2,0-0.2,0-0.2,0.2c0,0.1,0,1,0,2.7
		v5.5c0,1.8,0,2.6,0,2.7c0,0.2,0,0.2,0.2,0.2c0.2,0,0.8,0,2.2,0h3.7c-0.1,3.3-0.2,4.8-0.5,5.3c-0.2,0.4-0.6,0.6-1,0.5
		c-0.5,0-1-0.1-1.5-0.2c0.2,0.5,0.3,0.9,0.4,1.4c0.1,0.7,0.1,0.7,0.5,0.7c0.3,0,0.7,0.1,1,0c0.9,0.1,1.7-0.5,2-1.3
		c0.3,0.3,0.6,0.6,0.9,1c0.2,0.3,0.3,0.5,0.5,0.5c0.2,0,0.4-0.1,0.5-0.2c1.9-1,3.5-2.5,4.5-4.4c1.1,1.8,2.5,3.3,4.3,4.3
		c0.2,0.1,0.3,0.2,0.5,0.2c0.2,0,0.2-0.1,0.4-0.5c0.3-0.6,0.6-1.1,1.1-1.5c-2.1-0.7-3.9-2-5.1-3.8h0.7c1.8,0,2.5,0,2.6,0
		c0.2,0,0.2,0,0.2-0.2c0-0.1,0-0.6,0-1.7v-1.9c0-1.1,0-1.5,0-1.7c0-0.2,0-0.2-0.2-0.2c-0.2,0-0.8,0-2.6,0h-1L577.9,12217.5
		L577.9,12217.5z M568.8,12220.9v-1.6c1.1,0,1.5,0,1.7,0c0.2,0,0.2,0,0.2-0.2v-1.2c0-0.2,0-0.3-0.2-0.3c-0.1,0-0.5,0-1.7,0v-1.5
		c1.1,0,1.5,0,1.7,0h0.2c0.2,0.3,0.4,0.7,0.6,1c0.2,0.4,0.2,0.5,0.4,0.5c0.2,0,0.4-0.1,0.5-0.2c0.6-0.3,1.1-0.7,1.6-1.1v0.8
		c0,0.2,0,0.2,0.2,0.2c0.1,0,0.5,0,1.8,0v1.5h-0.9c-1.8,0-2.5,0-2.6,0c-0.2,0-0.2,0-0.2,0.2c0,0.2,0,0.6,0,1.7v1.9
		c0,1.1,0,1.5,0,1.7c0,0.2,0,0.2,0.2,0.2c0.2,0,0.8,0,2.6,0h0.4l-0.2,0.4c-1,1.8-2.6,3.2-4.5,3.9c0.4-2,0.6-4.1,0.6-6.2
		c0-0.4,0-1,0.1-1.5c0-0.2,0-0.3-0.3-0.3c-0.1,0-0.5,0-1.8,0H568.8z M574.5,12215.8c0.9-0.8,1.6-1.7,2.3-2.7c0.7,1,1.6,1.9,2.5,2.7
		H574.5z M577.6,12223c0.1-0.7,0.1-1.5,0.1-2.4h1.9v2.4H577.6z M575.7,12220.6c0,0.8,0,1.6-0.1,2.4H574v-2.4H575.7z M565.3,12220.9
		v-1.6h1.7v1.6H565.3z M565.3,12214.6v-1.5h1.7v1.5H565.3z M565.3,12217.7v-1.5h1.7v1.5H565.3z M563.6,12223.5
		c-0.3-0.1-0.3-0.1-0.3,0.2c0,1.5-0.3,3.1-0.8,4.6c-0.1,0.2,0,0.3,0.2,0.5l0.7,0.4c0.1,0.1,0.2,0.1,0.2,0.1c0.1,0,0.1,0,0.1-0.2
		c0.5-1.6,0.8-3.3,0.8-5c0-0.2,0-0.3-0.3-0.4L563.6,12223.5z M565.1,12223.7c-0.2,0-0.2,0.1-0.2,0.3c0.2,1.4,0.3,2.8,0.2,4.2
		c0,0.2,0,0.2,0.3,0.1l0.6-0.2c0.2-0.1,0.3-0.2,0.3-0.4c-0.1-1.3-0.2-2.7-0.4-4c0-0.2,0-0.2-0.3-0.2L565.1,12223.7z M566.6,12223.6
		c-0.2,0.1-0.2,0.1-0.2,0.3c0.2,1.1,0.4,2.2,0.5,3.4c0,0.2,0.1,0.2,0.3,0.1l0.4-0.2c0.2-0.1,0.2-0.2,0.2-0.4
		c-0.1-1.1-0.3-2.2-0.5-3.3c0-0.2-0.1-0.2-0.3-0.1L566.6,12223.6z M567.9,12223.4c-0.2,0.1-0.2,0.1-0.1,0.2c0.3,0.8,0.4,1.6,0.6,2.4
		c0,0.2,0.1,0.2,0.3,0.1l0.4-0.2c0.2-0.1,0.2-0.1,0.2-0.3c-0.1-0.8-0.4-1.6-0.6-2.4c0-0.2-0.1-0.2-0.3-0.1L567.9,12223.4z"/>
	<path id="パス_1338" class="st2" d="M520.4,12133.9h-1.8v-0.4c0-0.4-0.1-0.8-0.3-1.1c-0.2-0.3-0.6-0.5-1-0.5
		c-0.2,0-0.4,0-0.6,0.1c-0.2,0.1-0.3,0.2-0.4,0.4c-0.1,0.2-0.2,0.3-0.2,0.5c0,0.2-0.1,0.4-0.1,0.6c0,0.2,0,0.4,0,0.6
		c0,0.2,0.1,0.3,0.1,0.5c0.1,0.1,0.2,0.3,0.3,0.3c0.2,0.1,0.4,0.2,0.6,0.3l1.4,0.6c0.4,0.1,0.7,0.3,1,0.5c0.2,0.2,0.4,0.4,0.6,0.7
		c0.1,0.3,0.2,0.6,0.3,1c0.1,0.4,0.1,0.8,0.1,1.3c0,0.5-0.1,1-0.2,1.5c-0.1,0.4-0.3,0.8-0.5,1.2c-0.3,0.3-0.6,0.6-1,0.8
		c-0.5,0.2-1,0.3-1.5,0.3c-0.4,0-0.8-0.1-1.2-0.2c-0.4-0.1-0.7-0.4-1-0.6c-0.3-0.3-0.5-0.6-0.7-1c-0.2-0.4-0.2-0.8-0.2-1.2v-0.7h1.8
		v0.6c0,0.3,0.1,0.6,0.3,0.9c0.2,0.3,0.6,0.4,1,0.4c0.3,0,0.5,0,0.7-0.1c0.2-0.1,0.3-0.2,0.4-0.4c0.1-0.2,0.2-0.4,0.2-0.6
		c0-0.2,0-0.5,0-0.8c0-0.3,0-0.6,0-0.8c0-0.2-0.1-0.4-0.1-0.5c-0.1-0.1-0.2-0.2-0.3-0.3c-0.2-0.1-0.4-0.2-0.5-0.3l-1.3-0.5
		c-0.7-0.2-1.2-0.7-1.6-1.3c-0.3-0.6-0.4-1.3-0.4-2c0-0.5,0.1-0.9,0.2-1.4c0.1-0.4,0.3-0.8,0.6-1.1c0.3-0.3,0.6-0.6,1-0.7
		c0.4-0.2,0.9-0.3,1.4-0.3c0.4,0,0.9,0.1,1.3,0.3c0.4,0.2,0.7,0.4,1,0.7c0.5,0.5,0.8,1.2,0.8,2L520.4,12133.9z M523.5,12143v-11.1
		h-2.1v-1.7h6.1v1.7h-2.1v11.1H523.5z M528.8,12143v-12.8h5.5v1.7h-3.6v3.8h3.2v1.7h-3.2v3.8h3.6v1.8H528.8z M536,12143v-12.8h2.8
		c0.5,0,0.9,0.1,1.3,0.2c0.4,0.1,0.8,0.4,1,0.7c0.3,0.3,0.5,0.7,0.6,1.2c0.1,0.6,0.2,1.2,0.2,1.8c0,0.5,0,1-0.1,1.5
		c-0.1,0.4-0.2,0.8-0.4,1.1c-0.2,0.4-0.6,0.8-1,1c-0.5,0.3-1.1,0.4-1.7,0.4h-0.9v5H536z M537.8,12131.9v4.4h0.9c0.3,0,0.6,0,0.9-0.2
		c0.2-0.1,0.4-0.3,0.4-0.5c0.1-0.2,0.2-0.4,0.2-0.7c0-0.3,0-0.6,0-0.9c0-0.3,0-0.6,0-0.9c0-0.2-0.1-0.5-0.2-0.7
		c-0.1-0.2-0.2-0.4-0.4-0.5c-0.3-0.1-0.5-0.2-0.8-0.2H537.8z"/>
</g>
</svg>
