<?xml version="1.0" encoding="utf-8"?>
<!-- Generator: Adobe Illustrator 24.2.0, SVG Export Plug-In . SVG Version: 6.00 Build 0)  -->
<svg version="1.1" id="レイヤー_1" xmlns="http://www.w3.org/2000/svg" xmlns:xlink="http://www.w3.org/1999/xlink" x="0px"
	 y="0px" viewBox="0 0 247 220" style="enable-background:new 0 0 247 220;" xml:space="preserve">
<style type="text/css">
	.st0{fill:#6A6A6A;}
	.st1{fill:none;stroke:#707070;stroke-width:1.0014;}
	.st2{fill:#FFFFFF;}
	.st3{fill:none;stroke:#FFFFFF;}
</style>
<g id="グループ_1193" transform="translate(-114 -12091.124)">
	<g id="長方形_332" transform="translate(114 12091.124)">
		<rect class="st0" width="247" height="220"/>
		<rect x="0.5" y="0.5" class="st1" width="246" height="219"/>
	</g>
	<path id="パス_1335" class="st2" d="M220.4,12133.9h-1.8v-0.4c0-0.4-0.1-0.8-0.3-1.1c-0.2-0.3-0.6-0.5-1-0.5
		c-0.2,0-0.4,0-0.6,0.1c-0.2,0.1-0.3,0.2-0.4,0.4c-0.1,0.2-0.2,0.3-0.2,0.5c0,0.2-0.1,0.4-0.1,0.6c0,0.2,0,0.4,0,0.6
		c0,0.2,0.1,0.3,0.1,0.5c0.1,0.1,0.2,0.3,0.3,0.3c0.2,0.1,0.4,0.2,0.6,0.3l1.4,0.6c0.4,0.1,0.7,0.3,1,0.5c0.2,0.2,0.4,0.4,0.6,0.7
		c0.1,0.3,0.2,0.6,0.3,1c0.1,0.4,0.1,0.8,0.1,1.3c0,0.5-0.1,1-0.2,1.5c-0.1,0.4-0.3,0.8-0.5,1.2c-0.3,0.3-0.6,0.6-1,0.8
		c-0.5,0.2-1,0.3-1.5,0.3c-0.4,0-0.8-0.1-1.2-0.2c-0.4-0.1-0.7-0.4-1-0.6c-0.3-0.3-0.5-0.6-0.7-1c-0.2-0.4-0.2-0.8-0.2-1.2v-0.7h1.8
		v0.6c0,0.3,0.1,0.6,0.3,0.9c0.2,0.3,0.6,0.4,1,0.4c0.3,0,0.5,0,0.7-0.1c0.2-0.1,0.3-0.2,0.4-0.4c0.1-0.2,0.2-0.4,0.2-0.6
		c0-0.2,0-0.5,0-0.8c0-0.3,0-0.6,0-0.8c0-0.2-0.1-0.4-0.1-0.5c-0.1-0.1-0.2-0.2-0.3-0.3c-0.2-0.1-0.4-0.2-0.5-0.3l-1.3-0.5
		c-0.7-0.2-1.2-0.7-1.6-1.3c-0.3-0.6-0.4-1.3-0.4-2c0-0.5,0.1-0.9,0.2-1.4c0.1-0.4,0.3-0.8,0.6-1.1c0.3-0.3,0.6-0.6,1-0.7
		c0.4-0.2,0.9-0.3,1.4-0.3c0.4,0,0.9,0.1,1.3,0.3c0.4,0.2,0.7,0.4,1,0.7c0.5,0.5,0.8,1.2,0.8,2L220.4,12133.9z M223.5,12143v-11.1
		h-2.1v-1.7h6.1v1.7h-2.1v11.1H223.5z M228.8,12143v-12.8h5.5v1.7h-3.6v3.8h3.2v1.7h-3.2v3.8h3.6v1.8H228.8z M236,12143v-12.8h2.8
		c0.5,0,0.9,0.1,1.3,0.2c0.4,0.1,0.8,0.4,1,0.7c0.3,0.3,0.5,0.7,0.6,1.2c0.1,0.6,0.2,1.2,0.2,1.8c0,0.5,0,1-0.1,1.5
		c-0.1,0.4-0.2,0.8-0.4,1.1c-0.2,0.4-0.6,0.8-1,1c-0.5,0.3-1.1,0.4-1.7,0.4h-0.9v5H236z M237.8,12131.9v4.4h0.9c0.3,0,0.6,0,0.9-0.2
		c0.2-0.1,0.4-0.3,0.5-0.5c0.1-0.2,0.2-0.4,0.2-0.7c0-0.3,0-0.6,0-0.9c0-0.3,0-0.6,0-0.9c0-0.2-0.1-0.5-0.2-0.7
		c-0.1-0.2-0.2-0.4-0.4-0.5c-0.3-0.1-0.5-0.2-0.8-0.2H237.8z"/>
	<path id="パス_1336" class="st2" d="M254.1,12145v-16.9l-2.9,2.1v-3l2.9-2.1h2.9v19.9H254.1z"/>
	<line id="線_7834" class="st3" x1="159.5" y1="12158.5" x2="314.5" y2="12158.5"/>
	<path id="パス_1334" class="st2" d="M190.6,12187h1.7c1.2,0,2.3,0,3.8,0.1c0.2,0,0.3-0.1,0.3-0.4c0-0.5,0-1.2,0-1.7
		c0-0.2-0.1-0.4-0.3-0.4c-1.3,0.1-2.5,0.1-3.9,0.1h-6.2c-1.3,0-2.5,0-3.8-0.1c0,0.7,0.1,1.4,0.2,2c0.1,0.3,0.1,0.5,0.4,0.5
		c0.9,0,1.8-0.1,3.4-0.1h1.7v7.5h-3c-1.4,0-3.1,0-4.7-0.1c0,0.7,0,1.4,0.2,2.1c0.1,0.4,0.1,0.5,0.5,0.4c1.7,0,3.1-0.1,4-0.1h8.8
		c1.4,0,3.4,0,4.4,0.1c0.3,0,0.3-0.1,0.3-0.4c0-0.6,0-1.2,0-1.8c0-0.3-0.1-0.4-0.4-0.4c-1.5,0-3,0.1-4.4,0.1h-3.1V12187z
		 M205.2,12185.3c1.6,1,3.1,2.2,4.5,3.6c0.1,0.1,0.2,0.2,0.3,0.2s0.2-0.1,0.3-0.2c0.3-0.3,1-1.2,1.4-1.6c0.1-0.1,0.1-0.2,0.1-0.3
		c0-0.1-0.1-0.2-0.2-0.3c-1.3-1.2-2.7-2.2-4.2-3.1c-0.1-0.1-0.2-0.1-0.3-0.1c-0.1,0-0.2,0.1-0.3,0.2
		C206.3,12184,205.7,12184.7,205.2,12185.3z M205.7,12196.3c0.5,0.9,1.1,1.7,1.8,2.4c0.1,0.1,0.2,0.2,0.4,0.2c0.2,0,0.3-0.1,0.4-0.2
		c0.4-0.4,0.9-0.7,1.5-1c2.3-1.2,4.6-2.7,6.6-4.3c1.8-1.4,3.5-3,5.1-4.7c0.2-0.3,0.4-0.5,0.4-0.7c0-0.1,0-0.3-0.1-0.4
		c-0.3-0.8-0.5-1.7-0.6-2.6c-1.7,2.2-3.8,4.3-6,6c-1.9,1.6-4.1,3-6.3,4.1C207.7,12195.6,206.7,12196,205.7,12196.3z M236.3,12184.5
		c-0.1-0.7,0-1.4,0.2-2.1c0.1-0.2,0.2-0.3,0.2-0.5c0-0.2-0.1-0.3-0.4-0.4c-0.9-0.2-1.8-0.3-2.8-0.4c0.2,1.1,0.3,2.2,0.2,3.3v10.8
		c0,1.4,0,2.7-0.1,4.3c0,0.3,0.1,0.3,0.4,0.3c0.7,0,1.3,0,2,0c0.3,0,0.4-0.1,0.4-0.3c0-1.6-0.1-2.9-0.1-4.3v-4.9
		c2,0.7,4,1.6,5.8,2.8c0.1,0.1,0.1,0.1,0.2,0.1c0.1,0,0.2-0.1,0.3-0.2c0.4-0.6,0.7-1.3,0.9-1.9c0.1-0.3,0-0.4-0.2-0.6
		c-2.2-1.3-4.6-2.3-7-3L236.3,12184.5z M255.6,12189.5c0,0.9-0.1,2.2-0.1,3c0,0.3,0.1,0.4,0.4,0.4h1.8c0.4,0,0.5-0.1,0.5-0.4
		c0-0.8-0.1-1.6-0.1-2.8v-4.4c-0.1-0.7,0-1.4,0.2-2.1c0-0.1,0.1-0.2,0.1-0.3c0-0.2-0.1-0.3-0.4-0.4c-0.9-0.2-1.8-0.4-2.7-0.5
		c0.2,1.1,0.3,2.1,0.2,3.2V12189.5z M265.9,12185.2c-0.1-0.8,0-1.6,0.2-2.4c0.1-0.1,0.1-0.2,0.1-0.4c0-0.2-0.1-0.3-0.3-0.4
		c-0.9-0.3-1.9-0.4-2.9-0.5c0.2,1.2,0.3,2.4,0.2,3.6v4.2c0,2.8-0.5,4.6-1.5,5.9c-1.4,1.6-3.3,2.7-5.4,3.2c0.7,0.3,1.3,0.8,1.9,1.3
		c0.1,0.2,0.3,0.3,0.5,0.3c0.2,0,0.3,0,0.5-0.1c1.9-0.7,3.6-1.9,4.8-3.5c1.3-1.7,1.8-3.9,1.8-7.2V12185.2z M287.8,12192.2
		c1.6,0,3.3,0,4.9,0c0.3,0,0.4-0.1,0.4-0.3c0-0.7,0-1.4,0-2.1c0-0.3-0.1-0.3-0.4-0.3c-1.7,0-3.4,0.1-5.1,0.1h-7.1
		c-1.6,0-3.2,0-4.8-0.3c0.1,0.9,0.2,1.8,0.3,2.7c0.1,0.3,0.2,0.5,0.5,0.5c1.1-0.2,2.2-0.3,3.2-0.3H287.8z"/>
	<path id="パス_1333" class="st2" d="M174.5,12233.4c0-1.7,0-2.5,0-2.6c0-0.2,0-0.2-0.2-0.2c-0.1,0-0.5,0-1.6,0h-2
		c-1.2,0-1.5,0-1.6,0c-0.2,0-0.2,0-0.2,0.2c0,0.1,0,1,0,2.6v2.6c0,4.4-0.4,5.9-1.7,7.6c0.4,0.2,0.7,0.5,1,0.8
		c0.2,0.2,0.2,0.2,0.3,0.2c0.1,0,0.2-0.1,0.3-0.3c0.9-1.4,1.4-3.1,1.5-4.8h2.6v2.9c0,0.4-0.1,0.6-0.5,0.6c-0.4,0-0.9,0-1.4,0
		c0.2,0.3,0.4,0.7,0.4,1.1c0.1,0.5,0.1,0.5,0.6,0.5c1.2,0,1.6-0.1,2-0.4c0.3-0.3,0.5-0.8,0.5-1.3c0-0.6,0-1.5,0-2.2L174.5,12233.4z
		 M170.4,12238.1c0-0.6,0-1.3,0-2v-0.3h2.4v2.3L170.4,12238.1z M172.9,12232.1v2.3h-2.4v-2.3L172.9,12232.1z M166.1,12241.1
		c1.4,0,1.9,0,2,0c0.1,0,0.2,0,0.2-0.2v-1.1c0-0.2,0-0.2-0.2-0.2c-0.1,0-0.3,0-0.9,0v-6.2c0.6,0,0.8,0,0.9,0c0.1,0,0.2,0,0.2-0.2
		v-1.1c0-0.2,0-0.2-0.2-0.2c-0.1,0-0.3,0-0.9,0v-0.3c0-0.4,0-0.8,0.1-1.1c0-0.1,0.1-0.2,0.1-0.3c0-0.1-0.1-0.1-0.2-0.1
		c-0.5-0.1-1-0.1-1.5-0.1c0.1,0.6,0.1,1.1,0.1,1.7v0.3h-2.2v-0.3c0-0.4,0-0.7,0.1-1.1c0.1-0.1,0.1-0.2,0.1-0.3
		c0-0.1-0.1-0.1-0.2-0.1c-0.4,0-1-0.1-1.5-0.1c0.1,0.6,0.1,1.1,0.1,1.7v0.3c-0.7,0-1,0-1.1,0c-0.2,0-0.2,0-0.2,0.2v1.1
		c0,0.1,0,0.2,0.2,0.2c0.1,0,0.4,0,1.1,0v6.2c-0.9,0-1.2,0-1.3,0c-0.2,0-0.2,0-0.2,0.2v1.1c0,0.2,0,0.2,0.2,0.2c0.1,0,0.6,0,2,0
		L166.1,12241.1z M163.5,12239.7v-1.2h2.2v1.2H163.5z M163.5,12234.8v-1.2h2.2v1.2H163.5z M163.5,12237.2v-1.2h2.2v1.2H163.5z
		 M163.7,12242.7c0.1-0.2,0.2-0.3,0.4-0.4c0.1-0.1,0.2-0.1,0.2-0.2c0-0.1-0.1-0.2-0.2-0.2c-0.4-0.2-0.8-0.4-1.2-0.6
		c-0.1,0.2-0.2,0.4-0.4,0.6c-0.6,0.7-1.3,1.3-2.1,1.8c0.3,0.2,0.6,0.5,0.8,0.8c0.2,0.2,0.3,0.3,0.4,0.3c0.1,0,0.2-0.1,0.4-0.2
		C162.6,12244,163.2,12243.4,163.7,12242.7z M165,12241.8c-0.1,0.1-0.2,0.1-0.1,0.3c0.3,0.5,0.7,1,1.2,1.5c0.1,0.1,0.2,0.2,0.3,0.2
		c0.1,0,0.1-0.1,0.3-0.2c0.3-0.3,0.6-0.6,0.9-0.8c-0.5-0.4-1-0.9-1.4-1.4c0-0.1-0.1-0.1-0.1-0.1c-0.1,0-0.1,0.1-0.2,0.1L165,12241.8
		z M191.8,12232.9c0-1.4,0-2,0-2.1c0-0.2,0-0.2-0.2-0.2c-0.1,0-0.5,0-1.8,0h-2.4c-1.2,0-1.7,0-1.8,0c-0.2,0-0.2,0-0.2,0.2
		c0,0.1,0,0.5,0,1.4v2.2c0,0.9,0,1.3,0,1.4c0,0.2,0,0.2,0.2,0.2c0.1,0,0.5,0,1.8,0h2.6v6.4c0,0.5-0.1,0.6-0.7,0.6
		c-0.4,0-0.9,0-1.3-0.1c0.2,0.4,0.3,0.8,0.4,1.2c0.1,0.5,0.1,0.5,0.6,0.5c1.5,0,2-0.1,2.3-0.4c0.4-0.4,0.6-0.9,0.5-1.5
		c0-0.8-0.1-2.1-0.1-3.2L191.8,12232.9z M187.2,12234.8v-1h3v1H187.2z M190.2,12231.8v0.9h-3v-1L190.2,12231.8z M180.5,12230.6
		c-1.2,0-1.8,0-1.9,0c-0.2,0-0.2,0-0.2,0.2c0,0.1,0,1.2,0,3.4v6.9c0,2.2,0,3.3,0,3.4c0,0.2,0,0.2,0.2,0.2h1.4c0.2,0,0.2,0,0.2-0.2
		c0-0.1,0-1.2,0-3.4v-5.2h2.6c1,0,1.5,0,1.6,0c0.1,0,0.2,0,0.2-0.2c0-0.1,0-0.5,0-1.5v-2c0-1,0-1.4,0-1.5c0-0.2,0-0.2-0.2-0.2
		c-0.1,0-0.6,0-1.6,0L180.5,12230.6z M182.9,12234.8h-2.8v-1h2.8V12234.8z M182.9,12231.8v0.9h-2.8v-1L182.9,12231.8z
		 M183.4,12243.6c0.2,0,0.2,0,0.2-0.2v-0.7h2.9v0.5c0,0.2,0,0.2,0.2,0.2h1.2c0.2,0,0.2,0,0.2-0.2c0-0.1,0-0.5,0-2.8v-1.6
		c0-1.2,0-1.6,0-1.7c0-0.2,0-0.2-0.2-0.2c-0.1,0-0.5,0-1.7,0H184c-1.2,0-1.6,0-1.7,0c-0.2,0-0.2,0-0.2,0.2c0,0.1,0,0.6,0,2v1.4
		c0,2.4,0,2.8,0,2.9c0,0.2,0,0.2,0.2,0.2L183.4,12243.6z M183.6,12241.5v-1.1h2.9v1.1H183.6z M183.6,12238.2h2.9v1.1h-2.9V12238.2z
		 M208.9,12235.7c0-1.7,0-2.5,0-2.6c0-0.2,0-0.2-0.2-0.2c-0.1,0-0.6,0-2.1,0h-3.4c0-0.4,0-0.7,0-1.1c0-0.4,0-0.8,0.1-1.2
		c0.1-0.1,0.1-0.2,0.1-0.3c0-0.1-0.1-0.2-0.2-0.2c-0.6,0-1.2-0.1-1.8-0.1c0.1,0.6,0.1,1.1,0.1,1.7c0,0.4,0,0.8,0,1.2h-3.1
		c-1.5,0-2,0-2.2,0c-0.2,0-0.2,0-0.2,0.2c0,0.1,0,0.9,0,2.5v6.2c0,1.6,0,2.4,0,2.5c0,0.1,0,0.2,0.2,0.2h1.4c0.2,0,0.2,0,0.2-0.2
		c0-0.1,0-0.8,0-2.3v-2.2c0.3,0.3,0.6,0.6,0.8,0.9c0.1,0.2,0.2,0.3,0.3,0.3c0.1,0,0.2-0.1,0.4-0.2c1.5-1,2.6-2.4,3.3-4l0-0.1
		c0.7,1.6,1.8,2.9,3.2,4c0.2,0.1,0.3,0.2,0.4,0.2c0.1,0,0.2-0.1,0.3-0.3c0.2-0.4,0.5-0.7,0.8-1v2.7c0,0.4-0.1,0.5-0.6,0.5
		c-0.3,0-1,0-1.7-0.1c0.2,0.4,0.4,0.8,0.4,1.2c0.1,0.5,0.1,0.5,0.6,0.5c1.6,0,2.1-0.1,2.5-0.4c0.4-0.3,0.6-0.8,0.5-1.3
		c0-0.5,0-1.4,0-2.8L208.9,12235.7z M207.2,12239.3c-2-1-3.5-2.8-4.1-4.9h4.1V12239.3z M197.7,12234.4h3.6c-0.1,0.6-0.3,1.2-0.5,1.8
		c-0.6,1.4-1.7,2.6-3.1,3.3L197.7,12234.4z M214.7,12231.3c0,0.8-0.1,1.6-0.3,2.4c-0.3,1.7-0.5,3.5-0.5,5.2c0,1.6,0.2,3.2,0.7,4.8
		c0,0.1,0.1,0.2,0.2,0.2c0.4,0,0.9-0.1,1.3-0.3c0.1,0,0.2-0.1,0.2-0.2c0-0.1,0-0.3,0-0.4c0-0.2,0-0.3,0-0.5c0.2-0.8,0.5-1.6,0.9-2.4
		c0.1-0.1,0.1-0.2,0.1-0.3c0-0.1-0.1-0.2-0.1-0.2c-0.2-0.3-0.4-0.6-0.6-1c-0.5,1.1-0.8,1.6-1.1,2.4c-0.1-0.6-0.1-1.2-0.1-1.9
		c0.1-1.7,0.3-3.5,0.7-5.2c0.1-0.4,0.2-0.8,0.4-1.1c0.2-0.3,0.2-0.4,0.2-0.5c0-0.1-0.1-0.2-0.4-0.4
		C215.8,12231.6,215.3,12231.4,214.7,12231.3L214.7,12231.3z M218.3,12239.5c0,0.7,0.2,1.5,0.6,2.1c0.7,0.9,1.8,1.3,4.2,1.3
		c0.9,0,1.7-0.1,2.6-0.2c0.3,0,0.3,0,0.3-0.2c0-0.5,0-0.9-0.1-1.4c0-0.2-0.1-0.2-0.2-0.2c-1,0.1-2,0.2-3.1,0.2
		c-1.7,0-2.5-0.4-2.6-1.5c0-0.2,0-0.3-0.2-0.2L218.3,12239.5z M218.8,12235c1.2-0.2,2.4-0.4,3.6-0.4c0.8,0,1.6,0,2.6,0.1
		c0.1,0,0.2,0,0.2-0.2c0-0.4,0-0.9,0-1.4c0-0.2,0-0.2-0.4-0.2c-0.7-0.1-1.4-0.1-2.4-0.1c-1.2,0-2.3,0.1-3.5,0.3
		c-0.2,0-0.2,0.1-0.2,0.3C218.9,12233.7,218.9,12234.1,218.8,12235L218.8,12235z M242,12239.2c1.4,0,1.9,0,2,0c0.2,0,0.2,0,0.2-0.2
		v-0.9c0-0.1,0-0.2-0.2-0.2c-0.1,0-0.6,0-2,0h-4.3v-0.6h2.6c1.6,0,2.1,0,2.2,0c0.1,0,0.2,0,0.2-0.2v-0.7c0-0.2,0-0.2-0.2-0.2
		c-0.1,0-0.6,0-2.2,0h-2.6v-0.6h1.9c1.7,0,2.5,0,2.6,0c0.2,0,0.2,0,0.2-0.2c0-0.1,0-0.6,0-1.4v-0.1c0.8,0,1.3,0,1.4,0
		c0.2,0,0.2,0,0.2-0.2v-1c0-0.2,0-0.2-0.2-0.2c-0.1,0-0.6,0-1.4,0v-0.2c0-0.9,0-1.3,0-1.4c0-0.2,0-0.2-0.2-0.2c-0.1,0-0.9,0-2.6,0
		h-1.9c0-0.2,0-0.4,0.1-0.5c0-0.1,0.1-0.2,0.1-0.3c0-0.1-0.1-0.2-0.2-0.2c-0.6-0.1-1.1-0.1-1.7-0.1c0.1,0.4,0.1,0.7,0.1,1.1H234
		c-1.6,0-2.1,0-2.2,0c-0.2,0-0.2,0-0.2,0.2v0.8c0,0.2,0,0.2,0.2,0.2c0.1,0,0.7,0,2.2,0h2.1v0.7h-3.8c-1.5,0-2.1,0-2.2,0
		c-0.2,0-0.2,0-0.2,0.2v0.9c0,0.2,0,0.2,0.2,0.2c0.1,0,0.6,0,2.2,0h3.8v0.7h-2.2c-1.5,0-2.1,0-2.2,0c-0.2,0-0.2,0-0.2,0.2v0.8
		c0,0.2,0,0.2,0.2,0.2c0.1,0,0.6,0,2.2,0h2.2v0.6h-2.4c-1.6,0-2.1,0-2.2,0c-0.1,0-0.2,0-0.2,0.2v0.7c0,0.2,0,0.2,0.2,0.2
		c0.1,0,0.6,0,2.2,0h2.4v0.6H232c-1.4,0-1.9,0-2,0c-0.1,0-0.2,0-0.2,0.2v0.9c0,0.2,0,0.2,0.2,0.2c0.1,0,0.6,0,2,0H242z
		 M240.8,12234.7h-3.1v-0.7h3.1V12234.7z M240.8,12232.2v0.7h-3.1v-0.7H240.8z M233.4,12244.7c0.2,0,0.2,0,0.2-0.2v-0.4h6.9v0.4
		c0,0.1,0,0.2,0.2,0.2h1.3c0.2,0,0.2,0,0.2-0.2c0-0.1,0-0.4,0-2.2v-1.2c0-0.7,0-1.1,0-1.2c0-0.2,0-0.2-0.2-0.2c-0.1,0-0.7,0-2.2,0
		h-5.4c-1.6,0-2.1,0-2.2,0c-0.2,0-0.2,0-0.2,0.2c0,0.1,0,0.5,0,1.3v1c0,1.8,0,2.1,0,2.2c0,0.2,0,0.2,0.2,0.2H233.4z M233.5,12243.1
		v-0.7h6.9v0.7H233.5z M233.5,12240.8h6.9v0.7h-6.9V12240.8z M257,12232.2c-0.1,0.4-0.3,0.8-0.5,1.2c-1.1,0-1.5,0-1.6,0
		c-0.2,0-0.2,0-0.2,0.2c0,0.1,0,0.7,0,1.9v4.2c0,1.2,0,1.8,0,1.8c0,0.2,0,0.2,0.2,0.2c0.1,0,0.5,0,1.8,0h2.1c1.3,0,1.7,0,1.8,0
		c0.2,0,0.2,0,0.2-0.2c0-0.1,0-0.6,0-1.8v-4.3c0-1.2,0-1.8,0-1.9c0-0.1,0-0.2-0.2-0.2c-0.1,0-0.6,0-1.8,0h-0.8
		c0.2-0.4,0.4-0.8,0.5-1.2h0.8c1.4,0,1.9,0,2,0c0.1,0,0.2,0,0.2-0.2v-1.2c0-0.2,0-0.2-0.2-0.2c-0.1,0-0.6,0-2,0h-3c-1.4,0-1.9,0-2,0
		c-0.2,0-0.2,0-0.2,0.2v1.2c0,0.2,0,0.2,0.2,0.2c0.1,0,0.6,0,2,0H257z M259.3,12240.3h-3.1v-1.1h3.1V12240.3z M256.2,12238v-1.1h3.1
		v1.1H256.2z M256.2,12234.7h3.1v1h-3.1V12234.7z M252.1,12234.5c1.4,0,1.8,0,1.9,0c0.2,0,0.2,0,0.2-0.2v-0.9c0-0.2,0-0.2-0.2-0.2
		c-0.1,0-0.5,0-1.9,0h-0.7v-1.2c0-0.4,0-0.9,0.1-1.3c0.1-0.1,0.1-0.3,0.1-0.4c0-0.1-0.1-0.1-0.3-0.2c-0.5-0.1-0.9-0.1-1.5-0.1
		c0.1,0.6,0.1,1.3,0.1,1.9v1.2h-0.8c-1.3,0-1.8,0-1.9,0c-0.1,0-0.2,0-0.2,0.2v0.9c0,0.2,0,0.2,0.2,0.2c0.1,0,0.6,0,1.9,0h0.3
		c-0.8,0.9-1.7,1.6-2.8,2.1c0.2,0.3,0.4,0.6,0.6,0.9c0.1,0.2,0.2,0.3,0.3,0.3c0.1,0,0.2-0.1,0.4-0.2c0.8-0.6,1.5-1.3,2.1-2.1
		c0,1.2-0.1,1.5-0.1,1.6c0,0.2,0,0.2,0.2,0.2h1.1c0.2,0,0.2,0,0.2-0.2s0-0.5-0.1-1.8c0.5,0.7,1.1,1.4,1.7,2c0.2,0.1,0.3,0.2,0.4,0.2
		c0.1,0,0.2-0.1,0.3-0.4c0.1-0.3,0.3-0.6,0.5-0.8c-0.9-0.4-1.7-1.1-2.3-1.8L252.1,12234.5z M249.6,12240.3c-0.4,1.3-1.5,2.4-2.8,2.8
		c0.3,0.2,0.6,0.5,0.8,0.8c0.2,0.3,0.3,0.4,0.4,0.4c0.1,0,0.2-0.1,0.3-0.1c1.1-0.6,2-1.6,2.5-2.8c0.4,0.8,1,1.4,1.7,2
		c0.2,0.1,0.3,0.2,0.4,0.2c0.1,0,0.2-0.1,0.4-0.4c0.2-0.3,0.5-0.6,0.8-0.8c-1-0.4-1.8-1.1-2.4-2h0.4c1.4,0,1.8,0,1.9,0
		c0.2,0,0.2,0,0.2-0.2v-1c0-0.2,0-0.2-0.2-0.2c-0.1,0-0.5,0-1.9,0h-0.7c0-0.3,0-0.5,0.1-0.8c0-0.1,0.1-0.2,0.1-0.3
		c0-0.1-0.1-0.2-0.3-0.2c-0.4,0-0.8-0.1-1.4-0.1c0.1,0.5,0.1,0.9,0,1.4h-0.7c-1.4,0-1.8,0-1.9,0c-0.2,0-0.2,0-0.2,0.2v1
		c0,0.2,0,0.2,0.2,0.2c0.1,0,0.5,0,1.9,0H249.6z M256,12241.7c-0.2,0.2-0.3,0.4-0.5,0.6c-0.7,0.6-1.5,1-2.4,1.3
		c0.3,0.2,0.5,0.5,0.7,0.8c0.2,0.3,0.2,0.4,0.4,0.4c0.1,0,0.3-0.1,0.4-0.2c0.8-0.4,1.5-0.9,2.1-1.4c0.1-0.1,0.3-0.2,0.4-0.3
		c0.1,0,0.2-0.1,0.2-0.2c0-0.1,0-0.1-0.2-0.3C256.7,12242.1,256.4,12241.9,256,12241.7z M258.2,12242.4c-0.1,0.1-0.1,0.1-0.1,0.2
		c0,0.1,0,0.1,0.1,0.2c0.7,0.7,1.5,1.3,2.3,1.7c0.1,0.1,0.2,0.1,0.4,0.1c0.1,0,0.2-0.1,0.4-0.4c0.2-0.3,0.4-0.6,0.7-0.9
		c-1-0.4-1.9-0.9-2.6-1.6c0,0-0.1-0.1-0.2-0.1c-0.1,0-0.2,0-0.2,0.1L258.2,12242.4z M251.6,12232.6c0.3,0.1,0.5,0.2,0.8,0.3
		c0.1,0.1,0.2,0.1,0.3,0.1c0.1,0,0.2-0.1,0.3-0.3c0.2-0.3,0.4-0.7,0.5-1c0.1-0.1,0.1-0.2,0.2-0.3c0.1-0.1,0.1-0.2,0.1-0.2
		c0-0.1,0-0.1-0.2-0.2c-0.4-0.2-0.8-0.3-1.2-0.4c0,0.2-0.1,0.5-0.2,0.7C252.1,12231.7,251.9,12232.2,251.6,12232.6z M247.5,12231.1
		c-0.2,0.1-0.2,0.2-0.1,0.3c0.3,0.5,0.6,1,0.8,1.5c0.1,0.2,0.1,0.1,0.3,0l0.8-0.4c0.2-0.1,0.2-0.1,0.2-0.3c-0.2-0.5-0.5-1-0.9-1.5
		c-0.1-0.1-0.2-0.1-0.3-0.1L247.5,12231.1z M273.3,12238.6c1.4-0.6,2.4-0.9,3.4-1.3c0.3-0.1,0.6-0.2,1-0.2c0.2,0,0.2-0.1,0.2-0.2
		c0-0.1-0.1-0.2-0.1-0.4c-0.3-0.5-0.7-1-1.1-1.4c-0.4,0.3-0.8,0.6-1.2,0.9c-0.8,0.4-1.7,0.8-2.4,1.1c0-1-0.8-1.8-1.8-1.7
		c-0.1,0-0.1,0-0.2,0c-0.6,0-1.1,0.2-1.6,0.5l0,0c0.4-0.6,0.8-1.2,1.2-1.8c1.2-0.1,2.5-0.3,3.7-0.5c0.2,0,0.3-0.1,0.3-0.3
		c0-0.4-0.1-0.8-0.2-1.2c0-0.1-0.1-0.2-0.3-0.2c-1,0.2-1.9,0.4-2.9,0.5c0.2-0.4,0.3-0.6,0.4-0.9c0.1-0.1,0.2-0.3,0.3-0.4
		c0.1-0.1,0.1-0.1,0.1-0.2c0-0.1-0.1-0.2-0.2-0.3c-0.6-0.2-1.2-0.4-1.8-0.4c0,0.3,0,0.7-0.1,1c-0.1,0.5-0.3,0.9-0.5,1.4
		c-1.2,0.1-2.5,0.1-3.7,0c0,0.5,0.1,1.1,0.2,1.3c0,0.2,0.1,0.3,0.2,0.3c0.9,0,1.8,0,2.6,0c-0.9,1.5-2,2.8-3.3,4
		c-0.1,0.1-0.1,0.1-0.1,0.2c0,0.1,0,0.1,0.1,0.1c0.3,0.4,0.6,0.7,0.9,1.1c0,0.1,0.1,0.1,0.2,0.1c0.1,0,0.1,0,0.2-0.1
		c0.5-0.6,1-1.2,1.6-1.7c0.6-0.6,1.4-1,2.2-1.2c0.7,0,0.9,0.3,1,1.1c-2.4,1.2-3.4,2.4-3.4,3.9c0,1.9,1.4,2.6,4,2.6
		c1.3,0,2.7,0,4-0.2c0.1,0,0.2-0.1,0.2-0.3c0-0.4-0.1-0.9-0.1-1.3c0-0.1-0.1-0.2-0.2-0.2c-1.3,0.2-2.6,0.3-4,0.3
		c-1.7,0-2.2-0.4-2.2-1.1c0-0.8,0.5-1.4,1.9-2.1c0,0.6,0,1.4,0,2c0,0.2,0.1,0.3,0.2,0.3c0.4,0,0.8,0,1.1-0.1c0.2,0,0.3-0.1,0.3-0.3
		L273.3,12238.6z M290.4,12238.3v4.1c-0.7-0.3-1.2-0.9-1.6-1.5c0.1-0.3,0.1-0.5,0.2-0.8c0-0.1,0.1-0.3,0.2-0.4
		c0.1-0.1,0.1-0.2,0.1-0.3c0-0.1-0.1-0.2-0.3-0.2c-0.4-0.1-0.8-0.2-1.3-0.3c0,0.3-0.1,0.6-0.1,0.9c-0.3,1.5-1.1,2.9-2.3,3.9
		c0.3,0.2,0.6,0.4,0.8,0.7c0.2,0.2,0.3,0.3,0.4,0.3c0.1,0,0.2-0.1,0.3-0.2c0.6-0.6,1.1-1.4,1.5-2.2c1.2,1.8,3.2,2.3,6.2,2.3h1.1
		c0.5,0,0.5,0,0.6-0.5c0-0.4,0.1-0.7,0.3-1c-0.7,0-1.4,0.1-2.1,0.1c-0.8,0-1.6-0.1-2.3-0.2v-1.7h1.4c1.1,0,1.5,0,1.6,0
		c0.2,0,0.2,0,0.2-0.2v-1c0-0.2,0-0.2-0.2-0.2c-0.1,0-0.5,0-1.6,0H292v-1.5h1.7c1.5,0,2.1,0,2.2,0c0.2,0,0.2,0,0.2-0.2v-1.1
		c0-0.2,0-0.2-0.2-0.2c-0.1,0-0.6,0-2.2,0H289c-1.5,0-2.1,0-2.2,0c-0.2,0-0.2,0-0.2,0.2v1.1c0,0.1,0,0.2,0.2,0.2c0.1,0,0.6,0,2.2,0
		L290.4,12238.3z M289.6,12230.6c-1.4,0-1.9,0-2,0c-0.2,0-0.2,0-0.2,0.2c0,0.1,0,0.5,0,1.5v2.2c0,0.9,0,1.3,0,1.5
		c0,0.2,0,0.2,0.2,0.2c0.1,0,0.6,0,2,0h3.1c1.4,0,1.9,0,2,0c0.2,0,0.2,0,0.2-0.2c0-0.1,0-0.5,0-1.5v-2.2c0-1,0-1.4,0-1.5
		c0-0.2,0-0.2-0.2-0.2c-0.1,0-0.6,0-2,0H289.6z M293.2,12234.9H289v-0.9h4.2L293.2,12234.9z M293.2,12231.8v0.9H289v-0.9H293.2z
		 M285,12238.7l0.8-0.4c0.5-0.2,0.5-0.2,0.5-0.7c0-0.4,0-0.7,0.1-1c-0.5,0.2-0.9,0.4-1.4,0.6v-2.5c0.9,0,1.3,0,1.4,0
		c0.2,0,0.2,0,0.2-0.2v-1.2c0-0.2,0-0.2-0.2-0.2c-0.1,0-0.4,0-1.4,0v-0.9c-0.1-0.5,0-1.1,0.1-1.6c0.1-0.1,0.1-0.2,0.1-0.3
		c0-0.1-0.1-0.2-0.3-0.2c-0.6-0.1-1-0.1-1.6-0.1c0.1,0.8,0.1,1.5,0.1,2.3v0.8h-0.2c-1.1,0-1.4,0-1.5,0c-0.2,0-0.2,0-0.2,0.2v1.2
		c0,0.2,0,0.2,0.2,0.2c0.1,0,0.4,0,1.5,0h0.2v3l-0.5,0.1c-0.5,0.1-1,0.2-1.5,0.3c0.1,0.5,0.1,1,0.3,1.5c0,0.1,0.1,0.2,0.2,0.2
		c0.1,0,0.2,0,0.3-0.1c0.2-0.1,0.4-0.2,0.6-0.3c0.2-0.1,0.4-0.1,0.7-0.2v3.2c0,0.5-0.1,0.6-0.5,0.6c-0.4,0-0.8,0-1.2,0
		c0.2,0.4,0.3,0.8,0.4,1.2c0.1,0.5,0.1,0.5,0.6,0.5c0.6,0.1,1.2,0,1.8-0.4c0.4-0.3,0.5-0.7,0.5-1.6c0-0.8,0-1.7,0-3.2V12238.7z
		 M310.2,12235.7h-3.3v-3.5c0-0.5,0-1,0.1-1.5c0.1-0.1,0.1-0.2,0.1-0.3c0-0.1-0.1-0.1-0.2-0.2c-0.6-0.1-1.2-0.1-1.8-0.1
		c0.1,0.7,0.1,1.4,0.1,2.1v3.5h-3.1v-1.7c0-0.5,0-0.9,0.1-1.4c0-0.1,0.1-0.2,0.1-0.3c0-0.1-0.1-0.2-0.2-0.2
		c-0.5-0.1-1.1-0.1-1.7-0.1c0.1,0.7,0.1,1.4,0.1,2v2.4c0,1,0,1.4,0,1.5c0,0.2,0,0.2,0.2,0.2h1.3c0.2,0,0.2,0,0.2-0.2v-0.7h3.1v4.9
		h-3.6v-1.2c0-0.5,0-0.9,0.1-1.4c0.1-0.1,0.1-0.2,0.1-0.3c0-0.1-0.1-0.2-0.3-0.2c-0.5-0.1-1.1-0.1-1.7-0.1c0.1,0.7,0.1,1.3,0.1,2
		v2.1c0,0.9,0,1.3,0,1.4c0,0.1,0,0.2,0.2,0.2h1.3c0.2,0,0.2,0,0.2-0.2v-0.8h9.1v0.7c0,0.1,0,0.2,0.2,0.2h1.3c0.2,0,0.2,0,0.2-0.2
		c0-0.1,0-0.5,0-1.4v-1.9c0-0.5,0-1.1,0.1-1.6c0-0.1,0.1-0.2,0.1-0.3c0-0.1-0.1-0.2-0.2-0.2c-0.5-0.1-1.1-0.1-1.7-0.1
		c0.1,0.7,0.1,1.4,0.1,2v1.2h-3.8v-4.9h3.3v0.6c0,0.2,0,0.2,0.2,0.2h1.3c0.1,0,0.2,0,0.2-0.2c0-0.1,0-0.6,0-1.5v-2.3
		c0-0.5,0-1.1,0.1-1.6c0-0.1,0.1-0.2,0.1-0.3c0-0.1-0.1-0.2-0.3-0.2c-0.6-0.1-1.1-0.1-1.7-0.1c0.1,0.7,0.1,1.4,0.1,2L310.2,12235.7z
		"/>
</g>
</svg>
