<?xml version="1.0" encoding="utf-8"?>
<!-- Generator: Adobe Illustrator 24.2.0, SVG Export Plug-In . SVG Version: 6.00 Build 0)  -->
<svg version="1.1" id="レイヤー_1" xmlns="http://www.w3.org/2000/svg" xmlns:xlink="http://www.w3.org/1999/xlink" x="0px"
	 y="0px" viewBox="0 0 247 220" style="enable-background:new 0 0 247 220;" xml:space="preserve">
<style type="text/css">
	.st0{fill:#D10000;}
	.st1{fill:#FFFFFF;}
	.st2{fill:none;stroke:#FFFFFF;}
</style>
<g id="グループ_1196" transform="translate(-1007 -12093.124)">
	<rect id="長方形_331" x="1007" y="12093.1" class="st0" width="247" height="220"/>
	<path id="パス_1346" class="st1" d="M1149.7,12146v-3h-5.7v-2.7l4.1-14.3h3l-4.3,14.3h2.8v-5.7h2.9v5.7h1.4v2.7h-1.4v3H1149.7z"
		/>
	<line id="線_7837" class="st2" x1="1053.5" y1="12159.5" x2="1208.5" y2="12159.5"/>
	<path id="パス_1344" class="st1" d="M1119.9,12194c-1.4,2-3.2,3.5-5.4,4.5c0.4,0.4,0.7,0.8,1,1.2c0.2,0.4,0.3,0.5,0.4,0.5
		c0.1,0,0.2-0.1,0.5-0.2c1.9-1.1,3.4-2.6,4.6-4.5c0,2.3-0.1,5.3-0.1,5.9c0,0.2,0,0.2,0.2,0.2h1.7c0.2,0,0.3,0,0.3-0.2
		c0-0.6-0.1-3.7-0.1-5.9c1.1,1.8,2.7,3.4,4.5,4.5c0.2,0.1,0.3,0.2,0.5,0.3c0.2,0,0.2-0.2,0.4-0.5c0.2-0.6,0.5-1.1,0.9-1.5
		c-2.1-0.9-3.9-2.4-5.3-4.2h1.5c2.1,0,2.8,0,3,0c0.2,0,0.3,0,0.3-0.2v-1.6c0-0.2,0-0.2-0.3-0.2c-0.1,0-0.9,0-3,0h-2.5
		c0-0.3,0-0.7,0.1-1c0.1-0.2,0.1-0.4,0.2-0.5c0-0.1-0.1-0.2-0.3-0.2c-0.7-0.1-1.4-0.1-2.2-0.2c0.1,0.8,0.1,1.4,0.1,1.9h-1.7
		c-2.1,0-2.8,0-3,0c-0.2,0-0.2,0-0.2,0.2v1.6c0,0.2,0,0.2,0.2,0.2c0.1,0,0.9,0,3,0H1119.9z M1113.8,12193.3l1.1-0.5
		c0.6-0.3,0.6-0.2,0.6-1c0-0.5,0-0.9,0.1-1.4c-0.6,0.2-1.2,0.5-1.8,0.7v-3.4c1.1,0,1.5,0,1.7,0c0.2,0,0.3,0,0.3-0.2v-1.6
		c0-0.2,0-0.3-0.3-0.3c-0.1,0-0.5,0-1.7,0v-1.2c-0.1-0.7,0-1.5,0.1-2.2c0.1-0.1,0.1-0.3,0.2-0.5c0-0.1-0.1-0.2-0.4-0.2
		c-0.7-0.1-1.4-0.1-2.2-0.2c0.1,1,0.2,2.1,0.2,3.1v1.1h-0.2c-1.4,0-1.9,0-2,0c-0.2,0-0.2,0-0.2,0.3v1.6c0,0.2,0,0.2,0.2,0.2
		c0.1,0,0.6,0,2,0h0.2v4.2c-0.2,0.1-0.5,0.1-0.7,0.2c-0.7,0.2-1.3,0.3-2,0.4c0.1,0.7,0.2,1.4,0.4,2.1c0,0.2,0.1,0.3,0.3,0.3
		c0.1,0,0.3-0.1,0.4-0.1c0.2-0.2,0.5-0.3,0.8-0.4c0.3-0.1,0.6-0.2,0.9-0.3v4.3c0,0.6-0.2,0.8-0.7,0.8c-0.5,0-1,0-1.6-0.1
		c0.3,0.5,0.5,1,0.6,1.6c0.2,0.7,0.2,0.7,0.8,0.7c1.4,0,1.9-0.1,2.4-0.5c0.5-0.4,0.7-1,0.7-2.2c0-1.1-0.1-2.3-0.1-4.4V12193.3z
		 M1126.5,12181.8c-0.6,0.3-1.2,0.5-1.8,0.6c-2.9,0.7-5.8,1.1-8.8,1.2c0.3,0.4,0.5,0.9,0.6,1.3c0.2,0.7,0.2,0.7,0.9,0.6
		c3.1-0.2,6.2-0.7,9.2-1.5c0.4-0.1,0.7-0.2,1.1-0.2c0.2,0,0.3-0.1,0.3-0.3c0,0,0,0,0,0c0-0.2-0.1-0.3-0.2-0.4
		C1127.5,12182.6,1127,12182.2,1126.5,12181.8z M1123.9,12189.9c0.4,0.1,0.8,0.3,1.1,0.5c0.2,0.1,0.4,0.2,0.5,0.2
		c0.1,0,0.2-0.1,0.4-0.5c0.6-0.9,1.1-1.9,1.6-2.9c0.1-0.3,0.3-0.5,0.5-0.7c0.2-0.1,0.2-0.2,0.2-0.3c0-0.1-0.1-0.2-0.4-0.3
		c-0.6-0.3-1.3-0.5-2-0.7c-0.1,0.4-0.2,0.8-0.3,1.2C1125.3,12187.7,1124.7,12188.8,1123.9,12189.9z M1116.8,12186.9
		c-0.3,0.1-0.3,0.2-0.2,0.4c0.5,0.9,1,1.8,1.3,2.8c0.1,0.2,0.1,0.2,0.4,0.1l1.3-0.5c0.3-0.1,0.3-0.2,0.2-0.4c-0.3-1-0.8-1.9-1.4-2.7
		c-0.1-0.2-0.2-0.2-0.4-0.1L1116.8,12186.9z M1120.8,12186.1c-0.3,0.1-0.3,0.1-0.2,0.3c0.5,0.9,0.8,1.8,1.1,2.8
		c0.1,0.3,0.1,0.3,0.4,0.2l1.3-0.4c0.3-0.1,0.4-0.2,0.3-0.4c-0.3-1-0.7-1.9-1.1-2.8c-0.1-0.2-0.2-0.2-0.5-0.1L1120.8,12186.1z
		 M1151.6,12186.4c0-2.3,0-3.5,0-3.6c0-0.2,0-0.3-0.2-0.3c-0.2,0-0.9,0-3,0H1138c-2.1,0-2.9,0-3,0c-0.2,0-0.3,0-0.3,0.3
		c0,0.1,0,1.3,0,3.6v3.6c0,5.3-0.7,7.9-2.3,10c0.6,0.3,1.1,0.7,1.6,1.1c0.2,0.2,0.4,0.4,0.5,0.4s0.2-0.1,0.4-0.4
		c1.1-1.9,1.8-3.9,1.9-6.1h5v2.6c0,2.1,0,3.1,0,3.3c0,0.2,0,0.2,0.2,0.2h1.9c0.2,0,0.2,0,0.2-0.2c0-0.1,0-1.1,0-3.3v-2.6h5.2v3.7
		c0,0.5-0.2,0.7-0.7,0.7c-0.7,0-1.1,0-2-0.1c0.3,0.5,0.5,1.1,0.6,1.7c0.2,0.7,0.1,0.6,0.8,0.6c1.8,0,2.5-0.2,2.9-0.6
		c0.5-0.4,0.8-1.1,0.7-1.8c0-0.9,0-2,0-3V12186.4z M1144.2,12192.9v-3.1h5.2v3.1H1144.2z M1149.3,12184.7v3.1h-5.2v-3.1H1149.3z
		 M1137,12192.9c0-0.9,0.1-1.8,0.1-2.9v-0.2h4.8v3.1L1137,12192.9z M1137.1,12187.7v-3.1h4.8v3.1H1137.1z"/>
	<path id="パス_1343" class="st1" d="M1096.4,12239.3c-0.2,0.2-0.4,0.3-0.6,0.4c-0.7,0.4-1.5,0.7-2.3,0.9c0.3,0.2,0.5,0.4,0.7,0.7
		c0.2,0.2,0.3,0.4,0.4,0.4c0.1,0,0.3-0.1,0.4-0.1c0.7-0.2,1.3-0.6,2-1c0.2-0.1,0.4-0.3,0.5-0.3c0.1,0,0.2-0.1,0.2-0.2
		s-0.1-0.1-0.2-0.2c-0.3-0.2-0.5-0.4-0.8-0.5h3.1l-0.5,0.5c-0.1,0.1-0.2,0.2,0,0.3c0.9,0.6,1.9,1.1,3,1.5c0.1,0,0.2,0.1,0.4,0.1
		c0.2,0,0.3-0.1,0.4-0.4c0.2-0.3,0.3-0.6,0.6-0.8c-1.1-0.2-2.2-0.6-3.2-1.2h0.8c1.6,0,2.1,0,2.2,0c0.2,0,0.2,0,0.2-0.2v-0.9
		c0-0.2,0-0.2-0.2-0.2c-0.1,0-0.6,0-2.2,0h-0.3v-1c1.3,0,1.7,0,1.8,0c0.2,0,0.2,0,0.2-0.2v-0.9c0-0.2,0-0.2-0.2-0.2
		c-0.1,0-0.6,0-1.8,0v0c0-0.2,0-0.3,0.1-0.5c0.1-0.1,0.1-0.1,0.1-0.2s-0.1-0.2-0.3-0.2c-0.5-0.1-0.9-0.1-1.5-0.1
		c0.1,0.3,0.1,0.7,0.1,1h-2c0-0.2,0-0.4,0.1-0.5c0.1-0.1,0.1-0.1,0.1-0.2c0-0.1-0.1-0.1-0.3-0.2c-0.5-0.1-0.9-0.1-1.5-0.1
		c0.1,0.3,0.1,0.7,0.1,1c-1.3,0-1.8,0-1.9,0c-0.2,0-0.2,0-0.2,0.2v0.9c0,0.2,0,0.2,0.2,0.2c0.1,0,0.6,0,1.9,0v1h-0.2
		c-1.6,0-2.1,0-2.2,0c-0.2,0-0.2,0-0.2,0.2v0.9c0,0.2,0,0.2,0.2,0.2c0.1,0,0.6,0,2.2,0H1096.4z M1097.4,12238.1v-1h2v1H1097.4z
		 M1092.8,12236.8c0-1,0-1.5,0-1.6c0-0.2,0-0.2-0.2-0.2c-0.1,0-0.3,0-1.2,0h-0.9c-0.8,0-1,0-1.1,0c-0.2,0-0.2,0-0.2,0.2v1.2
		c0,0.2,0,0.2,0.2,0.2c0.1,0,0.3,0,1.1,0h0.7v3.6c-0.4,0.4-0.8,0.7-1.2,1c-0.3,0.2-0.6,0.4-0.9,0.5c0.2,0.5,0.4,1,0.7,1.5
		c0.1,0.1,0.1,0.2,0.2,0.2c0.1,0,0.1,0,0.2-0.2c0.1-0.1,0.2-0.2,0.3-0.3c0.5-0.4,1-0.9,1.5-1.4c0.4,0.6,1,1.1,1.7,1.4
		c1.2,0.4,2.5,0.5,3.8,0.4c1.7,0,3.6,0,5.6-0.2c0.5,0,0.5,0,0.6-0.5c0-0.4,0.2-0.8,0.4-1.1c-2.4,0.2-4.8,0.3-6.8,0.3
		c-1,0-2-0.1-3-0.3c-0.7-0.2-1.2-0.7-1.5-1.3V12236.8z M1101.5,12230.7v0.8h-1.7c-0.7,0-1,0-1.1,0c-0.2,0-0.2,0-0.2,0.2
		c0,0.1,0,0.3,0,0.6v0.9c0,0.7,0.1,1,0.4,1.2c0.3,0.2,0.7,0.3,2,0.3s1.9,0,2.2-0.3c0.2-0.2,0.3-0.4,0.3-0.7c0.1-0.4,0.1-0.5-0.3-0.5
		c-0.4-0.1-0.7-0.2-1.1-0.4c0,0.4,0,0.6-0.2,0.7c-0.1,0.1-0.4,0.1-0.9,0.1c-0.6,0-0.8,0-0.9-0.1c-0.1-0.1-0.1-0.2-0.1-0.5v-0.4h1.6
		c0.8,0,1,0,1.1,0c0.2,0,0.2,0,0.2-0.2c0-0.1,0-0.4,0-1v-0.7c0-0.7,0-0.9,0-1c0-0.2,0-0.2-0.2-0.2c-0.1,0-0.4,0-1.1,0h-1.7
		c-1,0-1.3,0-1.4,0c-0.2,0-0.2,0-0.2,0.2v0.8c0,0.2,0,0.2,0.2,0.2c0.1,0,0.4,0,1.4,0L1101.5,12230.7z M1096.3,12230.7v0.8h-1.7
		c-0.7,0-0.9,0-1,0c-0.2,0-0.2,0-0.2,0.2c0,0.1,0,0.3,0,0.6v0.9c0,0.7,0.1,1,0.4,1.2c0.3,0.2,0.7,0.3,1.9,0.3c1.2,0,1.7,0,2-0.3
		c0.2-0.2,0.3-0.4,0.3-0.7c0.1-0.4,0-0.4-0.3-0.5c-0.4-0.1-0.7-0.2-1.1-0.4c0,0.4,0,0.6-0.1,0.7c-0.1,0.1-0.3,0.1-0.9,0.1
		c-0.5,0-0.7,0-0.8-0.1c-0.1-0.1-0.1-0.2-0.1-0.5v-0.4h1.6c0.8,0,1,0,1.1,0c0.2,0,0.2,0,0.2-0.2c0-0.1,0-0.4,0-1v-0.7
		c0-0.7,0-0.9,0-1c0-0.2,0-0.2-0.2-0.2c-0.1,0-0.4,0-1.1,0h-1.6c-1,0-1.3,0-1.4,0c-0.2,0-0.2,0-0.2,0.2v0.8c0,0.2,0,0.2,0.2,0.2
		c0.1,0,0.4,0,1.4,0L1096.3,12230.7z M1092.8,12232.4c0.2-0.1,0.2-0.2,0.1-0.3c-0.6-0.9-1.2-1.7-2-2.4c-0.1-0.1-0.2-0.1-0.4,0
		l-0.8,0.6c-0.2,0.1-0.2,0.2-0.1,0.3c0.8,0.7,1.4,1.6,2,2.5c0,0.1,0.1,0.1,0.1,0.1c0.1,0,0.2-0.1,0.2-0.1L1092.8,12232.4z
		 M1113.1,12235c-2.1,1.3-4.4,2.2-6.8,2.9c0.3,0.3,0.5,0.6,0.7,1c0.2,0.3,0.2,0.4,0.3,0.4c0.1,0,0.3-0.1,0.4-0.1
		c1.2-0.4,2.3-0.9,3.4-1.4c-0.4,1-0.8,1.9-1.4,2.9c-0.1,0.1-0.1,0.2,0.1,0.2l1.3,0.2c0.2,0,0.2,0,0.3-0.1c0.2-0.3,0.3-0.6,0.5-1h5.1
		c0,0.6-0.1,1.3-0.4,1.9c-0.1,0.2-0.4,0.3-0.9,0.3c-0.6,0-1.3-0.1-1.9-0.2c0.2,0.4,0.4,0.8,0.5,1.2c0.1,0.5,0.1,0.5,0.6,0.5
		c0.4,0,0.8,0.1,1.2,0c0.7,0.1,1.3-0.2,1.8-0.7c0.4-0.9,0.7-1.9,0.7-2.8c0-0.4,0.1-0.9,0.1-1.4c0-0.2,0-0.2-0.2-0.2
		c-0.1,0-0.5,0-1.9,0h-4.3c0.1-0.2,0.1-0.3,0.2-0.5c1.8-0.2,3.6-0.4,5.3-0.8c0.3-0.1,0.6-0.1,0.9-0.1c0.2,0,0.3-0.1,0.3-0.2
		c0-0.1-0.1-0.2-0.2-0.3c-0.4-0.3-0.7-0.6-1.2-0.9c-0.5,0.2-1.1,0.4-1.6,0.5c-1,0.2-2.1,0.4-3.2,0.5c0,0,0-0.1,0-0.1
		c0.9-0.5,1.7-1,2.5-1.6h3.2c1.4,0,1.9,0,2,0c0.1,0,0.2,0,0.2-0.2v-1.1c0-0.2,0-0.2-0.2-0.2c-0.1,0-0.6,0-2,0h-1.6
		c0.6-0.6,1.2-1.2,1.8-1.9c0.2-0.3,0.4-0.5,0.7-0.6c0.1,0,0.2-0.1,0.2-0.2c0-0.1-0.1-0.2-0.2-0.3c-0.4-0.3-0.9-0.6-1.4-0.8
		c-0.2,0.4-0.4,0.8-0.7,1.2c-0.3,0.4-0.6,0.8-1,1.1v-1.1c0-0.2,0-0.2-0.2-0.2c-0.1,0-0.6,0-2,0h-0.5v-0.1c0-0.4,0-0.7,0.1-1.1
		c0.1-0.1,0.1-0.2,0.1-0.3c0-0.1-0.1-0.1-0.3-0.2c-0.6-0.1-1.1-0.1-1.7-0.1c0.1,0.6,0.1,1.1,0.1,1.7v0.1h-1.5c-1.5,0-2,0-2,0
		c-0.2,0-0.2,0-0.2,0.2v1.1c0,0.2,0,0.2,0.2,0.2c0.1,0,0.6,0,2,0h1.5v1.2h-3.4c-1.4,0-1.9,0-2,0c-0.2,0-0.2,0-0.2,0.2v1.1
		c0,0.2,0,0.2,0.2,0.2c0.1,0,0.6,0,2,0L1113.1,12235z M1113.8,12233.6v-1.2h0.5c1.3,0,1.8,0,2,0c-0.4,0.4-0.9,0.8-1.3,1.2H1113.8z
		 M1127.5,12243.5c0.2,0,0.2,0,0.2-0.2v-0.9h6.7v0.8c0,0.2,0,0.2,0.2,0.2h1.4c0.2,0,0.2,0,0.2-0.2c0-0.1,0-1,0-5.6v-3.6
		c0-2.6,0-3.6,0-3.7c0-0.2,0-0.2-0.2-0.2c-0.1,0-0.7,0-2.2,0h-5.5c-1.6,0-2.1,0-2.2,0c-0.2,0-0.2,0-0.2,0.2c0,0.1,0,1.1,0,4.2v3.1
		c0,4.6,0,5.6,0,5.7c0,0.2,0,0.2,0.2,0.2H1127.5z M1127.7,12240.9v-3.9h6.7v3.9H1127.7z M1127.7,12231.8h6.7v3.6h-6.7V12231.8z
		 M1148.9,12233.4c0-0.8,0-1.5,0-2c0-0.3,0.1-0.6,0.2-0.9c0-0.1,0.1-0.2,0.1-0.2c0-0.1-0.1-0.2-0.3-0.3c-0.7-0.1-1.4-0.2-2-0.3
		c0.2,0.5,0.2,1,0.2,1.5c0,0.8,0,1.6,0,2.2c0,1.5,0.1,3,0.3,5.1c-0.4,0-0.9-0.1-1.3,0c-2,0-3.5,1-3.5,2.4c0,1.5,1.4,2.4,3.4,2.4
		c2.1,0,3.2-1,3.2-2.4c0-0.1,0-0.2,0-0.4c1.3,0.5,2.5,1.2,3.5,2c0.1,0.1,0.2,0,0.3,0c0.3-0.4,0.6-0.9,0.8-1.3c0.1-0.1,0-0.2-0.1-0.3
		c-1.4-0.9-3-1.6-4.6-2.1c-0.2-1.5-0.2-2.4-0.3-3.7c1.4-0.1,2.7-0.4,4-0.7c0.1,0,0.2-0.1,0.1-0.2c-0.1-0.5-0.2-0.9-0.4-1.4
		c0-0.1-0.1-0.1-0.2-0.1c0,0,0,0,0,0C1151.4,12233.1,1150.1,12233.3,1148.9,12233.4z M1147.5,12240.3c0,0.7-0.5,1.4-1.7,1.4
		c-1,0-1.6-0.3-1.6-0.8c0-0.6,0.7-0.9,1.8-0.9c0.5,0,1,0.1,1.5,0.2L1147.5,12240.3z M1162,12229.7c0,0.6,0,1.2-0.1,1.8
		c-0.2,1.3-0.3,2.6-0.4,4c0,1.1,0.1,2.2,0.5,3.2c0,0.1,0.1,0.2,0.2,0.2c0.4,0,1.1-0.1,1.3-0.2c0.1,0,0.2-0.1,0.2-0.2c0,0,0,0,0,0
		c0-0.2,0-0.3,0.1-0.5c0.3-0.7,0.6-1.4,0.9-2c0.1-0.1,0.1-0.3,0.2-0.4c0-0.1,0-0.2-0.1-0.3c-0.2-0.3-0.4-0.7-0.5-1
		c-0.4,0.8-0.8,1.4-1.1,2c0-0.6,0-1.2,0-1.8c0.1-0.8,0.2-2,0.4-3.1c0-0.3,0.1-0.5,0.3-0.8c0.1-0.1,0.1-0.2,0.1-0.3
		c0-0.1-0.1-0.2-0.3-0.3C1163.2,12230,1162.6,12229.8,1162,12229.7z M1167.1,12229.7c0.2,0.6,0.3,1.2,0.3,1.7c0.1,1,0.2,2.7,0.2,3.8
		c0,2.5-0.4,3.8-1.3,5.1c-0.7,0.9-1.7,1.6-2.7,2.1c0.5,0.1,1,0.4,1.4,0.7c0.1,0.1,0.2,0.2,0.3,0.2c0.1,0,0.2,0,0.3-0.1
		c1.1-0.7,2-1.5,2.6-2.6c0.9-1.7,1.3-3.6,1.2-5.6c0-1.2-0.1-2.6-0.2-4.1c0-0.2,0-0.5,0-0.7c0-0.3,0-0.4-0.3-0.4
		C1168.3,12229.8,1167.7,12229.7,1167.1,12229.7L1167.1,12229.7z M1084,12261.1c1.4,0,1.9,0,2,0c0.2,0,0.2,0,0.2-0.2v-1.6
		c0-0.1,0-0.2-0.2-0.2c-0.1,0-0.6,0-2,0h-9.6c-1.4,0-1.9,0-2,0c-0.2,0-0.2,0-0.2,0.2v1.6c0,0.1,0,0.2,0.2,0.2c0.1,0,0.6,0,2,0H1084z
		 M1092.9,12267.5c0.2,0,0.2,0,0.2-0.2v-0.9h6.7v0.8c0,0.2,0,0.2,0.2,0.2h1.4c0.2,0,0.2,0,0.2-0.2c0-0.1,0-1,0-5.6v-3.6
		c0-2.6,0-3.6,0-3.7c0-0.2,0-0.2-0.2-0.2c-0.1,0-0.7,0-2.2,0h-5.5c-1.6,0-2.1,0-2.2,0c-0.2,0-0.2,0-0.2,0.2c0,0.1,0,1.1,0,4.2v3.1
		c0,4.6,0,5.6,0,5.7c0,0.2,0,0.2,0.2,0.2H1092.9z M1093.1,12264.9v-3.9h6.7v3.9H1093.1z M1093.1,12255.8h6.7v3.6h-6.7V12255.8z
		 M1110.4,12266.3c0.3,0.3,0.6,0.7,0.9,1.1c0.2,0.3,0.2,0.4,0.3,0.4c0.1,0,0.3-0.1,0.4-0.1c1.9-0.8,3.6-2.1,4.9-3.7
		c0.8,1.2,1.8,2.3,2.8,3.3c0.2,0.2,0.3,0.2,0.3,0.2c0.1,0,0.1-0.1,0.3-0.3c0.3-0.5,0.6-0.9,0.9-1.3c-1.3-1-2.4-2.1-3.3-3.5
		c0.9-1.9,1.4-4,1.5-6.2c0-0.5,0.1-1,0.2-1.5c0.1-0.1,0.1-0.2,0.1-0.4c0-0.1-0.1-0.2-0.2-0.2c-0.5-0.1-1.2-0.2-1.8-0.2
		c0.1,0.8,0.1,1.5,0,2.3c0,2.1-0.6,4.1-1.6,5.9C1114.9,12264,1113.3,12265.1,1110.4,12266.3L1110.4,12266.3z M1109.9,12256.4
		c-0.1-0.6,0-1.2,0.1-1.8c0.1-0.1,0.1-0.2,0.1-0.3c0-0.1-0.1-0.2-0.3-0.2c-0.5-0.1-1.2-0.1-1.8-0.1c0.1,0.8,0.1,1.6,0.1,2.4l0.1,6.9
		l-0.3,0.1c-0.5,0.2-1,0.3-1.5,0.4c0.1,0.6,0.3,1.2,0.5,1.7c0,0.1,0.1,0.2,0.2,0.2c0.1,0,0.2-0.1,0.2-0.1c0.1-0.1,0.3-0.2,0.5-0.3
		c2-0.7,3.9-1.6,5.8-2.6c0.4-0.2,0.4-0.2,0.4-0.8c-0.1-0.4-0.1-0.8,0-1.2c-1.3,0.7-2.6,1.3-4,1.9L1109.9,12256.4z M1111.8,12255.8
		c-0.2,0.1-0.2,0.2-0.1,0.3c0.9,0.9,1.6,1.9,2.3,3c0.1,0.1,0.1,0.2,0.2,0.2c0.1,0,0.1,0,0.2-0.1l1-0.7c0.2-0.1,0.2-0.2,0.1-0.3
		c-0.7-1.1-1.5-2.1-2.4-2.9c-0.1-0.1-0.1-0.1-0.1-0.1c-0.1,0-0.1,0-0.2,0.1L1111.8,12255.8z M1137.5,12258.7c0-1.7,0-2.5,0-2.6
		c0-0.2,0-0.2-0.2-0.2c-0.1,0-0.6,0-2.1,0h-3.4c0-0.4,0-0.7,0-1.1c0-0.4,0-0.8,0.1-1.2c0.1-0.1,0.1-0.2,0.1-0.3
		c0-0.1-0.1-0.2-0.2-0.2c-0.6,0-1.2-0.1-1.8-0.1c0.1,0.6,0.1,1.1,0.1,1.7c0,0.4,0,0.8,0,1.2h-3.1c-1.5,0-2,0-2.2,0
		c-0.2,0-0.2,0-0.2,0.2c0,0.1,0,0.9,0,2.5v6.2c0,1.6,0,2.4,0,2.5c0,0.1,0,0.2,0.2,0.2h1.4c0.2,0,0.2,0,0.2-0.2c0-0.1,0-0.8,0-2.3
		v-2.2c0.3,0.3,0.6,0.6,0.8,0.9c0.1,0.2,0.2,0.3,0.3,0.3c0.1,0,0.2-0.1,0.4-0.2c1.5-1,2.6-2.4,3.3-4l0-0.1c0.7,1.6,1.8,2.9,3.3,4
		c0.2,0.1,0.3,0.2,0.4,0.2c0.1,0,0.2-0.1,0.3-0.3c0.2-0.4,0.5-0.7,0.8-1v2.7c0,0.4-0.1,0.5-0.6,0.5c-0.3,0-1,0-1.7-0.1
		c0.2,0.4,0.4,0.8,0.4,1.2c0.1,0.5,0.1,0.5,0.6,0.5c1.6,0,2.1-0.1,2.5-0.4c0.4-0.3,0.6-0.8,0.5-1.3c0-0.5,0-1.4,0-2.8
		L1137.5,12258.7z M1135.8,12262.3c-2-1-3.5-2.8-4.1-4.9h4.1V12262.3z M1126.3,12257.4h3.6c-0.1,0.6-0.3,1.2-0.5,1.8
		c-0.6,1.4-1.7,2.6-3.1,3.3V12257.4z M1143.2,12254.3c0,0.8-0.1,1.6-0.3,2.4c-0.3,1.7-0.5,3.5-0.5,5.2c0,1.6,0.2,3.2,0.7,4.8
		c0,0.1,0.1,0.2,0.2,0.2c0.4,0,0.9-0.1,1.3-0.3c0.1,0,0.2-0.1,0.2-0.2c0-0.1,0-0.3,0-0.4c0-0.2,0-0.3,0-0.5c0.2-0.8,0.5-1.6,0.9-2.4
		c0.1-0.1,0.1-0.2,0.1-0.3c0-0.1-0.1-0.2-0.1-0.2c-0.2-0.3-0.4-0.6-0.6-1c-0.5,1.1-0.8,1.6-1.1,2.4c-0.1-0.6-0.1-1.2-0.1-1.9
		c0.1-1.7,0.3-3.5,0.7-5.2c0.1-0.4,0.2-0.8,0.4-1.1c0.2-0.3,0.2-0.4,0.2-0.5c0-0.1-0.1-0.2-0.4-0.4
		C1144.4,12254.6,1143.8,12254.4,1143.2,12254.3L1143.2,12254.3z M1146.9,12262.5c0,0.7,0.2,1.5,0.6,2.1c0.7,0.9,1.8,1.3,4.2,1.3
		c0.9,0,1.7-0.1,2.6-0.2c0.3,0,0.3,0,0.3-0.2c0-0.5,0-0.9-0.1-1.4c0-0.2-0.1-0.2-0.2-0.2c-1,0.1-2,0.2-3.1,0.2
		c-1.7,0-2.5-0.4-2.6-1.5c0-0.2,0-0.3-0.2-0.2L1146.9,12262.5z M1147.4,12258c1.2-0.2,2.4-0.4,3.6-0.4c0.8,0,1.6,0,2.6,0.1
		c0.1,0,0.2,0,0.2-0.2c0-0.4,0-0.9,0-1.4c0-0.2,0-0.2-0.4-0.2c-0.7-0.1-1.4-0.1-2.4-0.1c-1.2,0-2.3,0.1-3.5,0.3
		c-0.2,0-0.2,0.1-0.2,0.3C1147.4,12256.7,1147.4,12257.1,1147.4,12258L1147.4,12258z M1166.7,12264.2c0,0.8,0,1.2,0,1.2
		c0,0.1,0,0.2,0.2,0.2h1.2c0.1,0,0.2,0,0.2-0.2c0-0.1,0-0.4,0-1.2h2.1c1.6,0,2.1,0,2.2,0c0.2,0,0.2,0,0.2-0.2v-1
		c0-0.2,0-0.2-0.2-0.2c-0.1,0-0.6,0-2.2,0h-2.1v-0.9h1.2c1.5,0,2,0,2.1,0c0.2,0,0.2,0,0.2-0.2c0-0.1,0-0.5,0-1.4v-2.1
		c0-0.9,0-1.3,0-1.4c0-0.2,0-0.2-0.2-0.2c-0.1,0-0.6,0-2.1,0h-1.2v-0.9h2c1.6,0,2.1,0,2.2,0c0.2,0,0.2,0,0.2-0.2v-1
		c0-0.2,0-0.2-0.2-0.2c-0.1,0-0.6,0-2.2,0h-2c0-0.3,0-0.5,0.1-0.8c0.1-0.1,0.1-0.2,0.1-0.3c0-0.1-0.1-0.2-0.3-0.2
		c-0.5-0.1-1.1-0.1-1.6-0.1c0.1,0.4,0.1,0.9,0.1,1.3h-1.8c-1.6,0-2.1,0-2.2,0c-0.2,0-0.2,0-0.2,0.2v1c0,0.2,0,0.2,0.2,0.2
		c0.1,0,0.6,0,2.2,0h1.7v0.9h-1.2c-1.5,0-2,0-2.1,0c-0.1,0-0.2,0-0.2,0.2c0,0.1,0,0.5,0,1.4v2.1c0,0.9,0,1.3,0,1.4
		c0,0.2,0,0.2,0.2,0.2c0.1,0,0.6,0,2.1,0h1.2v0.9h-1.8c-1.6,0-2.1,0-2.2,0c-0.2,0-0.2,0-0.2,0.2v1c0,0.2,0,0.2,0.2,0.2
		c0.1,0,0.6,0,2.2,0L1166.7,12264.2z M1170.2,12260.9h-2v-1h2V12260.9z M1164.7,12260.9v-1h1.9v1H1164.7z M1170.2,12257.8v0.9h-2
		v-0.9H1170.2z M1164.7,12258.7v-0.9h1.9v0.9H1164.7z M1161.9,12260.8c0-1,0-1.5,0-1.6c0-0.2,0-0.2-0.2-0.2c-0.1,0-0.3,0-1.2,0h-0.9
		c-0.8,0-1.1,0-1.1,0c-0.2,0-0.2,0-0.2,0.2v1.2c0,0.2,0,0.2,0.2,0.2c0.1,0,0.3,0,1.1,0h0.7v3.6c-0.4,0.4-0.8,0.7-1.2,1
		c-0.3,0.2-0.6,0.4-0.9,0.5c0.2,0.5,0.4,1,0.6,1.4c0.1,0.1,0.1,0.2,0.2,0.2c0.1,0,0.2-0.1,0.2-0.2c0.1-0.1,0.2-0.2,0.4-0.3
		c0.5-0.4,1-0.9,1.5-1.3c0.4,0.7,1,1.2,1.7,1.4c1.2,0.4,2.5,0.5,3.7,0.4c1.6,0,3.5,0,5.6-0.1c0.5,0,0.5,0,0.6-0.5
		c0-0.4,0.2-0.8,0.4-1.1c-2.4,0.2-4.8,0.3-6.9,0.3c-1,0.1-2-0.1-3-0.3c-0.6-0.2-1.1-0.7-1.4-1.3L1161.9,12260.8z M1158.8,12254.2
		c-0.2,0.1-0.2,0.2-0.1,0.3c0.8,0.7,1.4,1.6,2,2.5c0,0.1,0.1,0.1,0.1,0.1c0.1,0,0.1,0,0.2-0.1l0.9-0.7c0.2-0.1,0.2-0.2,0.1-0.3
		c-0.6-0.9-1.2-1.7-2-2.4c-0.1-0.1-0.2-0.1-0.3,0L1158.8,12254.2z M1179.9,12258.5c-0.2,0.1-0.2,0.1-0.2,0.3c0.1,0.3,0.3,0.7,0.4,1
		c-0.6,0-1.2,0.1-1.7,0.1c0.8-1,1.6-2.2,2.5-3.6c0.1-0.2,0.3-0.5,0.5-0.6c0.1-0.1,0.2-0.1,0.2-0.3c0-0.1,0-0.1-0.2-0.2
		c-0.4-0.2-0.9-0.4-1.3-0.6c-0.1,0.3-0.3,0.7-0.4,1c-0.4,0.6-0.7,1.2-1.1,1.9c-0.2-0.3-0.5-0.5-0.7-0.8c0.5-0.7,1-1.5,1.4-2.3
		c0.1-0.2,0.2-0.3,0.3-0.4c0.1,0,0.1-0.1,0.1-0.2c0-0.1-0.1-0.2-0.2-0.3c-0.4-0.2-0.9-0.4-1.3-0.6c-0.1,0.3-0.2,0.6-0.3,0.8
		c-0.3,0.6-0.6,1.2-1,1.8c-0.1-0.1-0.3-0.3-0.4-0.4c-0.1-0.1-0.2-0.1-0.3,0l-0.6,0.8c-0.1,0.1-0.1,0.1-0.1,0.2c0,0.1,0,0.1,0.1,0.1
		c0.8,0.7,1.5,1.5,2.1,2.4c-0.3,0.4-0.6,0.8-0.9,1.2c-0.4,0-0.8,0-1.2-0.1c0,0.5,0.1,0.9,0.2,1.4c0,0.2,0.1,0.3,0.2,0.3
		c0.1,0,0.2,0,0.2-0.1c0.2-0.1,0.4-0.1,0.6-0.1l1.3-0.1v4.3c0,1.5,0,2,0,2.1c0,0.2,0,0.2,0.2,0.2h1.2c0.2,0,0.2,0,0.2-0.2
		c0-0.1,0-0.6,0-2.1v-4.4l0.9-0.1l0.1,0.6c0,0.2,0,0.2,0.3,0.1l0.6-0.2l0.2,0.4c0.1,0.3,0.2,0.4,0.3,0.4c0.1,0,0.2,0,0.4-0.1
		l0.4-0.2c0,0.2,0,0.7,0,1.7v1.2c0,2.2,0,2.6,0,2.7c0,0.2,0,0.2,0.2,0.2h1.2c0.2,0,0.2,0,0.2-0.2v-0.7h3.2v0.7c0,0.2,0,0.2,0.2,0.2
		h1.2c0.2,0,0.2,0,0.2-0.2c0-0.1,0-0.4,0-2.6v-1.4c0-1,0-1.5,0-1.6v-0.1c0.1,0.1,0.3,0.1,0.4,0.2c0.4,0.1,0.5,0.1,0.6-0.4
		c0.1-0.4,0.3-0.7,0.5-1c-1.3-0.3-2.6-0.9-3.7-1.7c0.7-0.8,1.4-1.7,1.9-2.6c0.2-0.3,0.3-0.4,0.4-0.5c0.1,0,0.2-0.2,0.2-0.3
		c0-0.1-0.1-0.3-0.5-0.7c-0.4-0.3-0.4-0.4-0.6-0.4c-0.1,0-0.1,0-0.2,0c-0.1,0.1-0.3,0.1-0.4,0.1h-2.6c0.1-0.1,0.1-0.3,0.2-0.4
		c0-0.2,0.2-0.3,0.3-0.4c0.1-0.1,0.1-0.2,0.2-0.3c0-0.1,0-0.2-0.2-0.2c-0.5-0.1-1-0.2-1.5-0.3c-0.1,0.3-0.2,0.7-0.3,1
		c-0.6,1.4-1.5,2.6-2.7,3.6c0.3,0.2,0.5,0.4,0.8,0.7c0.2,0.2,0.2,0.3,0.3,0.3c0.1,0,0.2-0.1,0.3-0.2c0.4-0.3,0.7-0.7,1-1.1
		c0.3,0.6,0.8,1.1,1.2,1.6c-0.9,0.7-1.9,1.3-3,1.7c-0.2-0.8-0.5-1.7-0.9-2.5c-0.1-0.2-0.1-0.2-0.2-0.1L1179.9,12258.5z
		 M1184.2,12263.2h3.2v2.3h-3.2V12263.2z M1184.6,12261.8c-0.7,0-1.1,0-1.4,0c0.9-0.5,1.8-1,2.6-1.7c0.9,0.7,1.9,1.3,3,1.7
		c-0.2,0-0.7,0-1.7,0L1184.6,12261.8z M1187.2,12256c-0.4,0.7-0.9,1.4-1.5,2c-0.6-0.6-1-1.2-1.4-1.9l0.1-0.1L1187.2,12256z
		 M1175.5,12266.1c0.3,0.1,0.6,0.3,0.9,0.4c0.1,0.1,0.2,0.2,0.4,0.2c0.1,0,0.1-0.1,0.2-0.4c0.3-0.9,0.4-1.9,0.5-2.9
		c0-0.2,0.1-0.4,0.1-0.6c0.1-0.1,0.1-0.2,0.1-0.2c0-0.1-0.1-0.1-0.3-0.2c-0.3-0.1-0.8-0.2-1.2-0.3c0,0.3,0,0.7,0,1
		C1176.1,12264.2,1175.8,12265.2,1175.5,12266.1z M1180.1,12262.3c-0.2,0.1-0.2,0.1-0.2,0.2c0.3,1.1,0.6,2.1,0.7,3.2
		c0,0.2,0,0.2,0.3,0.1l0.8-0.3c0.2-0.1,0.2-0.1,0.2-0.3c-0.2-1.1-0.4-2.1-0.8-3.1c0-0.2-0.1-0.2-0.3-0.1L1180.1,12262.3z"/>
	<path id="パス_1345" class="st1" d="M1116.4,12134.9h-1.8v-0.4c0-0.4-0.1-0.8-0.3-1.1c-0.2-0.3-0.6-0.5-1-0.5
		c-0.2,0-0.4,0-0.6,0.1c-0.2,0.1-0.3,0.2-0.4,0.4c-0.1,0.2-0.2,0.3-0.2,0.5c0,0.2-0.1,0.4-0.1,0.6c0,0.2,0,0.4,0,0.6
		c0,0.2,0.1,0.3,0.1,0.5c0.1,0.1,0.2,0.3,0.3,0.3c0.2,0.1,0.4,0.2,0.6,0.3l1.4,0.6c0.4,0.1,0.7,0.3,1,0.5c0.2,0.2,0.4,0.4,0.6,0.7
		c0.1,0.3,0.2,0.6,0.3,1c0.1,0.4,0.1,0.8,0.1,1.3c0,0.5-0.1,1-0.2,1.5c-0.1,0.4-0.3,0.8-0.5,1.2c-0.3,0.3-0.6,0.6-1,0.8
		c-0.5,0.2-1,0.3-1.5,0.3c-0.4,0-0.8-0.1-1.2-0.2c-0.4-0.1-0.7-0.4-1-0.6c-0.3-0.3-0.5-0.6-0.7-1c-0.2-0.4-0.2-0.8-0.2-1.2v-0.7h1.8
		v0.6c0,0.3,0.1,0.6,0.3,0.9c0.2,0.3,0.6,0.4,1,0.4c0.3,0,0.5,0,0.7-0.1c0.2-0.1,0.3-0.2,0.4-0.4c0.1-0.2,0.2-0.4,0.2-0.6
		c0-0.2,0-0.5,0-0.8c0-0.3,0-0.6,0-0.8c0-0.2-0.1-0.4-0.1-0.5c-0.1-0.1-0.2-0.2-0.3-0.3c-0.2-0.1-0.4-0.2-0.5-0.3l-1.3-0.5
		c-0.7-0.2-1.2-0.7-1.6-1.3c-0.3-0.6-0.4-1.3-0.4-2c0-0.5,0.1-0.9,0.2-1.4c0.1-0.4,0.3-0.8,0.6-1.1c0.3-0.3,0.6-0.6,1-0.7
		c0.4-0.2,0.9-0.3,1.4-0.3c0.4,0,0.9,0.1,1.3,0.3c0.4,0.2,0.7,0.4,1,0.7c0.5,0.5,0.8,1.2,0.8,2L1116.4,12134.9z M1119.5,12144v-11.1
		h-2.1v-1.7h6.1v1.7h-2.1v11.1H1119.5z M1124.8,12144v-12.8h5.5v1.7h-3.6v3.8h3.2v1.7h-3.2v3.8h3.6v1.8H1124.8z M1132,12144v-12.8
		h2.8c0.5,0,0.9,0.1,1.3,0.2c0.4,0.1,0.8,0.4,1,0.7c0.3,0.3,0.5,0.7,0.6,1.2c0.1,0.6,0.2,1.2,0.2,1.8c0,0.5,0,1-0.1,1.5
		c-0.1,0.4-0.2,0.8-0.4,1.1c-0.2,0.4-0.6,0.8-1,1c-0.5,0.3-1.1,0.4-1.7,0.4h-0.9v5H1132z M1133.8,12132.9v4.4h0.9
		c0.3,0,0.6,0,0.9-0.2c0.2-0.1,0.4-0.3,0.5-0.5c0.1-0.2,0.2-0.4,0.2-0.7c0-0.3,0-0.6,0-0.9c0-0.3,0-0.6,0-0.9c0-0.2-0.1-0.5-0.2-0.7
		c-0.1-0.2-0.2-0.4-0.4-0.5c-0.3-0.1-0.5-0.2-0.8-0.2H1133.8z"/>
</g>
</svg>
