<?xml version="1.0" encoding="utf-8"?>
<!-- Generator: Adobe Illustrator 24.2.0, SVG Export Plug-In . SVG Version: 6.00 Build 0)  -->
<svg version="1.1" id="レイヤー_1" xmlns="http://www.w3.org/2000/svg" xmlns:xlink="http://www.w3.org/1999/xlink" x="0px"
	 y="0px" viewBox="0 0 305 153" style="enable-background:new 0 0 305 153;" xml:space="preserve">
<style type="text/css">
	.st0{fill:#D10000;stroke:#D10000;stroke-width:0.5;}
</style>
<g id="グループ_1193" transform="translate(-34.832 -2194.449)">
	<path id="パス_1333" class="st0" d="M155.8,2205.2c2.2,0,2.9,0.1,3.1,0.1c0.3,0,0.3,0,0.3-0.3v-1.9c0-0.3,0-0.3-0.3-0.3
		c-0.2,0-0.9,0.1-3.1,0.1h-0.7v-3.8c0.8-0.2,1.6-0.5,2.4-0.8c0.4-0.1,0.7-0.2,1.1-0.3c0.3-0.1,0.5-0.2,0.5-0.4
		c0-0.2-0.1-0.4-0.3-0.5c-0.5-0.6-1.1-1.1-1.7-1.6c-0.4,0.3-0.9,0.5-1.4,0.7c-2.5,1-5.1,1.6-7.8,2c0.4,0.4,0.6,0.9,0.8,1.4
		c0.3,0.8,0.3,0.8,1.1,0.6c0.9-0.2,1.8-0.3,2.6-0.5v3.1h-1.3c-2.2,0-2.9-0.1-3.1-0.1c-0.3,0-0.3,0-0.3,0.3v1.9c0,0.3,0,0.3,0.3,0.3
		c0.2,0,0.9-0.1,3.1-0.1h0.8c-1,2.7-2.6,5.2-4.6,7.3c0.4,0.6,0.8,1.3,1,2.1c0.1,0.3,0.2,0.4,0.3,0.4c0.1,0,0.3-0.1,0.4-0.4
		c1.4-2,2.6-4.1,3.5-6.4c0,6-0.2,10.2-0.2,10.7c0,0.2,0,0.3,0.3,0.3h2.2c0.3,0,0.3,0,0.3-0.3c0-0.5-0.1-4.7-0.1-10.9
		c0.5,1.2,1.2,2.3,2.1,3.4c0.2,0.2,0.3,0.4,0.4,0.4c0.1,0,0.2-0.2,0.3-0.4c0.3-0.7,0.6-1.3,1-1.9c-1.4-1.2-2.5-2.6-3.4-4.2
		L155.8,2205.2z M165.4,2208.2c-0.3,0.1-0.3,0.2-0.2,0.5c0.9,1.7,1.6,3.5,2.3,5.3c-2.1,0.4-4.1,0.7-6.1,1c1.5-5.1,2.5-10.2,3.6-15.8
		c0.1-0.5,0.2-1,0.5-1.4c0.1-0.1,0.2-0.3,0.2-0.5c0-0.2-0.2-0.3-0.5-0.4c-0.9-0.2-1.9-0.4-2.8-0.5c0,1.1-0.1,2.2-0.3,3.2
		c-0.8,5.3-1.9,10.5-3.4,15.7c-0.8,0.1-1.6,0.1-2.3,0.1c0.2,0.9,0.4,1.9,0.7,2.8c0.1,0.3,0.2,0.4,0.4,0.4c0.2,0,0.3-0.1,0.4-0.2
		c0.3-0.1,0.6-0.2,0.9-0.3c3.6-0.6,6.6-1.1,9.6-1.8l0.7,2.2c0.1,0.3,0.1,0.3,0.5,0.1l1.8-0.8c0.3-0.2,0.4-0.2,0.3-0.5
		c-1-3.4-2.4-6.6-4.1-9.7c-0.1-0.3-0.2-0.3-0.5-0.1L165.4,2208.2z M186,2200.9c0.2-0.7,0.4-1.5,0.6-2.5c0.1-0.4,0.3-0.7,0.5-1
		c0.1-0.1,0.1-0.3,0.1-0.4c0-0.2-0.1-0.4-0.3-0.4c-1.1-0.4-2.2-0.6-3.3-0.7c0,0.8,0,1.6-0.2,2.4c-0.2,1.1-0.4,2.2-0.6,3.2
		c-1.4,0.2-2.8,0.3-4.2,0.3c-0.6,0-1.3,0-1.9-0.1c0.1,0.9,0.3,1.8,0.4,2.4c0.1,0.3,0.2,0.4,0.5,0.4c1.2,0,3-0.1,4.6-0.3
		c-1.2,4.2-2.7,8.3-4.5,12.3c-0.1,0.2,0,0.4,0.2,0.5c0.5,0.3,1.8,0.9,2.1,1c0.3,0.1,0.4,0.1,0.6-0.3c1.7-4.3,3-8.3,4.8-14.1
		c1.5-0.2,3-0.6,4.5-1c0.3-0.1,0.4-0.2,0.4-0.5c0-0.5-0.1-1.3-0.2-1.9c0-0.2-0.1-0.3-0.4-0.3C188.4,2200.4,187,2200.7,186,2200.9z
		 M186.5,2212.8c-0.1,1.3,0.3,2.6,1.2,3.6c1.2,1.2,2.9,1.7,6.3,1.7c1.2,0,2.4-0.1,3.5-0.3c0.4,0,0.4-0.1,0.4-0.4
		c0-0.8-0.1-1.5-0.2-2.3c0-0.2-0.1-0.3-0.3-0.2c-1.4,0.2-2.9,0.3-4.4,0.4c-2.5,0-3.8-0.5-4-2.4c0-0.3-0.1-0.4-0.4-0.4
		C187.9,2212.5,187.2,2212.6,186.5,2212.8z M188.5,2207.9c1.7-0.4,3.5-0.6,5.2-0.6c1.1,0,2.2,0.1,3.2,0.3c0.4,0.1,0.5,0,0.5-0.5
		c0-0.7,0-1.4,0-2.1c0-0.3-0.1-0.3-0.4-0.4c-1-0.2-2-0.3-3-0.3c-1.7,0-3.4,0.2-5.1,0.6c-0.4,0.1-0.5,0.2-0.5,0.5
		C188.4,2206,188.4,2207,188.5,2207.9z M210.9,2200.9c-2,0.2-3.6,0.2-5.6,0.2c0.1,0.9,0.3,1.9,0.4,2.3c0,0.2,0.3,0.4,0.5,0.4
		c1.3,0,3-0.1,4.4-0.2c-0.4,2.6-0.8,4.5-1.4,6.8c-0.1,0.4-0.2,0.8-0.3,1.2c-0.1,0.2-0.1,0.3-0.1,0.5c0,0.2,0.2,0.3,0.6,0.5
		c0.6,0.3,1.3,0.5,1.9,0.6c0.2,0,0.3-0.1,0.5-0.4c0.2-0.3,0.5-0.6,0.7-1c1.7-2.1,4.2-3.3,6.8-3.2c2,0,3,1.1,3,2.5c0,1.6-1,2.8-3,3.7
		c-2.1,0.9-3.7,1.2-7.5,1.4c0.6,0.5,1.1,1.1,1.4,1.8c0.2,0.5,0.4,0.6,0.6,0.6c0.6,0,1.3-0.1,1.9-0.2c2.3-0.2,4.6-0.9,6.6-2.1
		c1.9-1.1,3-3.1,3-5.3c0-2.7-2.3-4.9-5.8-4.9c-2.7,0-5.4,1-7.5,2.8c0.5-1.8,0.8-3.6,1.2-5.7c2.2-0.3,3.6-0.6,5.8-1.1
		c0.2-0.1,0.3-0.1,0.3-0.4c0-0.6-0.1-1.3-0.2-1.9c-0.1-0.3-0.2-0.4-0.5-0.3c-1.6,0.4-3.2,0.7-4.9,1c0.1-0.9,0.2-1.4,0.4-2.1
		c0.1-0.3,0.2-0.7,0.4-1c0.1-0.1,0.2-0.3,0.2-0.4c0-0.2-0.2-0.4-0.5-0.5c-1-0.3-2.1-0.5-3.1-0.5c0.1,0.8,0.2,1.7,0.1,2.5
		C211.1,2199.1,211,2200,210.9,2200.9z M52.9,2239.3c2.5,0,3.4,0.1,3.5,0.1c0.3,0,0.3,0,0.3-0.3v-2.3c0-0.3,0-0.3-0.3-0.3
		c-0.2,0-1,0.1-3.5,0.1H41.5c-2.5,0-3.4-0.1-3.5-0.1c-0.3,0-0.3,0-0.3,0.3v2.3c0,0.3,0,0.3,0.3,0.3c0.2,0,1-0.1,3.5-0.1H52.9z
		 M55.1,2256.1c2.3,0,3.1,0.1,3.2,0.1c0.3,0,0.3,0,0.3-0.3v-2.3c0-0.3,0-0.3-0.3-0.3c-0.2,0-0.9,0.1-3.2,0.1H39.2
		c-2.3,0-3.1-0.1-3.3-0.1c-0.3,0-0.3,0-0.3,0.3v2.3c0,0.3,0,0.3,0.3,0.3c0.2,0,1-0.1,3.3-0.1H55.1z M51.2,2247.3
		c2.5,0,3.4,0.1,3.5,0.1c0.3,0,0.3,0,0.3-0.3v-2.3c0-0.3,0-0.3-0.3-0.3c-0.2,0-1,0.1-3.5,0.1h-8.1c-2.5,0-3.4-0.1-3.5-0.1
		c-0.3,0-0.3,0-0.3,0.3v2.3c0,0.3,0,0.3,0.3,0.3c0.2,0,1-0.1,3.5-0.1H51.2z M76.8,2240.5c0.1-0.1,0.2-0.2,0.2-0.4
		c0-0.2-0.1-0.3-0.4-0.3c-0.9-0.3-1.8-0.5-2.7-0.6c-0.2,0.7-0.6,1.3-1,1.9c-2.5,3.3-5.9,5.9-9.9,7.5c0.5,0.5,1,1,1.3,1.7
		c0.2,0.4,0.3,0.6,0.5,0.6c0.2,0,0.4-0.1,0.6-0.2c0.8-0.4,1.6-0.9,2.4-1.4c0,0.5,0,1.1,0,2v2.1c0,3.7-0.1,4.4-0.1,4.6
		c0,0.2,0,0.3,0.3,0.3h2.2c0.3,0,0.3,0,0.3-0.3v-1.2h9.2v1.1c0,0.3,0,0.3,0.3,0.3h2.2c0.3,0,0.3,0,0.3-0.3c0-0.2-0.1-0.8-0.1-4.5
		v-4.2c0.8,0.5,1.7,0.9,2.7,1.4c0.2,0.1,0.4,0.2,0.6,0.2c0.2,0,0.3-0.2,0.5-0.6c0.3-0.7,0.7-1.4,1.2-2c-4.3-1.3-8.2-3.8-11-7.3
		L76.8,2240.5z M70.8,2250.2h9.2v4h-9.2V2250.2z M69.9,2247.8c2-1.5,3.8-3.2,5.3-5.2c1.6,2,3.5,3.8,5.7,5.2H69.9z M77.6,2235.8
		c-0.3,0.2-0.4,0.3-0.2,0.5c1.8,2.3,4,4.1,6.5,5.6c0.2,0.1,0.4,0.2,0.6,0.3c0.2,0,0.3-0.2,0.5-0.6c0.4-0.6,0.8-1.2,1.4-1.7
		c-2.6-1.1-5-2.8-6.8-5c-0.1-0.1-0.2-0.2-0.2-0.2c-0.1,0-0.2,0.1-0.3,0.1L77.6,2235.8z M70.6,2234.7c-0.3,0.6-0.7,1.1-1.1,1.6
		c-1.5,1.6-3.2,2.9-5.2,3.9c0.5,0.5,1,1,1.4,1.6c0.3,0.4,0.4,0.6,0.6,0.6c0.2,0,0.4-0.1,0.6-0.3c2-1.2,3.7-2.7,5.2-4.5
		c0.2-0.2,0.4-0.5,0.7-0.6c0.2-0.1,0.4-0.2,0.4-0.4c0-0.1-0.1-0.3-0.3-0.4C72.2,2235.5,71.4,2235.1,70.6,2234.7L70.6,2234.7z
		 M109.2,2241.4v-2.5c-0.1-0.8,0-1.5,0.2-2.3c0.1-0.1,0.1-0.3,0.1-0.5c0-0.2-0.1-0.3-0.5-0.4c-1-0.2-2-0.4-3-0.4
		c0.2,1.2,0.3,2.4,0.2,3.6l0,2.5h-5.6v-1.9c-0.1-0.8,0-1.7,0.2-2.5c0.1-0.2,0.1-0.4,0.2-0.5c0-0.2-0.1-0.3-0.4-0.4
		c-1-0.2-2.1-0.3-3.2-0.4c0.2,1.3,0.3,2.5,0.3,3.8v1.9h-0.8c-2,0-3.7-0.1-4.8-0.1c0,0.8,0.1,1.7,0.2,2.5c0,0.3,0.1,0.5,0.3,0.5
		c0.8-0.1,2.9-0.1,4.3-0.1h0.8v1c0,1.6-0.1,2.9-0.1,4.3c0,0.3,0.1,0.3,0.5,0.4c0.7,0.1,1.5,0.1,2.2,0c0.3,0,0.5-0.1,0.4-0.4
		c-0.1-1.4-0.1-2.8-0.1-4.3v-0.9h5.5c-0.1,3.2-0.5,5-1.5,6.6c-1.3,2.1-3.3,3.5-7,4.6c0.8,0.4,1.6,0.9,2.2,1.6
		c0.2,0.2,0.3,0.3,0.5,0.3c0.3,0,0.5-0.1,0.7-0.2c2.5-0.9,4.7-2.6,6.1-4.8c1.3-2.1,1.8-4.3,2-8h1.1c1.3,0,2.9,0,3.7,0
		c0.4,0,0.4-0.1,0.4-0.4c0.1-0.7,0.1-1.4,0-2.1c0-0.3-0.1-0.4-0.4-0.4c-1.2,0.1-2.7,0.1-3.9,0.1H109.2z M135.3,2248.1
		c1.9,0,3.8,0,5.8,0.1c0.4,0,0.5-0.1,0.5-0.4c0.1-0.8,0.1-1.6,0-2.4c0-0.3-0.1-0.4-0.5-0.4c-2,0-4,0.1-6,0.1h-8.4
		c-1.9,0.1-3.8-0.1-5.6-0.3c0.1,1.1,0.2,2.1,0.4,3.1c0.1,0.4,0.3,0.5,0.6,0.5c1.3-0.2,2.5-0.3,3.8-0.3L135.3,2248.1z M155.3,2240.7
		c-0.1-0.8,0-1.6,0.3-2.3c0.1-0.2,0.2-0.4,0.2-0.5c0-0.2-0.1-0.3-0.4-0.4c-1.1-0.3-2.2-0.4-3.3-0.5c0.2,1.6,0.3,3.2,0.3,4.8v9.6
		c0,2.1,0.5,3.4,1.8,3.9c1.6,0.6,3.3,0.8,4.9,0.7c2.6,0,5.2-0.1,7.7-0.5c0.4,0,0.5-0.1,0.5-0.5c0-0.5-0.1-1.5-0.2-2.3
		c0-0.3-0.1-0.4-0.5-0.4c-2.4,0.4-4.9,0.6-7.3,0.6c-1.1,0-2.2-0.1-3.3-0.3c-0.7-0.2-0.9-0.6-0.9-1.8v-3.5c3-0.9,6-1.9,8.9-3.2
		c0.7-0.3,1.4-0.6,2.2-0.9c0.3-0.1,0.4-0.3,0.4-0.5c0-0.2-0.1-0.3-0.2-0.5c-0.6-0.9-1.4-1.6-2.2-2.3c-0.8,0.8-1.7,1.4-2.8,1.9
		c-2.1,1-4.2,1.8-6.3,2.5L155.3,2240.7z M164.8,2237.7c1,0.9,1.9,1.9,2.6,3c0.1,0.1,0.2,0.2,0.4,0.1c0,0,0.1,0,0.1-0.1l1.1-0.8
		c0.1-0.1,0.2-0.2,0.1-0.3c0,0,0,0,0-0.1c-0.7-1.1-1.5-2-2.5-2.8c-0.2-0.1-0.3-0.2-0.4-0.1L164.8,2237.7z M167.1,2236
		c1,0.8,1.9,1.9,2.6,3c0.1,0.1,0.2,0.2,0.3,0.1c0,0,0.1,0,0.1-0.1l1-0.8c0.1-0.1,0.2-0.3,0.1-0.4c0,0,0,0,0-0.1
		c-0.7-1-1.5-1.9-2.5-2.7c-0.2-0.1-0.2-0.2-0.4-0.1L167.1,2236z M183.6,2238.1c-1.7,0-3,0-4.4-0.1c0,0.9,0.1,1.8,0.2,2.7
		c0.1,0.3,0.1,0.5,0.3,0.4c1.4-0.1,2.8-0.2,4.1-0.2l6.7,0c-1.3,2.4-3,4.6-4.9,6.5c-2.6,2.7-5.7,5-9.2,6.6c0.8,0.4,1.6,1,2.2,1.7
		c0.1,0.1,0.3,0.2,0.4,0.2c0.2,0,0.4-0.1,0.6-0.2c3.2-1.8,6.2-4.2,8.7-6.9c2.5,1.9,4.7,4.1,6.8,6.4c0.1,0.1,0.2,0.2,0.4,0.2
		c0.1,0,0.2-0.1,0.3-0.2c0.6-0.5,1.2-1.1,1.7-1.8c0.1-0.1,0.2-0.2,0.2-0.4c0-0.1-0.1-0.3-0.2-0.4c-2.2-2.3-4.6-4.4-7.2-6.3
		c1.2-1.5,2.3-3.2,3.3-4.9c0.3-0.4,0.6-0.8,1-1.1c0.2-0.1,0.3-0.3,0.3-0.5c0-0.1-0.1-0.2-0.1-0.3c-0.5-0.7-1-1.3-1.7-1.8
		c-0.1-0.1-0.3-0.2-0.4-0.2c-0.1,0-0.2,0-0.3,0.1c-0.6,0.2-1.2,0.3-1.8,0.2L183.6,2238.1z M217.1,2242h2c1.5,0,2.7,0,4.5,0.1
		c0.3,0,0.3-0.2,0.4-0.5c0-0.7,0-1.4,0-2c0-0.3-0.1-0.4-0.3-0.4c-1.5,0.1-3,0.1-4.6,0.1h-7.4c-1.5,0-3,0-4.5-0.1
		c0,0.8,0.1,1.6,0.2,2.4c0.1,0.4,0.1,0.6,0.4,0.5c1.1-0.1,2.2-0.1,4-0.1h2v8.9h-3.5c-1.7,0-3.6,0-5.5-0.1c0,0.8,0.1,1.6,0.2,2.4
		c0.1,0.4,0.1,0.5,0.5,0.5c2,0,3.7-0.1,4.8-0.1h10.4c1.7,0,4,0.1,5.3,0.1c0.3,0,0.4-0.1,0.4-0.5c0-0.7,0-1.4,0-2.1
		c0-0.3-0.1-0.4-0.4-0.4c-1.8,0.1-3.5,0.1-5.3,0.1H217L217.1,2242z M234.2,2239.9c1.9,1.2,3.7,2.6,5.3,4.2c0.1,0.1,0.2,0.2,0.3,0.2
		c0.1,0,0.2-0.1,0.3-0.2c0.4-0.4,1.2-1.4,1.6-1.9c0.1-0.1,0.1-0.2,0.2-0.3c0-0.1-0.1-0.2-0.2-0.4c-1.5-1.4-3.2-2.7-5-3.7
		c-0.1-0.1-0.2-0.1-0.3-0.1c-0.1,0-0.3,0.1-0.4,0.2C235.6,2238.4,234.8,2239.2,234.2,2239.9z M234.8,2252.9c0.6,1,1.3,2,2.1,2.9
		c0.1,0.2,0.3,0.3,0.4,0.3c0.2,0,0.4-0.1,0.5-0.3c0.5-0.5,1.1-0.9,1.7-1.2c2.8-1.5,5.4-3.2,7.9-5.1c2.2-1.6,4.2-3.5,6-5.5
		c0.3-0.3,0.4-0.5,0.4-0.8c0-0.2-0.1-0.3-0.1-0.5c-0.4-1-0.6-2-0.7-3c-2.1,2.7-4.5,5-7.1,7.1c-2.3,1.9-4.8,3.5-7.5,4.8
		C237.2,2252.2,236,2252.6,234.8,2252.9L234.8,2252.9z M261.4,2245.1c1.9,0.7,3.6,1.7,5.3,2.8c0.1,0.1,0.2,0.1,0.3,0.2
		c0.1,0,0.2-0.1,0.3-0.3c0.5-0.6,0.8-1.3,1.1-2c0.1-0.1,0.1-0.2,0.1-0.3c0-0.2-0.1-0.3-0.3-0.4c-1.5-1.1-3.2-2-5-2.5
		c-0.2-0.1-0.4,0.1-0.5,0.3C262.5,2243.3,262.1,2244,261.4,2245.1L261.4,2245.1z M264.6,2239c1.8,0.9,3.5,1.9,5,3.2
		c0.1,0.1,0.2,0.2,0.4,0.2c0.1,0,0.2-0.1,0.3-0.2c0.5-0.6,1-1.3,1.3-1.9c0.1-0.1,0.1-0.2,0.1-0.3c0-0.1-0.1-0.3-0.2-0.3
		c-1.5-1.2-3.1-2.2-4.9-2.9c-0.3-0.2-0.5-0.1-0.6,0.2C265.5,2237.6,265,2238.3,264.6,2239L264.6,2239z M263.5,2253.8
		c0.6,0.9,1.2,1.8,1.9,2.7c0.1,0.2,0.3,0.3,0.5,0.3c0.2,0,0.3-0.1,0.4-0.2c0.5-0.3,1-0.6,1.5-0.9c2.7-1.4,5.3-3.1,7.8-4.9
		c2.4-1.8,4.6-3.8,6.6-6c0.2-0.1,0.3-0.4,0.3-0.6c0-0.2-0.1-0.3-0.1-0.5c-0.4-0.9-0.6-1.9-0.8-2.9c-2.2,2.7-4.7,5.1-7.5,7.3
		c-2.2,1.7-4.6,3.2-7.1,4.5C265.9,2253.1,264.7,2253.5,263.5,2253.8z M276.5,2237c1,0.9,1.9,1.9,2.6,3c0.1,0.1,0.2,0.2,0.4,0.1
		c0,0,0.1,0,0.1-0.1l1.1-0.8c0.1-0.1,0.2-0.2,0.1-0.3c0,0,0,0,0-0.1c-0.7-1.1-1.5-2-2.5-2.8c-0.2-0.1-0.3-0.2-0.4-0.1L276.5,2237z
		 M278.8,2235.3c1,0.8,1.9,1.9,2.6,3c0.1,0.1,0.2,0.2,0.3,0.1c0,0,0.1,0,0.1-0.1l1-0.8c0.1-0.1,0.2-0.3,0.1-0.4c0,0,0,0,0-0.1
		c-0.7-1-1.5-1.9-2.5-2.7c-0.2-0.1-0.2-0.2-0.4-0.1L278.8,2235.3z M290.4,2239.9c1.9,1.2,3.7,2.6,5.3,4.2c0.1,0.1,0.2,0.2,0.3,0.2
		s0.2-0.1,0.3-0.2c0.4-0.4,1.2-1.4,1.6-1.9c0.1-0.1,0.1-0.2,0.2-0.3c0-0.1-0.1-0.2-0.2-0.4c-1.5-1.4-3.2-2.7-5-3.7
		c-0.1-0.1-0.2-0.1-0.3-0.1c-0.1,0-0.3,0.1-0.4,0.2C291.7,2238.4,291,2239.2,290.4,2239.9z M291,2252.9c0.6,1,1.3,2,2.1,2.9
		c0.1,0.2,0.3,0.3,0.4,0.3c0.2,0,0.4-0.1,0.5-0.3c0.5-0.5,1.1-0.9,1.7-1.2c2.8-1.5,5.4-3.2,7.9-5.1c2.2-1.6,4.2-3.5,6-5.5
		c0.3-0.3,0.4-0.5,0.4-0.8c0-0.2-0.1-0.3-0.1-0.5c-0.4-1-0.6-2-0.7-3c-2.1,2.7-4.5,5-7.1,7.1c-2.3,1.9-4.8,3.5-7.5,4.8
		C293.4,2252.2,292.2,2252.6,291,2252.9L291,2252.9z M331.7,2249.6c-0.7-0.1-1.4-0.2-2.1-0.2c-2.6,0-4.6,1.5-4.6,3.7
		c0,2.2,1.7,3.6,4.7,3.6c3.1,0,4.5-1.2,4.8-3.4c1,0.6,2,1.3,2.8,2.1c0.1,0.1,0.1,0.1,0.2,0.1c0.1,0,0.2-0.1,0.2-0.2
		c0.5-0.6,0.9-1.3,1.2-2c0.1-0.3,0.1-0.4-0.1-0.5c-1.3-1-2.8-1.9-4.3-2.5c-0.1-2.2-0.2-4.1-0.2-7c1.3-0.1,2.7-0.3,4-0.5
		c0.2,0,0.3-0.2,0.3-0.4c0-0.6,0-1.2-0.2-1.8c-0.1-0.3-0.1-0.4-0.4-0.3c-1.1,0.2-2.5,0.4-3.7,0.5c0-1.2,0-1.9,0.1-2.8
		c0-0.3,0.1-0.6,0.2-0.9c0.1-0.1,0.1-0.3,0.2-0.4c0-0.2-0.2-0.4-0.5-0.4c-1-0.3-2.1-0.4-3.1-0.5c0.2,0.8,0.3,1.7,0.3,2.5
		c0,1,0,1.8,0,2.7c-2,0.1-4,0.1-5.9-0.1c0,0.8,0.1,1.6,0.2,2.4c0,0.3,0.1,0.3,0.5,0.3c1.8,0.1,3.6,0.1,5.4,0
		C331.6,2245.8,331.6,2247.6,331.7,2249.6L331.7,2249.6z M331.7,2252.1c0,0.2,0,0.3,0,0.5c0,0.9-0.8,1.7-2.1,1.7
		c-1.5,0-2.1-0.5-2.1-1.3c0-0.8,0.7-1.2,2-1.2C330.2,2251.8,331,2251.9,331.7,2252.1L331.7,2252.1z M319.7,2235.8
		c0.1,1,0,2.1-0.2,3.1c-0.6,3.2-1,6.5-1.1,9.9c-0.1,2.7,0.3,5.4,1.1,7.9c0.1,0.4,0.2,0.4,0.5,0.3c0.7-0.1,1.3-0.2,1.9-0.4
		c0.2-0.1,0.3-0.2,0.3-0.3c-0.1-0.5,0-0.9,0-1.4c0.3-1.4,0.7-2.7,1.3-4c0.1-0.1,0.1-0.3,0.2-0.4c0-0.1-0.1-0.3-0.2-0.4
		c-0.4-0.5-0.7-1.1-0.9-1.6c-0.5,1.3-1.1,2.4-1.6,3.6c-0.1-1.1-0.1-2.3-0.1-3.3c0.1-3.2,0.6-6.4,1.3-9.5c0.1-0.5,0.2-1,0.5-1.4
		c0.1-0.2,0.2-0.4,0.2-0.6c0-0.2-0.1-0.4-0.4-0.5C321.7,2236.4,320.7,2236.1,319.7,2235.8L319.7,2235.8z M99.4,2277.8
		c-1.2,4.5-4.1,8.3-8.1,10.6c0.5,0.5,1,1,1.4,1.6c0.2,0.4,0.4,0.6,0.5,0.6c0.1,0,0.3-0.1,0.6-0.3c1.2-0.9,2.4-1.9,3.5-3.1v3.8
		c0,4.4-0.1,5.3-0.1,5.4c0,0.3,0,0.3,0.3,0.3h2.3c0.3,0,0.3,0,0.3-0.3v-1.5h9.5v1.3c0,0.3,0,0.3,0.3,0.3h2.3c0.3,0,0.3,0,0.3-0.3
		c0-0.2-0.1-1-0.1-5.4v-3.3c0-2.5,0.1-3.4,0.1-3.5c0-0.3,0-0.3-0.3-0.3c-0.2,0-1,0.1-3.5,0.1h-9c1.1-1.9,2-3.9,2.7-6h8.5
		c2.4,0,3.2,0.1,3.4,0.1c0.3,0,0.3,0,0.3-0.3v-2.1c0-0.3,0-0.3-0.3-0.3c-0.2,0-1,0.1-3.4,0.1h-15c-2.4,0-3.2-0.1-3.4-0.1
		c-0.3,0-0.3,0-0.3,0.3v2.1c0,0.3,0,0.3,0.3,0.3c0.2,0,1-0.1,3.4-0.1L99.4,2277.8z M100,2286.4h9.5v6H100V2286.4z M125.3,2278.1
		c-0.1-0.9,0-1.9,0.1-2.8c0.1-0.2,0.2-0.4,0.2-0.6c0-0.2-0.2-0.3-0.5-0.3c-0.9-0.1-1.8-0.2-2.9-0.2c0.2,1.3,0.3,2.6,0.3,4v2.6
		c0.1,2.5-0.1,5.1-0.5,7.6c-0.4,2.3-1.3,4.5-2.8,6.4c0.7,0.4,1.2,0.9,1.7,1.6c0.3,0.3,0.4,0.4,0.5,0.4s0.3-0.2,0.5-0.5
		c1.4-2.2,2.4-4.6,2.8-7.1c0.4-2.9,0.6-5.8,0.6-8.7L125.3,2278.1z M138.5,2291.7c0,3.2-0.1,4.6-0.1,4.8c0,0.3,0,0.3,0.3,0.3h2.3
		c0.3,0,0.3,0,0.3-0.3c0-0.2-0.1-1.5-0.1-4.8v-13.8c-0.1-0.9,0-1.9,0.2-2.8c0.1-0.2,0.2-0.4,0.2-0.6c0-0.2-0.2-0.3-0.5-0.3
		c-1-0.1-1.9-0.2-2.9-0.2c0.2,1.3,0.2,2.6,0.2,4V2291.7z M130.4,2289.5c0,2.8-0.1,4.2-0.1,4.3c0,0.3,0,0.3,0.3,0.3h2.3
		c0.3,0,0.3,0,0.3-0.3c0-0.2-0.1-1.6-0.1-4.3v-10.5c-0.1-0.9,0-1.8,0.2-2.7c0.1-0.2,0.2-0.4,0.2-0.6c0-0.2-0.2-0.3-0.5-0.3
		c-0.9-0.1-1.9-0.2-2.9-0.2c0.2,1.3,0.3,2.6,0.2,3.9V2289.5z M158.3,2274.2c-2.4,0-3.2-0.1-3.4-0.1c-0.3,0-0.3,0-0.3,0.3
		c0,0.2,0.1,1,0.1,2.8v5.7c0,1.8-0.1,2.6-0.1,2.8c0,0.3,0.3,0.3,0.5,0.3c0.2,0,1-0.1,3.4-0.1h5.8c2.4,0,2.9,0.1,3.1,0.1
		c0.3,0,0.6,0,0.6-0.3c0-0.2-0.1-1-0.1-2.8v-5.7c0-1.8,0.1-2.7,0.1-2.8c0-0.3,0-0.3-0.3-0.3c-0.2,0-1,0.1-3.4,0.1H158.3z
		 M165.4,2284.2h-8v-1.5h8V2284.2z M157.3,2280.8v-1.4h8v1.4H157.3z M157.3,2276.2h8v1.4h-8V2276.2z M149.4,2286.4
		c0,2.2-0.1,3.1-0.1,3.3c0,0.3,0,0.3,0.3,0.3c0.2,0,1-0.1,3.5-0.1h5.1v4c0,1.9-0.1,2.6-0.1,2.8c0,0.3,0,0.3,0.3,0.3h2.4
		c0.3,0,0.3,0,0.3-0.3c0-0.2-0.1-0.9-0.1-2.8v-4h6.2c2.4,0,3.2,0.1,3.4,0.1c0.3,0,0.3,0,0.3-0.3v-1.8c0-0.3,0-0.3-0.3-0.3
		c-0.2,0-1,0.1-3.4,0.1h-15.1v-8.8c-0.1-0.6,0-1.2,0.2-1.8c0.1-0.2,0.1-0.4,0.2-0.5c0-0.2-0.2-0.3-0.4-0.3c-0.9-0.1-1.9-0.2-2.8-0.2
		c0.1,1,0.2,1.9,0.2,2.9V2286.4z M163.3,2291.6c-0.3,0.2-0.3,0.3-0.2,0.4c1.5,1.7,3.3,3.1,5.2,4.2c0.2,0.1,0.4,0.2,0.6,0.3
		c0.2,0,0.3-0.2,0.6-0.6c0.4-0.6,0.9-1.1,1.4-1.6c-2.1-0.8-4-2.1-5.6-3.6c-0.1-0.1-0.2-0.1-0.3-0.1c-0.1,0-0.2,0.1-0.3,0.1
		L163.3,2291.6z M153.8,2290.5c-0.3,0.5-0.6,0.9-1,1.2c-1.3,1.2-2.9,2.2-4.6,2.8c0.6,0.4,1,0.8,1.5,1.3c0.3,0.4,0.4,0.6,0.6,0.6
		c0.2,0,0.4-0.1,0.6-0.3c1.5-0.8,2.9-1.8,4.1-3c0.2-0.3,0.5-0.5,0.8-0.7c0.2-0.1,0.4-0.2,0.4-0.4c0-0.1-0.1-0.2-0.4-0.4
		C155.2,2291.2,154.5,2290.9,153.8,2290.5z M190.4,2287.2c2.2-0.9,3.9-1.5,5.6-2.1c0.5-0.2,1-0.3,1.6-0.4c0.3-0.1,0.4-0.2,0.4-0.4
		c0-0.2-0.1-0.4-0.2-0.6c-0.5-0.8-1.1-1.6-1.8-2.3c-0.6,0.6-1.2,1-2,1.4c-1.3,0.7-2.8,1.4-3.8,1.8c0-1.6-1.3-2.8-2.9-2.8
		c-0.1,0-0.2,0-0.3,0c-0.9,0-1.8,0.3-2.6,0.8l0-0.1c0.7-0.9,1.4-1.9,1.9-2.9c1.9-0.2,4.1-0.5,6.1-0.8c0.4-0.1,0.5-0.2,0.4-0.4
		c0-0.6-0.1-1.3-0.3-1.9c-0.1-0.2-0.1-0.3-0.4-0.3c-1.6,0.4-3.1,0.6-4.7,0.8c0.3-0.7,0.4-1,0.6-1.4c0.1-0.2,0.3-0.4,0.4-0.6
		c0.1-0.1,0.2-0.2,0.2-0.4c0-0.2-0.1-0.4-0.3-0.4c-1-0.3-2-0.6-3-0.7c0,0.5-0.1,1.1-0.2,1.6c-0.2,0.8-0.5,1.5-0.8,2.2
		c-2,0.1-4,0.1-6,0c0.1,0.8,0.2,1.7,0.3,2.2c0.1,0.3,0.1,0.4,0.4,0.4c1.5,0,2.9,0,4.2-0.1c-1.5,2.4-3.3,4.6-5.4,6.4
		c-0.1,0.1-0.2,0.2-0.2,0.3c0,0.1,0,0.2,0.1,0.2c0.4,0.6,0.9,1.2,1.5,1.7c0.1,0.1,0.2,0.2,0.3,0.2c0.1,0,0.2-0.1,0.3-0.2
		c0.8-1,1.7-1.9,2.6-2.8c1-1,2.2-1.7,3.6-1.9c1.2-0.1,1.5,0.5,1.6,1.8c-3.9,2-5.5,3.8-5.5,6.3c0,3,2.3,4.3,6.5,4.3
		c2.2,0,4.3-0.1,6.4-0.3c0.2,0,0.3-0.2,0.3-0.5c0-0.7-0.1-1.4-0.2-2.1c0-0.2-0.1-0.3-0.4-0.3c-2.1,0.3-4.3,0.5-6.5,0.5
		c-2.7,0-3.6-0.7-3.6-1.8c0-1.2,0.8-2.3,3.1-3.5c0,0.9,0,2.2,0,3.2c0,0.3,0.1,0.4,0.3,0.4c0.6,0,1.2,0,1.8-0.1
		c0.3-0.1,0.5-0.2,0.5-0.5V2287.2z M211.8,2291.8h1c2.2,0,3,0.1,3.2,0.1c0.3,0,0.3,0,0.3-0.3v-1.6c0-0.3,0-0.3-0.3-0.3
		c-0.2,0-0.9,0.1-3.2,0.1h-1v-1.1h1.1c2.2,0,2.9,0.1,3.1,0.1c0.3,0,0.3,0,0.3-0.3c0-0.2-0.1-0.8-0.1-2.2v-2.8c0-1.4,0.1-2,0.1-2.1
		c0-0.3,0-0.3-0.3-0.3c-0.2,0-0.9,0.1-3.1,0.1h-1.1v-1.1h1.5c2.3,0,3.2,0.1,3.3,0.1c0.2,0,0.2,0,0.2-0.3v-1.5c0-0.3,0-0.3-0.3-0.3
		c-0.2,0-1,0.1-3.3,0.1h-1.5v-1.5c1.1-0.1,2.1-0.3,3.1-0.5c0.4-0.1,0.8-0.2,1.2-0.2c0.3,0,0.5-0.1,0.5-0.3c0-0.2-0.1-0.3-0.2-0.5
		c-0.4-0.5-0.9-1-1.5-1.4c-0.5,0.2-0.9,0.3-1.4,0.4c-3,0.6-6.1,0.9-9.2,1c0.3,0.4,0.6,0.9,0.8,1.4c0.2,0.6,0.2,0.6,1,0.6
		c1.1-0.1,2.2-0.2,3.4-0.3v1.2h-1.9c-2.3,0-3.1-0.1-3.3-0.1c-0.3,0-0.3,0-0.3,0.3v1.5c0,0.3,0,0.3,0.3,0.3c0.2,0,1-0.1,3.3-0.1h1.9
		v1.1h-1c-2.2,0-3-0.1-3.1-0.1c-0.3,0-0.3,0-0.3,0.3c0,0.1,0.1,0.7,0.1,2.1v2.8c0,1.4-0.1,2-0.1,2.2c0,0.3,0,0.3,0.3,0.3
		c0.2,0,0.9-0.1,3.1-0.1h1v1.1h-1.5c-2.3,0-3-0.1-3.2-0.1c-0.3,0-0.3,0-0.3,0.3v1.6c0,0.2,0,0.3,0.3,0.3c0.2,0,0.9-0.1,3.2-0.1h1.5
		v1.5c-1,0.1-2,0.2-2.9,0.2c-0.9,0.1-1.8,0.1-2.7,0c0.1,0.8,0.3,1.6,0.4,2.3c0.1,0.3,0.2,0.4,0.4,0.4c0.2,0,0.3-0.1,0.4-0.2
		c0.3-0.1,0.6-0.2,1-0.2c2.9-0.3,6.3-0.8,9.1-1.4c0.2,0,0.3,0,0.5-0.1c-0.3,0.3-0.5,0.5-0.8,0.8c0.6,0.3,1.2,0.7,1.7,1.2
		c0.2,0.2,0.4,0.4,0.5,0.4s0.3-0.1,0.5-0.4c1.9-2.1,3.2-4.7,3.8-7.4c0.5-2.5,0.8-5,1-7.5h2.2c0.1,3.7-0.2,7.4-0.7,11
		c-0.2,1.2-0.6,1.6-1.4,1.6c-0.7,0-1.4-0.1-2.2-0.2c0.3,0.6,0.4,1.1,0.5,1.7c0.1,0.9,0.1,0.9,0.7,0.9c0.4,0,0.9,0.1,1.4,0.1
		c2,0,3-0.9,3.3-2.9c0.5-3.9,0.8-7.9,0.8-11.9c0-0.8,0-1.6,0.1-2.5c0-0.3-0.1-0.3-0.3-0.3c-0.2,0-0.8,0.1-2.8,0.1h-1.5
		c0-0.6,0-1.3,0-2c-0.1-0.9,0-1.8,0.2-2.7c0.1-0.2,0.1-0.4,0.2-0.6c0-0.2-0.1-0.3-0.4-0.3c-0.9-0.1-1.7-0.2-2.6-0.2
		c0.1,1.2,0.2,2.4,0.2,3.7c0,0.7,0,1.4,0,2.1c-1.6,0-2.2-0.1-2.3-0.1c-0.3,0-0.3,0-0.3,0.3v1.9c0,0.3,0,0.3,0.3,0.3
		c0.1,0,0.7,0,2.2-0.1c-0.1,2.2-0.4,4.5-0.9,6.6c-0.5,2.1-1.6,4.1-3,5.8l0.1-0.5c0.1-0.4,0.1-0.8,0.2-1.2c-1.5,0.3-3,0.5-4.4,0.6
		L211.8,2291.8z M214.1,2287h-2.3v-1.4h2.3L214.1,2287z M214.1,2282.7v1.4h-2.3v-1.4H214.1z M207.3,2287v-1.4h2.2v1.4H207.3z
		 M207.3,2284.1v-1.4h2.2v1.4H207.3z M239.4,2280.6c-1,0.2-2,0.3-3.1,0.4c-1.1,0.1-2.3,0.2-3.4,0.2c0.2,0.9,0.5,1.8,0.8,2.7
		c0.1,0.3,0.4,0.5,0.7,0.4c0,0,0.1,0,0.1-0.1c0.5-0.2,0.9-0.3,1.4-0.4c0.7-0.1,1.5-0.3,2.5-0.4c-1.2,3.6-2.8,7-4.8,10.2
		c-0.1,0.1-0.1,0.2-0.1,0.3c0,0.2,0.1,0.3,0.2,0.4c0.6,0.4,1.2,0.8,1.8,1.1c0.2,0.1,0.5,0.1,0.6-0.1c0,0,0.1-0.1,0.1-0.2
		c2.1-3.9,3.9-8,5.2-12.2c0.7-0.1,1.5-0.2,2.2-0.2c1.1,0,1.5,0.6,1.5,2.4c0,2.2-0.3,4.4-1,6.4c-0.4,1.1-0.8,1.4-1.7,1.4
		c-1,0-2-0.2-2.9-0.6c0.3,0.8,0.5,1.6,0.5,2.4c0,0.3,0.2,0.6,0.5,0.7c0.8,0.2,1.7,0.3,2.6,0.3c1.6,0,3-1,3.5-2.4
		c1-2.7,1.5-5.5,1.4-8.3c0-3.1-1.3-4.8-3.8-4.8c-0.7,0-1.4,0-2,0.1c0.3-1.1,0.6-2.1,0.9-3.1c0.1-0.4,0.3-0.7,0.5-1
		c0.1-0.1,0.2-0.2,0.2-0.4c0-0.2-0.2-0.5-0.4-0.5c-1-0.4-2.1-0.7-3.1-0.9c0,1-0.1,1.9-0.3,2.9C240,2278.2,239.8,2279.1,239.4,2280.6
		L239.4,2280.6z M248.7,2280.4c1.9,1.9,3.4,4.2,4.3,6.7c0.1,0.3,0.3,0.3,0.6,0.2c0.7-0.4,1.3-0.8,1.9-1.3c0.2-0.1,0.2-0.3,0.1-0.5
		c0,0,0,0,0,0c-1-2.4-2.4-4.6-4.3-6.3c-0.2-0.2-0.3-0.2-0.5-0.1C250.1,2279.5,249.4,2279.9,248.7,2280.4L248.7,2280.4z
		 M271.8,2278.1c-3.1,0.2-6.5,0.4-8.1,0.5c-1.1,0.1-2.1,0.2-3.2,0.1c0.2,0.9,0.4,1.8,0.6,2.6c0.1,0.3,0.2,0.4,0.4,0.4
		c0.2,0,0.6-0.2,1.2-0.3c2.1-0.3,5.7-0.6,9-0.8c0,0.9,0,1.7,0,2.7c-0.6-0.4-1.3-0.6-2-0.5c-2.1-0.1-3.8,1.6-3.9,3.6
		c0,0.1,0,0.2,0,0.3c0,2.5,1.6,4,3.6,4c0.9,0.1,1.8-0.3,2.4-1c-0.5,2.2-2.3,4.4-5.3,5.7c0.7,0.2,1.4,0.6,2,1
		c0.2,0.2,0.5,0.3,0.8,0.4c0.4-0.1,0.7-0.3,1-0.5c2.9-1.8,4.7-5,4.6-8.4c0-0.9-0.1-1.7-0.4-2.6c0-1.6,0-3.2,0-4.8
		c2.7,0,5.2,0,7.9,0.1c0.3,0,0.4-0.1,0.4-0.3c0-0.7,0-1.3,0-2c0-0.3-0.1-0.4-0.4-0.4c-2.5,0-5.2,0-8,0.1c0-1,0-1.3,0.1-1.7
		c0-0.3,0.1-0.5,0.2-0.8c0.1-0.2,0.2-0.4,0.2-0.6c0-0.2-0.3-0.4-0.7-0.5c-1-0.2-2-0.3-3-0.4c0.2,0.6,0.3,1.3,0.3,1.9
		C271.7,2276.6,271.7,2277.3,271.8,2278.1z M270.1,2284.8c0.9-0.1,1.6,0.5,1.7,1.4c0,0.1,0,0.2,0,0.3c0.1,0.9-0.6,1.7-1.5,1.8
		c-0.1,0-0.2,0-0.2,0c-0.9,0-1.6-0.7-1.7-1.6c0-0.1,0-0.1,0-0.2C268.4,2285.6,269.1,2284.8,270.1,2284.8
		C270,2284.8,270.1,2284.8,270.1,2284.8z"/>
	<path id="パス_1336" class="st0" d="M253.6,2328.3c-3.1,2.1-5,4.6-5,8.2c0,5.4,5,8,9.6,8c0.3,0,0.4-0.2,0.5-0.5
		c0.2-0.7,0.3-1.5,0.3-2.2c0-0.3-0.2-0.4-0.6-0.4c-4.5-0.3-6.9-2.1-6.9-5.5c0-3.1,2.2-6.2,6.6-7.7c1-0.3,2.1-0.5,3.2-0.6
		c0.3,0,0.5-0.1,0.5-0.4c0-0.8-0.1-1.5-0.3-2.3c0-0.2-0.2-0.3-0.5-0.3c-6.7,0.9-12.4,1.7-15.6,2.2c-1.4,0.2-2.7,0.4-4.1,0.4
		c0.2,1,0.6,1.9,1,2.8c0.1,0.2,0.3,0.4,0.5,0.4c0.2,0,0.4-0.1,0.6-0.2c0.4-0.1,0.7-0.2,1.6-0.4
		C247.6,2329.4,250.4,2328.8,253.6,2328.3L253.6,2328.3z M257.4,2332c1,0.9,1.9,1.9,2.6,3c0.1,0.1,0.2,0.2,0.4,0.1
		c0,0,0.1,0,0.1-0.1l1.1-0.8c0.1-0.1,0.2-0.2,0.1-0.3c0,0,0,0,0-0.1c-0.7-1.1-1.5-2-2.5-2.8c-0.2-0.1-0.3-0.2-0.4-0.1L257.4,2332z
		 M259.7,2330.3c1,0.8,1.9,1.9,2.6,3c0.1,0.1,0.2,0.2,0.3,0.1c0,0,0.1,0,0.1-0.1l1-0.8c0.1-0.1,0.2-0.3,0.1-0.4c0,0,0,0,0-0.1
		c-0.7-1-1.5-1.9-2.5-2.7c-0.2-0.1-0.2-0.2-0.4-0.1L259.7,2330.3z M280,2326.8c-3.1,0.2-6.5,0.4-8.1,0.5c-1.1,0.1-2.1,0.2-3.2,0.1
		c0.2,0.9,0.4,1.8,0.6,2.6c0.1,0.3,0.2,0.4,0.4,0.4c0.2,0,0.6-0.2,1.2-0.3c2.1-0.3,5.7-0.6,9-0.8c0,0.9,0,1.7,0,2.7
		c-0.6-0.4-1.3-0.6-2-0.5c-2.1-0.1-3.8,1.6-3.9,3.6c0,0.1,0,0.2,0,0.3c0,2.5,1.6,4,3.6,4c0.9,0.1,1.8-0.3,2.4-1
		c-0.5,2.2-2.3,4.4-5.3,5.7c0.7,0.2,1.4,0.6,2,1c0.2,0.2,0.5,0.3,0.8,0.4c0.4-0.1,0.7-0.3,1-0.5c2.9-1.8,4.7-5,4.6-8.4
		c0-0.9-0.1-1.7-0.4-2.6c0-1.6,0-3.2,0-4.8c2.7,0,5.2,0,7.9,0.1c0.3,0,0.4-0.1,0.4-0.3c0-0.6,0-1.3,0-2c0-0.3-0.1-0.4-0.4-0.4
		c-2.5,0-5.2,0-8,0.1c0-1,0-1.3,0.1-1.7c0-0.3,0.1-0.5,0.2-0.8c0.1-0.2,0.2-0.4,0.2-0.6c0-0.2-0.3-0.4-0.7-0.5c-1-0.2-2-0.3-3-0.4
		c0.2,0.6,0.3,1.3,0.3,1.9C280,2325.3,280,2326,280,2326.8z M278.3,2333.5c0.9-0.1,1.6,0.5,1.7,1.4c0,0.1,0,0.2,0,0.3
		c0.1,0.9-0.6,1.7-1.5,1.8c-0.1,0-0.2,0-0.2,0c-0.9,0-1.6-0.7-1.7-1.5c0-0.1,0-0.1,0-0.2c0-0.9,0.7-1.7,1.6-1.7
		C278.3,2333.5,278.3,2333.5,278.3,2333.5z M296.8,2338.9c-2.1,0-3.8,1.7-3.8,3.7c0,0,0,0,0,0c0,2.1,1.7,3.7,3.8,3.7c0,0,0,0,0,0
		c2.1,0,3.8-1.7,3.8-3.7c0,0,0,0,0,0C300.6,2340.6,298.9,2338.9,296.8,2338.9C296.9,2338.9,296.8,2338.9,296.8,2338.9z
		 M296.8,2340.5c1.2,0,2.1,0.9,2.2,2.1c0,0,0,0,0,0.1c0,1.2-0.9,2.1-2.1,2.2c0,0,0,0-0.1,0c-1.2,0-2.1-0.9-2.2-2.1c0,0,0,0,0-0.1
		C294.7,2341.5,295.6,2340.5,296.8,2340.5C296.8,2340.5,296.8,2340.5,296.8,2340.5z"/>
	<path id="パス_1335" class="st0" d="M230.4,2315.7h-3.2v3.1h1.6l-1.5,3.6h1.4l1.7-3.6V2315.7z M234.9,2315.7h-3.2v3.1h1.6
		l-1.5,3.6h1.4l1.7-3.6V2315.7z"/>
	<path id="パス_1334" class="st0" d="M75.6,2316.3h-3.2v3.1H74l-1.5,3.6h1.4l1.7-3.6V2316.3z M80.2,2316.3h-3.2v3.1h1.6L77,2323
		h1.4l1.7-3.6V2316.3z"/>
	<path id="パス_1337" class="st0" d="M107.3,2345.3v-5H94.1v-6.9h11.2v-5H94.1v-6.7h13.2v-5H88.6v28.5H107.3z M133.4,2345.3v-28.5
		h-5.6v17.4l-11.3-17.4h-5v28.5h5.6v-17.5l11.3,17.5H133.4z M159.1,2333.6v-4.2h-10.8v4.6h5.2v1.1c0.1,1.4-0.4,2.7-1.3,3.8
		c-1,1.1-2.5,1.7-4,1.6c-1.3,0.1-2.6-0.5-3.6-1.5c-1.1-1.2-1.4-2.6-1.4-8s0.3-6.8,1.4-8c0.9-1,2.2-1.6,3.6-1.5
		c2.8,0,4.5,1.5,5.1,4.2h5.6c-0.8-4.8-4.1-9.1-10.7-9.1c-2.9-0.1-5.7,1.1-7.7,3.1c-2.9,2.9-2.8,6.4-2.8,11.4c0,4.9-0.1,8.5,2.8,11.4
		c2,2.1,4.8,3.2,7.7,3.1c3,0.1,5.9-1.1,8-3.2C158.4,2340.2,159.1,2337.8,159.1,2333.6z M169.1,2345.3v-28.5h-5.6v28.5H169.1z
		 M196.3,2345.3v-28.5h-5.6v17.4l-11.3-17.4h-5v28.5h5.6v-17.5l11.3,17.5H196.3z M220.5,2345.3v-5h-13.2v-6.9h11.2v-5h-11.2v-6.7
		h13.2v-5h-18.8v28.5H220.5z"/>
</g>
</svg>
