<?xml version="1.0" encoding="utf-8"?>
<!-- Generator: Adobe Illustrator 24.2.0, SVG Export Plug-In . SVG Version: 6.00 Build 0)  -->
<svg version="1.1" id="レイヤー_1" xmlns="http://www.w3.org/2000/svg" xmlns:xlink="http://www.w3.org/1999/xlink" x="0px"
	 y="0px" viewBox="0 0 520 100" style="enable-background:new 0 0 520 100;" xml:space="preserve">
<style type="text/css">
	.st0{fill:#D10000;stroke:#D10000;}
	.st1{fill:#D10000;}
	.st2{fill:#FFFFFF;}
</style>
<g id="グループ_1188" transform="translate(-413.359 -1795.508)">
	<path id="パス_1332" class="st0" d="M471.3,1808.2c2.5,0,3.2,0.1,3.4,0.1c0.3,0,0.3,0,0.3-0.3v-2.1c0-0.3,0-0.3-0.3-0.3
		c-0.2,0-1,0.1-3.4,0.1h-0.8v-4.2c0.9-0.3,1.8-0.6,2.6-0.9c0.4-0.1,0.8-0.3,1.2-0.3c0.3-0.1,0.6-0.2,0.6-0.4c0-0.2-0.1-0.4-0.3-0.6
		c-0.6-0.6-1.3-1.3-1.9-1.8c-0.5,0.3-1,0.6-1.5,0.8c-2.8,1.1-5.7,1.8-8.7,2.2c0.4,0.5,0.7,1,0.9,1.6c0.3,0.8,0.3,0.8,1.3,0.7
		c1-0.2,2-0.4,2.9-0.6v3.5h-1.5c-2.4,0-3.2-0.1-3.4-0.1c-0.3,0-0.3,0-0.3,0.3v2.1c0,0.3,0,0.3,0.3,0.3c0.2,0,1-0.1,3.4-0.1h0.8
		c-1.2,3-2.9,5.8-5.2,8.2c0.5,0.7,0.9,1.5,1.1,2.3c0.1,0.3,0.3,0.5,0.4,0.5c0.1,0,0.3-0.1,0.5-0.4c1.6-2.2,2.9-4.6,3.9-7.2
		c0,6.6-0.2,11.4-0.2,11.9c0,0.3,0,0.3,0.3,0.3h2.5c0.3,0,0.3,0,0.3-0.3c0-0.5-0.1-5.2-0.1-12.2c0.6,1.4,1.4,2.6,2.3,3.7
		c0.2,0.3,0.4,0.4,0.5,0.4c0.1,0,0.3-0.2,0.4-0.5c0.3-0.7,0.6-1.5,1.1-2.1c-1.5-1.3-2.8-2.9-3.8-4.6L471.3,1808.2z M482,1811.5
		c-0.3,0.1-0.4,0.2-0.2,0.5c1,1.9,1.8,3.9,2.6,5.9c-2.3,0.5-4.6,0.8-6.8,1.1c1.6-5.7,2.8-11.4,4-17.6c0.1-0.6,0.2-1.1,0.5-1.6
		c0.1-0.2,0.2-0.4,0.2-0.6c0-0.2-0.2-0.3-0.6-0.4c-1-0.3-2.1-0.5-3.2-0.6c0,1.2-0.1,2.4-0.3,3.6c-0.9,5.9-2.2,11.7-3.8,17.5
		c-0.9,0.1-1.7,0.1-2.6,0.1c0.2,1,0.4,2.1,0.8,3.1c0.1,0.3,0.2,0.4,0.4,0.4c0.2,0,0.4-0.1,0.5-0.2c0.3-0.2,0.7-0.3,1-0.3
		c4-0.6,7.4-1.3,10.7-2l0.8,2.5c0.1,0.3,0.1,0.3,0.6,0.1l2-0.9c0.4-0.2,0.4-0.2,0.3-0.5c-1.1-3.7-2.6-7.4-4.5-10.8
		c-0.1-0.3-0.2-0.3-0.6-0.1L482,1811.5z M505.5,1803.4c0.2-0.7,0.4-1.7,0.7-2.8c0.2-0.4,0.4-0.8,0.6-1.2c0.1-0.1,0.2-0.3,0.1-0.5
		c0-0.2-0.1-0.4-0.3-0.5c-1.2-0.4-2.4-0.7-3.7-0.8c0,0.9-0.1,1.8-0.2,2.7c-0.2,1.2-0.4,2.5-0.7,3.6c-1.6,0.2-3.1,0.3-4.7,0.3
		c-0.7,0-1.4,0-2.1-0.1c0.1,1,0.3,2,0.4,2.6c0.1,0.4,0.2,0.5,0.6,0.5c1.4,0,3.4-0.1,5.1-0.3c-1.4,4.7-3,9.3-5,13.7
		c-0.1,0.2,0,0.5,0.2,0.6c0.6,0.3,2,1,2.3,1.1c0.3,0.1,0.5,0.1,0.6-0.3c1.9-4.8,3.3-9.3,5.3-15.7c1.7-0.3,3.4-0.6,5-1.1
		c0.4-0.1,0.5-0.2,0.4-0.6c0-0.6-0.1-1.5-0.2-2.1c0-0.2-0.1-0.4-0.5-0.3C508.2,1802.8,506.7,1803.2,505.5,1803.4L505.5,1803.4z
		 M506.1,1816.7c-0.1,1.4,0.4,2.9,1.3,4c1.3,1.4,3.3,1.9,7.1,1.9c1.3,0,2.6-0.1,3.9-0.3c0.5,0,0.5-0.1,0.5-0.5
		c0-0.8-0.1-1.7-0.2-2.5c0-0.2-0.1-0.3-0.3-0.3c-1.6,0.2-3.2,0.4-4.9,0.4c-2.8,0-4.2-0.6-4.4-2.7c0-0.3-0.1-0.4-0.4-0.4
		C507.7,1816.3,506.9,1816.5,506.1,1816.7L506.1,1816.7z M508.3,1811.2c1.9-0.4,3.9-0.6,5.8-0.7c1.2,0,2.4,0.1,3.6,0.3
		c0.4,0.1,0.6,0,0.6-0.5c0-0.8,0-1.5,0-2.3c0-0.3-0.1-0.4-0.5-0.4c-1.1-0.2-2.3-0.3-3.4-0.3c-1.9,0-3.8,0.3-5.7,0.7
		c-0.4,0.1-0.5,0.2-0.5,0.6C508.2,1809.1,508.3,1810.2,508.3,1811.2L508.3,1811.2z M533.9,1803.4c-2.2,0.2-4,0.3-6.3,0.3
		c0.1,1,0.3,2.2,0.4,2.5c0,0.3,0.3,0.4,0.6,0.4c1.5,0,3.3-0.1,4.9-0.3c-0.5,2.9-0.9,5-1.5,7.6c-0.1,0.4-0.2,0.9-0.4,1.4
		c-0.1,0.2-0.1,0.4-0.1,0.6c0,0.3,0.2,0.4,0.6,0.6c0.7,0.3,1.4,0.5,2.2,0.6c0.3,0,0.3-0.1,0.6-0.4c0.3-0.4,0.6-0.7,0.8-1.1
		c1.9-2.3,4.7-3.6,7.6-3.6c2.2,0,3.3,1.2,3.3,2.8c0,1.8-1.1,3.2-3.3,4.1c-2.3,1-4.1,1.3-8.3,1.6c0.7,0.6,1.2,1.3,1.6,2.1
		c0.2,0.6,0.4,0.7,0.7,0.7c0.7,0,1.4-0.1,2.1-0.2c2.6-0.3,5.1-1.1,7.4-2.3c2.1-1.2,3.4-3.4,3.3-5.9c0-3-2.6-5.5-6.5-5.5
		c-3.1,0-6,1.1-8.3,3.1c0.5-2,0.9-4,1.3-6.4c2.4-0.3,4-0.6,6.5-1.2c0.3-0.1,0.3-0.1,0.3-0.5c0-0.7-0.1-1.4-0.2-2.1
		c-0.1-0.4-0.2-0.4-0.6-0.3c-1.8,0.5-3.6,0.8-5.5,1.1c0.1-1,0.3-1.6,0.4-2.4c0.1-0.4,0.3-0.8,0.5-1.1c0.1-0.1,0.2-0.3,0.2-0.5
		c0-0.2-0.2-0.4-0.6-0.5c-1.1-0.3-2.3-0.5-3.5-0.6c0.2,0.9,0.2,1.9,0.1,2.8C534.1,1801.4,534,1802.4,533.9,1803.4L533.9,1803.4z
		 M577.4,1802.8c2.8,0,3.8,0.1,3.9,0.1c0.3,0,0.3,0,0.3-0.3v-2.6c0-0.3,0-0.3-0.3-0.3c-0.2,0-1.1,0.1-3.9,0.1h-12.6
		c-2.8,0-3.8-0.1-3.9-0.1c-0.3,0-0.3,0-0.3,0.3v2.6c0,0.3,0,0.3,0.3,0.3c0.2,0,1.1-0.1,3.9-0.1H577.4z M580,1821.5
		c2.6,0,3.5,0.1,3.6,0.1c0.3,0,0.3,0,0.3-0.3v-2.6c0-0.3,0-0.3-0.3-0.3c-0.2,0-1,0.1-3.6,0.1h-17.7c-2.6,0-3.5-0.1-3.7-0.1
		c-0.3,0-0.3,0-0.3,0.3v2.6c0,0.3,0,0.3,0.3,0.3c0.2,0,1.1-0.1,3.7-0.1L580,1821.5z M575.6,1811.7c2.8,0,3.8,0.1,3.9,0.1
		c0.3,0,0.3,0,0.3-0.3v-2.5c0-0.3,0-0.3-0.3-0.3c-0.2,0-1.2,0.1-3.9,0.1h-9c-2.8,0-3.8-0.1-3.9-0.1c-0.3,0-0.3,0-0.3,0.3v2.5
		c0,0.3,0,0.3,0.3,0.3c0.2,0,1.2-0.1,3.9-0.1H575.6z M604.8,1804c0.2-0.1,0.3-0.3,0.3-0.5c0-0.2-0.1-0.3-0.4-0.4c-1-0.3-2-0.5-3-0.7
		c-0.3,0.8-0.7,1.5-1.2,2.1c-2.8,3.7-6.6,6.6-11,8.3c0.6,0.5,1.1,1.2,1.4,1.9c0.3,0.5,0.4,0.7,0.6,0.7c0.2,0,0.5-0.1,0.7-0.3
		c0.9-0.5,1.8-1,2.7-1.5c0,0.5,0,1.2,0,2.3v2.4c0,4.1-0.1,4.9-0.1,5.1c0,0.3,0,0.3,0.3,0.3h2.5c0.3,0,0.3,0,0.3-0.3v-1.4h10.2v1.2
		c0,0.3,0,0.3,0.3,0.3h2.5c0.3,0,0.3,0,0.3-0.3c0-0.2-0.1-0.9-0.1-5v-4.7c0.9,0.5,1.9,1,3,1.5c0.2,0.1,0.5,0.2,0.7,0.3
		c0.2,0,0.3-0.2,0.5-0.7c0.3-0.8,0.8-1.6,1.4-2.3c-4.8-1.4-9.1-4.3-12.3-8.2L604.8,1804z M598,1814.9h10.2v4.5H598V1814.9z
		 M597,1812.2c2.2-1.6,4.2-3.6,5.9-5.8c1.8,2.3,3.9,4.2,6.3,5.8H597z M605.6,1798.8c-0.3,0.2-0.4,0.3-0.2,0.5c2,2.5,4.5,4.6,7.3,6.2
		c0.2,0.2,0.4,0.2,0.6,0.3c0.2,0,0.3-0.2,0.6-0.7c0.4-0.7,0.9-1.4,1.5-1.9c-2.9-1.2-5.5-3.1-7.6-5.5c-0.1-0.1-0.2-0.2-0.3-0.2
		c-0.1,0-0.2,0.1-0.3,0.1L605.6,1798.8z M597.9,1797.6c-0.3,0.6-0.7,1.2-1.2,1.8c-1.7,1.8-3.6,3.3-5.8,4.4c0.6,0.5,1.1,1.1,1.6,1.8
		c0.3,0.5,0.4,0.6,0.6,0.6c0.2-0.1,0.5-0.2,0.7-0.3c2.2-1.3,4.2-3.1,5.8-5.1c0.2-0.3,0.5-0.5,0.8-0.7c0.3-0.1,0.4-0.3,0.4-0.5
		c0-0.1-0.1-0.3-0.3-0.5C599.6,1798.5,598.7,1798,597.9,1797.6L597.9,1797.6z M641.5,1805.1v-2.8c-0.1-0.9,0-1.7,0.2-2.6
		c0.1-0.2,0.1-0.3,0.1-0.5c0-0.2-0.1-0.4-0.5-0.5c-1.1-0.2-2.3-0.4-3.4-0.5c0.2,1.3,0.3,2.6,0.3,4l0,2.8h-6.2v-2.1
		c0-2,0-2.3,0.2-2.8c0.1-0.2,0.1-0.4,0.2-0.6c0-0.2-0.1-0.3-0.4-0.4c-1.2-0.2-2.4-0.4-3.5-0.5c0.3,1.4,0.4,2.8,0.3,4.3v2.1h-0.9
		c-2.2,0-4.1-0.1-5.3-0.1c0,0.9,0.1,1.9,0.2,2.8c0,0.4,0.1,0.6,0.3,0.6c0.9-0.1,3.2-0.1,4.8-0.1h0.9v1.1c0,1.8-0.1,3.2-0.1,4.8
		c0,0.3,0.1,0.4,0.5,0.4c0.8,0.1,1.7,0.1,2.5,0c0.3,0,0.5-0.1,0.5-0.4c-0.1-1.5-0.1-3.1-0.1-4.8v-1h6.2c-0.1,3.5-0.6,5.5-1.7,7.4
		c-1.5,2.4-3.7,3.9-7.8,5.1c0.9,0.4,1.7,1,2.4,1.7c0.2,0.2,0.4,0.3,0.6,0.3c0.3,0,0.6-0.1,0.8-0.3c2.8-1,5.2-2.9,6.8-5.4
		c1.4-2.3,2.1-4.8,2.2-8.9h1.2c1.4,0,3.2,0,4.2,0c0.4,0,0.5-0.1,0.5-0.5c0.1-0.8,0.1-1.5,0-2.3c0-0.3-0.1-0.5-0.4-0.5
		c-1.3,0.1-3,0.1-4.4,0.1H641.5z M671.2,1812.5c2.1,0,4.3,0,6.5,0.1c0.4,0,0.5-0.1,0.5-0.4c0.1-0.9,0.1-1.8,0-2.7
		c0-0.3-0.1-0.4-0.5-0.4c-2.2,0-4.5,0.1-6.7,0.1h-9.3c-2.1,0.1-4.2-0.1-6.3-0.3c0.1,1.2,0.2,2.3,0.4,3.5c0.1,0.4,0.3,0.6,0.7,0.6
		c1.4-0.2,2.8-0.4,4.3-0.3H671.2z M694,1804.3c-0.1-0.9,0-1.8,0.3-2.6c0.1-0.2,0.2-0.4,0.2-0.6c0-0.2-0.1-0.4-0.5-0.5
		c-1.2-0.3-2.4-0.5-3.7-0.6c0.3,1.8,0.3,3.5,0.3,5.3v10.7c0,2.4,0.6,3.7,2.1,4.4c1.8,0.6,3.6,0.9,5.5,0.8c2.9,0,5.8-0.1,8.6-0.5
		c0.4,0,0.6-0.1,0.6-0.5c0-0.6-0.1-1.7-0.2-2.5c0-0.3-0.1-0.5-0.5-0.4c-2.7,0.4-5.4,0.7-8.2,0.7c-1.2,0-2.5-0.1-3.7-0.3
		c-0.8-0.2-1-0.7-1-2.1v-3.9c3.4-1,6.7-2.2,9.9-3.6c0.8-0.4,1.6-0.7,2.4-1c0.3-0.1,0.5-0.3,0.5-0.5c0-0.2-0.1-0.4-0.2-0.5
		c-0.7-1-1.5-1.8-2.4-2.6c-0.9,0.9-1.9,1.6-3.1,2.1c-2.3,1.1-4.7,2-7.1,2.8L694,1804.3z M704.6,1801c1.1,1,2.1,2.1,2.9,3.4
		c0.1,0.2,0.2,0.2,0.4,0.2c0,0,0.1,0,0.1-0.1l1.2-0.9c0.1-0.1,0.2-0.2,0.1-0.4c0,0,0-0.1-0.1-0.1c-0.8-1.2-1.7-2.2-2.8-3.1
		c-0.2-0.1-0.3-0.2-0.4-0.1L704.6,1801z M707.2,1799.1c1.1,0.9,2.1,2.1,2.9,3.3c0.1,0.2,0.2,0.2,0.4,0.2c0,0,0.1,0,0.1-0.1l1.2-0.9
		c0.2-0.1,0.2-0.3,0.1-0.5c0,0,0,0,0-0.1c-0.7-1.1-1.7-2.2-2.8-3c-0.2-0.1-0.3-0.2-0.4-0.1L707.2,1799.1z M726.2,1801.3
		c-1.9,0-3.3,0-4.9-0.1c0,1,0.1,2,0.3,3c0.1,0.3,0.1,0.5,0.4,0.5c1.6-0.1,3.1-0.2,4.6-0.2l7.5,0c-1.5,2.6-3.3,5.1-5.5,7.3
		c-2.9,3.1-6.4,5.6-10.2,7.4c0.9,0.5,1.8,1.1,2.4,1.9c0.1,0.2,0.3,0.3,0.5,0.3c0.2,0,0.5-0.1,0.7-0.2c3.6-2.1,6.9-4.6,9.7-7.7
		c2.7,2.1,5.3,4.6,7.5,7.2c0.1,0.1,0.2,0.2,0.4,0.2c0.1,0,0.3-0.1,0.3-0.2c0.7-0.6,1.4-1.3,1.9-2c0.1-0.1,0.2-0.3,0.2-0.4
		c0-0.2-0.1-0.3-0.2-0.4c-2.5-2.5-5.2-4.9-8-7c1.4-1.7,2.6-3.5,3.7-5.4c0.3-0.5,0.7-0.9,1.1-1.3c0.2-0.1,0.3-0.3,0.4-0.6
		c0-0.1-0.1-0.3-0.1-0.4c-0.5-0.8-1.2-1.4-1.9-2c-0.1-0.1-0.3-0.2-0.5-0.2c-0.1,0-0.2,0-0.3,0.1c-0.6,0.2-1.3,0.3-2,0.3
		L726.2,1801.3z M764,1805.7h2.3c1.6,0,3,0,5,0.1c0.3,0,0.4-0.2,0.4-0.6c0-0.7,0-1.5,0-2.3c0-0.3-0.1-0.5-0.4-0.5
		c-1.7,0.1-3.3,0.1-5.1,0.1H758c-1.7,0-3.3,0-5-0.1c0,0.9,0.1,1.8,0.2,2.7c0.1,0.4,0.1,0.6,0.5,0.6c1.2-0.1,2.4-0.1,4.5-0.1h2.3v9.9
		h-3.9c-1.9,0-4.1,0-6.1-0.1c0,0.9,0.1,1.8,0.2,2.7c0.1,0.5,0.1,0.6,0.6,0.6c2.3,0,4.1-0.1,5.3-0.1h11.7c1.9,0,4.5,0.1,5.9,0.1
		c0.3,0,0.4-0.1,0.4-0.5c0-0.8,0-1.6,0-2.3c0-0.3-0.1-0.5-0.5-0.5c-2,0.1-3.9,0.1-5.9,0.1h-4.1L764,1805.7z M783.8,1803.4
		c2.2,1.3,4.1,2.9,5.9,4.7c0.1,0.1,0.3,0.2,0.4,0.2c0.1,0,0.2-0.1,0.3-0.2c0.4-0.4,1.4-1.6,1.8-2.2c0.1-0.1,0.2-0.2,0.2-0.4
		c0-0.1-0.1-0.2-0.3-0.4c-1.7-1.6-3.5-3-5.5-4.1c-0.1-0.1-0.2-0.1-0.4-0.1c-0.2,0-0.3,0.1-0.4,0.2
		C785.3,1801.7,784.4,1802.6,783.8,1803.4L783.8,1803.4z M784.4,1817.9c0.7,1.1,1.4,2.2,2.3,3.2c0.1,0.2,0.3,0.3,0.5,0.3
		c0.2,0,0.4-0.1,0.5-0.3c0.6-0.5,1.2-1,1.9-1.3c3.1-1.6,6-3.5,8.8-5.7c2.4-1.8,4.6-3.9,6.7-6.1c0.3-0.4,0.5-0.6,0.5-0.9
		c0-0.2-0.1-0.4-0.1-0.6c-0.4-1.1-0.7-2.2-0.8-3.4c-2.3,3-5,5.6-7.9,7.9c-2.6,2.1-5.4,3.9-8.4,5.4
		C787.1,1817.1,785.8,1817.6,784.4,1817.9z M814.7,1809.2c2.1,0.8,4.1,1.9,5.9,3.2c0.1,0.1,0.2,0.2,0.3,0.2c0.1,0,0.2-0.1,0.4-0.3
		c0.5-0.7,0.9-1.4,1.3-2.2c0.1-0.1,0.1-0.2,0.1-0.3c0-0.2-0.1-0.3-0.3-0.4c-1.7-1.2-3.6-2.2-5.6-2.8c-0.3-0.1-0.4,0.1-0.6,0.3
		C815.9,1807.2,815.4,1808,814.7,1809.2L814.7,1809.2z M818.2,1802.3c2,1,3.9,2.2,5.6,3.6c0.1,0.1,0.3,0.2,0.4,0.2
		c0.1,0,0.2-0.1,0.3-0.2c0.6-0.7,1.1-1.4,1.5-2.2c0.1-0.1,0.1-0.2,0.1-0.4c0-0.2-0.1-0.3-0.2-0.4c-1.6-1.4-3.5-2.4-5.5-3.2
		c-0.3-0.2-0.5-0.1-0.7,0.2C819.2,1800.8,818.7,1801.6,818.2,1802.3L818.2,1802.3z M817,1818.9c0.6,1.1,1.3,2,2.1,3
		c0.1,0.2,0.3,0.3,0.6,0.3c0.2,0,0.3-0.1,0.5-0.2c0.5-0.4,1.1-0.7,1.7-1c3-1.6,5.9-3.4,8.7-5.5c2.7-2,5.1-4.2,7.4-6.7
		c0.2-0.2,0.3-0.4,0.3-0.7c0-0.2-0.1-0.4-0.1-0.6c-0.4-1-0.7-2.1-0.8-3.2c-2.5,3-5.3,5.7-8.4,8.1c-2.5,1.9-5.1,3.6-7.9,5
		C819.7,1818.1,818.4,1818.6,817,1818.9z M831.5,1800.2c1.1,1,2.1,2.1,2.9,3.4c0.1,0.2,0.2,0.2,0.4,0.2c0,0,0.1,0,0.1-0.1l1.2-0.9
		c0.1-0.1,0.2-0.2,0.1-0.4c0,0,0-0.1-0.1-0.1c-0.8-1.2-1.7-2.2-2.8-3.1c-0.2-0.1-0.3-0.2-0.4-0.1L831.5,1800.2z M834.1,1798.3
		c1.1,0.9,2.1,2.1,2.9,3.3c0.1,0.2,0.2,0.2,0.4,0.2c0,0,0.1,0,0.1-0.1l1.2-0.9c0.2-0.1,0.2-0.3,0.1-0.5c0,0,0,0,0-0.1
		c-0.7-1.1-1.7-2.2-2.8-3c-0.2-0.1-0.3-0.2-0.4-0.1L834.1,1798.3z M847.6,1803.4c2.2,1.3,4.1,2.9,5.9,4.7c0.1,0.1,0.3,0.2,0.4,0.2
		c0.1,0,0.2-0.1,0.3-0.2c0.4-0.4,1.4-1.6,1.8-2.2c0.1-0.1,0.2-0.2,0.2-0.4c0-0.1-0.1-0.2-0.3-0.4c-1.7-1.6-3.5-3-5.5-4.1
		c-0.1-0.1-0.2-0.1-0.4-0.1c-0.2,0-0.3,0.1-0.4,0.2C849.1,1801.7,848.2,1802.6,847.6,1803.4z M848.2,1817.9c0.7,1.1,1.4,2.2,2.3,3.2
		c0.1,0.2,0.3,0.3,0.5,0.3c0.2,0,0.4-0.1,0.5-0.3c0.6-0.5,1.2-1,1.9-1.3c3.1-1.6,6-3.5,8.8-5.7c2.4-1.8,4.6-3.9,6.7-6.1
		c0.3-0.4,0.5-0.6,0.5-0.9c0-0.2-0.1-0.4-0.1-0.6c-0.4-1.1-0.7-2.2-0.8-3.4c-2.3,3-5,5.6-7.9,7.9c-2.6,2.1-5.4,3.9-8.4,5.4
		C850.9,1817.1,849.6,1817.6,848.2,1817.9z M894.2,1814.3c-0.8-0.2-1.5-0.2-2.3-0.2c-2.9,0-5.1,1.7-5.1,4.1c0,2.5,1.9,4.1,5.2,4.1
		c3.4,0,5.1-1.3,5.3-3.8c1.1,0.7,2.2,1.4,3.1,2.3c0.1,0.1,0.2,0.1,0.3,0.1c0.1,0,0.2-0.1,0.3-0.2c0.5-0.7,1-1.5,1.3-2.2
		c0.1-0.3,0.1-0.4-0.1-0.6c-1.5-1.2-3.1-2.1-4.8-2.8c-0.1-2.5-0.2-4.5-0.2-7.8c1.5-0.1,3-0.3,4.5-0.6c0.2,0,0.3-0.2,0.3-0.4
		c0-0.7-0.1-1.4-0.2-2.1c-0.1-0.3-0.1-0.4-0.5-0.3c-1.2,0.2-2.8,0.4-4.1,0.5c0-1.3,0-2.1,0.1-3.1c0-0.3,0.1-0.7,0.2-1
		c0.1-0.2,0.2-0.3,0.2-0.5c0-0.3-0.2-0.4-0.5-0.5c-1.1-0.3-2.3-0.5-3.5-0.6c0.2,0.9,0.4,1.9,0.4,2.8c0,1.1,0,2,0,3
		c-2.2,0.1-4.4,0.1-6.6-0.1c0,0.9,0.1,1.8,0.2,2.6c0,0.3,0.1,0.4,0.5,0.4c2,0.1,4,0.1,6,0C894.1,1809.9,894.2,1812,894.2,1814.3
		L894.2,1814.3z M894.3,1817c0,0.2,0,0.4,0,0.6c0,1-0.9,1.9-2.4,1.9c-1.7,0-2.3-0.6-2.3-1.4c0-0.9,0.8-1.4,2.2-1.4
		C892.6,1816.6,893.5,1816.8,894.3,1817L894.3,1817z M880.8,1798.8c0.1,1.1,0,2.3-0.2,3.4c-0.7,3.6-1.1,7.3-1.2,11
		c-0.1,3,0.3,6,1.2,8.8c0.1,0.4,0.3,0.4,0.6,0.3c0.7-0.1,1.5-0.3,2.2-0.5c0.3-0.1,0.4-0.2,0.3-0.4c-0.1-0.5-0.1-1,0-1.5
		c0.3-1.5,0.8-3,1.5-4.4c0.1-0.1,0.2-0.3,0.2-0.5c0-0.2-0.1-0.3-0.2-0.4c-0.4-0.6-0.8-1.2-1-1.8c-0.6,1.5-1.2,2.7-1.8,4
		c-0.1-1.2-0.1-2.6-0.1-3.7c0.2-3.6,0.6-7.1,1.4-10.6c0.1-0.6,0.3-1.1,0.5-1.6c0.1-0.2,0.2-0.4,0.2-0.6c0-0.2-0.1-0.4-0.4-0.6
		C883.1,1799.5,882,1799.1,880.8,1798.8z M424.1,1860.2c-1.3,5-4.6,9.3-9.1,11.8c0.6,0.5,1.1,1.1,1.5,1.8c0.3,0.5,0.4,0.7,0.6,0.7
		c0.1,0,0.3-0.1,0.7-0.4c1.4-1,2.7-2.2,3.9-3.4v4.2c0,4.9-0.1,5.9-0.1,6.1c0,0.3,0,0.3,0.3,0.3h2.6c0.3,0,0.3,0,0.3-0.3v-1.6h10.6
		v1.4c0,0.3,0,0.3,0.3,0.3h2.6c0.3,0,0.3,0,0.3-0.3c0-0.2-0.1-1.1-0.1-6v-3.7c0-2.8,0.1-3.7,0.1-3.9c0-0.3,0-0.3-0.3-0.3
		c-0.2,0-1.1,0.1-3.9,0.1h-10c1.3-2.1,2.3-4.4,3-6.7h9.5c2.7,0,3.6,0.1,3.7,0.1c0.3,0,0.3,0,0.3-0.3v-2.3c0-0.3,0-0.3-0.3-0.3
		c-0.2,0-1.1,0.1-3.7,0.1h-16.8c-2.7,0-3.6-0.1-3.7-0.1c-0.3,0-0.3,0-0.3,0.3v2.3c0,0.3,0,0.3,0.3,0.3c0.2,0,1.1-0.1,3.7-0.1H424.1z
		 M424.8,1869.7h10.6v6.7h-10.6L424.8,1869.7z M453.6,1860.5c-0.1-1,0-2.1,0.1-3.1c0.1-0.2,0.2-0.4,0.2-0.7c0-0.2-0.2-0.3-0.5-0.4
		c-1-0.1-2-0.2-3.2-0.3c0.2,1.5,0.3,2.9,0.3,4.4v2.9c0.1,2.8-0.1,5.7-0.6,8.5c-0.4,2.6-1.5,5.1-3.1,7.1c0.7,0.5,1.4,1.1,1.9,1.7
		c0.3,0.3,0.4,0.5,0.6,0.5c0.1,0,0.3-0.2,0.5-0.5c1.6-2.4,2.6-5.1,3.1-8c0.5-3.2,0.7-6.4,0.7-9.7L453.6,1860.5z M468.3,1875.6
		c0,3.6-0.1,5.2-0.1,5.3c0,0.3,0,0.3,0.3,0.3h2.6c0.3,0,0.3,0,0.3-0.3c0-0.2-0.1-1.7-0.1-5.4v-15.3c-0.1-1,0-2.1,0.2-3.1
		c0.1-0.2,0.2-0.4,0.2-0.6c0-0.2-0.2-0.3-0.5-0.4c-1.1-0.1-2.2-0.2-3.2-0.3c0.2,1.5,0.3,3,0.2,4.4L468.3,1875.6z M459.2,1873.3
		c0,3.1-0.1,4.6-0.1,4.8c0,0.3,0,0.3,0.3,0.3h2.6c0.3,0,0.3,0,0.3-0.3c0-0.2-0.1-1.7-0.1-4.8v-11.7c-0.1-1,0-2,0.2-3
		c0.1-0.2,0.2-0.5,0.2-0.7c0-0.2-0.2-0.3-0.5-0.4c-1-0.1-2.1-0.2-3.2-0.2c0.2,1.4,0.3,2.9,0.3,4.4L459.2,1873.3z M491,1856.2
		c-2.6,0-3.5-0.1-3.7-0.1c-0.3,0-0.3,0-0.3,0.3c0,0.2,0.1,1.1,0.1,3.1v6.4c0,2-0.1,2.9-0.1,3.1c0,0.3,0.3,0.3,0.6,0.3
		c0.2,0,1.1-0.1,3.7-0.1h6.5c2.6,0,3.3,0.1,3.5,0.1c0.3,0,0.6,0,0.6-0.3c0-0.2-0.1-1.1-0.1-3.1v-6.4c0-2,0.1-3,0.1-3.1
		c0-0.3,0-0.3-0.3-0.3c-0.2,0-1.1,0.1-3.7,0.1H491z M498.8,1867.3h-9v-1.7h9V1867.3z M489.9,1863.5v-1.6h9v1.6H489.9z M489.9,1858.4
		h9v1.5h-9V1858.4z M481,1869.8c0,2.4-0.1,3.5-0.1,3.7c0,0.3,0,0.3,0.3,0.3c0.2,0,1.1-0.1,3.9-0.1h5.7v4.5c0,2.1-0.1,2.9-0.1,3.1
		c0,0.3,0,0.3,0.3,0.3h2.6c0.3,0,0.3,0,0.3-0.3c0-0.2-0.1-1-0.1-3.1v-4.5h6.9c2.7,0,3.6,0.1,3.8,0.1c0.3,0,0.3,0,0.3-0.3v-2.1
		c0-0.3,0-0.3-0.3-0.3c-0.2,0-1.1,0.1-3.8,0.1h-16.8v-9.8c-0.1-0.7,0-1.3,0.2-2c0.1-0.2,0.1-0.4,0.2-0.6c0-0.2-0.2-0.3-0.5-0.4
		c-1-0.1-2.1-0.2-3.2-0.2c0.2,1.1,0.2,2.2,0.2,3.2L481,1869.8z M496.5,1875.6c-0.3,0.2-0.4,0.3-0.2,0.5c1.7,1.8,3.6,3.4,5.8,4.6
		c0.2,0.2,0.4,0.3,0.7,0.3c0.2,0,0.3-0.2,0.6-0.6c0.4-0.7,1-1.2,1.6-1.7c-2.3-0.9-4.5-2.3-6.3-4c-0.1-0.1-0.2-0.1-0.3-0.1
		c-0.1,0-0.2,0.1-0.3,0.1L496.5,1875.6z M485.9,1874.4c-0.3,0.5-0.7,1-1.1,1.4c-1.5,1.4-3.2,2.5-5.1,3.2c0.6,0.4,1.2,0.9,1.6,1.5
		c0.3,0.4,0.4,0.6,0.7,0.6c0.2-0.1,0.5-0.2,0.7-0.3c1.7-0.9,3.3-2,4.6-3.4c0.3-0.3,0.6-0.6,0.9-0.8c0.2-0.1,0.4-0.3,0.4-0.4
		c0-0.1-0.1-0.2-0.4-0.5C487.5,1875.2,486.7,1874.7,485.9,1874.4L485.9,1874.4z M527.3,1870.6c2.5-1,4.4-1.7,6.2-2.3
		c0.6-0.2,1.2-0.3,1.8-0.4c0.3-0.1,0.4-0.2,0.4-0.4c0-0.2-0.1-0.5-0.2-0.6c-0.6-0.9-1.3-1.8-2-2.6c-0.6,0.6-1.4,1.2-2.2,1.6
		c-1.5,0.8-3.1,1.5-4.3,2c0-1.8-1.5-3.2-3.2-3.1c-0.1,0-0.2,0-0.3,0c-1,0-2,0.3-2.9,0.9l0-0.1c0.8-1,1.5-2.1,2.2-3.2
		c2.1-0.2,4.6-0.6,6.8-0.9c0.4-0.1,0.5-0.2,0.5-0.5c0-0.7-0.1-1.4-0.3-2.1c-0.1-0.3-0.1-0.3-0.5-0.3c-1.7,0.4-3.5,0.7-5.3,0.9
		c0.3-0.8,0.5-1.2,0.7-1.6c0.1-0.3,0.3-0.5,0.5-0.7c0.1-0.1,0.2-0.3,0.2-0.4c0-0.2-0.1-0.4-0.3-0.5c-1.1-0.4-2.2-0.6-3.3-0.8
		c0,0.6-0.1,1.2-0.2,1.8c-0.2,0.8-0.5,1.7-0.9,2.5c-2.2,0.1-4.4,0.1-6.7,0c0.1,0.9,0.2,1.9,0.3,2.4c0.1,0.3,0.1,0.5,0.4,0.5
		c1.7,0,3.3,0,4.6-0.1c-1.6,2.7-3.7,5.1-6.1,7.2c-0.1,0.1-0.2,0.2-0.2,0.3c0,0.1,0.1,0.2,0.1,0.3c0.5,0.7,1,1.3,1.7,1.9
		c0.1,0.1,0.2,0.2,0.3,0.2c0.1,0,0.2-0.1,0.3-0.3c0.9-1.1,1.9-2.2,2.9-3.2c1.1-1.1,2.5-1.9,4-2.1c1.3-0.1,1.7,0.5,1.7,2
		c-4.4,2.3-6.1,4.3-6.1,7.1c0,3.4,2.5,4.8,7.3,4.8c2.4,0,4.8-0.1,7.2-0.4c0.2,0,0.3-0.2,0.3-0.6c0-0.8-0.1-1.6-0.3-2.4
		c0-0.3-0.1-0.3-0.4-0.3c-2.4,0.4-4.8,0.6-7.2,0.6c-3,0-4-0.8-4-2c0-1.4,0.9-2.5,3.5-3.9c0,1,0,2.5,0,3.5c0,0.3,0.1,0.5,0.4,0.5
		c0.7,0,1.4-0.1,2.1-0.1c0.4-0.1,0.6-0.2,0.6-0.5L527.3,1870.6z M551.8,1875.7h1.1c2.5,0,3.4,0.1,3.5,0.1c0.3,0,0.3,0,0.3-0.3v-1.7
		c0-0.3,0-0.3-0.3-0.3c-0.2,0-1,0.1-3.5,0.1h-1.1v-1.2h1.2c2.4,0,3.3,0.1,3.5,0.1c0.3,0,0.3,0,0.3-0.3c0-0.2-0.1-0.9-0.1-2.4v-3.1
		c0-1.6,0.1-2.2,0.1-2.4c0-0.3,0-0.3-0.3-0.3c-0.2,0-1,0.1-3.5,0.1h-1.2v-1.3h1.7c2.6,0,3.5,0.1,3.7,0.1c0.3,0,0.2,0,0.2-0.3v-1.7
		c0-0.3,0-0.3-0.3-0.3c-0.2,0-1.1,0.1-3.7,0.1h-1.7v-1.6c1.2-0.1,2.3-0.3,3.5-0.6c0.4-0.1,0.9-0.2,1.3-0.2c0.4,0,0.6-0.1,0.6-0.3
		c0-0.2-0.1-0.4-0.2-0.5c-0.5-0.6-1.1-1.1-1.7-1.6c-0.5,0.2-1.1,0.4-1.6,0.5c-3.4,0.7-6.8,1.1-10.3,1.1c0.4,0.5,0.7,1,0.9,1.6
		c0.2,0.7,0.3,0.7,1.1,0.6c1.2-0.1,2.5-0.2,3.7-0.3v1.3H547c-2.6,0-3.5-0.1-3.7-0.1c-0.3,0-0.3,0-0.3,0.3v1.7c0,0.3,0,0.3,0.3,0.3
		c0.2,0,1.1-0.1,3.7-0.1h2.1v1.3H548c-2.5,0-3.3-0.1-3.5-0.1c-0.3,0-0.3,0-0.3,0.3c0,0.1,0.1,0.8,0.1,2.4v3.1c0,1.5-0.1,2.2-0.1,2.4
		c0,0.3,0,0.3,0.3,0.3c0.2,0,1-0.1,3.5-0.1h1.2v1.2h-1.7c-2.5,0-3.4-0.1-3.5-0.1c-0.3,0-0.3,0-0.3,0.3v1.7c0,0.3,0,0.3,0.3,0.3
		c0.2,0,1-0.1,3.5-0.1h1.7v1.7c-1.2,0.1-2.3,0.2-3.3,0.2c-1,0.1-2,0.1-3,0c0.1,0.9,0.3,1.8,0.5,2.6c0.1,0.3,0.2,0.5,0.4,0.5
		c0.2,0,0.3-0.1,0.5-0.2c0.3-0.1,0.7-0.2,1.1-0.2c3.3-0.3,7-0.9,10.1-1.5c0.2,0,0.4-0.1,0.6-0.1c-0.3,0.3-0.6,0.6-0.9,0.9
		c0.7,0.3,1.3,0.8,1.9,1.4c0.3,0.3,0.4,0.4,0.6,0.4s0.3-0.1,0.6-0.4c2.1-2.3,3.6-5.2,4.3-8.3c0.6-2.7,0.9-5.5,1.1-8.3h2.4
		c0.1,4.1-0.2,8.2-0.7,12.3c-0.2,1.4-0.7,1.8-1.6,1.8c-0.8,0-1.6-0.1-2.4-0.2c0.3,0.6,0.5,1.3,0.6,1.9c0.1,1,0.1,1,0.8,1
		c0.5,0,1,0.1,1.6,0.1c2.2,0,3.3-1,3.7-3.2c0.6-4.4,0.9-8.8,0.8-13.3c0-0.9,0-1.8,0.1-2.8c0-0.3-0.1-0.3-0.3-0.3
		c-0.2,0-0.9,0.1-3.2,0.1h-1.7c0-0.7,0-1.4,0-2.2c-0.1-1,0-2,0.2-3c0.1-0.2,0.2-0.5,0.2-0.7c0-0.2-0.1-0.3-0.4-0.3
		c-1-0.1-1.9-0.2-2.9-0.2c0.2,1.4,0.2,2.7,0.2,4.1c0,0.8,0,1.6,0,2.3c-1.8,0-2.5-0.1-2.6-0.1c-0.3,0-0.3,0-0.3,0.3v2.1
		c0,0.3,0,0.3,0.3,0.3c0.1,0,0.8,0,2.5-0.1c-0.1,2.5-0.4,5-1,7.4c-0.6,2.4-1.7,4.6-3.3,6.5l0.1-0.5c0.1-0.4,0.1-0.9,0.3-1.3
		c-1.7,0.3-3.4,0.5-4.9,0.7L551.8,1875.7z M554.3,1870.4h-2.5v-1.5h2.5V1870.4z M554.3,1865.7v1.5h-2.5v-1.5L554.3,1865.7z
		 M546.8,1870.4v-1.5h2.4v1.5H546.8z M546.8,1867.2v-1.5h2.4v1.5L546.8,1867.2z M583.2,1863.3c-1.1,0.2-2.2,0.3-3.4,0.4
		c-1.3,0.1-2.6,0.2-3.8,0.2c0.2,1,0.5,2,0.9,3c0.1,0.3,0.4,0.5,0.8,0.4c0.1,0,0.1,0,0.1-0.1c0.5-0.2,1.1-0.4,1.6-0.5
		c0.8-0.1,1.7-0.3,2.8-0.5c-1.4,4-3.2,7.8-5.3,11.4c-0.1,0.1-0.1,0.2-0.1,0.3c0,0.2,0.1,0.3,0.2,0.4c0.6,0.5,1.3,0.9,2,1.3
		c0.2,0.2,0.5,0.1,0.7-0.1c0-0.1,0.1-0.1,0.1-0.2c2.4-4.4,4.3-8.9,5.8-13.6c0.8-0.1,1.6-0.2,2.4-0.2c1.3,0,1.7,0.6,1.7,2.7
		c0,2.4-0.4,4.9-1.1,7.2c-0.5,1.2-0.9,1.5-1.9,1.5c-1.1,0-2.2-0.2-3.2-0.6c0.3,0.9,0.5,1.8,0.6,2.7c0,0.4,0.2,0.7,0.5,0.8
		c0.9,0.3,1.9,0.4,2.9,0.3c1.7,0,3.3-1.1,3.9-2.7c1-2.1,1.6-5.9,1.6-9.3c0-3.5-1.5-5.4-4.2-5.4c-0.8,0-1.5,0-2.3,0.1
		c0.4-1.2,0.7-2.3,1-3.5c0.1-0.4,0.3-0.8,0.6-1.1c0.1-0.1,0.2-0.3,0.2-0.4c0-0.3-0.2-0.5-0.5-0.6c-1.1-0.4-2.3-0.7-3.5-1
		c0,1.1-0.1,2.2-0.3,3.2C583.9,1860.6,583.7,1861.6,583.2,1863.3L583.2,1863.3z M593.5,1863c2.1,2.1,3.8,4.7,4.8,7.5
		c0.1,0.3,0.4,0.4,0.7,0.2c0.8-0.4,1.5-0.9,2.2-1.5c0.2-0.1,0.2-0.4,0.1-0.6c0,0,0,0,0,0c-1.1-2.7-2.7-5.1-4.8-7
		c-0.2-0.2-0.3-0.3-0.6-0.1C595.1,1862,594.3,1862.5,593.5,1863L593.5,1863z M619.8,1860.5c-3.5,0.2-7.2,0.4-9,0.6
		c-1.2,0.1-2.4,0.2-3.5,0.1c0.2,1,0.4,2,0.7,2.9c0.1,0.3,0.2,0.4,0.5,0.4c0.3,0,0.7-0.3,1.4-0.3c2.3-0.3,6.4-0.7,10-0.9
		c0,1,0,1.9,0,3c-0.6-0.4-1.4-0.6-2.2-0.6c-2.3-0.1-4.3,1.7-4.4,4.1c0,0.1,0,0.2,0,0.3c0,2.8,1.7,4.4,4,4.4c1,0.1,2-0.4,2.7-1.2
		c-0.5,2.4-2.6,4.9-5.9,6.4c0.8,0.2,1.5,0.6,2.2,1.2c0.2,0.2,0.5,0.4,0.9,0.4c0.4-0.1,0.8-0.3,1.1-0.6c3.3-2,5.2-5.6,5.2-9.4
		c0-1-0.1-1.9-0.4-2.9c0-1.8,0-3.6,0-5.4c3,0,5.8,0,8.8,0.1c0.3,0,0.5-0.1,0.5-0.4c0-0.7,0-1.5,0-2.2c0-0.4-0.1-0.4-0.4-0.4
		c-2.8,0-5.8,0-8.9,0.1c0-1.1,0-1.5,0.1-1.9c0-0.3,0.1-0.6,0.2-0.8c0.2-0.2,0.2-0.4,0.3-0.7c0-0.3-0.3-0.5-0.8-0.6
		c-1.1-0.2-2.3-0.3-3.4-0.4c0.2,0.7,0.3,1.4,0.4,2.1C619.8,1858.9,619.8,1859.6,619.8,1860.5L619.8,1860.5z M618,1867.9
		c1-0.1,1.8,0.6,1.9,1.5c0,0.1,0,0.2,0,0.3c0.1,1-0.7,1.9-1.7,2c-0.1,0-0.2,0-0.3,0c-1,0-1.8-0.7-1.9-1.7c0-0.1,0-0.2,0-0.2
		c0-1,0.8-1.9,1.8-1.9C617.9,1867.9,617.9,1867.9,618,1867.9z M878.5,1862.1c-3.5,2.3-5.6,5.1-5.6,9.2c0,6,5.6,9,10.7,9
		c0.3,0,0.5-0.2,0.6-0.6c0.2-0.8,0.3-1.7,0.3-2.5c0-0.3-0.2-0.4-0.6-0.4c-5-0.3-7.7-2.3-7.7-6.1c0-3.5,2.5-6.9,7.4-8.6
		c1.1-0.4,2.3-0.6,3.5-0.6c0.4,0,0.6-0.1,0.6-0.4c0-0.9-0.1-1.7-0.3-2.6c0-0.2-0.2-0.4-0.6-0.3c-7.5,1-13.9,1.9-17.4,2.5
		c-1.5,0.3-3.1,0.4-4.6,0.5c0.3,1.1,0.6,2.1,1.1,3.1c0.1,0.2,0.3,0.4,0.6,0.4c0.2,0,0.4-0.1,0.6-0.2c0.4-0.1,0.7-0.2,1.8-0.5
		C871.8,1863.4,874.9,1862.8,878.5,1862.1L878.5,1862.1z M882.7,1866.3c1.1,1,2.1,2.1,2.9,3.4c0.1,0.2,0.2,0.2,0.4,0.2
		c0,0,0.1,0,0.1-0.1l1.2-0.9c0.1-0.1,0.2-0.2,0.1-0.4c0,0,0-0.1-0.1-0.1c-0.8-1.2-1.7-2.2-2.8-3.1c-0.2-0.1-0.3-0.2-0.4-0.1
		L882.7,1866.3z M885.3,1864.4c1.1,0.9,2.1,2.1,2.9,3.3c0.1,0.2,0.2,0.2,0.4,0.2c0,0,0.1,0,0.1-0.1l1.2-0.9c0.2-0.1,0.2-0.3,0.1-0.5
		c0,0,0,0,0-0.1c-0.7-1.1-1.7-2.2-2.8-3c-0.2-0.1-0.3-0.2-0.4-0.1L885.3,1864.4z M908.5,1860.5c-3.5,0.2-7.2,0.4-9,0.6
		c-1.2,0.1-2.4,0.2-3.5,0.1c0.2,1,0.4,2,0.7,2.9c0.1,0.3,0.2,0.4,0.5,0.4c0.3,0,0.7-0.3,1.4-0.3c2.3-0.3,6.4-0.7,10-0.9
		c0,1,0,1.9,0,3c-0.6-0.4-1.4-0.6-2.2-0.6c-2.3-0.1-4.3,1.7-4.4,4.1c0,0.1,0,0.2,0,0.3c0,2.8,1.7,4.4,4,4.4c1,0.1,2-0.4,2.7-1.2
		c-0.5,2.4-2.6,4.9-5.9,6.4c0.8,0.2,1.5,0.6,2.2,1.2c0.2,0.2,0.5,0.4,0.9,0.4c0.4-0.1,0.8-0.3,1.1-0.6c3.3-2,5.2-5.6,5.2-9.4
		c0-1-0.1-1.9-0.4-2.9c0-1.8,0-3.6,0-5.4c3,0,5.8,0,8.8,0.1c0.3,0,0.5-0.1,0.5-0.4c0-0.7,0-1.5,0-2.2c0-0.4-0.1-0.4-0.4-0.4
		c-2.8,0-5.8,0-8.9,0.1c0-1.1,0-1.5,0.1-1.9c0-0.3,0.1-0.6,0.2-0.8c0.2-0.2,0.2-0.4,0.3-0.7c0-0.3-0.3-0.5-0.8-0.6
		c-1.1-0.2-2.3-0.3-3.4-0.4c0.2,0.7,0.3,1.4,0.3,2.1C908.5,1858.9,908.5,1859.6,908.5,1860.5L908.5,1860.5z M906.7,1867.9
		c1-0.1,1.8,0.6,1.9,1.5c0,0.1,0,0.2,0,0.3c0.1,1-0.7,1.9-1.7,2c-0.1,0-0.2,0-0.3,0c-1,0-1.8-0.7-1.9-1.7c0-0.1,0-0.2,0-0.2
		c0-1,0.8-1.9,1.8-1.9C906.6,1867.9,906.6,1867.9,906.7,1867.9L906.7,1867.9z M927.9,1874c-2.3,0-4.2,1.9-4.1,4.2
		c0,2.3,1.9,4.2,4.2,4.1c2.3,0,4.1-1.9,4.1-4.2C932.1,1875.9,930.2,1874,927.9,1874C927.9,1874,927.9,1874,927.9,1874L927.9,1874z
		 M927.9,1875.8c1.3,0,2.4,1.1,2.4,2.4s-1.1,2.4-2.4,2.4s-2.4-1.1-2.4-2.4l0,0C925.5,1876.9,926.5,1875.8,927.9,1875.8
		C927.8,1875.8,927.9,1875.8,927.9,1875.8L927.9,1875.8z"/>
	<path id="パス_1334" class="st0" d="M848.2,1849.3h-4.2v4h2.1l-2,4.7h1.9l2.2-4.7V1849.3z M854.1,1849.3h-4.2v4h2.1l-2,4.7h1.9
		l2.2-4.7V1849.3z"/>
	<path id="パス_1333" class="st0" d="M652.2,1849.3h-4.2v4h2.1l-2,4.7h1.9l2.2-4.7V1849.3z M658.1,1849.3h-4.2v4h2.1l-2,4.7h1.9
		l2.2-4.7V1849.3z"/>
	<g id="グループ_1172" transform="translate(654.25 1848.368)">
		<g id="パス_206" transform="translate(-314.268 -156.76)">
			<path class="st1" d="M480.8,201.1h-1h-28.5h-1.9l0.6-1.8l13.3-41.8l0.3-1h1h22.6h9.1h4l-3.1,2.5l-4,3.2l-1.8,5.6l-0.3,1h-1h-17.4
				l-1.2,3.9h5.4h2l0,0h8.9h1.9l0,0h1.3h4l-3.1,2.5l-4.1,3.3L486,184l-0.3,1h-1h-9.8l-1,0h-6.3l-1.2,3.9h10.6c0,0,0,0,0.1,0h9.1h4
				l-3.1,2.5l-4,3.3l-1.8,5.5L480.8,201.1z"/>
			<path class="st2" d="M479.8,199.7l1.9-5.9l4.3-3.5h-9.1c0,0,0,0,0,0h-12.6l2.1-6.7l18.2,0l1.9-5.9l4.4-3.6h-3.2l0,0h-10.9l0,0
				h-7.4l2.1-6.7h18.4l1.9-6l4.3-3.5h-31.6l-13.3,41.8H479.8 M481.8,202.5h-34.3l15.1-47.4h41.6l-9.8,7.9l-2.3,7.1h-18.4l-0.3,1.1
				h7.5l0,0h10.8l0,0h7.3l-9.9,8l-2.3,7l-18.2,0l-0.3,1.1h8.7c0,0,0.1,0,0.1,0h17l-9.9,8L481.8,202.5z"/>
		</g>
		<g id="パス_207" transform="translate(-273.219 -156.745)">
			<path class="st1" d="M411.5,201.1h-1h-8.8h-1.1l-0.3-1l-4.4-15.7l-5,15.8l-0.3,1h-1h-9.9h-1.9l0.6-1.8l13.3-41.8l0.3-1l1,0l4.4,0
				c0.1,0,0.2,0,0.3,0h9.1h4l-3.1,2.5l-3.2,2.6l3.3,11.7l5.1-15.9l0.3-1h1h3.7h9.1h4l-3.1,2.5l-3.8,3l-12.1,38.1L411.5,201.1z"/>
			<path class="st2" d="M393,157.9l-13.3,41.8h9.9l6.5-20.3l5.6,20.3h8.8l12.3-38.5l4.1-3.3h-12.8l-6.5,20.3l-4.8-17.1l4-3.2h-9.1
				c-0.1,0-0.1,0-0.2,0L393,157.9 M390.9,155.1l6.4,0.1c0.1,0,0.3,0,0.5,0h37.1l-9.6,7.8l-12.6,39.6h-13l-3.7-13.3l-4.2,13.3h-15.8
				L390.9,155.1z M407.8,168.5l3.3-10.4l-5.1,4.1L407.8,168.5z"/>
		</g>
		<g id="パス_208" transform="translate(-215.262 -156.989)">
			<path class="st1" d="M311.3,201.6h-1H310h-8.9h-13h-0.2h-9.4h-1.9l0.6-1.8l13.8-41.8l0.3-1h1h0.6h9h21.7h1.9l-0.6,1.8L322,168
				l-0.3,1h-1h-20.8l-6.8,20.6h10.1l1.4-4.2h-5.8h-1.9l0.6-1.8l3-9.4l0.3-1h1h17.1h1.9l-0.6,1.8l-1,3h0l-0.6,1.8l-6.8,20.8
				L311.3,201.6z"/>
			<path class="st2" d="M310.3,200.1l6.8-20.8h0l1.6-4.8h-17.1l-3,9.4h7.7l-2.3,7h-13l7.7-23.4h21.9l2.9-9.2h-31.4l-13.8,41.8H310.3
				 M312.4,203h-37.8l15.6-47.4h37.2l-4.7,14.8h-21.9l-0.4,1.3h22.2l-1.6,4.8h0L312.4,203z M295,188.1h7.1l0.5-1.4h-7.1L295,188.1z"
				/>
		</g>
		<g id="パス_209" transform="translate(-172.786 -156.745)">
			<path class="st1" d="M236.1,201.1h-1h-8.8h-1.1l-0.3-1l-4.4-15.7l-5,15.8l-0.3,1h-1h-9.9h-1.9l0.6-1.8l13.3-41.8l0.3-1l1,0l4.4,0
				c0.1,0,0.2,0,0.3,0h9.1h4l-3.1,2.5l-3.2,2.6l3.3,11.7l5.1-15.9l0.3-1h1h3.6h9.1h4l-3.1,2.5l-3.5,2.9l-12.2,38.2L236.1,201.1z"/>
			<path class="st2" d="M217.6,157.9l-13.3,41.8h9.9l6.5-20.3l5.6,20.3h8.8l12.3-38.6l3.9-3.1h-12.6l-6.5,20.3l-4.8-17.1l4-3.2h-9.1
				c-0.1,0-0.1,0-0.2,0L217.6,157.9 M215.5,155.1l6.4,0.1c0.1,0,0.3,0,0.4,0h36.9l-9.4,7.6l-12.7,39.8h-13l-3.7-13.3l-4.2,13.3
				h-15.8L215.5,155.1z M232.4,168.5l3.3-10.4l-5.1,4.1L232.4,168.5z"/>
		</g>
		<g id="パス_210" transform="translate(-257.947 -156.76)">
			<path class="st1" d="M364.9,201.1h-1H353H351l0.6-1.8l13.3-41.8l0.3-1h1h5.1l0.1,0h9.1h4l-3.1,2.5l-4.1,3.3l-12.1,37.8
				L364.9,201.1z"/>
			<path class="st2" d="M371.4,157.9L371.4,157.9l-5.1,0L353,199.7h10.9l12.2-38.2l4.4-3.6H371.4 M371.4,155.1h17l-9.9,8l-12.6,39.4
				h-16.8l15.1-47.4L371.4,155.1z"/>
		</g>
		<g id="パス_211" transform="translate(-131.667 -156.76)">
			<path class="st1" d="M162.4,201.1l-1,0l-28.9-0.1l-1.9,0l0.6-1.8l13.8-41.6l0.3-1h1h21.9h9.1h4L178,159l-3,2.4l-2,6.4l-0.3,1h-1
				h-17.4l-1.2,3.9l16.4,0l1.9,0l0,0h0.6h4l-3.1,2.5l-3.1,2.5l-2.1,6.3l-0.3,1l-1,0l-17.2,0l-1.2,3.9h9.9c0,0,0,0,0.1,0h9.1h4
				l-3.1,2.5l-3.1,2.5l-2,6.3L162.4,201.1z"/>
			<path class="st2" d="M161.4,199.7l2.1-6.7l3.4-2.7h-9.1c0,0,0,0,0,0H146l2.1-6.7l18.2,0l2.2-6.6l3.4-2.8h-2.5l0,0l-18.3,0
				l2.1-6.7h18.4l2.2-6.8l3.3-2.7h-30.9l-13.8,41.6L161.4,199.7 M163.4,202.5l-34.9-0.2l15.7-47.2h40.9l-8.8,7.1l-2.5,7.9h-18.4
				l-0.3,1.1l18.3,0l0,0h6.6l-8.9,7.2l-2.6,7.8l-18.2,0l-0.3,1.1h8c0,0,0.1,0,0.1,0h17l-8.9,7.2L163.4,202.5z"/>
		</g>
	</g>
</g>
</svg>
