<?xml version="1.0" encoding="utf-8"?>
<!-- Generator: Adobe Illustrator 24.2.0, SVG Export Plug-In . SVG Version: 6.00 Build 0)  -->
<svg version="1.1" id="レイヤー_1" xmlns="http://www.w3.org/2000/svg" xmlns:xlink="http://www.w3.org/1999/xlink" x="0px"
	 y="0px" viewBox="0 0 276 90" style="enable-background:new 0 0 276 90;" xml:space="preserve">
<style type="text/css">
	.st0{fill:#FFFFFF;}
</style>
<g id="グループ_1194" transform="translate(-51.969 -15340.772)">
	<path id="パス_1341" class="st0" d="M71.5,15416.3c-2.3,3.4-5.5,6.1-9.3,7.8c0.7,0.6,1.3,1.3,1.7,2.1c0.4,0.6,0.5,0.9,0.8,0.9
		c0.2,0,0.4-0.2,0.8-0.4c3.2-1.9,5.9-4.6,7.9-7.7c0,3.9-0.2,9.2-0.2,10.1c0,0.4,0,0.4,0.4,0.4h3c0.4,0,0.5,0,0.5-0.4
		c0-1-0.2-6.3-0.2-10.2c1.9,3.2,4.6,5.8,7.8,7.8c0.3,0.2,0.6,0.4,0.9,0.5c0.3,0,0.4-0.3,0.6-0.9c0.4-1,0.9-1.8,1.6-2.6
		c-3.6-1.6-6.8-4.1-9.2-7.3h2.7c3.6,0,4.9,0.1,5.1,0.1c0.4,0,0.5,0,0.5-0.4v-2.7c0-0.4,0-0.4-0.5-0.4c-0.2,0-1.5,0.1-5.1,0.1h-4.3
		c0-0.6,0-1.1,0.2-1.7c0.1-0.3,0.2-0.6,0.3-1c0-0.2-0.2-0.4-0.6-0.4c-1.3-0.2-2.4-0.2-3.8-0.3c0.1,1.3,0.2,2.4,0.2,3.3h-3
		c-3.6,0-4.9-0.1-5.1-0.1c-0.4,0-0.4,0-0.4,0.4v2.7c0,0.4,0,0.4,0.4,0.4c0.2,0,1.5-0.1,5.1-0.1L71.5,15416.3z M61.1,15415.1l1.8-0.8
		c1.1-0.5,1.1-0.4,1.1-1.7c0-0.8,0.1-1.6,0.2-2.4c-1,0.4-2.1,0.9-3.1,1.3v-5.9c2,0,2.6,0.1,2.8,0.1c0.4,0,0.5,0,0.5-0.4v-2.7
		c0-0.4,0-0.5-0.5-0.5c-0.2,0-0.9,0.1-2.8,0.1v-2.1c0-2.6,0-3.4,0.2-3.8c0.2-0.3,0.2-0.5,0.3-0.8c0-0.2-0.2-0.3-0.6-0.4
		c-1.3-0.2-2.5-0.2-3.9-0.3c0.2,1.8,0.3,3.6,0.3,5.4v2h-0.4c-2.5,0-3.2-0.1-3.5-0.1c-0.3,0-0.4,0-0.4,0.5v2.7c0,0.4,0,0.4,0.4,0.4
		c0.2,0,1-0.1,3.5-0.1h0.4v7.2c-0.4,0.1-0.8,0.3-1.2,0.3c-1.2,0.3-2.3,0.6-3.5,0.7c0.1,1.2,0.3,2.4,0.6,3.6c0.1,0.3,0.2,0.5,0.5,0.5
		c0.2,0,0.4-0.1,0.6-0.2c0.4-0.3,0.9-0.5,1.4-0.6c0.5-0.2,1.1-0.3,1.6-0.6v7.5c0,1.1-0.3,1.4-1.2,1.4c-0.9,0-1.8,0-2.7-0.2
		c0.5,0.9,0.8,1.8,0.9,2.8c0.3,1.1,0.3,1.1,1.4,1.1c2.4,0,3.3-0.2,4.2-0.8c0.8-0.7,1.1-1.7,1.1-3.8c0-1.9-0.1-4-0.1-7.6
		L61.1,15415.1z M82.9,15395.1c-1,0.5-2,0.8-3.1,1.1c-5,1.2-10.1,1.9-15.2,2.1c0.4,0.7,0.8,1.5,1,2.3c0.3,1.1,0.3,1.2,1.6,1.1
		c5.4-0.4,10.7-1.3,16-2.6c0.6-0.2,1.3-0.3,1.9-0.4c0.3,0,0.6-0.2,0.6-0.5c0,0,0,0,0,0c0-0.3-0.1-0.6-0.3-0.8
		C84.7,15396.5,83.8,15395.8,82.9,15395.1z M78.5,15409.2c0.7,0.2,1.3,0.5,2,0.9c0.3,0.2,0.6,0.4,0.9,0.4c0.2,0,0.4-0.2,0.8-0.8
		c1-1.6,1.9-3.3,2.7-5c0.2-0.5,0.5-0.9,0.9-1.3c0.3-0.2,0.3-0.3,0.3-0.5c0-0.2-0.2-0.4-0.6-0.6c-1.1-0.5-2.3-0.9-3.4-1.2
		c-0.1,0.7-0.3,1.4-0.5,2.1C80.8,15405.3,79.8,15407.3,78.5,15409.2L78.5,15409.2z M66.2,15404c-0.5,0.2-0.5,0.3-0.3,0.6
		c0.9,1.5,1.7,3.2,2.2,4.9c0.1,0.4,0.2,0.4,0.7,0.2l2.2-0.9c0.6-0.2,0.6-0.3,0.4-0.7c-0.6-1.7-1.4-3.2-2.4-4.7
		c-0.2-0.4-0.3-0.3-0.8-0.2L66.2,15404z M73.1,15402.6c-0.5,0.2-0.5,0.2-0.4,0.6c0.8,1.5,1.4,3.2,1.8,4.9c0.1,0.5,0.2,0.5,0.7,0.3
		l2.2-0.7c0.5-0.2,0.6-0.3,0.5-0.7c-0.5-1.7-1.2-3.3-2-4.9c-0.2-0.3-0.3-0.4-0.8-0.2L73.1,15402.6z M125.1,15403.1
		c0-4,0.1-6,0.1-6.2c0-0.4,0-0.5-0.4-0.5c-0.3,0-1.6,0.1-5.2,0.1h-17.9c-3.6,0-5-0.1-5.2-0.1c-0.4,0-0.5,0-0.5,0.5
		c0,0.2,0.1,2.3,0.1,6.2v6.2c0,9.2-1.1,13.7-3.9,17.3c1,0.5,1.9,1.1,2.7,1.9c0.4,0.4,0.6,0.6,0.8,0.6s0.4-0.2,0.7-0.8
		c1.9-3.2,3-6.8,3.3-10.5h8.7v4.5c0,3.7-0.1,5.4-0.1,5.6c0,0.4,0,0.4,0.4,0.4h3.3c0.4,0,0.4,0,0.4-0.4c0-0.2-0.1-1.9-0.1-5.6v-4.5
		h8.9v6.3c0,0.9-0.3,1.3-1.2,1.3c-1.3,0-2,0-3.5-0.2c0.5,0.9,0.9,1.9,1.1,2.9c0.3,1.1,0.2,1.1,1.4,1.1c3.2,0,4.3-0.3,5-1
		c0.9-0.8,1.4-1.9,1.3-3.1c0-1.6-0.1-3.5-0.1-5.2L125.1,15403.1z M112.3,15414.3v-5.4h8.9v5.4H112.3z M121.2,15400.1v5.3h-8.9v-5.3
		H121.2z M99.9,15414.3c0.1-1.5,0.1-3.1,0.1-4.9v-0.4h8.3v5.4H99.9z M100.1,15405.4v-5.3h8.3v5.3H100.1z M148.4,15418.2
		c-1.8-0.2-2.7-0.2-3.6-0.2c-4.6,0-7.6,2.3-7.6,5.4c0,3.2,2.8,5.3,7.8,5.3c5.2,0,7.7-1.7,7.7-5.8c2.7,1.1,5.3,2.5,7.6,4.3
		c0.1,0.1,0.3,0.2,0.4,0.2c0.2,0,0.4-0.1,0.5-0.3c0.7-0.9,1.3-1.8,1.7-2.8c0.1-0.5,0.1-0.6-0.3-0.9c-3.1-2.1-6.5-3.6-10.1-4.6
		c-0.1-1.7-0.2-3.6-0.3-5.4c2.5-0.2,5-0.5,7.4-0.9c0.4,0,0.6-0.2,0.6-0.5c0-1.1-0.1-2.4-0.1-3.1c0-0.3-0.2-0.4-0.6-0.3
		c-2.7,0.4-4.6,0.8-7.4,1c0-1.4,0-2.8,0-4.3c2.9-0.2,5.9-0.5,8.8-1c0.3,0,0.4-0.1,0.4-0.6c0-0.9-0.1-1.9-0.2-2.8
		c0-0.5-0.2-0.6-0.6-0.5c-2.7,0.6-5.5,0.9-8.3,1.1c0-1.1,0-1.7,0.1-2.4c0.1-0.6,0.3-1.3,0.6-1.8c0.2-0.4,0.1-0.8-0.3-1.1
		c-0.1,0-0.1-0.1-0.2-0.1c-1.6-0.4-3.2-0.6-4.8-0.7c0.3,0.8,0.4,1.7,0.5,2.5c0,1.3,0.1,2.3,0.1,3.7c-3.3,0.1-6.6-0.1-10-0.4
		c0.1,1.6,0.2,2.5,0.3,3.4c0,0.4,0.2,0.5,0.6,0.5c3,0.3,6.1,0.3,9.1,0.2c0,1.4,0,2.9,0.1,4.4c-2.9,0.1-5.7,0-8.6-0.3
		c0,1.1,0.1,2.2,0.2,3.2c0,0.5,0.2,0.6,0.6,0.6c2.6,0.2,5.2,0.3,7.8,0.2C148.3,15415,148.4,15416.5,148.4,15418.2z M148.5,15421.8
		c0.1,0.7-0.1,1.5-0.4,2.1c-1,0.8-2.2,1.2-3.5,1.1c-2.6,0-3.8-0.7-3.8-1.7c0-1.2,1.3-2,4.1-2
		C146.2,15421.4,147.4,15421.5,148.5,15421.8z M192.2,15403.8c-4.6,3-7.3,6.7-7.3,12c0,7.9,7.3,11.7,14,11.7c0.5,0,0.6-0.2,0.7-0.8
		c0.3-1.1,0.4-2.2,0.4-3.3c0-0.4-0.2-0.6-0.8-0.6c-6.6-0.4-10.1-3.1-10.1-8c0-4.6,3.2-9,9.7-11.2c1.5-0.5,3.1-0.8,4.6-0.8
		c0.5,0,0.7-0.1,0.7-0.6c-0.1-1.1-0.2-2.2-0.4-3.3c0-0.3-0.2-0.5-0.8-0.4c-9.8,1.3-18.2,2.5-22.8,3.2c-2,0.3-4,0.5-6,0.6
		c0.4,1.4,0.8,2.8,1.4,4.1c0.1,0.3,0.4,0.5,0.7,0.6c0.3,0,0.6-0.1,0.8-0.3c0.6-0.2,0.9-0.3,2.4-0.6
		C183.5,15405.4,187.6,15404.6,192.2,15403.8L192.2,15403.8z M197.7,15409.3c1.5,1.3,2.8,2.7,3.8,4.4c0.1,0.2,0.3,0.3,0.5,0.2
		c0,0,0.1,0,0.1-0.1l1.6-1.2c0.2-0.1,0.3-0.3,0.2-0.5c0,0,0-0.1-0.1-0.1c-1-1.5-2.2-2.9-3.6-4.1c-0.2-0.2-0.4-0.2-0.6-0.1
		L197.7,15409.3z M201.2,15406.8c1.5,1.2,2.8,2.7,3.8,4.4c0.1,0.2,0.3,0.3,0.5,0.2c0.1,0,0.1-0.1,0.1-0.1l1.5-1.2
		c0.2-0.1,0.3-0.4,0.2-0.6c0,0,0-0.1-0.1-0.1c-1-1.5-2.2-2.8-3.6-3.9c-0.2-0.2-0.3-0.2-0.6-0.1L201.2,15406.8z M232.4,15403.3
		c4.8,0.1,8.6,4,8.5,8.7c0,0,0,0,0,0.1c0,7.2-5.1,9.8-11.5,11.4c1.1,0.6,2,1.4,2.7,2.4c0.5,0.8,0.8,0.9,1.6,0.7
		c7.7-2.3,11.7-6.8,11.7-13.8c0-7.6-5.4-13.2-14.5-13.2c-4.6-0.2-9.1,1.6-12.3,4.9c-2.7,2.6-4.2,6.1-4.3,9.9c0,6.2,3.4,9.8,6.7,9.8
		c2.9,0,4.8-1.5,6.5-4.4c2.3-4,3.9-9.9,4.8-16.4L232.4,15403.3z M227.8,15403.5c-0.6,4.7-1.9,9.3-4,13.6c-1,1.8-1.9,2.3-2.9,2.3
		c-1.2,0-2.6-1.9-2.6-5.4c0.1-2.6,1.2-5.1,3-7C223,15405.1,225.3,15403.9,227.8,15403.5L227.8,15403.5z M277.5,15404.6
		c-0.4,0.3-0.5,0.3-0.2,0.6c0.5,0.5,1.1,1,1.6,1.6c-2.3,0.2-4.9,0.5-7.6,0.7c0.8-1.6,1.6-3.3,2.2-5h7c3.7,0,5,0.1,5.2,0.1
		c0.4,0,0.4,0,0.4-0.4v-2.7c0-0.4,0-0.4-0.4-0.4c-0.2,0-1.5,0.1-5.2,0.1h-4.9v-0.7c-0.1-0.7,0-1.4,0.2-2.1c0.1-0.2,0.2-0.5,0.2-0.8
		c0-0.2-0.2-0.4-0.6-0.4c-1.3-0.2-2.6-0.2-4-0.3c0.2,1.2,0.3,2.4,0.2,3.6v0.6h-3.4c-3.7,0-4.9-0.1-5.2-0.1c-0.4,0-0.4,0-0.4,0.4v2.7
		c0,0.4,0,0.4,0.4,0.4c0.3,0,1.5-0.1,5.2-0.1h1.1c-0.6,1.8-1.4,3.6-2.3,5.3c-0.4,0-0.8,0-1.2,0c-1.2,0-2.2,0.1-3.8,0
		c0.2,1.2,0.4,2.3,0.7,3.5c0.1,0.3,0.3,0.6,0.5,0.6c0.2,0,0.5-0.1,0.7-0.2c0.5-0.2,1.1-0.3,1.6-0.3c4.8-0.4,10.5-1,15.8-1.6
		c0.6,0.8,1.2,1.7,1.7,2.5c0.1,0.2,0.2,0.3,0.3,0.3c0.2,0,0.4-0.1,0.5-0.3l2.1-1.7c0.5-0.3,0.5-0.3,0.2-0.7
		c-1.8-2.4-3.8-4.7-6.1-6.7c-0.3-0.3-0.5-0.3-0.8-0.1L277.5,15404.6z M281.5,15417.1c0-2.2,0-2.5,0.2-2.9c0.1-0.2,0.2-0.5,0.2-0.8
		c0-0.2-0.2-0.4-0.6-0.5c-1.2-0.2-2.5-0.2-3.6-0.3c0.2,1.3,0.2,2.6,0.2,3.9v9.3c0,1.4,0.4,2.2,1.1,2.5c1,0.5,2.1,0.7,3.2,0.6
		c2.4,0,3.3-0.5,4-1.1c0.6-0.7,1-1.7,1.1-4.5c0-1,0-1.1-0.9-1.4c-0.8-0.2-1.5-0.6-2.1-1c0,2.7-0.2,3.5-0.5,4c-0.2,0.4-0.5,0.5-1,0.5
		c-0.3,0-0.7,0-1-0.2c-0.2-0.2-0.3-0.4-0.3-0.9V15417.1z M258.7,15426.9c0.9,0.5,1.6,1.1,2.3,1.8c0.4,0.5,0.6,0.6,0.9,0.6
		c0.2,0,0.5-0.2,0.9-0.5c3.7-2.8,5.4-6.3,5.4-12.4c0-0.6,0-1.2,0.2-1.9c0.1-0.3,0.2-0.5,0.2-0.8c0-0.3-0.3-0.4-0.7-0.5
		c-1.2-0.1-2.3-0.2-3.5-0.3c0.1,1,0.2,2,0.2,3C264.5,15421.6,263,15424.4,258.7,15426.9z M271.1,15423.2c0,3-0.1,4.2-0.1,4.4
		c0,0.4,0,0.4,0.4,0.4h2.9c0.4,0,0.4,0,0.4-0.4c0-0.2-0.1-1.5-0.1-4.4v-5.1c0-1.1,0-2.3,0.2-3.4c0.1-0.3,0.2-0.6,0.2-0.9
		c0-0.2-0.2-0.4-0.6-0.4c-1.2-0.2-2.5-0.3-3.7-0.3c0.2,1.7,0.3,3.4,0.3,5.1L271.1,15423.2z M252.6,15426.7c0.9,0.8,1.9,1.5,2.9,2.1
		c0.2,0.1,0.5,0.2,0.7,0.2c0.3,0,0.4-0.2,0.5-0.5c0.2-0.5,0.4-1,0.6-1.5c1.4-2.7,2.6-5.5,3.6-8.4c0.1-0.3,0.2-0.6,0.2-0.9
		c0-0.3-0.2-0.5-0.8-1c-0.7-0.6-1.6-1.4-2.1-1.9c-1,3-2.3,6-3.7,8.8C254,15424.8,253.4,15425.8,252.6,15426.7z M253.8,15397.7
		c-0.2,0.2-0.3,0.3-0.3,0.5c0,0.1,0.1,0.2,0.3,0.3c1.9,1.2,3.7,2.7,5.4,4.3c0.3,0.2,0.4,0.3,0.7-0.1l1.7-2.4
		c0.2-0.2,0.2-0.3,0.2-0.5c0-0.1-0.1-0.3-0.2-0.3c-1.6-1.5-3.4-2.8-5.2-4c-0.3-0.2-0.5-0.2-0.8,0.2L253.8,15397.7z M252.5,15407.2
		c-0.1,0.1-0.2,0.3-0.3,0.5c0,0.1,0.1,0.2,0.3,0.3c1.9,1.2,3.7,2.6,5.3,4.1c0.2,0.2,0.3,0.2,0.3,0.2c0.1,0,0.2-0.1,0.3-0.3l1.7-2.4
		c0.2-0.2,0.2-0.3,0.2-0.5c0-0.1-0.1-0.2-0.2-0.3c-1.7-1.5-3.5-2.8-5.4-3.9c-0.3-0.2-0.5-0.2-0.8,0.2L252.5,15407.2z M301.1,15404.7
		c-1.9,0.6-4.1,1.1-5.4,1.4c-0.9,0.2-1.8,0.3-2.8,0.3c0.4,1.2,0.9,2.4,1.5,3.5c0.1,0.3,0.4,0.6,0.8,0.6c0.4,0,0.8-0.4,1.1-0.5
		c1.5-0.6,3-1.1,4.6-1.5c0,0.9,0,1.6,0,2.6c-2.3,3.3-4.3,6-7.4,10c-0.2,0.2-0.3,0.4-0.3,0.6c0,0.2,0.1,0.3,0.2,0.4
		c0.7,0.8,1.5,1.5,2.4,2.1c0.1,0.1,0.3,0.2,0.5,0.2c0.2,0,0.3-0.1,0.4-0.4c1.4-2.2,2.9-4.5,4.4-6.8c-0.1,3.4-0.1,7.4-0.1,10.9
		c0,0.5,0.2,0.6,0.5,0.6c1,0,2,0,3-0.2c0.3,0,0.5-0.1,0.5-0.4c0,0,0-0.1,0-0.1c0-4.1-0.1-9.6-0.2-14.4c2-2.3,3.8-4.1,5.3-5.6
		c1.9-1.7,3.2-2.5,4.3-2.5c0.8,0,1.2,0.8,1.2,2.5c0,1.6-0.1,2.9-0.3,6.2c-0.2,3.2-0.3,5.4-0.3,6.4c0,4,1.6,5.8,4.9,5.8
		s5.7-2.1,7.3-4.4c0.2-0.2,0.2-0.4,0.3-0.6c0-0.3-0.2-0.6-0.4-0.9c-0.6-0.9-1.1-1.8-1.4-2.8c-0.5,1.2-1.3,2.3-2.3,3.2
		c-0.8,0.7-1.8,1.2-2.8,1.4c-0.9,0-1.4-0.3-1.4-2.2c0-1.2,0.2-2.9,0.4-6.4c0.3-3.5,0.3-5.8,0.3-6.9c0-3.2-1.7-5.1-4.6-5.1
		c-1.8,0-3.9,0.9-6.9,3.7c-1.5,1.4-2.3,2.3-3.5,3.7v-0.2c0.6-1.3,1.3-2.4,2-3.6c0.1-0.1,0.2-0.3,0.2-0.4c0-0.2-0.1-0.4-0.3-0.5
		c-0.5-0.3-0.9-0.6-1.4-0.8c0.1-1.7,0.1-2.5,0.2-3.8c0-0.6,0.1-1.3,0.3-1.9c0.1-0.2,0.2-0.5,0.3-0.7c0-0.4-0.2-0.6-0.8-0.8
		c-1.4-0.4-2.9-0.6-4.3-0.7c0.3,1.2,0.4,2.4,0.4,3.7L301.1,15404.7z"/>
	<path id="パス_1340" class="st0" d="M162.9,15357.9v-15.7h6.7v2.1h-4.4v4.8h3.9v2.1h-3.9v6.7H162.9z M172.2,15357.9v-15.7h2.2
		v13.4h4.4v2.2H172.2z M181.3,15345.9c0-0.6,0.1-1.1,0.3-1.7c0.2-0.5,0.5-0.9,0.9-1.2c0.4-0.3,0.8-0.5,1.2-0.7
		c0.4-0.2,0.9-0.2,1.4-0.2c0.5,0,0.9,0.1,1.4,0.2c0.4,0.2,0.9,0.4,1.2,0.7c0.4,0.3,0.7,0.8,0.9,1.2c0.2,0.5,0.3,1.1,0.3,1.7v8.3
		c0,0.6-0.1,1.2-0.3,1.7c-0.2,0.4-0.5,0.8-0.9,1.2c-0.4,0.3-0.8,0.6-1.2,0.7c-0.4,0.2-0.9,0.2-1.4,0.2c-0.5,0-0.9-0.1-1.4-0.2
		c-0.4-0.2-0.9-0.4-1.2-0.7c-0.4-0.3-0.7-0.7-0.9-1.2c-0.2-0.5-0.3-1.1-0.3-1.7V15345.9z M183.5,15354.2c0,0.4,0.1,0.9,0.5,1.2
		c0.3,0.3,0.7,0.4,1.1,0.4c0.4,0,0.8-0.1,1.1-0.4c0.3-0.3,0.5-0.8,0.5-1.2v-8.3c0-0.4-0.1-0.9-0.5-1.2c-0.3-0.3-0.7-0.4-1.1-0.4
		c-0.4,0-0.8,0.1-1.1,0.4c-0.3,0.3-0.5,0.8-0.5,1.2V15354.2z M203.3,15342.2l-2.3,15.7h-2.1l-1.7-10.2h0l-1.7,10.2h-2.1l-2.3-15.7
		h2.4l1.1,9.9h0l1.8-9.9h1.7l1.8,10.2h0l1.1-10.2H203.3z"/>
</g>
</svg>
