<svg xmlns="http://www.w3.org/2000/svg" width="289.04" height="93.331" viewBox="0 0 289.04 93.331">
  <g id="グループ_921" data-name="グループ 921" transform="translate(-533.748 -10918.494)">
    <path id="パス_1174" data-name="パス 1174" d="M-124.6-10.8a23.926,23.926,0,0,1-9.76,8.16A11.224,11.224,0,0,1-132.52-.4c.4.64.56.92.8.92.2,0,.44-.16.84-.44a25.035,25.035,0,0,0,8.36-8.12c-.04,4.12-.2,9.64-.2,10.68,0,.4.04.44.44.44h3.16c.44,0,.48-.04.48-.44,0-1.04-.16-6.64-.2-10.72a24.248,24.248,0,0,0,8.2,8.16,2.882,2.882,0,0,0,.96.48c.28,0,.4-.28.68-.92a9.23,9.23,0,0,1,1.68-2.76,25.438,25.438,0,0,1-9.72-7.68h2.8c3.84,0,5.16.08,5.4.08.44,0,.48-.04.48-.44V-14c0-.4-.04-.44-.48-.44-.24,0-1.56.08-5.4.08h-4.48a6.683,6.683,0,0,1,.16-1.8,4.109,4.109,0,0,0,.28-1c0-.2-.2-.4-.6-.44-1.36-.16-2.52-.24-4-.28.12,1.4.2,2.52.24,3.52h-3.16c-3.84,0-5.16-.08-5.4-.08-.4,0-.44.04-.44.44v2.84c0,.4.04.44.44.44.24,0,1.56-.08,5.4-.08Zm-11-1.28,1.92-.84c1.12-.52,1.16-.44,1.16-1.76a19.415,19.415,0,0,1,.2-2.48c-1.08.44-2.2.92-3.28,1.32v-6.2c2.08.04,2.76.08,3,.08.44,0,.48-.04.48-.44v-2.88c0-.44-.04-.48-.48-.48-.24,0-.92.08-3,.08v-2.16c0-2.72.04-3.56.24-4.04a2.075,2.075,0,0,0,.28-.88c0-.2-.24-.36-.64-.4-1.36-.16-2.6-.24-4.08-.28a38.574,38.574,0,0,1,.28,5.68v2.08h-.44c-2.6,0-3.4-.08-3.64-.08-.36,0-.4.04-.4.48v2.88c0,.4.04.44.4.44.24,0,1.04-.08,3.64-.08h.44v7.56a10.17,10.17,0,0,1-1.24.36,31.879,31.879,0,0,1-3.68.76,29.484,29.484,0,0,0,.64,3.84q.12.48.48.48a1.134,1.134,0,0,0,.64-.24,4.816,4.816,0,0,1,1.44-.68c.52-.16,1.12-.36,1.72-.6v7.88c0,1.16-.28,1.52-1.24,1.52a21.316,21.316,0,0,1-2.84-.16,9.476,9.476,0,0,1,1,2.92c.28,1.2.28,1.2,1.52,1.2,2.52,0,3.52-.2,4.4-.88.88-.72,1.2-1.76,1.2-4,0-1.96-.12-4.16-.12-7.96Zm23-21.04a15.959,15.959,0,0,1-3.24,1.16A80.082,80.082,0,0,1-131.8-29.8a10.645,10.645,0,0,1,1.08,2.44c.36,1.2.36,1.24,1.68,1.12A94.43,94.43,0,0,0-112.24-29a12.1,12.1,0,0,1,2.04-.4.566.566,0,0,0,.64-.52,1.132,1.132,0,0,0-.36-.8A20.47,20.47,0,0,0-112.6-33.12Zm-4.64,14.8a14.529,14.529,0,0,1,2.08.92,2.4,2.4,0,0,0,1,.44c.24,0,.4-.24.8-.84a42.69,42.69,0,0,0,2.88-5.28,4.087,4.087,0,0,1,.92-1.32c.28-.24.36-.28.36-.56,0-.24-.24-.4-.68-.6a25,25,0,0,0-3.6-1.24,14.485,14.485,0,0,1-.52,2.24A29.184,29.184,0,0,1-117.24-18.32Zm-13-5.48c-.48.2-.56.32-.32.68A24.168,24.168,0,0,1-128.24-18c.12.4.24.4.72.16l2.32-.96c.6-.24.6-.36.44-.76a23.956,23.956,0,0,0-2.48-4.96c-.24-.4-.36-.36-.8-.16Zm7.28-1.44c-.52.16-.56.24-.4.6a25.11,25.11,0,0,1,1.92,5.12c.12.48.24.48.76.32l2.36-.76c.56-.2.64-.28.48-.72a27.835,27.835,0,0,0-2.08-5.16c-.24-.36-.28-.4-.84-.2Zm54.8.52c0-4.16.08-6.32.08-6.56,0-.44-.04-.48-.44-.48-.28,0-1.64.08-5.52.08h-18.8c-3.84,0-5.24-.08-5.48-.08-.44,0-.48.04-.48.48,0,.24.08,2.4.08,6.56v6.56c0,9.64-1.2,14.4-4.12,18.16A10.491,10.491,0,0,1-100,2.04c.44.44.64.64.84.64s.4-.24.72-.8A25.15,25.15,0,0,0-94.96-9.2h9.12v4.76c0,3.88-.08,5.64-.08,5.92,0,.4.04.44.44.44h3.44c.4,0,.44-.04.44-.44,0-.24-.08-2.04-.08-5.92V-9.2h9.4v6.64c0,.92-.36,1.32-1.28,1.32-1.32,0-2.08-.04-3.72-.16a10.3,10.3,0,0,1,1.12,3.04c.28,1.2.24,1.16,1.48,1.16,3.32,0,4.52-.36,5.28-1.04a3.826,3.826,0,0,0,1.32-3.24c0-1.64-.08-3.68-.08-5.52Zm-13.52,11.8v-5.64h9.4v5.64Zm9.4-14.92v5.56h-9.4v-5.56Zm-22.4,14.92c.08-1.56.12-3.28.12-5.2v-.44h8.72v5.64Zm.12-9.36v-5.56h8.72v5.56ZM-43.64-8.8c-1.88-.16-2.84-.16-3.84-.16-4.84,0-8,2.44-8,5.68,0,3.32,2.96,5.6,8.16,5.6,5.48,0,8.08-1.76,8.12-6.08A31.739,31.739,0,0,1-31.24.8a.613.613,0,0,0,.44.2.588.588,0,0,0,.52-.32,12.033,12.033,0,0,0,1.76-2.96c.12-.48.12-.6-.28-.96A35.664,35.664,0,0,0-39.4-8.08c-.12-1.84-.2-3.8-.28-5.64a72.447,72.447,0,0,0,7.84-.96c.44-.04.6-.16.6-.56,0-1.2-.08-2.52-.12-3.28-.04-.36-.16-.44-.64-.32-2.88.44-4.8.84-7.84,1.04,0-1.44-.04-2.92-.04-4.52a81.828,81.828,0,0,0,9.24-1.04c.32-.04.44-.12.44-.64a21.371,21.371,0,0,0-.2-2.92c-.04-.48-.2-.6-.68-.48a67.308,67.308,0,0,1-8.76,1.2c.04-1.2.04-1.76.08-2.56a5.141,5.141,0,0,1,.6-1.92.815.815,0,0,0-.44-1.2,23.177,23.177,0,0,0-5.04-.72,11.506,11.506,0,0,1,.48,2.68c.04,1.36.08,2.4.08,3.88a91.452,91.452,0,0,1-10.48-.4c.08,1.64.16,2.6.28,3.6.04.4.24.56.68.56a65.827,65.827,0,0,0,9.56.2c.04,1.52.04,3.08.08,4.6a56.28,56.28,0,0,1-9-.32,23.872,23.872,0,0,0,.24,3.4c.04.52.2.68.64.68a70.827,70.827,0,0,0,8.24.16C-43.8-12.2-43.72-10.56-43.64-8.8Zm.08,3.8A3.839,3.839,0,0,1-44-2.76a4.94,4.94,0,0,1-3.64,1.2c-2.76,0-3.96-.76-3.96-1.8,0-1.28,1.4-2.12,4.32-2.12A17.252,17.252,0,0,1-43.56-5Zm46-18.92c-4.84,3.16-7.68,7-7.68,12.68,0,8.32,7.72,12.36,14.76,12.36.48,0,.64-.24.76-.84a14.229,14.229,0,0,0,.44-3.44c0-.44-.24-.6-.88-.6C2.88-4.2-.8-7-.8-12.16c0-4.8,3.4-9.48,10.2-11.8a17.848,17.848,0,0,1,4.88-.88c.52,0,.76-.12.76-.6a22.852,22.852,0,0,0-.44-3.52c-.04-.28-.24-.52-.84-.44C3.44-28.04-5.36-26.72-10.28-26a55.181,55.181,0,0,1-6.36.68A27.874,27.874,0,0,0-15.16-21a.935.935,0,0,0,.76.6,2.335,2.335,0,0,0,.88-.32c.6-.2,1-.28,2.52-.64,4.28-.88,8.56-1.72,13.44-2.64Zm5.8,5.72a19.847,19.847,0,0,1,4.04,4.64.418.418,0,0,0,.68.12l1.68-1.24a.4.4,0,0,0,.12-.64,18.41,18.41,0,0,0-3.8-4.28c-.24-.2-.4-.24-.6-.08Zm3.68-2.64a18.923,18.923,0,0,1,4,4.6.41.41,0,0,0,.68.12l1.6-1.24a.462.462,0,0,0,.12-.72,16.7,16.7,0,0,0-3.8-4.12c-.24-.2-.36-.24-.6-.08Zm32.8-3.68a9.086,9.086,0,0,1,8.96,9.28c0,7.56-5.32,10.36-12.08,11.96A8.484,8.484,0,0,1,44.4-.76c.52.8.88.96,1.72.72C54.24-2.48,58.44-7.16,58.44-14.6c0-7.96-5.64-13.88-15.24-13.88a17.5,17.5,0,0,0-13,5.12,14.737,14.737,0,0,0-4.52,10.4c0,6.52,3.56,10.28,7.08,10.28,3,0,5.08-1.6,6.8-4.6,2.4-4.2,4.08-10.44,5-17.24Zm-4.8.24A45.7,45.7,0,0,1,35.68-9.96c-1.08,1.92-1.96,2.44-3,2.44-1.24,0-2.72-2.04-2.72-5.72a11.518,11.518,0,0,1,3.12-7.4A12.047,12.047,0,0,1,39.92-24.28Zm52.24,1.16c-.44.32-.48.36-.16.68a21.758,21.758,0,0,1,1.64,1.68c-2.4.24-5.2.48-8,.72A52.95,52.95,0,0,0,88-25.28h7.4c3.92,0,5.28.08,5.52.08.4,0,.44-.04.44-.44v-2.88c0-.4-.04-.44-.44-.44-.24,0-1.6.08-5.52.08H90.24v-.76a5.432,5.432,0,0,1,.2-2.2,2.037,2.037,0,0,0,.24-.84c0-.2-.24-.4-.64-.44-1.4-.16-2.76-.24-4.24-.28a21.075,21.075,0,0,1,.24,3.84v.68H82.48c-3.88,0-5.2-.08-5.48-.08-.4,0-.44.04-.44.44v2.88c0,.4.04.44.44.44.28,0,1.6-.08,5.48-.08H83.6a40.9,40.9,0,0,1-2.4,5.56c-.44,0-.84.04-1.24.04-1.24.04-2.28.08-3.96,0A31.408,31.408,0,0,0,76.76-16c.12.36.32.6.52.6a1.63,1.63,0,0,0,.72-.2,4.854,4.854,0,0,1,1.72-.36c5.08-.4,11.04-1.04,16.6-1.72.68.88,1.28,1.76,1.84,2.64.12.2.24.28.32.28a.938.938,0,0,0,.52-.28l2.24-1.76c.48-.32.48-.36.24-.72a42.933,42.933,0,0,0-6.4-7.04c-.36-.32-.48-.36-.88-.08Zm4.32,13.2c0-2.28.04-2.6.2-3.04a2.225,2.225,0,0,0,.24-.84c0-.24-.2-.4-.68-.48-1.24-.16-2.64-.24-3.76-.28a28.066,28.066,0,0,1,.2,4.08V-.72c0,1.48.4,2.28,1.12,2.68.72.44,1.48.6,3.32.6,2.56,0,3.52-.48,4.24-1.2.68-.72,1.08-1.8,1.2-4.76.04-1.04.04-1.12-.96-1.44a8.216,8.216,0,0,1-2.24-1.04c-.04,2.84-.16,3.64-.48,4.16-.24.4-.48.48-1.04.48a2.228,2.228,0,0,1-1.08-.16c-.24-.16-.28-.4-.28-.96ZM72.4.32A9.561,9.561,0,0,1,74.8,2.2c.44.48.64.68.92.68.24,0,.52-.2,1-.56,3.92-3,5.68-6.68,5.72-13.04a9.859,9.859,0,0,1,.16-1.96,3.178,3.178,0,0,0,.24-.88c0-.28-.28-.4-.76-.48a36.13,36.13,0,0,0-3.68-.28,23.249,23.249,0,0,1,.2,3.2C78.56-5.24,76.92-2.28,72.4.32ZM85.44-3.56c0,3.12-.08,4.4-.08,4.68,0,.4.04.44.44.44h3.04c.4,0,.44-.04.44-.44,0-.24-.08-1.56-.08-4.68v-5.4a18.862,18.862,0,0,1,.2-3.6,4.81,4.81,0,0,0,.24-.96c0-.24-.2-.4-.6-.44a31.074,31.074,0,0,0-3.88-.32,39.084,39.084,0,0,1,.28,5.36ZM66,.16a28.448,28.448,0,0,0,3.08,2.2,1.363,1.363,0,0,0,.76.24c.28,0,.4-.2.48-.52A7.281,7.281,0,0,1,71,.52a77.151,77.151,0,0,0,3.8-8.84,2.811,2.811,0,0,0,.24-.92c0-.32-.24-.52-.88-1-.76-.64-1.64-1.48-2.2-2.04A76.983,76.983,0,0,1,68.08-3,17.271,17.271,0,0,1,66,.16ZM67.24-30.4c-.2.24-.28.36-.28.48,0,.08.08.16.28.28a32.507,32.507,0,0,1,5.64,4.52c.32.24.4.28.72-.12l1.8-2.52c.16-.24.24-.36.24-.48a.484.484,0,0,0-.24-.36,33.842,33.842,0,0,0-5.52-4.16c-.36-.2-.48-.2-.8.2ZM65.88-20.36a1.028,1.028,0,0,0-.28.48c0,.08.12.16.32.28a30.587,30.587,0,0,1,5.6,4.36q.24.24.36.24c.12,0,.2-.08.32-.28l1.84-2.56c.16-.24.24-.36.24-.48,0-.08-.08-.16-.24-.32a31.388,31.388,0,0,0-5.72-4.08c-.36-.2-.48-.2-.8.2ZM117.04-23c-2.04.64-4.28,1.2-5.64,1.52a18.2,18.2,0,0,1-2.92.36,21.107,21.107,0,0,0,1.56,3.68.966.966,0,0,0,.8.64c.4,0,.8-.4,1.16-.56a37.488,37.488,0,0,1,4.8-1.6c-.04.96-.04,1.72-.04,2.72-2.44,3.44-4.52,6.28-7.84,10.52a1.043,1.043,0,0,0-.36.68.615.615,0,0,0,.24.44,12.828,12.828,0,0,0,2.48,2.24,1.109,1.109,0,0,0,.48.2c.16,0,.28-.12.44-.4,1.48-2.28,3.08-4.76,4.64-7.2-.12,3.6-.12,7.8-.12,11.44,0,.48.16.68.56.68a30.094,30.094,0,0,0,3.12-.16.49.49,0,0,0,.56-.56c0-4.36-.12-10.12-.16-15.16,2.08-2.4,3.96-4.28,5.6-5.88,1.96-1.76,3.32-2.6,4.48-2.6.8,0,1.24.88,1.24,2.64,0,1.72-.08,3.04-.28,6.56-.2,3.4-.32,5.64-.32,6.72,0,4.16,1.68,6.12,5.12,6.12s6-2.24,7.68-4.6a1.17,1.17,0,0,0,.28-.68,1.5,1.5,0,0,0-.44-.92,9.952,9.952,0,0,1-1.48-3,10.5,10.5,0,0,1-2.4,3.36,5.213,5.213,0,0,1-2.96,1.44c-1,0-1.48-.28-1.48-2.28,0-1.24.2-3.04.4-6.72.28-3.68.32-6.12.32-7.28,0-3.32-1.8-5.32-4.8-5.32-1.88,0-4.08.92-7.24,3.92-1.56,1.52-2.44,2.44-3.72,3.88v-.2c.64-1.32,1.32-2.56,2.08-3.8a.843.843,0,0,0,.2-.44.7.7,0,0,0-.36-.56,12.8,12.8,0,0,0-1.52-.88c.08-1.84.12-2.68.2-4a4.853,4.853,0,0,1,.36-1.96,1.618,1.618,0,0,0,.28-.76c0-.4-.2-.64-.84-.8a22.516,22.516,0,0,0-4.56-.76,14.647,14.647,0,0,1,.4,3.88Z" transform="translate(678.188 11008.745)" fill="#fff"/>
    <path id="パス_1173" data-name="パス 1173" d="M1.44,0V-21.36h9.12v2.88H4.5V-12H9.78v2.88H4.5V0Zm12.6,0V-21.36H17.1v18.3h6.06V0ZM26.46-16.32a5.457,5.457,0,0,1,.45-2.28,4.818,4.818,0,0,1,1.2-1.65,5.073,5.073,0,0,1,1.635-.96,5.4,5.4,0,0,1,1.845-.33,5.4,5.4,0,0,1,1.845.33,5.438,5.438,0,0,1,1.665.96,5.023,5.023,0,0,1,1.17,1.65,5.457,5.457,0,0,1,.45,2.28V-5.04a5.408,5.408,0,0,1-.45,2.31A4.766,4.766,0,0,1,35.1-1.14a5.144,5.144,0,0,1-1.665.99A5.4,5.4,0,0,1,31.59.18a5.4,5.4,0,0,1-1.845-.33,4.814,4.814,0,0,1-1.635-.99,4.58,4.58,0,0,1-1.2-1.59,5.408,5.408,0,0,1-.45-2.31ZM29.52-5.04A2.034,2.034,0,0,0,30.135-3.4a2.169,2.169,0,0,0,1.455.525A2.169,2.169,0,0,0,33.045-3.4,2.034,2.034,0,0,0,33.66-5.04V-16.32a2.034,2.034,0,0,0-.615-1.635,2.169,2.169,0,0,0-1.455-.525,2.169,2.169,0,0,0-1.455.525,2.034,2.034,0,0,0-.615,1.635ZM56.43-21.36,53.25,0H50.37L48.03-13.86h-.06L45.66,0H42.78L39.6-21.36h3.24L44.37-7.8h.06l2.4-13.56h2.34L51.66-7.47h.06l1.47-13.89Z" transform="translate(650.188 10940.034)" fill="#fff"/>
  </g>
</svg>
