<?xml version="1.0" encoding="utf-8"?>
<!-- Generator: Adobe Illustrator 24.2.0, SVG Export Plug-In . SVG Version: 6.00 Build 0)  -->
<svg version="1.1" id="レイヤー_1" xmlns="http://www.w3.org/2000/svg" xmlns:xlink="http://www.w3.org/1999/xlink" x="0px"
	 y="0px" viewBox="0 0 308 214" style="enable-background:new 0 0 308 214;" xml:space="preserve">
<style type="text/css">
	.st0{fill:#D10000;stroke:#D10000;stroke-width:0.5;}
</style>
<path id="パス_1332" class="st0" d="M13.5,41.6c0,0.6,0.1,0.7,0.6,0.7c0.3,0,2-0.1,7.1-0.1h0.7c-0.6,0.8-1.3,1.4-2.1,2
	c-2.7,2-7,3-13.1,3.5c0.7,0.9,1.3,2,1.8,3.1c0.4,1,0.6,1.4,1.2,1.4c0.4,0,0.8-0.1,1.3-0.2c5.1-0.8,9-2.1,11.9-4.2
	c2-1.4,3.7-3.3,4.8-5.5h9.1c-0.1,1.3-0.4,2.5-0.8,3.7c-0.3,0.8-1,1.1-2.4,1.1c-1.9,0-3.8-0.2-5.6-0.4c0.7,1.1,1.2,2.2,1.5,3.4
	c0.4,1.4,0.4,1.4,1.7,1.5c1,0.1,2.1,0.1,3.1,0.1c3.2,0,5-0.9,6-2.6c0.9-1.7,1.4-3.5,1.6-5.4c0.2-1.1,0.3-2.2,0.4-3.4
	c2.1,1,4.2,1.9,6.4,2.6c0.4,0.1,0.8,0.3,1.3,0.3c0.4,0,0.6-0.4,1.1-1.4c0.5-1.2,1.2-2.3,2-3.3c-5.6-1.2-9.6-2.5-12.8-4.5h3.8
	c5,0,6.5,0.1,6.9,0.1c0.5,0,0.6-0.1,0.6-0.6v-3.2c0-0.5-0.1-0.6-0.6-0.6c-0.4,0-2,0.1-6.9,0.1H25.3c0.3-0.4,0.7-0.7,1.1-0.9
	c0.4-0.2,0.7-0.5,0.7-0.8c0-0.4-0.3-0.5-0.9-0.7l-1.9-0.4h11.9c5.3,0,7.2,0.1,7.5,0.1c0.5,0,0.6-0.1,0.6-0.7c0-0.3-0.1-1.4-0.1-4.2
	v-4.7c0-2.8,0.1-3.9,0.1-4.2c0-0.5-0.1-0.6-0.6-0.6c-0.4,0-2.3,0.1-7.5,0.1H18.4c-5.3,0-7.2-0.1-7.6-0.1c-0.6,0-0.6,0.1-0.6,0.6
	c0,0.3,0.1,1.4,0.1,4.2v4.7c0,2.8-0.1,3.9-0.1,4.2c0,0.6,0.1,0.7,0.6,0.7c0.4,0,2.3-0.1,7.6-0.1h2.8c-0.5,1-1.2,2-2,2.9h-9
	c-4.9,0-6.5-0.1-6.9-0.1c-0.5,0-0.5,0.1-0.5,0.6v3.2c0,0.5,0.1,0.6,0.5,0.6c0.3,0,2-0.1,6.9-0.1h4.2c-3.1,2.1-7.2,3.9-12.9,5.5
	c0.9,0.8,1.7,1.7,2.3,2.8c0.6,1,0.8,1.4,1.3,1.4c0.4-0.1,0.9-0.2,1.3-0.4c2.4-1,4.8-2.1,7-3.4V41.6z M29,38.1
	c0.1-0.6,0.3-1.2,0.7-1.8c0.2-0.2,0.3-0.5,0.4-0.8c0-0.3-0.4-0.5-1-0.6c-1.5-0.1-3.1-0.3-4.9-0.4c0,1.2-0.1,2.4-0.4,3.6h-7.5
	c1.9-1.2,3.7-2.7,5.4-4.2h12.2c1.5,1.6,3.2,3,5,4.2H29z M38.7,23.5H15.8v-2.2h22.9L38.7,23.5z M38.7,16.1v2.1H15.8v-2.1H38.7z
	 M10.5,4.9c-4.9,0-6.6-0.1-6.9-0.1C3,4.7,2.9,4.8,2.9,5.3v3.3c0,0.6,0.1,0.7,0.6,0.7c0.3,0,2-0.1,6.9-0.1h6.1c0,0.9-0.1,1.5-0.1,1.8
	c0,0.5,0.1,0.6,0.7,0.6h4.1c0.6,0,0.7-0.1,0.7-0.6c0-0.2-0.1-0.8-0.1-1.8h10.7c0,0.9-0.1,1.5-0.1,1.8c0,0.5,0.1,0.6,0.7,0.6h4.1
	c0.6,0,0.7-0.1,0.7-0.6c0-0.2-0.1-0.8-0.1-1.8h6.4c4.9,0,6.6,0.1,6.9,0.1c0.5,0,0.6-0.1,0.6-0.7V5.3c0-0.5-0.1-0.6-0.6-0.6
	c-0.3,0-2,0.1-6.9,0.1h-6.4c0-0.6,0.1-1.2,0.3-1.8c0.1-0.3,0.2-0.5,0.3-0.8c0-0.3-0.3-0.4-0.8-0.5C36,1.6,34,1.5,32.2,1.4
	c0.2,1.1,0.2,2.3,0.3,3.4H21.7c0-0.6,0.1-1.2,0.3-1.8c0.1-0.3,0.2-0.5,0.3-0.8c0-0.3-0.3-0.4-0.8-0.5C20,1.6,18,1.5,16.3,1.4
	c0.2,1.1,0.2,2.3,0.3,3.4L10.5,4.9z M78.2,38.8C73.3,42.3,67.3,44.4,60,46c0.9,1,1.5,2.1,2,3.4c0.4,1,0.6,1.4,1.1,1.4
	c0.5-0.1,0.9-0.2,1.3-0.3c6.9-2,13.5-5.1,17.8-9.5c-0.1,6-0.2,9.1-0.2,10.3c0,0.6,0.1,0.6,0.6,0.6h4.7c0.5,0,0.6-0.1,0.6-0.6
	c0-1.2-0.2-4.3-0.2-10.4c4.5,4.2,10.7,7.5,18.2,9.7c0.4,0.1,0.8,0.2,1.3,0.3c0.5,0,0.7-0.4,1.1-1.5c0.5-1.4,1.2-2.6,2.1-3.7
	c-7.8-1.4-13.9-3.5-19-6.9h10.3c4.9,0,6.7,0.1,7,0.1c0.6,0,0.6-0.1,0.6-0.6v-3.5c0-0.5-0.1-0.5-0.6-0.5c-0.3,0-2,0.1-7,0.1H87.7V34
	c-0.1-0.8,0-1.6,0.2-2.4l0.2-0.3h10.6c5.4,0,7.3,0.1,7.6,0.1c0.6,0,0.6-0.1,0.6-0.7v-3.1c0-0.5-0.1-0.6-0.6-0.6
	c-0.3,0-2.2,0.1-7.6,0.1h-10v-2.9h6.9c5.3,0,7.1,0.1,7.4,0.1c0.6,0,0.7-0.1,0.7-0.6V21c0-0.5-0.1-0.6-0.7-0.6
	c-0.3,0-2.1,0.1-7.4,0.1h-6.9v-2.8h6.9c5.3,0,7.1,0.1,7.4,0.1c0.6,0,0.7-0.1,0.7-0.6v-2.8c0-0.5-0.1-0.6-0.7-0.6
	c-0.3,0-2.1,0.1-7.4,0.1h-6.9v-2.8h9.5c5.3,0,7.1,0.1,7.5,0.1c0.6,0,0.6-0.1,0.6-0.7V7.5c0-0.5-0.1-0.5-0.6-0.5
	c-0.4,0-2.1,0.1-7.5,0.1h-8.4c0.3-0.5,0.6-1,0.9-1.7c0.3-0.5,0.6-1,1-1.4c0.3-0.2,0.5-0.5,0.6-0.8c0-0.4-0.3-0.7-0.7-0.8
	c-1.7-0.5-3.5-0.9-5.2-1.2c-0.2,1-0.5,1.9-0.9,2.9c-0.4,1-0.9,2-1.5,2.9H73.9l0.9-1.4c0.4-0.6,0.9-1.2,1.5-1.8
	c0.3-0.2,0.5-0.5,0.5-0.8c0-0.3-0.2-0.6-0.7-0.8c-1.7-0.5-3.4-0.9-5.2-1.3c-0.4,1.2-0.9,2.3-1.5,3.4c-2.5,4.3-6,7.9-10.1,10.7
	c0.9,0.9,1.7,2,2.3,3.2c0.4,0.8,0.6,1.2,0.9,1.2c0.3,0,0.6-0.2,1.2-0.7c1.1-1,2.2-2,3.2-3.1v8.7c0,4.1-0.1,5.9-0.1,6.2
	c0,0.6,0.1,0.7,0.6,0.7c0.3,0,2.3-0.1,7.7-0.1H82c0.1,0.9,0.1,1.9,0.1,2.8v0.3H68.7c-5,0-6.7-0.1-7-0.1c-0.5,0-0.6,0.1-0.6,0.5v3.5
	c0,0.5,0.1,0.6,0.6,0.6c0.3,0,2-0.1,7-0.1L78.2,38.8z M72.4,27.1v-2.9h11.1v2.9H72.4z M72.4,14v-2.8h11.1V14H72.4z M72.4,20.5v-2.8
	h11.1v2.7L72.4,20.5z M159.9,23.3c5.3,0,7.2,0.1,7.5,0.1c0.6,0,0.6-0.1,0.6-0.7v-3.6c0-0.5-0.1-0.5-0.6-0.5c-0.3,0-2.2,0.1-7.5,0.1
	h-0.8c-0.1-2.9-0.1-6.1-0.1-9.5c0-3.7,0.1-4.7,0.3-5.4c0.2-0.4,0.3-0.8,0.3-1.2c0-0.3-0.4-0.5-0.9-0.6c-1.7-0.2-3.3-0.3-5-0.4
	c0.3,2.6,0.5,5.1,0.4,7.7c0.1,3.3,0.1,6.4,0.2,9.3h-4.8c0.4-1.2,0.8-2.3,1.1-3.3c0.1-0.3,0.3-0.7,0.6-0.9c0.2-0.2,0.3-0.4,0.3-0.7
	c0-0.3-0.1-0.5-0.6-0.6c-1.2-0.2-3-0.7-4.5-0.8c0,0.8-0.1,1.6-0.3,2.4c-0.3,1.3-0.6,2.6-1,3.9h-2c-0.4-1.9-1-3.9-1.6-5.7
	c-0.2-0.5-0.3-0.6-1-0.4l-2.6,0.7c-0.7,0.2-0.8,0.4-0.6,1c0.6,1.5,1.1,3,1.5,4.5c-2.2,0-3.4-0.1-3.6-0.1c-0.5,0-0.6,0-0.6,0.5v3.6
	c0,0.6,0.1,0.7,0.6,0.7c0.4,0,2.3-0.1,6.5-0.1h12.9c0.1,4.7,0.6,9.4,1.4,14c0.1,0.7,0.2,1.3,0.4,1.9c-1.4,1.7-3,3.3-4.7,4.7
	c-0.1-0.6-0.1-2.3-0.1-7.7v-5c0-3.4,0.1-4.9,0.1-5.2c0-0.5-0.1-0.6-0.6-0.6c-0.4,0-1.4,0.1-4.6,0.1h-4.6c-3.2,0-4.2-0.1-4.6-0.1
	c-0.6,0-0.6,0.1-0.6,0.6c0,0.4,0.1,1.9,0.1,6.5v4.8c0,7.4-0.1,8.7-0.1,9.1c0,0.5,0.1,0.6,0.6,0.6h3.4c0.6,0,0.6-0.1,0.6-0.6v-3.1
	h5.8v0.7c0,0.6,0.1,0.6,0.6,0.6h2.9c-1.5,1.2-3.2,2.3-4.9,3.3c0.8,0.7,1.5,1.6,2,2.5c0.5,1,0.8,1.4,1.3,1.4c0.4-0.1,0.9-0.3,1.2-0.6
	c2.8-1.9,5.5-4.1,7.8-6.7c1.8,4.3,4,6.1,6.1,6.1c2.4,0,4.3-2,5.2-8.2c0.3-1.6,0.2-1.8-0.7-2.2c-1.1-0.5-2.1-1.3-2.9-2.2
	c-0.6,5-1,6.5-1.7,6.5c-0.9,0-1.6-0.9-2.4-4.4c1.8-2.6,3.3-5.3,4.5-8.2c0.3-0.8,0.7-1.5,1.2-2.2c0.4-0.4,0.6-0.7,0.6-1
	s-0.2-0.6-0.7-1c-1.3-1-2.6-1.8-4.1-2.4c-0.2,1.4-0.6,2.8-1.1,4.2c-0.5,1.3-1.1,2.7-1.8,4c-0.4-2.9-0.7-6.3-0.8-10.2L159.9,23.3z
	 M141.1,39.4v-3.2h5.8v3.2H141.1z M147,29.5v2.9h-5.8v-2.9H147z M119.7,39.3c-0.9,0.1-1.7,0.3-2.8,0.3c0.3,1.8,0.7,3.8,1,5.3
	c0.2,0.6,0.4,0.7,0.7,0.7c0.3,0,0.6-0.2,0.9-0.4c0.6-0.3,1.2-0.5,1.8-0.7c2.2-0.7,4.8-1.5,7.5-2.4v3.2c0,3.7-0.1,5.4-0.1,5.8
	c0,0.5,0.1,0.6,0.6,0.6h3.7c0.6,0,0.7-0.1,0.7-0.6c0-0.3-0.1-2-0.1-5.8V8.7c0.7,0.1,1.1,0.1,1.3,0.1c0.5,0,0.6-0.1,0.6-0.6V4.3
	c0-0.5-0.1-0.6-0.6-0.6c-0.3,0-1.5,0.1-5.4,0.1h-5.9c-3.9,0-5.1-0.1-5.4-0.1c-0.6,0-0.6,0.1-0.6,0.6v3.8c0,0.5,0.1,0.6,0.6,0.6
	c0.2,0,0.6-0.1,1.7-0.1L119.7,39.3z M128.8,36.9c-1.5,0.5-3,0.9-4.4,1.3v-7.8h4.4V36.9z M124.4,25.7v-6.2h4.4v6.2H124.4z
	 M124.4,14.8V8.6h4.4v6.2H124.4z M146.9,11.7c3.7,0,4.8,0.1,5.1,0.1c0.6,0,0.6-0.1,0.6-0.6V7.8c0-0.5-0.1-0.6-0.6-0.6
	c-0.3,0-1.4,0.1-5.1,0.1h-0.3V5.6c-0.1-0.8,0-1.7,0.2-2.5c0.2-0.3,0.3-0.5,0.3-0.8c0-0.3-0.3-0.6-0.9-0.7c-1.8-0.2-3-0.2-5-0.3
	c0.3,1.4,0.4,2.8,0.3,4.2v1.8h-0.3c-3.4,0-4.5-0.1-4.8-0.1c-0.6,0-0.6,0.1-0.6,0.6v3.4c0,0.5,0.1,0.6,0.6,0.6c0.3,0,1.5-0.1,4.8-0.1
	L146.9,11.7z M161,6.4c-0.7,0.4-0.8,0.5-0.5,1c1.3,2.2,2.3,4.6,3.1,7c0.2,0.6,0.3,0.8,1.1,0.4l2.7-1.4c0.5-0.3,0.6-0.5,0.4-1
	c-0.8-2.4-1.9-4.8-3.3-6.9c-0.3-0.5-0.5-0.7-1.1-0.4L161,6.4z M217.6,50.4c5.3,0,7.1,0.1,7.5,0.1c0.6,0,0.7-0.1,0.7-0.7v-3.4
	c0-0.5-0.1-0.6-0.7-0.6c-0.3,0-2.1,0.1-7.5,0.1h-6.9v-3.1h4.9c5.2,0,6.9,0.1,7.3,0.1c0.6,0,0.6-0.1,0.6-0.6v-3.2
	c0-0.5-0.1-0.6-0.6-0.6c-0.4,0-2.1,0.1-7.3,0.1h-4.9v-3h3.8c4.9,0,6.7,0.1,7,0.1c0.6,0,0.6-0.1,0.6-0.6c0-0.3-0.1-1.6-0.1-4.7v-6.8
	c0-3.1,0.1-4.4,0.1-4.7c0-0.5-0.1-0.5-0.6-0.5c-0.4,0-2.1,0.1-7,0.1h-3.8v-2.9h6.5c5.3,0,7.1,0.1,7.4,0.1c0.6,0,0.7-0.1,0.7-0.6
	v-3.3c0-0.5-0.1-0.6-0.7-0.6c-0.3,0-2.1,0.1-7.4,0.1h-6.5V8.1c3-0.3,5.9-0.7,8.7-1.2c0.7-0.2,1.5-0.3,2.3-0.3c0.7,0,1.1-0.3,1.1-0.7
	c0-0.4-0.2-0.7-0.4-0.9c-1.1-1.1-2.3-2.1-3.6-3c-1.1,0.4-2.2,0.7-3.3,0.9c-7.1,1.2-14.3,1.8-21.5,1.7c0.7,0.8,1.2,1.8,1.6,2.8
	c0.7,1.3,0.7,1.3,2.1,1.3c2.8-0.1,5.4-0.2,7.9-0.3v2.9h-5.3c-5.3,0-7.1-0.1-7.5-0.1c-0.6,0-0.6,0.1-0.6,0.6v3.3
	c0,0.5,0.1,0.6,0.6,0.6c0.3,0,2.1-0.1,7.5-0.1h5.3v2.9h-3.1c-5,0-6.7-0.1-7-0.1c-0.6,0-0.7,0.1-0.7,0.5c0,0.4,0.1,1.6,0.1,4.7v6.8
	c0,3.1-0.1,4.3-0.1,4.7c0,0.6,0.1,0.6,0.7,0.6c0.3,0,2-0.1,7-0.1h3.1v3h-4.3c-5.2,0-7-0.1-7.3-0.1c-0.6,0-0.6,0.1-0.6,0.6v3.2
	c0,0.6,0.1,0.6,0.6,0.6c0.3,0,2.1-0.1,7.3-0.1h4.3V46h-6.7c-5.3,0-7.1-0.1-7.5-0.1c-0.6,0-0.7,0.1-0.7,0.5v3.4
	c0,0.6,0.1,0.7,0.7,0.7c0.3,0,2.1-0.1,7.5-0.1L217.6,50.4z M216.9,32.1h-6.2v-3.3h6.2V32.1z M199.8,32.1v-3.3h5.7v3.3L199.8,32.1z
	 M216.9,22.3v3h-6.2v-3H216.9z M199.8,25.3v-3h5.7v3H199.8z M182.1,21.4c-1.6,5.5-4.2,10.6-7.6,15.1c0.8,1.4,1.4,2.8,1.8,4.3
	c0.2,0.7,0.4,0.9,0.6,0.9c0.3,0,0.5-0.3,0.9-0.9c2.4-3.7,4.2-7.8,5.4-12.1c-0.1,12.2-0.4,21.6-0.4,22.5c0,0.5,0.1,0.5,0.6,0.5h4.4
	c0.6,0,0.6-0.1,0.6-0.5c0-1-0.3-10.3-0.3-23.6c0.7,1.8,1.7,3.5,2.8,5.2c0.3,0.5,0.6,0.8,0.8,0.8s0.4-0.3,0.7-0.9
	c0.5-1.2,1.2-2.4,2-3.5c-2.4-2.2-4.3-4.9-5.7-7.9c2.6,0.1,3.5,0.1,3.7,0.1c0.6,0,0.6-0.1,0.6-0.6v-3.9c0-0.5-0.1-0.6-0.6-0.6
	c-0.3,0-1.3,0.1-4.1,0.1V8.4c1-0.3,2-0.7,3-1.1c0.5-0.3,1.1-0.4,1.7-0.5c0.6,0,0.9-0.3,0.9-0.7c0-0.3-0.2-0.5-0.5-0.9
	c-0.9-1.2-1.9-2.2-3.1-3.1c-0.7,0.5-1.5,0.9-2.3,1.3c-3.9,1.6-8,2.7-12.2,3.3c0.7,0.9,1.2,1.9,1.6,2.9c0.7,1.7,0.6,1.7,2.3,1.3
	c1.1-0.2,2.2-0.5,3.3-0.8v6.5h-1.4c-3.7,0-4.8-0.1-5.1-0.1c-0.6,0-0.7,0.1-0.7,0.6v3.9c0,0.5,0.1,0.6,0.7,0.6c0.3,0,1.4-0.1,5.1-0.1
	L182.1,21.4z M233.2,40.7c-0.3,0.3-0.4,0.5-0.4,0.7s0.2,0.3,0.5,0.5c4.1,2.8,7.6,6.4,10.4,10.5c0.3,0.4,0.5,0.5,0.8,0.5
	c0.2,0,0.4-0.2,0.8-0.5l3.4-2.9c0.4-0.4,0.6-0.6,0.6-0.9c0-0.2-0.1-0.4-0.4-0.8c-3-4-6.7-7.4-11-10.1c-0.2-0.2-0.4-0.3-0.7-0.3
	c-0.3,0-0.6,0.2-0.8,0.4L233.2,40.7z M18.9,91c-2.5,9.5-8.7,17.6-17.2,22.4c1.1,1,2.1,2.1,2.9,3.4c0.5,0.9,0.8,1.3,1.1,1.3
	c0.3,0,0.6-0.3,1.3-0.7c2.6-1.9,5.1-4.1,7.3-6.5v8c0,9.3-0.1,11.1-0.1,11.5c0,0.5,0.1,0.6,0.6,0.6h4.9c0.5,0,0.6-0.1,0.6-0.6v-3.1
	h20.2v2.7c0,0.6,0.1,0.6,0.6,0.6h5c0.6,0,0.7-0.1,0.7-0.6c0-0.3-0.1-2.1-0.1-11.3v-6.9c0-5.3,0.1-7.1,0.1-7.4c0-0.5-0.1-0.6-0.7-0.6
	c-0.3,0-2.1,0.1-7.4,0.1h-19c2.4-4,4.3-8.3,5.6-12.8h18c5.1,0,6.8,0.1,7.1,0.1c0.5,0,0.6-0.1,0.6-0.6v-4.4c0-0.5-0.1-0.6-0.6-0.6
	c-0.3,0-2,0.1-7.1,0.1H11.4c-5.1,0-6.8-0.1-7.1-0.1c-0.6,0-0.6,0.1-0.6,0.6v4.4c0,0.6,0.1,0.6,0.6,0.6c0.3,0,2-0.1,7.1-0.1L18.9,91z
	 M20.3,109.1h20.2v12.8H20.3V109.1z M72.2,91.5c0-3.7,0-5.2,0.3-5.9c0.2-0.4,0.3-0.8,0.4-1.3c0-0.4-0.3-0.7-1-0.7
	C70,83.3,68,83.1,65.7,83c0.4,2.8,0.6,5.6,0.6,8.4v5.5c0,7.2-0.3,12.5-1,16.1c-0.8,4.9-2.8,9.6-5.9,13.5c1.4,0.9,2.6,2,3.6,3.3
	c0.5,0.6,0.8,0.9,1.1,0.9c0.3,0,0.6-0.3,1-1c3-4.6,5-9.7,5.9-15.1c0.9-6.1,1.4-12.2,1.3-18.3V91.5z M99.9,120.2
	c0,6.9-0.1,9.8-0.1,10.1c0,0.6,0.1,0.6,0.6,0.6h4.9c0.6,0,0.6-0.1,0.6-0.6c0-0.3-0.1-3.2-0.1-10.2V91.1c0-3.9,0.2-5.2,0.4-5.8
	c0.2-0.4,0.3-0.8,0.4-1.2c0-0.4-0.4-0.7-1-0.7c-2-0.3-4.1-0.4-6.2-0.5c0.3,2.8,0.5,5.6,0.4,8.4L99.9,120.2z M82.8,115.7
	c0,5.8-0.1,8.8-0.1,9.1c0,0.6,0.1,0.7,0.6,0.7h4.8c0.6,0,0.7-0.1,0.7-0.7c0-0.3-0.1-3.3-0.1-9.1V93.6c0-3.9,0.1-5.1,0.4-5.7
	c0.2-0.4,0.3-0.9,0.4-1.3c0-0.4-0.4-0.7-1-0.7c-1.9-0.2-4-0.3-6.2-0.4c0.4,2.7,0.6,5.5,0.5,8.3L82.8,115.7z M140.3,83.4
	c-5,0-6.7-0.1-7.1-0.1c-0.6,0-0.6,0.1-0.6,0.6c0,0.4,0.1,2.1,0.1,5.9V102c0,3.9-0.1,5.6-0.1,5.9c0,0.6,0.6,0.6,1.2,0.6
	c0.4,0,2.1-0.1,7.1-0.1h12.3c5,0,6.2,0.1,6.5,0.1c0.6,0,1.2-0.1,1.2-0.6c0-0.4-0.1-2.1-0.1-5.9V89.8c0-3.8,0.1-5.6,0.1-5.9
	c0-0.5-0.1-0.6-0.7-0.6c-0.3,0-2.1,0.1-7.1,0.1L140.3,83.4z M155.2,104.3h-17v-3.2h17V104.3z M138.2,97.3v-3h17v3H138.2z
	 M138.2,87.5h17v2.9h-17V87.5z M121.4,109.2c0,4.6-0.1,6.7-0.1,7c0,0.6,0.1,0.6,0.6,0.6c0.3,0,2.1-0.1,7.3-0.1h10.9v8.5
	c0,4.1-0.1,5.6-0.1,5.9c0,0.6,0.1,0.6,0.6,0.6h5c0.6,0,0.6-0.1,0.6-0.6c0-0.3-0.1-1.9-0.1-5.9v-8.5h13.1c5.1,0,6.9,0.1,7.2,0.1
	c0.6,0,0.6-0.1,0.6-0.6v-3.9c0-0.6-0.1-0.6-0.6-0.6c-0.3,0-2.1,0.1-7.2,0.1h-31.9V93.2c0-2.3,0.1-3.1,0.3-3.8
	c0.2-0.4,0.3-0.8,0.3-1.2c0-0.3-0.3-0.7-0.9-0.7c-2-0.2-4-0.4-6-0.4c0.3,2,0.4,4.1,0.4,6.2L121.4,109.2z M150.8,120.2
	c-0.6,0.4-0.7,0.6-0.3,0.9c3.2,3.5,6.9,6.5,11,8.8c0.4,0.3,0.8,0.5,1.3,0.6c0.4,0,0.6-0.4,1.2-1.2c0.8-1.2,1.9-2.4,3-3.3
	c-4.4-1.8-8.5-4.4-11.9-7.6c-0.1-0.2-0.3-0.3-0.6-0.3c-0.2,0-0.5,0.1-0.7,0.3L150.8,120.2z M130.6,117.8c-0.6,1-1.2,1.9-2,2.6
	c-2.8,2.6-6.1,4.7-9.7,6c1.2,0.8,2.2,1.7,3.1,2.8c0.6,0.8,0.8,1.2,1.3,1.2c0.5-0.1,0.9-0.3,1.3-0.6c3.2-1.7,6.2-3.9,8.7-6.4
	c0.5-0.6,1.1-1.1,1.8-1.5c0.4-0.2,0.8-0.5,0.8-0.8c0-0.2-0.2-0.4-0.8-0.9C133.6,119.3,132.1,118.5,130.6,117.8z M206.5,110.8
	c4.7-1.9,8.2-3.1,11.8-4.4c1.1-0.4,2.2-0.7,3.4-0.8c0.6-0.1,0.8-0.3,0.8-0.8c0-0.4-0.2-0.9-0.4-1.2c-1.1-1.7-2.4-3.3-3.9-4.8
	c-1.2,1.2-2.6,2.2-4.2,3c-2.8,1.4-5.9,2.9-8.1,3.8c-0.6-4.3-3.1-5.9-6.7-5.9c-2,0.1-3.9,0.7-5.5,1.7l-0.1-0.1c1.5-1.9,2.9-4,4.1-6.1
	c4-0.4,8.7-1,12.9-1.6c0.8-0.1,1-0.3,0.9-0.9c0-1.3-0.2-2.7-0.6-4c-0.1-0.5-0.3-0.7-0.9-0.5c-3.3,0.8-6.6,1.3-10,1.7
	c0.7-1.5,0.9-2.2,1.3-3c0.2-0.5,0.5-0.9,0.9-1.3c0.2-0.2,0.4-0.5,0.4-0.8c0-0.4-0.3-0.8-0.7-0.9c-2-0.7-4.1-1.2-6.3-1.5
	c0,1.1-0.1,2.3-0.4,3.4c-0.5,1.6-1,3.2-1.6,4.7c-4.2,0.2-8.4,0.3-12.6,0.1c0.2,1.7,0.4,3.7,0.6,4.6c0.1,0.6,0.3,0.9,0.8,0.9
	c3.2,0,6.2-0.1,8.8-0.2c-3.1,5.1-7,9.7-11.5,13.6c-0.3,0.2-0.4,0.4-0.4,0.6c0,0.2,0.1,0.4,0.2,0.5c0.9,1.3,2,2.5,3.1,3.6
	c0.2,0.2,0.4,0.3,0.6,0.4c0.2,0,0.4-0.2,0.7-0.5c1.7-2.1,3.6-4.1,5.5-6c2.5-2.2,5-3.8,7.6-4c2.5-0.1,3.1,1,3.3,3.8
	c-8.3,4.3-11.6,8.1-11.6,13.4c0,6.4,4.8,9.1,13.8,9.1c4.6,0.1,9.1-0.2,13.6-0.7c0.4,0,0.7-0.4,0.6-1c0-1.5-0.2-3-0.5-4.5
	c-0.1-0.5-0.3-0.7-0.8-0.6c-4.5,0.7-9.1,1.1-13.7,1.1c-5.8,0-7.6-1.5-7.6-3.8c0-2.6,1.8-4.8,6.7-7.3c-0.1,2-0.1,4.7-0.1,6.7
	c0,0.6,0.2,0.9,0.7,0.9c1.3,0,2.6-0.1,3.9-0.3c0.7-0.1,1-0.4,1-1L206.5,110.8z M19.1,200.4h2c4.7,0,6.4,0.1,6.7,0.1
	c0.5,0,0.6-0.1,0.6-0.5v-3.3c0-0.5-0.1-0.6-0.6-0.6c-0.3,0-2,0.1-6.7,0.1h-2v-2.4h2.4c4.6,0,6.2,0.1,6.6,0.1c0.5,0,0.6-0.1,0.6-0.6
	c0-0.3-0.1-1.6-0.1-4.6v-5.9c0-3,0.1-4.2,0.1-4.5c0-0.6-0.1-0.6-0.6-0.6c-0.4,0-2,0.1-6.6,0.1h-2.4v-2.4h3.2c4.9,0,6.7,0.1,7,0.1
	c0.5,0,0.4-0.1,0.4-0.6v-3.2c0-0.6-0.1-0.6-0.5-0.6c-0.3,0-2,0.1-6.9,0.1h-3.2v-3.1c2.3-0.3,4.5-0.7,6.7-1.1
	c0.8-0.2,1.6-0.3,2.5-0.4c0.7,0,1.2-0.2,1.2-0.6c0-0.4-0.2-0.7-0.4-1c-1-1.1-2-2.1-3.1-3c-1,0.4-2,0.7-3,0.9
	c-6.4,1.3-12.9,2-19.5,2.1c0.7,0.9,1.3,1.9,1.7,3c0.4,1.3,0.5,1.3,2,1.2c2.4-0.1,4.7-0.3,7.1-0.6v2.5h-4.1c-4.9,0-6.7-0.1-7-0.1
	c-0.5,0-0.6,0.1-0.6,0.6v3.2c0,0.5,0.1,0.6,0.6,0.6c0.3,0,2-0.1,7-0.1h4.1v2.4h-2.2c-4.7,0-6.3-0.1-6.6-0.1c-0.6,0-0.7,0.1-0.7,0.6
	c0,0.3,0.1,1.5,0.1,4.5v5.9c0,2.9-0.1,4.2-0.1,4.6c0,0.5,0.1,0.6,0.7,0.6c0.3,0,1.9-0.1,6.6-0.1h2.2v2.4h-3.2
	c-4.8,0-6.4-0.1-6.7-0.1c-0.5,0-0.6,0.1-0.6,0.6v3.3c0,0.5,0.1,0.5,0.6,0.5c0.3,0,1.9-0.1,6.7-0.1h3.2v3.2c-2.2,0.2-4.3,0.3-6.2,0.4
	c-1.9,0.1-3.9,0.1-5.8,0.1c0.3,1.6,0.6,3.4,0.9,4.8c0.2,0.6,0.4,0.9,0.8,0.9c0.3,0,0.7-0.1,0.9-0.3c0.7-0.2,1.3-0.3,2-0.4
	c6.2-0.7,13.4-1.7,19.2-2.9c0.4,0,0.7-0.1,1-0.2c-0.5,0.6-1.2,1.2-1.8,1.7c1.4,0.6,2.6,1.5,3.5,2.6c0.5,0.5,0.8,0.8,1,0.8
	c0.3,0,0.6-0.3,1.2-0.8c4-4.4,6.8-9.8,8.1-15.7c1.1-5.2,1.8-10.5,2-15.8h4.6c-0.1,10.5-0.5,17.9-1.4,23.3c-0.4,2.6-1.3,3.5-3,3.5
	c-1.5,0-3.1-0.2-4.6-0.4c0.6,1.2,0.9,2.4,1.1,3.7c0.2,1.8,0.2,1.8,1.4,1.9c0.9,0.1,1.9,0.1,3,0.1c4.2,0,6.3-1.9,7-6
	c1.2-8.3,1.7-16.8,1.6-25.2c0-1.8,0-3.4,0.1-5.2c0-0.6-0.1-0.7-0.7-0.7c-0.3,0-1.8,0.1-6,0.1h-3.1c0.1-1.4,0.1-2.8,0.1-4.2
	c0-3.4,0.1-5.1,0.3-5.6c0.2-0.4,0.3-0.9,0.3-1.3c0-0.3-0.3-0.6-0.8-0.6c-1.9-0.2-3.5-0.3-5.5-0.4c0.3,2.6,0.4,5.2,0.4,7.8
	c0,1.5-0.1,3-0.1,4.4c-3.4,0-4.7-0.1-5-0.1c-0.6,0-0.7,0.1-0.7,0.6v4c0,0.5,0.1,0.6,0.7,0.6c0.3,0,1.5-0.1,4.7-0.1
	c-0.2,4.7-0.8,9.4-1.8,14c-1.1,4.5-3.3,8.7-6.3,12.3l0.2-1c0.1-0.9,0.3-1.7,0.5-2.5c-3.2,0.6-6.4,1-9.4,1.3L19.1,200.4z M23.9,190.3
	h-4.8v-2.9h4.8V190.3z M23.9,181.3v2.9h-4.8v-2.9H23.9z M9.6,190.3v-2.9h4.6v2.9L9.6,190.3z M9.6,184.2v-2.9h4.6v2.9H9.6z
	 M75.9,176.8c-2.1,0.3-4.2,0.6-6.5,0.8c-2.4,0.2-4.8,0.4-7.3,0.4c0.5,1.9,1,3.8,1.7,5.7c0.2,0.6,0.8,1,1.5,0.8
	c0.1,0,0.2-0.1,0.3-0.1c1-0.4,2-0.7,3-0.9c1.5-0.3,3.2-0.6,5.4-0.9c-2.6,7.5-6,14.7-10.1,21.6c-0.1,0.2-0.2,0.4-0.2,0.6
	c0,0.3,0.2,0.6,0.4,0.8c1.2,0.9,2.5,1.7,3.8,2.4c0.4,0.3,1,0.2,1.3-0.2c0.1-0.1,0.1-0.2,0.2-0.3c4.3-7.7,7.4-15.3,11.1-25.9
	c1.5-0.2,3.1-0.4,4.6-0.4c2.4,0,3.1,1.2,3.1,5.1c0,4.6-0.7,9.2-2.1,13.6c-0.9,2.3-1.7,2.9-3.5,2.9c-2.1,0-4.1-0.4-6.1-1.2
	c0.6,1.6,1,3.4,1,5.1c-0.1,0.7,0.3,1.3,1,1.5c1.8,0.5,3.6,0.7,5.4,0.6c3.2,0,5.8-1.6,7.4-5.2c1.9-3.9,3-11.1,3-17.6
	c0-6.7-2.8-10.2-8-10.2c-1.4,0-2.9,0.1-4.3,0.2c0.7-2.3,1.3-4.3,2-6.6c0.2-0.8,0.6-1.5,1.1-2.1c0.2-0.2,0.4-0.5,0.4-0.8
	c0-0.5-0.4-1-0.9-1.1c-2.1-0.8-4.4-1.4-6.6-1.8c0,2-0.2,4.1-0.6,6.1C77.2,171.7,76.8,173.7,75.9,176.8L75.9,176.8z M95.5,176.3
	c4.1,4,7.1,8.9,9,14.2c0.2,0.7,0.7,0.7,1.3,0.4c1.5-0.8,2.9-1.7,4.1-2.8c0.4-0.2,0.5-0.7,0.2-1.1c0,0,0,0,0,0
	c-2-5.1-5.1-9.6-9.1-13.4c-0.4-0.4-0.7-0.5-1-0.3C98.4,174.4,96.9,175.3,95.5,176.3L95.5,176.3z M142.6,171.5
	c-6.6,0.4-13.7,0.8-17,1.1c-2.2,0.3-4.5,0.4-6.7,0.2c0.3,1.9,0.8,3.7,1.4,5.6c0.2,0.5,0.4,0.8,0.9,0.8c0.5,0,1.4-0.5,2.6-0.7
	c4.3-0.6,12.1-1.3,19-1.6c0,1.8,0.1,3.7,0.1,5.6c-1.2-0.8-2.7-1.2-4.2-1.1c-4.4-0.2-8.1,3.3-8.3,7.7c0,0.2,0,0.4,0,0.5
	c0,5.3,3.3,8.4,7.6,8.4c1.8,0,4.1-0.6,5.2-2.2c-1,4.6-4.8,9.2-11.3,12.1c1.5,0.5,2.9,1.2,4.2,2.2c0.5,0.4,1,0.7,1.6,0.8
	c0.8-0.2,1.5-0.5,2.1-1c6.2-3.8,9.9-10.5,9.8-17.8c0-1.8-0.3-3.7-0.8-5.4c-0.1-3.4-0.1-6.9-0.1-10.2c5.7-0.1,11.1-0.1,16.8,0.1
	c0.7,0.1,0.9-0.1,0.9-0.7c0.1-1.4,0.1-2.8,0-4.2c-0.1-0.7-0.2-0.8-0.8-0.8c-5.3,0-10.9,0.1-16.9,0.3c0.1-2.1,0.1-2.8,0.1-3.5
	c0.1-0.6,0.2-1.1,0.4-1.6c0.3-0.4,0.5-0.8,0.5-1.3c0-0.5-0.6-0.9-1.5-1c-2.1-0.4-4.3-0.6-6.4-0.8c0.4,1.3,0.6,2.7,0.7,4
	C142.6,168.4,142.6,169.8,142.6,171.5L142.6,171.5z M139.1,185.6c1.8-0.2,3.4,1.1,3.6,2.9c0,0.2,0,0.4,0,0.6
	c0.1,1.9-1.3,3.6-3.3,3.8c-0.2,0-0.3,0-0.5,0c-1.9,0.1-3.5-1.4-3.5-3.3c0-0.2,0-0.3,0-0.5c0-1.9,1.5-3.5,3.4-3.6
	C139,185.6,139,185.6,139.1,185.6L139.1,185.6z M216,209.1c5.3,0,7.1,0.1,7.4,0.1c0.6,0,0.7-0.1,0.7-0.7v-4.3c0-0.6-0.1-0.6-0.7-0.6
	c-0.3,0-2.1,0.1-7.4,0.1h-5.8v-19.4h7.1c5.4,0,7.3,0.1,7.5,0.1c0.6,0,0.6-0.1,0.6-0.7v-4.3c0-0.6-0.1-0.6-0.6-0.6
	c-0.3,0-2.1,0.1-7.5,0.1h-7.1v-8.7c0-4.1,0.1-5.4,0.4-6.2c0.2-0.3,0.3-0.7,0.3-1.1c0-0.3-0.3-0.6-0.9-0.6c-1.9-0.2-4.1-0.3-6.2-0.4
	c0.4,2.8,0.5,5.6,0.4,8.4v8.6h-5.6c-5.4,0-7.2-0.1-7.5-0.1c-0.6,0-0.6,0.1-0.6,0.6v4.3c0,0.6,0.1,0.7,0.6,0.7c0.3,0,2.1-0.1,7.5-0.1
	h5.6v19.4h-4.7c-5.3,0-7.1-0.1-7.5-0.1c-0.5,0-0.6,0.1-0.6,0.6v4.3c0,0.6,0.1,0.7,0.6,0.7c0.3,0,2.1-0.1,7.5-0.1L216,209.1z
	 M181.8,202.9c0,5.4-0.1,8-0.1,8.4c0,0.5,0.1,0.6,0.7,0.6h4.6c0.6,0,0.7-0.1,0.7-0.6c0-0.3-0.1-3-0.1-8.4v-27.7
	c1.4-2.6,2.6-5.3,3.6-8.1c0.2-0.8,0.5-1.5,1-2.1c0.3-0.2,0.6-0.6,0.6-1c0-0.4-0.3-0.6-0.9-0.8c-1.8-0.7-3.6-1.3-5.5-1.8
	c-0.1,1.3-0.4,2.6-0.8,3.8c-2.3,6.9-6.1,13.2-10.9,18.6c0.9,1.6,1.5,3.2,1.9,5c0.1,0.6,0.3,0.9,0.6,0.9s0.6-0.2,1-0.7
	c1.3-1.5,2.5-3.1,3.7-4.8c-0.1,2-0.1,4.1-0.1,5.9L181.8,202.9z M255.5,196.2v2.6h-9c-5.4,0-7.2-0.1-7.5-0.1c-0.6,0-0.6,0.1-0.6,0.7
	v3c0,0.6,0.1,0.7,0.6,0.7c0.3,0,2.1-0.1,7.5-0.1h9v1.3c0,1.6-0.5,2-2.9,2c-1.9,0.1-3.7,0-5.6-0.2c0.9,1.3,1.6,2.7,2.1,4.2
	c0.6,1.5,0.6,1.6,2.2,1.6c4-0.1,6.4-0.4,7.8-1.2c1.5-0.9,2-2.4,2-4.9c0-0.8,0-1.8-0.1-2.8h11.6v1.2c0,0.6,0.1,0.6,0.6,0.6h4.2
	c0.5,0,0.6-0.1,0.6-0.6c0-0.3-0.1-1.8-0.1-5.1v-2.8c3.2,0.1,4.5,0.1,4.8,0.1c0.5,0,0.5-0.1,0.5-0.6v-3.3c0-0.5-0.1-0.6-0.5-0.6
	c-0.3,0-1.5,0.1-4.8,0.1v-1.3c0-3.1,0.1-4.5,0.1-4.8c0-0.5-0.1-0.6-0.6-0.6c-0.3,0-2.2,0.1-7.6,0.1h-8.9V183h7.3
	c5.4,0,7.3,0.1,7.7,0.1c0.5,0,0.6-0.1,0.6-0.7c0-0.3-0.1-1-0.1-2.9v-3c0-1.8,0.1-2.5,0.1-2.9c0-0.6-0.1-0.7-0.6-0.7
	c-0.4,0-2.3,0.1-7.7,0.1h-7.3v-2.4h14c5,0,6.7,0.1,7,0.1c0.5,0,0.6-0.1,0.6-0.6v-3.5c0-0.6-0.1-0.6-0.6-0.6c-0.3,0-2,0.1-7,0.1h-14
	c-0.1-1,0-2.1,0.3-3.1c0.2-0.3,0.3-0.7,0.3-1c0-0.3-0.4-0.5-0.9-0.6c-1.9-0.2-3.7-0.3-5.7-0.3c0.3,1.7,0.4,3.4,0.4,5.1h-13.9
	c-4.9,0-6.7-0.1-7-0.1c-0.6,0-0.6,0.1-0.6,0.6v3.5c0,0.6,0.1,0.6,0.6,0.6c0.3,0,2-0.1,7-0.1h13.9v2.4h-7.1c-5.4,0-7.3-0.1-7.6-0.1
	c-0.6,0-0.7,0.1-0.7,0.7c0,0.3,0.1,1,0.1,2.9v3c0,1.8-0.1,2.5-0.1,2.9c0,0.6,0.1,0.7,0.7,0.7c0.3,0,2.3-0.1,7.6-0.1h7.1v2.4h-9.1
	c-5.3,0-7.1-0.1-7.5-0.1c-0.6,0-0.6,0.1-0.6,0.6v3c0,0.5,0.1,0.5,0.6,0.5c0.3,0,2.1-0.1,7.5-0.1h9.1v2.6h-14.7
	c-4.8,0-6.4-0.1-6.8-0.1c-0.5,0-0.6,0.1-0.6,0.6v3.3c0,0.6,0.1,0.6,0.6,0.6c0.3,0,2-0.1,6.8-0.1H255.5z M272.7,189.3v2.6h-11.7v-2.6
	H272.7z M261.1,198.8v-2.6h11.7v2.6L261.1,198.8z M271.3,179.4h-10.2v-2.8h10.2V179.4z M245.6,179.4v-2.8h10v2.8H245.6z
	 M298.7,197.1c-4.4,0-7.9,3.6-7.9,8c0,4.4,3.6,7.9,8,7.9c4.4,0,7.9-3.6,7.9-7.9C306.7,200.7,303.1,197.1,298.7,197.1
	C298.7,197.1,298.7,197.1,298.7,197.1L298.7,197.1z M298.7,200.5c2.5,0,4.6,2,4.6,4.6s-2,4.6-4.6,4.6s-4.6-2-4.6-4.6
	c0-2.5,1.9-4.5,4.4-4.6C298.6,200.5,298.7,200.5,298.7,200.5L298.7,200.5z"/>
</svg>
