<svg xmlns="http://www.w3.org/2000/svg" width="163.56" height="87.932" viewBox="0 0 163.56 87.932">
  <g id="グループ_920" data-name="グループ 920" transform="translate(-601.32 -9007.241)">
    <path id="パス_1172" data-name="パス 1172" d="M-73.04-4.32c0,.44.04.48.44.48.24,0,1.48-.08,5.2-.08h.48a7.392,7.392,0,0,1-1.52,1.44c-2,1.44-5.12,2.16-9.52,2.52a8.636,8.636,0,0,1,1.28,2.24c.28.76.44,1,.84,1a5.713,5.713,0,0,0,.92-.12A20.649,20.649,0,0,0-66.24.08a10.257,10.257,0,0,0,3.48-4h6.64a11.689,11.689,0,0,1-.6,2.68c-.24.6-.72.8-1.72.8a26.725,26.725,0,0,1-4.08-.32A8.823,8.823,0,0,1-61.4,1.72c.32,1.04.32,1.04,1.24,1.12a20.6,20.6,0,0,0,2.28.08c2.32,0,3.64-.64,4.4-1.92a11.273,11.273,0,0,0,1.16-3.92c.12-.8.2-1.6.28-2.44a29.274,29.274,0,0,0,4.68,1.88,5.2,5.2,0,0,0,.92.24c.32,0,.44-.28.8-1.04a10.662,10.662,0,0,1,1.48-2.4c-4.08-.88-6.96-1.8-9.32-3.24h2.8c3.6,0,4.76.08,5.04.08.4,0,.44-.04.44-.44v-2.36c0-.4-.04-.44-.44-.44-.28,0-1.44.08-5.04.08H-64.44a2.657,2.657,0,0,1,.8-.64q.48-.24.48-.6c0-.28-.2-.4-.64-.52l-1.4-.32h8.64c3.84,0,5.2.08,5.48.08.4,0,.44-.04.44-.48,0-.24-.08-1.04-.08-3.04v-3.4c0-2.04.08-2.84.08-3.08,0-.4-.04-.44-.44-.44-.28,0-1.64.08-5.48.08H-69.48c-3.88,0-5.24-.08-5.52-.08-.4,0-.44.04-.44.44,0,.24.08,1.04.08,3.08v3.4c0,2-.08,2.8-.08,3.04,0,.44.04.48.44.48.28,0,1.64-.08,5.52-.08h2.04A10.289,10.289,0,0,1-68.88-13H-75.4c-3.56,0-4.76-.08-5-.08-.36,0-.4.04-.4.44v2.36c0,.4.04.44.4.44.24,0,1.44-.08,5-.08h3.08a32.539,32.539,0,0,1-9.36,4A7.387,7.387,0,0,1-80-3.88c.4.72.56,1,.92,1a2.751,2.751,0,0,0,.92-.32,40.265,40.265,0,0,0,5.12-2.44Zm11.32-2.52a3.208,3.208,0,0,1,.48-1.28,1.36,1.36,0,0,0,.28-.6c0-.24-.28-.36-.72-.44-1.08-.08-2.24-.2-3.56-.28a9.768,9.768,0,0,1-.28,2.6H-71a26.185,26.185,0,0,0,3.92-3.08h8.88a23.6,23.6,0,0,0,3.64,3.08Zm7-10.64H-71.36v-1.6h16.64Zm0-5.4v1.56H-71.36v-1.56Zm-20.52-8.16c-3.56,0-4.8-.08-5.04-.08-.4,0-.44.04-.44.44v2.4c0,.44.04.48.44.48.24,0,1.48-.08,5.04-.08h4.4c0,.68-.04,1.12-.04,1.28,0,.4.04.44.48.44h2.96c.44,0,.48-.04.48-.44,0-.16-.04-.6-.08-1.28h7.8c0,.68-.04,1.12-.04,1.28,0,.4.04.44.48.44h2.96c.44,0,.48-.04.48-.44,0-.16-.04-.6-.08-1.28h4.68c3.56,0,4.8.08,5.04.08.4,0,.44-.04.44-.48v-2.4c0-.4-.04-.44-.44-.44-.24,0-1.48.08-5.04.08h-4.68a3.425,3.425,0,0,1,.2-1.28,1.522,1.522,0,0,0,.2-.6c0-.2-.2-.32-.56-.36-1.08-.12-2.52-.2-3.8-.24a21.481,21.481,0,0,1,.2,2.48h-7.84a3.425,3.425,0,0,1,.2-1.28,1.522,1.522,0,0,0,.2-.6c0-.2-.2-.32-.56-.36-1.08-.12-2.52-.2-3.8-.24a21.478,21.478,0,0,1,.2,2.48ZM-25.96-6.36c-3.6,2.56-7.92,4.08-13.28,5.28A7.564,7.564,0,0,1-37.8,1.36c.28.76.44,1.04.8,1.04a4.682,4.682,0,0,0,.96-.24c5-1.48,9.8-3.72,12.96-6.88-.04,4.4-.16,6.64-.16,7.48,0,.4.04.44.4.44h3.44c.36,0,.4-.04.4-.44,0-.84-.16-3.16-.16-7.6A33.145,33.145,0,0,0-5.92,2.24a3.844,3.844,0,0,0,.92.2c.36,0,.48-.28.8-1.08A8.257,8.257,0,0,1-2.64-1.32c-5.64-1-10.12-2.56-13.84-5.04h7.52c3.6,0,4.84.08,5.08.08.4,0,.44-.04.44-.44V-9.28c0-.36-.04-.4-.44-.4-.24,0-1.48.08-5.08.08H-19.08v-.24a5.326,5.326,0,0,1,.12-1.76l.12-.24h7.72c3.92,0,5.28.08,5.52.08.4,0,.44-.04.44-.48v-2.24c0-.4-.04-.44-.44-.44-.24,0-1.6.08-5.52.08H-18.4v-2.12h5.04c3.84,0,5.16.08,5.4.08.44,0,.48-.04.48-.44v-1.96c0-.4-.04-.44-.48-.44-.24,0-1.56.08-5.4.08H-18.4v-2h5.04c3.84,0,5.16.08,5.4.08.44,0,.48-.04.48-.44v-2c0-.4-.04-.44-.48-.44-.24,0-1.56.08-5.4.08H-18.4v-2h6.92c3.88,0,5.16.08,5.44.08.4,0,.44-.04.44-.48v-2.36c0-.36-.04-.4-.44-.4-.28,0-1.56.08-5.44.08h-6.08c.24-.36.44-.76.68-1.2a3.881,3.881,0,0,1,.76-1,.86.86,0,0,0,.4-.6.6.6,0,0,0-.48-.56,38.817,38.817,0,0,0-3.8-.84,11.445,11.445,0,0,1-.64,2.08,17.743,17.743,0,0,1-1.08,2.12h-7.36l.68-1a6.519,6.519,0,0,1,1.08-1.28.668.668,0,0,0,.36-.6c0-.24-.16-.44-.52-.56a32.167,32.167,0,0,0-3.76-.92,11.078,11.078,0,0,1-1.08,2.48,24.3,24.3,0,0,1-7.32,7.8A8.826,8.826,0,0,1-38-21.2c.28.56.44.84.68.84.2,0,.44-.16.84-.52.8-.72,1.6-1.48,2.36-2.24v6.36c0,2.96-.08,4.28-.08,4.52,0,.44.04.48.44.48.24,0,1.68-.08,5.6-.08h4.96c.04.68.04,1.4.04,2.04v.2h-9.72c-3.6,0-4.84-.08-5.08-.08-.4,0-.44.04-.44.4v2.56c0,.4.04.44.44.44.24,0,1.48-.08,5.08-.08Zm-4.24-8.48v-2.12h8.08v2.12Zm0-9.52v-2h8.08v2Zm0,4.72v-2h8.08v2Zm44.96-8.72v2.84h-2.2c-3.92,0-5.32-.08-5.56-.08-.4,0-.44.04-.44.44,0,.28.08,1,.08,2.96v3.24c0,1.96-.08,2.68-.08,2.96,0,.4.04.44.44.44.24,0,1.64-.08,5.56-.08H29.44c3.92,0,5.32.08,5.56.08.4,0,.44-.04.44-.44,0-.28-.08-1-.08-2.96V-22.2c0-1.96.08-2.72.08-2.96,0-.4-.04-.44-.44-.44-.24,0-1.64.08-5.56.08H26.92v-2.84H33.2c3.6,0,4.8.08,5.04.08.4,0,.44-.04.44-.44v-2.84c0-.4-.04-.44-.44-.44-.24,0-1.44.08-5.04.08H8.88c-3.56,0-4.8-.08-5.04-.08-.4,0-.44.04-.44.44v2.84c0,.4.04.44.44.44.24,0,1.48-.08,5.04-.08ZM31.4-18.68H26.92v-3.84H31.4Zm-8.36,0h-4.4v-3.84h4.4Zm-12.4,0v-3.84h4.12v3.84Zm8-6.84v-2.84h4.4v2.84ZM12.44-8.88,11.32-7.36A18.072,18.072,0,0,1,9.84-5.48L8.88-4.32c-.16.2-.12.44.24.52L12-3.16a.952.952,0,0,0,1.08-.32,5.378,5.378,0,0,0,.44-.56c1.84.4,3.52.76,5.08,1.16C15.12-1.32,10.4-.48,3.68-.36a8.626,8.626,0,0,1,1.4,2.4c.48,1.24.56,1.2,1.8,1.12C14,2.68,19.44,1.48,23.64-1.4A59.813,59.813,0,0,1,33.68,3c.4.24.4.12.84-.36L36.48.36c.16-.2.24-.32.24-.44S36.6-.32,36.4-.4a87.352,87.352,0,0,0-9.64-3.72,20.484,20.484,0,0,0,3.32-4.76h3.6c3.52,0,4.72.08,4.96.08.36,0,.4-.04.4-.44v-2.84c0-.36-.04-.4-.4-.4-.24,0-1.44.08-4.96.08H19.28a4.162,4.162,0,0,1,1.16-1.4.744.744,0,0,0,.44-.64c0-.2-.12-.4-.6-.52a28.166,28.166,0,0,0-3.92-.6A14.526,14.526,0,0,1,14.8-12.4H8.4c-3.52,0-4.72-.08-4.96-.08-.36,0-.4.04-.4.4v2.84c0,.4.04.44.4.44.24,0,1.44-.08,4.96-.08Zm12.96,0a15.939,15.939,0,0,1-2.96,3.56C20.2-5.88,17.92-6.36,15.6-6.8c.52-.68,1-1.36,1.48-2.08ZM66.28-28a24.833,24.833,0,0,1-1.12,2.64h-.44c-3.56,0-4.8-.08-5.04-.08-.44,0-.48.04-.48.44,0,.28.08,1.56.08,4.64v10.6c0,3-.08,4.36-.08,4.6,0,.44.04.48.48.48.24,0,1.48-.08,5.04-.08h8.16c3.52,0,4.72.08,5,.08.4,0,.44-.04.44-.48,0-.24-.08-1.6-.08-4.6v-10.6c0-3.08.08-4.4.08-4.64,0-.4-.04-.44-.44-.44-.28,0-1.48.08-5,.08H69.32A27.3,27.3,0,0,0,70.52-28h4.36c3.84,0,5.16.08,5.4.08.4,0,.44-.04.44-.4v-2.96c0-.44-.04-.48-.44-.48-.24,0-1.56.08-5.4.08H63.36c-3.8,0-5.12-.08-5.36-.08-.44,0-.48.04-.48.48v2.96c0,.36.04.4.48.4.24,0,1.56-.08,5.36-.08ZM74.24-8.16h-11v-2.6h11Zm0-13.92v2.52h-11v-2.52Zm-11,8.2V-16.4h11v2.52ZM53.2-25.96c2.12,0,2.88.08,3.12.08.4,0,.44-.04.44-.48v-3c0-.4-.04-.44-.44-.44-.24,0-1.04.08-3.6.08H48.96c-2.6,0-3.4-.08-3.64-.08-.36,0-.4.04-.4.44v3c0,.44.04.48.4.48.24,0,1.04-.08,3.64-.08h.12v16.6l-1.24.4A28.389,28.389,0,0,1,44.4-8a37.58,37.58,0,0,0,1.04,3.76c.16.36.32.52.56.52A1.029,1.029,0,0,0,46.6-4a5.924,5.924,0,0,1,1.24-.6c2.52-1,5.72-2.36,8.48-3.8,1.04-.6,1.04-.6.96-1.92a21.648,21.648,0,0,1-.04-2.76,42.61,42.61,0,0,1-4.04,2.04ZM63.08-4.72a8.57,8.57,0,0,1-1.32,1.16A23.893,23.893,0,0,1,53.32-.2a10.13,10.13,0,0,1,2,2.36c.44.72.6.96.92.96a2.985,2.985,0,0,0,.96-.24,28.1,28.1,0,0,0,7.76-3.92,3.59,3.59,0,0,1,1.16-.76c.32-.16.48-.28.48-.52s-.08-.36-.4-.6A30.855,30.855,0,0,0,63.08-4.72ZM70.8-2.96c-.48.36-.48.44-.16.72a30.985,30.985,0,0,0,7.52,4.72,3.109,3.109,0,0,0,1.04.36c.24,0,.4-.16.68-.6a14.2,14.2,0,0,1,2-2.8,25.026,25.026,0,0,1-8.16-4,.483.483,0,0,0-.36-.12.647.647,0,0,0-.4.16Z" transform="translate(683 9091.893)" fill="#fff"/>
    <path id="パス_1171" data-name="パス 1171" d="M4.5-18.48v6.66H6.24a3.079,3.079,0,0,0,1.29-.225,1.753,1.753,0,0,0,.75-.645,2.932,2.932,0,0,0,.33-1.035A9.952,9.952,0,0,0,8.7-15.15a9.952,9.952,0,0,0-.09-1.425,2.852,2.852,0,0,0-.36-1.065,2.434,2.434,0,0,0-2.16-.84ZM1.44,0V-21.36H6.36q5.4,0,5.4,6.27a7.9,7.9,0,0,1-.585,3.21A4.536,4.536,0,0,1,9.12-9.75L12.42,0H9.18L6.33-9.12H4.5V0ZM15.72,0V-21.36h9.12v2.88H18.78v6.27h5.28v2.88H18.78v6.27h6.06V0ZM38.04-6.09v1.32a4.756,4.756,0,0,1-.375,1.875A5.187,5.187,0,0,1,36.63-1.32,4.99,4.99,0,0,1,35.085-.225a4.523,4.523,0,0,1-1.9.405,6.851,6.851,0,0,1-1.77-.24A4.187,4.187,0,0,1,29.79-.9,4.645,4.645,0,0,1,28.6-2.445,5.47,5.47,0,0,1,28.14-4.86V-16.62a5.2,5.2,0,0,1,.36-1.95,4.589,4.589,0,0,1,1.02-1.56,4.742,4.742,0,0,1,1.575-1.035,5.292,5.292,0,0,1,2.025-.375,4.64,4.64,0,0,1,3.51,1.41A5.009,5.009,0,0,1,37.665-18.5a5.522,5.522,0,0,1,.375,2.055v1.2H34.98v-1.02a2.477,2.477,0,0,0-.51-1.56,1.652,1.652,0,0,0-1.38-.66,1.554,1.554,0,0,0-1.515.7A3.778,3.778,0,0,0,31.2-15.99V-5.07A2.828,2.828,0,0,0,31.6-3.51a1.6,1.6,0,0,0,1.455.63,2.222,2.222,0,0,0,.645-.105,1.924,1.924,0,0,0,.645-.345,1.831,1.831,0,0,0,.45-.66,2.674,2.674,0,0,0,.18-1.05V-6.09Zm7.05-12.39v6.66h1.74a3.079,3.079,0,0,0,1.29-.225,1.753,1.753,0,0,0,.75-.645,2.932,2.932,0,0,0,.33-1.035,9.952,9.952,0,0,0,.09-1.425,9.952,9.952,0,0,0-.09-1.425,2.852,2.852,0,0,0-.36-1.065,2.434,2.434,0,0,0-2.16-.84ZM42.03,0V-21.36h4.92q5.4,0,5.4,6.27a7.9,7.9,0,0,1-.585,3.21A4.536,4.536,0,0,1,49.71-9.75L53.01,0H49.77L46.92-9.12H45.09V0ZM66.21-21.36V-4.8a4.909,4.909,0,0,1-.375,1.935A4.929,4.929,0,0,1,64.77-1.29,5.091,5.091,0,0,1,63.18-.21a4.777,4.777,0,0,1-1.92.39,4.671,4.671,0,0,1-1.9-.39A5.143,5.143,0,0,1,57.78-1.29,5.143,5.143,0,0,1,56.7-2.865,4.745,4.745,0,0,1,56.31-4.8V-21.36h3.06V-5.1a2.292,2.292,0,0,0,.54,1.68,1.832,1.832,0,0,0,1.35.54,1.832,1.832,0,0,0,1.35-.54,2.292,2.292,0,0,0,.54-1.68V-21.36ZM70.68,0V-21.36h3.06V0Zm9.54,0V-18.48H76.68v-2.88H86.82v2.88H83.28V0Z" transform="translate(640 9028.781)" fill="#fff"/>
  </g>
</svg>
