<svg xmlns="http://www.w3.org/2000/svg" width="1071.229" height="181.594" viewBox="0 0 1071.229 181.594">
  <g id="グループ_916" data-name="グループ 916" transform="translate(-128.621 -1089.113)">
    <path id="パス_1164" data-name="パス 1164" d="M-437.52-27.42c5.1,0,6.72.12,7.08.12.6,0,.66-.06.66-.66v-4.32c0-.6-.06-.66-.66-.66-.36,0-1.98.12-7.08.12h-1.56v-8.76c1.92-.54,3.72-1.14,5.46-1.8a13.6,13.6,0,0,1,2.58-.66c.72-.12,1.14-.42,1.14-.84a1.781,1.781,0,0,0-.6-1.14,36.145,36.145,0,0,0-4.02-3.72,14.956,14.956,0,0,1-3.12,1.62,77.682,77.682,0,0,1-18,4.62,11.658,11.658,0,0,1,1.92,3.3c.72,1.74.72,1.74,2.64,1.44,2.04-.36,4.08-.78,6-1.2v7.14h-3.06c-5.04,0-6.72-.12-7.08-.12-.6,0-.6.06-.6.66v4.32c0,.6,0,.66.6.66.36,0,2.04-.12,7.08-.12h1.74A51.292,51.292,0,0,1-457.08-10.5a21.038,21.038,0,0,1,2.34,4.8c.3.72.54,1.02.78,1.02.3,0,.6-.3,1.02-.9a60.219,60.219,0,0,0,7.98-14.88c-.06,13.74-.36,23.52-.36,24.6,0,.54.06.6.66.6h5.1c.6,0,.66-.06.66-.6,0-1.08-.3-10.8-.3-25.14a32.131,32.131,0,0,0,4.8,7.74c.42.54.78.84,1.02.84.3,0,.54-.36.78-1.02a20.156,20.156,0,0,1,2.28-4.38,35.486,35.486,0,0,1-7.86-9.6Zm22.2,6.72c-.66.3-.78.48-.48,1.08a127.227,127.227,0,0,1,5.34,12.18c-4.8.96-9.42,1.62-13.98,2.22,3.36-11.82,5.82-23.58,8.22-36.42a8,8,0,0,1,1.08-3.24,2.046,2.046,0,0,0,.42-1.14c0-.42-.48-.72-1.14-.9a57.658,57.658,0,0,0-6.54-1.26,41.391,41.391,0,0,1-.66,7.5A278.53,278.53,0,0,1-430.98-4.5c-1.86.12-3.6.18-5.4.18a42.911,42.911,0,0,0,1.56,6.36c.18.6.48.84.9.84a1.863,1.863,0,0,0,1.02-.42,7.2,7.2,0,0,1,2.1-.66c8.28-1.32,15.24-2.64,22.14-4.08l1.56,5.1c.18.66.24.6,1.14.24l4.08-1.8c.78-.36.84-.48.66-1.08a116.913,116.913,0,0,0-9.36-22.32c-.3-.6-.36-.6-1.2-.24Zm48.66-16.8c.42-1.5.84-3.54,1.44-5.7a11.422,11.422,0,0,1,1.26-2.4,1.441,1.441,0,0,0,.3-.96,1,1,0,0,0-.66-.96,34.969,34.969,0,0,0-7.56-1.68,41.285,41.285,0,0,1-.36,5.52c-.42,2.46-.9,5.1-1.5,7.5a81.087,81.087,0,0,1-9.72.6,27.69,27.69,0,0,1-4.44-.18c.3,2.16.6,4.2.84,5.46.12.78.36.96,1.26.96,2.82,0,7.02-.3,10.5-.66A225.225,225.225,0,0,1-385.68-1.56a.966.966,0,0,0,.48,1.2c1.26.72,4.2,1.98,4.8,2.22.66.18,1.02.24,1.32-.6,3.84-9.96,6.9-19.14,10.98-32.46a95.815,95.815,0,0,0,10.44-2.28c.78-.18.96-.36.9-1.14-.06-1.26-.24-3-.42-4.32-.06-.48-.3-.78-.96-.6C-361.08-38.7-364.32-37.92-366.66-37.5Zm1.08,27.54c.12,3.48.78,6.3,2.7,8.22,2.7,2.82,6.78,3.9,14.64,3.9a71.3,71.3,0,0,0,8.16-.66c.96-.06,1.02-.24.96-.96a37.506,37.506,0,0,0-.48-5.22c-.06-.48-.24-.6-.72-.54a89.7,89.7,0,0,1-10.08.84c-5.76,0-8.7-1.26-9.18-5.64-.06-.6-.3-.84-.9-.84A30.558,30.558,0,0,0-365.58-9.96Zm4.68-11.34a66.4,66.4,0,0,1,12.06-1.38,40.124,40.124,0,0,1,7.44.72c.84.18,1.14-.06,1.14-1.08a42.345,42.345,0,0,0-.06-4.8c0-.72-.18-.78-1.02-.9a43.694,43.694,0,0,0-7.02-.6,62.664,62.664,0,0,0-11.7,1.38c-.9.18-1.08.36-1.08,1.2C-361.14-25.56-361.02-23.4-360.9-21.3Zm52.8-16.14c-4.62.36-8.34.54-13.02.54.24,1.98.66,4.5.84,5.22a1.024,1.024,0,0,0,1.14.84c3.06,0,6.84-.3,10.08-.54-1.02,6-1.86,10.44-3.18,15.72-.24.9-.48,1.8-.78,2.82a4.093,4.093,0,0,0-.24,1.2c0,.54.36.78,1.32,1.2a16.865,16.865,0,0,0,4.5,1.32c.54.06.72-.18,1.14-.9.54-.78,1.14-1.5,1.68-2.28a19.951,19.951,0,0,1,15.78-7.44c4.56,0,6.84,2.58,6.84,5.7,0,3.78-2.22,6.54-6.84,8.46-4.8,1.98-8.46,2.76-17.22,3.3a11.45,11.45,0,0,1,3.24,4.26c.48,1.14.9,1.44,1.5,1.44A27.793,27.793,0,0,0-296.88,3c6.54-1.02,11.7-2.46,15.3-4.8,4.62-2.94,6.84-6.84,6.84-12.12,0-6.18-5.4-11.34-13.38-11.34a25.953,25.953,0,0,0-17.22,6.36c1.08-4.2,1.92-8.22,2.76-13.2,5.04-.66,8.28-1.32,13.44-2.46.54-.12.72-.3.72-.96a27.153,27.153,0,0,0-.42-4.44c-.12-.78-.42-.84-1.26-.6a109.724,109.724,0,0,1-11.28,2.22c.3-2.1.54-3.3.84-4.92a6.226,6.226,0,0,1,1.02-2.22,1.972,1.972,0,0,0,.42-.96c0-.48-.42-.84-1.2-1.08a39.27,39.27,0,0,0-7.2-1.26,19.907,19.907,0,0,1,.12,5.82C-307.56-41.52-307.8-39.54-308.1-37.44Zm90.18-1.32c5.82,0,7.8.12,8.16.12.66,0,.72-.06.72-.66v-5.28c0-.6-.06-.66-.72-.66-.36,0-2.34.12-8.16.12h-26.16c-5.82,0-7.8-.12-8.16-.12-.6,0-.66.06-.66.66v5.28c0,.6.06.66.66.66.36,0,2.34-.12,8.16-.12Zm5.28,38.7c5.34,0,7.14.12,7.5.12.6,0,.66-.06.66-.66V-5.88c0-.6-.06-.66-.66-.66-.36,0-2.16.12-7.5.12h-36.72c-5.34,0-7.2-.12-7.56-.12-.6,0-.66.06-.66.66V-.6c0,.6.06.66.66.66.36,0,2.22-.12,7.56-.12Zm-9-20.22c5.76,0,7.8.12,8.16.12.6,0,.66-.06.66-.66v-5.22c0-.6-.06-.66-.66-.66-.36,0-2.4.12-8.16.12h-18.72c-5.76,0-7.8-.12-8.16-.12-.6,0-.66.06-.66.66v5.22c0,.6.06.66.66.66.36,0,2.4-.12,8.16-.12Zm60.24-15.84a1.235,1.235,0,0,0,.54-.96c0-.36-.3-.6-.84-.78a45.759,45.759,0,0,0-6.12-1.38,15.441,15.441,0,0,1-2.4,4.32A52.754,52.754,0,0,1-192.96-17.7a13.136,13.136,0,0,1,3,3.84c.54.96.78,1.38,1.2,1.38a3.6,3.6,0,0,0,1.44-.54c1.86-.96,3.72-2.04,5.52-3.18.06,1.08.06,2.58.06,4.68V-6.6c0,8.52-.12,10.14-.12,10.56,0,.54.06.6.72.6h5.1c.6,0,.66-.06.66-.6V1.14h21.12V3.6c0,.6.06.66.66.66h5.1c.66,0,.72-.06.72-.66,0-.36-.12-1.92-.12-10.38v-9.78c1.92,1.08,4.02,2.16,6.24,3.18a3.931,3.931,0,0,0,1.44.54c.42,0,.6-.42,1.08-1.44a16.064,16.064,0,0,1,2.82-4.68A51.546,51.546,0,0,1-161.7-35.88Zm-13.98,22.44h21.12v9.3h-21.12Zm-2.04-5.52a59.057,59.057,0,0,0,12.18-11.94A51.392,51.392,0,0,0-152.16-19.2Zm17.7-27.66c-.72.42-.84.6-.42,1.08a51.656,51.656,0,0,0,15.06,12.84,2.851,2.851,0,0,0,1.32.6c.42,0,.66-.42,1.26-1.38a16.516,16.516,0,0,1,3.18-4.02c-6.78-3.12-11.28-6.3-15.72-11.46-.24-.24-.36-.36-.54-.36a1.663,1.663,0,0,0-.72.3Zm-15.96-2.64a20.174,20.174,0,0,1-2.52,3.66,42.22,42.22,0,0,1-12,9.06,16.226,16.226,0,0,1,3.24,3.66c.6.96.9,1.32,1.32,1.32a3.321,3.321,0,0,0,1.38-.66,45.967,45.967,0,0,0,11.94-10.5,6.81,6.81,0,0,1,1.62-1.44c.54-.3.9-.54.9-1.02,0-.3-.18-.66-.72-1.02A37.8,37.8,0,0,0-175.68-49.5Zm90.24,15.6v-5.7a16.523,16.523,0,0,1,.48-5.28,3.211,3.211,0,0,0,.24-1.08c0-.48-.24-.78-1.08-.96a55.766,55.766,0,0,0-7.02-1.02,39.886,39.886,0,0,1,.54,8.22l-.06,5.88h-12.9v-4.38c0-4.08,0-4.68.42-5.76a4.076,4.076,0,0,0,.36-1.26c0-.42-.24-.72-.9-.84a58.251,58.251,0,0,0-7.32-.96,41.7,41.7,0,0,1,.72,8.82v4.38h-1.8c-4.62,0-8.52-.12-11.04-.3a53.833,53.833,0,0,0,.42,5.82c.06.78.24,1.14.72,1.14,1.86-.12,6.66-.3,9.9-.3h1.8v2.28c0,3.78-.12,6.72-.3,9.84-.06.66.3.78,1.08.84a37.022,37.022,0,0,0,5.16,0c.66-.06,1.08-.18,1.02-.84-.18-3.18-.18-6.42-.18-9.96v-2.16H-92.4c-.24,7.32-1.2,11.46-3.54,15.3C-99-7.26-103.62-4.2-112.14-1.56a13.847,13.847,0,0,1,4.98,3.6c.48.48.78.66,1.14.66a5.033,5.033,0,0,0,1.68-.54C-98.04-.42-93.18-4.02-90.18-9c2.94-4.86,4.26-9.9,4.62-18.48h2.46c2.94,0,6.6.06,8.64.06.84.06.96-.18,1.02-.96a31.249,31.249,0,0,0,0-4.74c-.06-.66-.12-1.02-.84-.96-2.76.12-6.12.18-9.06.18ZM-24-18.54c4.44,0,8.88.06,13.38.12.84.06,1.08-.18,1.08-.9a44.224,44.224,0,0,0,0-5.64c0-.72-.18-.9-1.08-.84-4.62.06-9.24.18-13.8.18H-43.74a77.083,77.083,0,0,1-12.96-.72,65.121,65.121,0,0,0,.9,7.26c.18.9.66,1.26,1.38,1.26a47.979,47.979,0,0,1,8.82-.72Zm47.22-17.1c0-2.82.12-4.44.6-5.4a2.621,2.621,0,0,0,.42-1.26c0-.42-.24-.78-.96-.96a51.365,51.365,0,0,0-7.56-1.2,62.318,62.318,0,0,1,.6,10.98v22.14c0,4.92,1.26,7.74,4.26,9C23.1-1.26,26.64-.72,31.98-.72A120.011,120.011,0,0,0,49.8-1.8c.9-.06,1.26-.3,1.26-1.08,0-1.26-.18-3.54-.36-5.22-.06-.72-.18-.96-1.08-.84A105.867,105.867,0,0,1,32.7-7.56a30.743,30.743,0,0,1-7.56-.66c-1.56-.48-1.98-1.44-1.98-4.26v-7.98A157.411,157.411,0,0,0,43.74-27.9a31.867,31.867,0,0,1,4.98-1.98c.72-.18,1.02-.6,1.02-1.08a1.74,1.74,0,0,0-.48-1.08,34.422,34.422,0,0,0-4.98-5.4c-1.68,1.8-3.18,2.76-6.42,4.32A112.707,112.707,0,0,1,23.22-27.3Zm21.9-6.78a29.771,29.771,0,0,1,6.06,6.96.627.627,0,0,0,1.02.18l2.52-1.86a.605.605,0,0,0,.18-.96,27.615,27.615,0,0,0-5.7-6.42c-.36-.3-.6-.36-.9-.12Zm5.52-3.96a28.384,28.384,0,0,1,6,6.9.615.615,0,0,0,1.02.18l2.4-1.86a.694.694,0,0,0,.18-1.08,25.057,25.057,0,0,0-5.7-6.18c-.36-.3-.54-.36-.9-.12ZM89.76-41.7c-3.9,0-6.9,0-10.14-.24a34.956,34.956,0,0,0,.54,6.24c.12.66.3,1.08.78,1.02,3.24-.24,6.36-.36,9.48-.36l15.48-.06A73.6,73.6,0,0,1,94.62-20.04,72.882,72.882,0,0,1,73.5-4.74a16.438,16.438,0,0,1,5.04,3.9,1.341,1.341,0,0,0,1.02.54,3.8,3.8,0,0,0,1.38-.48A86.322,86.322,0,0,0,101.1-16.62,109.216,109.216,0,0,1,116.7-1.74a1.232,1.232,0,0,0,.84.48,1.037,1.037,0,0,0,.72-.36,32.149,32.149,0,0,0,4.02-4.08,1.484,1.484,0,0,0,.42-.9,1.365,1.365,0,0,0-.48-.84A141.074,141.074,0,0,0,105.6-21.96a94.684,94.684,0,0,0,7.68-11.22,10.989,10.989,0,0,1,2.22-2.64,1.656,1.656,0,0,0,.78-1.2,1.6,1.6,0,0,0-.3-.78,21.873,21.873,0,0,0-3.9-4.2,1.983,1.983,0,0,0-1.02-.48,1,1,0,0,0-.66.24c-.9.48-1.98.54-4.14.54Zm78.42,9.12h4.68c3.36,0,6.3.06,10.32.24.66,0,.78-.36.84-1.14.06-1.5.06-3.18,0-4.68,0-.66-.18-1.02-.78-.96-3.54.18-6.84.18-10.5.18H155.76a101.906,101.906,0,0,1-10.38-.24,33.265,33.265,0,0,0,.48,5.58c.18.9.3,1.32,1.02,1.26,2.46-.12,4.98-.24,9.3-.24h4.68v20.52H152.7c-3.84,0-8.4-.06-12.72-.3a34.979,34.979,0,0,0,.42,5.64c.18,1.02.3,1.26,1.26,1.2,4.68-.06,8.58-.24,11.04-.24h24.12c3.9,0,9.24.12,12.12.24.72,0,.9-.3.9-1.08.06-1.56.06-3.24,0-4.8,0-.72-.3-1.02-.96-.96-4.08.12-8.1.24-12.12.24h-8.58Zm40.86-4.8a63.512,63.512,0,0,1,12.24,9.78c.3.3.54.48.78.48s.42-.18.72-.48c.84-.9,2.82-3.3,3.72-4.5a1.29,1.29,0,0,0,.36-.78c0-.24-.18-.48-.54-.84a62.566,62.566,0,0,0-11.46-8.52,1.6,1.6,0,0,0-.78-.3,1.124,1.124,0,0,0-.84.48C212.1-40.86,210.36-39,209.04-37.38Zm1.32,29.94a41.573,41.573,0,0,0,4.8,6.66,1.555,1.555,0,0,0,1.02.66,1.659,1.659,0,0,0,1.08-.6,20.711,20.711,0,0,1,4.02-2.76A129,129,0,0,0,239.4-15.24a98.07,98.07,0,0,0,13.8-12.72c.66-.78.96-1.26.96-1.8a2.934,2.934,0,0,0-.3-1.14,26.782,26.782,0,0,1-1.68-7.02c-5.1,6.54-9.12,10.38-16.44,16.32a88.936,88.936,0,0,1-17.28,11.16A36.146,36.146,0,0,1,210.36-7.44ZM272.94-25.5a52.61,52.61,0,0,1,12.12,6.54,1.161,1.161,0,0,0,.72.36c.24,0,.48-.24.78-.6a24.432,24.432,0,0,0,2.64-4.56,1.78,1.78,0,0,0,.24-.66c0-.36-.24-.6-.66-.9a41.641,41.641,0,0,0-11.52-5.88c-.54-.12-.84.18-1.14.6C275.4-29.64,274.44-27.9,272.94-25.5Zm7.26-14.1a58.028,58.028,0,0,1,11.64,7.38,1.544,1.544,0,0,0,.9.42.668.668,0,0,0,.6-.36,25.682,25.682,0,0,0,3.06-4.5,1.453,1.453,0,0,0,.24-.78.95.95,0,0,0-.48-.78,40.791,40.791,0,0,0-11.28-6.66c-.72-.36-1.08-.24-1.5.48C282.36-42.84,281.22-41.16,280.2-39.6ZM277.68-5.4A37.891,37.891,0,0,0,282.12.72a1.544,1.544,0,0,0,1.2.72,1.329,1.329,0,0,0,.96-.48,19.715,19.715,0,0,1,3.48-2.04A139.3,139.3,0,0,0,305.7-12.36a111.787,111.787,0,0,0,15.24-13.86,1.865,1.865,0,0,0,.66-1.38,2.934,2.934,0,0,0-.3-1.14,29.966,29.966,0,0,1-1.74-6.72,109.185,109.185,0,0,1-17.28,16.74A100.507,100.507,0,0,1,285.84-8.34,27.742,27.742,0,0,1,277.68-5.4Zm30-38.64a29.771,29.771,0,0,1,6.06,6.96.627.627,0,0,0,1.02.18l2.52-1.86a.605.605,0,0,0,.18-.96,27.615,27.615,0,0,0-5.7-6.42c-.36-.3-.6-.36-.9-.12ZM313.2-48a28.385,28.385,0,0,1,6,6.9.615.615,0,0,0,1.02.18l2.4-1.86a.694.694,0,0,0,.18-1.08,25.056,25.056,0,0,0-5.7-6.18c-.36-.3-.54-.36-.9-.12Zm27.84,10.62a63.513,63.513,0,0,1,12.24,9.78c.3.3.54.48.78.48s.42-.18.72-.48c.84-.9,2.82-3.3,3.72-4.5a1.29,1.29,0,0,0,.36-.78c0-.24-.18-.48-.54-.84a62.565,62.565,0,0,0-11.46-8.52,1.6,1.6,0,0,0-.78-.3,1.124,1.124,0,0,0-.84.48C344.1-40.86,342.36-39,341.04-37.38Zm1.32,29.94a41.573,41.573,0,0,0,4.8,6.66,1.555,1.555,0,0,0,1.02.66,1.659,1.659,0,0,0,1.08-.6,20.709,20.709,0,0,1,4.02-2.76A129.006,129.006,0,0,0,371.4-15.24a98.072,98.072,0,0,0,13.8-12.72c.66-.78.96-1.26.96-1.8a2.934,2.934,0,0,0-.3-1.14,26.782,26.782,0,0,1-1.68-7.02c-5.1,6.54-9.12,10.38-16.44,16.32a88.935,88.935,0,0,1-17.28,11.16A36.145,36.145,0,0,1,342.36-7.44Zm95.16-7.5a25.039,25.039,0,0,0-4.8-.48c-6.06,0-10.5,3.54-10.5,8.46,0,5.16,3.84,8.4,10.74,8.4,7.08,0,10.5-2.76,10.98-7.8a35.63,35.63,0,0,1,6.48,4.8.83.83,0,0,0,.54.3.726.726,0,0,0,.54-.36,32.414,32.414,0,0,0,2.76-4.62c.3-.66.24-.84-.3-1.2A39.266,39.266,0,0,0,444-13.2c-.3-5.16-.42-9.36-.42-16.08a67.612,67.612,0,0,0,9.24-1.26c.42-.06.66-.36.66-.9a23.987,23.987,0,0,0-.36-4.26c-.12-.66-.24-.9-.96-.72-2.58.42-5.7.84-8.52,1.08,0-2.76,0-4.32.12-6.36a6.769,6.769,0,0,1,.48-2.1,2.573,2.573,0,0,0,.36-1.02c0-.54-.42-.84-1.08-1.02a33.4,33.4,0,0,0-7.26-1.14,24.735,24.735,0,0,1,.78,5.88c0,2.22.06,4.14.06,6.3a86.8,86.8,0,0,1-13.68-.18,36.759,36.759,0,0,0,.42,5.46c.06.6.3.78,1.08.78a121.33,121.33,0,0,0,12.36.06C437.34-23.94,437.4-19.56,437.52-14.94Zm.12,5.7a8.451,8.451,0,0,1,.06,1.2c0,2.16-1.92,3.9-4.92,3.9-3.54,0-4.86-1.14-4.86-3s1.68-2.88,4.5-2.88A16.712,16.712,0,0,1,437.64-9.24ZM409.8-46.86a30.193,30.193,0,0,1-.42,7.08c-1.98,12.18-2.46,16.98-2.46,22.74,0,6.9.9,14.04,2.58,18.3.3.84.54.9,1.2.72A25.128,25.128,0,0,0,415.2.96c.54-.18.78-.36.72-.78A11.329,11.329,0,0,1,415.98-3c.24-1.74.96-4.38,3.06-9.12a1.741,1.741,0,0,0,.36-.96,1.3,1.3,0,0,0-.36-.84,15.955,15.955,0,0,1-2.1-3.78c-1.26,3-2.52,5.58-3.72,8.34-.18-2.52-.18-5.28-.18-7.68,0-4.38,1.02-12.78,3-21.84a12.177,12.177,0,0,1,1.08-3.3,3.063,3.063,0,0,0,.42-1.32c0-.48-.24-.84-.9-1.2A46.851,46.851,0,0,0,409.8-46.86ZM-535.23,81.1a39.826,39.826,0,0,1-18.78,24.48,16.629,16.629,0,0,1,3.18,3.72c.54.96.84,1.38,1.2,1.38.3,0,.66-.3,1.38-.78a55.7,55.7,0,0,0,7.98-7.08v8.7c0,10.2-.12,12.12-.12,12.54,0,.6.06.66.66.66h5.4c.6,0,.66-.06.66-.66v-3.42h22.02v2.94c0,.6.06.66.66.66h5.4c.66,0,.72-.06.72-.66,0-.36-.12-2.28-.12-12.36v-7.56c0-5.82.12-7.74.12-8.1,0-.6-.06-.66-.72-.66-.36,0-2.34.12-8.1.12h-20.7a60.543,60.543,0,0,0,6.12-13.92h19.62c5.52,0,7.38.12,7.74.12.6,0,.66-.06.66-.66v-4.8c0-.6-.06-.66-.66-.66-.36,0-2.22.12-7.74.12h-34.68c-5.52,0-7.38-.12-7.74-.12-.6,0-.66.06-.66.66v4.8c0,.6.06.66.66.66.36,0,2.22-.12,7.74-.12Zm1.56,19.74h22.02v13.92h-22.02Zm59.58-19.2c0-4.02,0-5.7.3-6.48a3.887,3.887,0,0,0,.42-1.38c0-.42-.36-.72-1.08-.78-2.04-.3-4.2-.42-6.66-.54a58.224,58.224,0,0,1,.6,9.12v6c0,7.86-.36,13.62-1.14,17.58a32.328,32.328,0,0,1-6.48,14.76,15.232,15.232,0,0,1,3.9,3.6c.6.66.9,1.02,1.2,1.02s.6-.36,1.08-1.08c3.36-5.04,5.16-10.02,6.48-16.5a117.3,117.3,0,0,0,1.38-19.98Zm30.3,31.38c0,7.5-.12,10.68-.12,11.04,0,.6.06.66.66.66h5.34c.6,0,.66-.06.66-.66,0-.36-.12-3.54-.12-11.1V81.22c0-4.26.18-5.64.48-6.36a3.407,3.407,0,0,0,.42-1.32c0-.48-.48-.72-1.08-.78a58.632,58.632,0,0,0-6.72-.54,66.181,66.181,0,0,1,.48,9.18Zm-18.66-4.92c0,6.36-.12,9.6-.12,9.96,0,.66.06.72.66.72h5.28c.66,0,.72-.06.72-.72,0-.36-.12-3.6-.12-9.96V83.98c0-4.26.12-5.58.42-6.24a3.669,3.669,0,0,0,.42-1.44c0-.42-.48-.72-1.08-.78-2.04-.24-4.38-.36-6.72-.42a54.625,54.625,0,0,1,.54,9.06Zm65.64-35.28c-5.46,0-7.32-.12-7.74-.12-.6,0-.66.06-.66.66,0,.42.12,2.28.12,6.48V93.1c0,4.2-.12,6.06-.12,6.48,0,.6.66.66,1.26.66.42,0,2.28-.12,7.74-.12h13.38c5.46,0,6.78.12,7.14.12.66,0,1.32-.06,1.32-.66,0-.42-.12-2.28-.12-6.48V79.84c0-4.2.12-6.12.12-6.48,0-.6-.06-.66-.72-.66-.36,0-2.28.12-7.74.12Zm16.26,22.86h-18.54V92.14h18.54ZM-399.09,88V84.7h18.54V88Zm0-10.62h18.54v3.18h-18.54Zm-18.3,23.58c0,4.98-.12,7.26-.12,7.68,0,.6.06.66.66.66.36,0,2.34-.12,7.98-.12h11.88v9.24c0,4.44-.12,6.06-.12,6.48,0,.6.06.66.6.66h5.46c.6,0,.66-.06.66-.66,0-.36-.12-2.04-.12-6.48v-9.24h14.28c5.58,0,7.5.12,7.86.12.6,0,.66-.06.66-.66v-4.26c0-.6-.06-.66-.66-.66-.36,0-2.28.12-7.86.12h-34.8V83.5c0-2.52.06-3.36.36-4.14a4.579,4.579,0,0,0,.36-1.26c0-.36-.36-.72-.96-.78a57.952,57.952,0,0,0-6.54-.42,38.007,38.007,0,0,1,.42,6.72Zm32.1,12c-.66.42-.78.6-.36,1.02a48.8,48.8,0,0,0,12,9.6,3.322,3.322,0,0,0,1.38.66c.42,0,.66-.42,1.32-1.32a16.41,16.41,0,0,1,3.3-3.6,40.562,40.562,0,0,1-13.02-8.34.81.81,0,0,0-.6-.3,1.282,1.282,0,0,0-.72.3Zm-22.02-2.58a13.583,13.583,0,0,1-2.22,2.88,31.372,31.372,0,0,1-10.56,6.54,13.419,13.419,0,0,1,3.36,3.06c.6.9.9,1.32,1.38,1.32a3.858,3.858,0,0,0,1.38-.6,39.334,39.334,0,0,0,9.54-7.02,10.152,10.152,0,0,1,1.92-1.62c.48-.18.84-.54.84-.9,0-.24-.24-.48-.9-.96A30.238,30.238,0,0,0-407.31,110.38Zm85.74-7.68c5.1-2.1,9-3.42,12.9-4.8a19.187,19.187,0,0,1,3.66-.9c.6-.12.9-.36.9-.84a2.372,2.372,0,0,0-.48-1.32,36.962,36.962,0,0,0-4.2-5.28,18.045,18.045,0,0,1-4.56,3.24c-3.06,1.56-6.48,3.12-8.82,4.2-.6-4.68-3.36-6.48-7.32-6.48a11.939,11.939,0,0,0-6,1.86l-.06-.12a61.92,61.92,0,0,0,4.5-6.66c4.38-.48,9.54-1.14,14.04-1.8.84-.12,1.08-.36,1.02-.96a20.229,20.229,0,0,0-.6-4.32c-.12-.54-.3-.72-.96-.6a96.52,96.52,0,0,1-10.92,1.86c.72-1.62,1.02-2.4,1.38-3.24a4.673,4.673,0,0,1,1.02-1.44,1.159,1.159,0,0,0,.42-.9,1.077,1.077,0,0,0-.72-1.02,37.885,37.885,0,0,0-6.84-1.68,14.606,14.606,0,0,1-.42,3.66,46.234,46.234,0,0,1-1.8,5.16,132.345,132.345,0,0,1-13.8.06c.18,1.8.42,4.02.6,4.98.12.66.3.96.84.96,3.54,0,6.78-.06,9.6-.18a61.312,61.312,0,0,1-12.54,14.88c-.3.24-.42.42-.42.66a.976.976,0,0,0,.24.54,28.54,28.54,0,0,0,3.42,3.96,1.2,1.2,0,0,0,.66.42c.24,0,.42-.18.72-.54a80.85,80.85,0,0,1,6-6.54c2.76-2.4,5.46-4.2,8.28-4.32,2.7-.12,3.42,1.08,3.6,4.14-9.06,4.68-12.66,8.88-12.66,14.64,0,6.96,5.22,9.9,15.06,9.9a106.718,106.718,0,0,0,14.88-.78c.48,0,.72-.42.66-1.14a26.853,26.853,0,0,0-.54-4.92c-.06-.54-.3-.72-.84-.66a102.539,102.539,0,0,1-14.94,1.2c-6.3,0-8.34-1.62-8.34-4.14,0-2.88,1.92-5.22,7.26-7.98-.06,2.16-.06,5.16-.06,7.32,0,.6.24.96.78.96a32.459,32.459,0,0,0,4.26-.3c.78-.12,1.14-.42,1.14-1.08Zm50.58,10.56h2.22c5.16,0,6.96.12,7.32.12.6,0,.66-.06.66-.6v-3.6c0-.6-.06-.66-.66-.66-.36,0-2.16.12-7.32.12h-2.22v-2.58h2.58c5.04,0,6.78.12,7.2.12.6,0,.66-.06.66-.66,0-.36-.12-1.8-.12-4.98V94.12c0-3.24.12-4.62.12-4.92,0-.6-.06-.66-.66-.66-.42,0-2.16.12-7.2.12h-2.58V86.02h3.48c5.34,0,7.32.12,7.68.12.54,0,.48-.06.48-.66V81.94c0-.6-.06-.66-.6-.66-.36,0-2.22.12-7.56.12h-3.48V78.04c2.46-.3,4.86-.72,7.26-1.2a17.589,17.589,0,0,1,2.7-.42c.78,0,1.26-.24,1.26-.6a1.466,1.466,0,0,0-.48-1.08,26,26,0,0,0-3.42-3.3,21.81,21.81,0,0,1-3.3,1.02,115.074,115.074,0,0,1-21.24,2.28,12.065,12.065,0,0,1,1.86,3.24c.48,1.38.54,1.44,2.22,1.32,2.58-.12,5.16-.36,7.74-.6v2.7h-4.44c-5.4,0-7.26-.12-7.62-.12-.6,0-.66.06-.66.66v3.54c0,.6.06.66.66.66.36,0,2.22-.12,7.62-.12h4.44v2.64h-2.4c-5.1,0-6.84-.12-7.2-.12-.66,0-.72.06-.72.66,0,.3.12,1.68.12,4.92v6.42c0,3.18-.12,4.56-.12,4.98,0,.6.06.66.72.66.36,0,2.1-.12,7.2-.12h2.4v2.58h-3.54c-5.22,0-6.96-.12-7.32-.12-.6,0-.66.06-.66.66v3.6c0,.54.06.6.66.6.36,0,2.1-.12,7.32-.12h3.54v3.48c-2.4.24-4.68.36-6.78.48a54.763,54.763,0,0,1-6.3.06c.3,1.8.66,3.72,1.02,5.28.18.66.48,1.02.84,1.02a2.326,2.326,0,0,0,1.02-.36,9.647,9.647,0,0,1,2.22-.42c6.78-.72,14.58-1.86,20.94-3.12a4.689,4.689,0,0,0,1.14-.24c-.6.66-1.26,1.26-1.92,1.86a11.128,11.128,0,0,1,3.84,2.88c.54.54.84.84,1.14.84s.66-.3,1.26-.9a38.186,38.186,0,0,0,8.88-17.1,105.7,105.7,0,0,0,2.22-17.22h5.04c-.06,11.46-.54,19.56-1.5,25.38-.42,2.82-1.44,3.78-3.24,3.78a32.2,32.2,0,0,1-4.98-.48,13.685,13.685,0,0,1,1.2,4.02c.18,1.98.18,1.98,1.56,2.1,1.02.06,2.04.12,3.3.12,4.62,0,6.84-2.1,7.62-6.6,1.14-7.08,1.68-15.96,1.74-27.48,0-1.92,0-3.66.12-5.7,0-.6-.12-.72-.72-.72-.36,0-1.92.12-6.54.12h-3.42c.06-1.5.06-3,.06-4.62,0-3.66.12-5.52.36-6.12a4.606,4.606,0,0,0,.36-1.44c0-.36-.3-.6-.9-.66-2.1-.24-3.84-.36-6-.42a59.368,59.368,0,0,1,.42,8.46c0,1.68-.06,3.24-.06,4.8-3.72,0-5.1-.12-5.4-.12-.66,0-.72.06-.72.66v4.38c0,.6.06.66.72.66.3,0,1.62-.06,5.16-.12a82.369,82.369,0,0,1-1.98,15.3,33.868,33.868,0,0,1-6.84,13.44l.18-1.08a24.817,24.817,0,0,1,.54-2.76c-3.54.6-6.96,1.08-10.2,1.44Zm5.22-11.04h-5.22V99.04h5.22Zm0-9.78v3.12h-5.22V92.44Zm-15.6,9.78V99.04h4.98v3.18Zm0-6.66V92.44h4.98v3.12Zm75.36-8.1c-2.34.36-4.56.66-7.08.9-2.64.24-5.28.42-7.92.42a54.82,54.82,0,0,0,1.86,6.18,1.315,1.315,0,0,0,1.92.78,17.632,17.632,0,0,1,3.3-.96c1.62-.3,3.54-.66,5.88-1.02a126.515,126.515,0,0,1-10.98,23.52,1.117,1.117,0,0,0-.24.66,1.234,1.234,0,0,0,.48.9,27.286,27.286,0,0,0,4.14,2.64.984.984,0,0,0,1.56-.54c4.68-8.4,8.1-16.68,12.06-28.2a39.743,39.743,0,0,1,5.04-.42c2.64,0,3.42,1.32,3.42,5.58a46.226,46.226,0,0,1-2.34,14.88c-.96,2.46-1.86,3.18-3.84,3.18a18,18,0,0,1-6.6-1.32,17.145,17.145,0,0,1,1.14,5.58,1.558,1.558,0,0,0,1.08,1.68,19.59,19.59,0,0,0,5.94.66c3.48,0,6.36-1.8,8.1-5.64,2.04-4.32,3.24-12.18,3.24-19.26,0-7.26-3.06-11.1-8.7-11.1a45.244,45.244,0,0,0-4.68.24c.78-2.52,1.38-4.74,2.16-7.2a7.592,7.592,0,0,1,1.2-2.28,1.25,1.25,0,0,0,.42-.9,1.263,1.263,0,0,0-.96-1.2,43.914,43.914,0,0,0-7.2-1.98,40.84,40.84,0,0,1-.6,6.66C-204.63,81.94-205.05,84.04-206.01,87.46Zm21.36-.48c4.32,4.08,7.44,9.24,9.84,15.54.18.72.78.78,1.38.48a24.485,24.485,0,0,0,4.5-3,.859.859,0,0,0,.24-1.2,40.154,40.154,0,0,0-9.96-14.58c-.42-.42-.72-.54-1.14-.3A50.878,50.878,0,0,0-184.65,86.98Zm54.42-5.28c-7.2.42-14.94.9-18.6,1.2a39.573,39.573,0,0,1-7.32.24,42.046,42.046,0,0,0,1.5,6.06c.18.6.42.84,1.02.84.54,0,1.5-.54,2.82-.72,4.74-.66,13.2-1.38,20.76-1.8,0,1.98.06,4.02.06,6.12a7.353,7.353,0,0,0-4.56-1.2,8.743,8.743,0,0,0-9.06,9c0,5.76,3.6,9.18,8.34,9.18,1.98,0,4.44-.66,5.64-2.4-1.08,5.04-5.28,10.08-12.3,13.2a13.372,13.372,0,0,1,4.56,2.4,3.4,3.4,0,0,0,1.8.9,5.719,5.719,0,0,0,2.34-1.14,22.4,22.4,0,0,0,10.68-19.38,18.692,18.692,0,0,0-.9-5.94c-.06-3.66-.06-7.5-.06-11.16,6.24-.06,12.06-.06,18.3.12.72.06,1.02-.12,1.02-.78.06-1.5.06-3.06,0-4.56-.06-.78-.18-.9-.9-.9-5.76,0-11.94.06-18.42.3.06-2.28.06-3.06.12-3.84a6.272,6.272,0,0,1,.48-1.74,2.529,2.529,0,0,0,.54-1.38c0-.54-.66-.96-1.68-1.14a60.961,60.961,0,0,0-7.02-.84,19.066,19.066,0,0,1,.72,4.38C-130.29,78.34-130.29,79.84-130.23,81.7Zm-3.84,15.42c2.4,0,3.96,1.38,3.96,3.84a3.855,3.855,0,0,1-4.08,4.14,3.721,3.721,0,0,1-3.84-4.08A3.818,3.818,0,0,1-134.07,97.12Zm538.98-12c-7.26,4.74-11.52,10.5-11.52,19.02,0,12.48,11.58,18.54,22.14,18.54.72,0,.96-.36,1.14-1.26a21.344,21.344,0,0,0,.66-5.16c0-.66-.36-.9-1.32-.9-10.44-.66-15.96-4.86-15.96-12.6,0-7.2,5.1-14.22,15.3-17.7a26.771,26.771,0,0,1,7.32-1.32c.78,0,1.14-.18,1.14-.9a34.276,34.276,0,0,0-.66-5.28c-.06-.42-.36-.78-1.26-.66-15.48,2.04-28.68,4.02-36.06,5.1a82.771,82.771,0,0,1-9.54,1.02,41.81,41.81,0,0,0,2.22,6.48,1.4,1.4,0,0,0,1.14.9,3.5,3.5,0,0,0,1.32-.48c.9-.3,1.5-.42,3.78-.96,6.42-1.32,12.84-2.58,20.16-3.96Zm8.7,8.58a29.77,29.77,0,0,1,6.06,6.96.627.627,0,0,0,1.02.18l2.52-1.86a.605.605,0,0,0,.18-.96,27.616,27.616,0,0,0-5.7-6.42c-.36-.3-.6-.36-.9-.12Zm5.52-3.96a28.384,28.384,0,0,1,6,6.9.615.615,0,0,0,1.02.18l2.4-1.86a.694.694,0,0,0,.18-1.08,25.057,25.057,0,0,0-5.7-6.18c-.36-.3-.54-.36-.9-.12Zm47.94-8.04c-7.2.42-14.94.9-18.6,1.2a39.573,39.573,0,0,1-7.32.24,42.048,42.048,0,0,0,1.5,6.06c.18.6.42.84,1.02.84.54,0,1.5-.54,2.82-.72,4.74-.66,13.2-1.38,20.76-1.8,0,1.98.06,4.02.06,6.12a7.353,7.353,0,0,0-4.56-1.2,8.743,8.743,0,0,0-9.06,9c0,5.76,3.6,9.18,8.34,9.18,1.98,0,4.44-.66,5.64-2.4-1.08,5.04-5.28,10.08-12.3,13.2a13.372,13.372,0,0,1,4.56,2.4,3.4,3.4,0,0,0,1.8.9,5.719,5.719,0,0,0,2.34-1.14,22.4,22.4,0,0,0,10.68-19.38,18.692,18.692,0,0,0-.9-5.94c-.06-3.66-.06-7.5-.06-11.16,6.24-.06,12.06-.06,18.3.12.72.06,1.02-.12,1.02-.78.06-1.5.06-3.06,0-4.56-.06-.78-.18-.9-.9-.9-5.76,0-11.94.06-18.42.3.06-2.28.06-3.06.12-3.84a6.271,6.271,0,0,1,.48-1.74,2.529,2.529,0,0,0,.54-1.38c0-.54-.66-.96-1.68-1.14a60.961,60.961,0,0,0-7.02-.84,19.069,19.069,0,0,1,.72,4.38C467.01,78.34,467.01,79.84,467.07,81.7Zm-3.84,15.42c2.4,0,3.96,1.38,3.96,3.84a3.855,3.855,0,0,1-4.08,4.14,3.721,3.721,0,0,1-3.84-4.08A3.818,3.818,0,0,1,463.23,97.12Zm43.92,12.54a8.64,8.64,0,1,0,8.7,8.64A8.655,8.655,0,0,0,507.15,109.66Zm0,3.66a4.98,4.98,0,1,1-4.98,4.98A4.894,4.894,0,0,1,507.15,113.32Z" transform="translate(683.5 1139.899)" fill="#d10000" stroke="#d10000" stroke-width="1"/>
    <path id="パス_1165" data-name="パス 1165" d="M-1.68-46.44h-8.46v8.1h4.26l-3.96,9.36h3.78l4.38-9.36Zm11.82,0H1.68v8.1H5.94L1.98-28.98H5.76l4.38-9.36Z" transform="translate(612 1230)" fill="#d10000" stroke="#d10000" stroke-width="1"/>
    <path id="パス_1166" data-name="パス 1166" d="M-1.68-46.44h-8.46v8.1h4.26l-3.96,9.36h3.78l4.38-9.36Zm11.82,0H1.68v8.1H5.94L1.98-28.98H5.76l4.38-9.36Z" transform="translate(1038 1230)" fill="#d10000" stroke="#d10000" stroke-width="1"/>
    <g id="グループ_304" data-name="グループ 304" transform="translate(504.592 1027.175)">
      <g id="パス_206" data-name="パス 206" transform="translate(-46.329 -0.004)" fill="#d10000" stroke-miterlimit="10">
        <path d="M 508.4709167480469 241.6951141357422 L 507.445556640625 241.6951141357422 L 450.5390014648438 241.6951141357422 L 448.6180114746094 241.6951141357422 L 449.2019348144531 239.8650360107422 L 475.8509521484375 156.3453826904297 L 476.1626281738281 155.3685455322266 L 477.18798828125 155.3685455322266 L 522.33203125 155.3685455322266 L 522.3380737304688 155.3685455322266 L 540.4391479492188 155.3685455322266 L 544.4032592773438 155.3685455322266 L 541.322265625 157.8628234863281 L 533.0936889648438 164.5243377685547 L 529.3983154296875 176.1073303222656 L 529.0866088867188 177.0842132568359 L 528.0612182617188 177.0842132568359 L 492.2271423339844 177.0842132568359 L 488.8476257324219 187.6739959716797 L 501.6591796875 187.6739959716797 L 503.6599426269531 187.6739959716797 L 503.6565246582031 187.6834106445312 L 523.5209350585938 187.6834106445312 L 525.4683227539062 187.6834106445312 L 525.4529418945312 187.7295684814453 L 529.9688720703125 187.7295684814453 L 533.9326782226562 187.7295684814453 L 530.8519897460938 190.2238006591797 L 522.37353515625 197.0883026123047 L 518.657958984375 208.4200744628906 L 518.3411254882812 209.3862609863281 L 517.3243408203125 209.3862609863281 L 496.6266784667969 209.3862609863281 L 495.6266174316406 209.3888244628906 L 481.9185791015625 209.3888244628906 L 478.5397033691406 219.9794464111328 L 501.725341796875 219.9794464111328 C 501.7584533691406 219.9771728515625 501.7915649414062 219.9760589599609 501.8250122070312 219.9760589599609 L 519.9260864257812 219.9760589599609 L 523.8896484375 219.9760589599609 L 520.8092651367188 222.4702606201172 L 512.4439086914062 229.2437438964844 L 508.7826232910156 240.7182769775391 L 508.4709167480469 241.6951141357422 Z" stroke="none"/>
        <path d="M 507.445556640625 240.2916717529297 L 511.2344970703125 228.4171752929688 L 519.9260864257812 221.3795166015625 L 501.8250122070312 221.3795166015625 C 501.8139038085938 221.3795166015625 501.8070678710938 221.3829040527344 501.7967834472656 221.3829040527344 L 476.6187744140625 221.3829040527344 L 480.8931884765625 207.9853515625 L 495.6266174316406 207.9853515625 L 495.6275024414062 207.9827880859375 L 517.3243408203125 207.9827880859375 L 521.1688232421875 196.2578735351562 L 529.9688720703125 189.1330261230469 L 523.5055541992188 189.1330261230469 L 523.5209350585938 189.0868835449219 L 501.65576171875 189.0868835449219 L 501.6591796875 189.0774536132812 L 486.9265441894531 189.0774536132812 L 491.2018127441406 175.6807556152344 L 528.0612182617188 175.6807556152344 L 531.88427734375 163.6977233886719 L 540.4391479492188 156.7720184326172 L 477.18798828125 156.7720184326172 L 450.5390014648438 240.2916717529297 L 507.445556640625 240.2916717529297 M 509.4963073730469 243.0985870361328 L 446.697021484375 243.0985870361328 L 475.1372680664062 153.965087890625 L 548.3673706054688 153.965087890625 L 534.3031616210938 165.3509521484375 L 530.1119995117188 178.4876861572266 L 493.25244140625 178.4876861572266 L 490.7687377929688 186.2705230712891 L 505.661376953125 186.2705230712891 L 505.657958984375 186.2799530029297 L 527.4153442382812 186.2799530029297 L 527.3999633789062 186.3260955810547 L 537.8965454101562 186.3260955810547 L 523.5781860351562 197.9187316894531 L 519.3579711914062 210.7897186279297 L 497.6236572265625 210.7897186279297 L 495.6266174316406 210.7922821044922 L 482.9439697265625 210.7922821044922 L 480.4606323242188 218.5759735107422 L 501.6846618652344 218.5759735107422 C 501.731201171875 218.5737152099609 501.7779235839844 218.5725860595703 501.8250122070312 218.5725860595703 L 527.8532104492188 218.5725860595703 L 513.6533813476562 230.0702972412109 L 509.4963073730469 243.0985870361328 Z" stroke="none" fill="#fff"/>
      </g>
      <g id="パス_207" data-name="パス 207" transform="translate(-35.914)" fill="#d10000" stroke-miterlimit="10">
        <path d="M 441.6436462402344 241.6911773681641 L 440.6182861328125 241.6911773681641 L 422.9369201660156 241.6911773681641 L 421.8710021972656 241.6911773681641 L 421.5849304199219 240.6643829345703 L 411.5542907714844 204.6607666015625 L 400.0506591796875 240.7143249511719 L 399.7389831542969 241.6911773681641 L 398.7135925292969 241.6911773681641 L 378.8569946289062 241.6911773681641 L 376.9359741210938 241.6911773681641 L 377.5199279785156 239.861083984375 L 404.1774597167969 156.318359375 L 404.4924011230469 155.3314056396484 L 405.5283508300781 155.3415985107422 L 414.5088195800781 155.4299621582031 C 414.683837890625 155.3865051269531 414.8658142089844 155.3645935058594 415.0530700683594 155.3645935058594 L 433.1549987792969 155.3645935058594 L 437.1192932128906 155.3645935058594 L 434.0380554199219 157.8589019775391 L 426.8482055664062 163.6791534423828 L 434.8845520019531 192.5242309570312 L 446.4300231933594 156.3414306640625 L 446.7417297363281 155.3645935058594 L 447.76708984375 155.3645935058594 L 455.2184753417969 155.3645935058594 L 455.2244262695312 155.3645935058594 L 473.3263244628906 155.3645935058594 L 477.2904968261719 155.3645935058594 L 474.2094116210938 157.85888671875 L 466.3681640625 164.2067413330078 L 441.9553527832031 240.71435546875 L 441.6436462402344 241.6911773681641 Z" stroke="none"/>
        <path d="M 405.5145263671875 156.7449951171875 L 378.8569946289062 240.2877197265625 L 398.7135925292969 240.2877197265625 L 411.6453552246094 199.7582702636719 L 422.9369201660156 240.2877197265625 L 440.6182861328125 240.2877197265625 L 465.1587524414062 163.3800964355469 L 473.3263244628906 156.76806640625 L 447.76708984375 156.76806640625 L 434.79345703125 197.4266052246094 L 425.2489318847656 163.1681213378906 L 433.1549987792969 156.76806640625 L 415.0530700683594 156.76806640625 C 414.9154663085938 156.76806640625 414.8103332519531 156.79541015625 414.7214660644531 156.8355865478516 L 405.5145263671875 156.7449951171875 M 403.4703063964844 153.9178161621094 L 414.3654479980469 154.0250244140625 C 414.5894470214844 153.9825286865234 414.819091796875 153.9611358642578 415.0530700683594 153.9611358642578 L 441.0836181640625 153.9611358642578 L 428.447509765625 164.1902160644531 L 434.9756469726562 187.6219024658203 L 445.7163696289062 153.9611358642578 L 481.2546691894531 153.9611358642578 L 467.5775756835938 165.0333862304688 L 442.6690063476562 243.0946502685547 L 420.8050842285156 243.0946502685547 L 411.4631958007812 209.5632934570312 L 400.7643432617188 243.0946502685547 L 375.0149536132812 243.0946502685547 L 403.4703063964844 153.9178161621094 Z" stroke="none" fill="#fff"/>
      </g>
      <g id="パス_208" data-name="パス 208" transform="translate(-21.21 -0.062)" fill="#d10000" stroke-miterlimit="10">
        <path d="M 342.4837341308594 242.1898040771484 L 341.466796875 242.1898040771484 L 340.75439453125 242.1898040771484 L 322.9715881347656 242.1898040771484 L 296.9029541015625 242.1898040771484 L 296.5052185058594 242.1898040771484 L 277.648193359375 242.1898040771484 L 275.707763671875 242.1898040771484 L 276.3152770996094 240.3469390869141 L 303.8796691894531 156.7312316894531 L 304.1974792480469 155.7671661376953 L 305.2125854492188 155.7671661376953 L 306.3761291503906 155.7671661376953 L 324.4673461914062 155.7671661376953 L 367.9627990722656 155.7671661376953 L 369.880615234375 155.7671661376953 L 369.300537109375 157.5951538085938 L 363.4598693847656 176.0005798339844 L 363.1492004394531 176.9795227050781 L 362.1221313476562 176.9795227050781 L 319.4151611328125 176.9795227050781 L 304.9110717773438 220.9774475097656 L 327.9873046875 220.9774475097656 L 331.6618041992188 209.7661285400391 L 318.1759643554688 209.7661285400391 L 316.2653198242188 209.7661285400391 L 316.8367309570312 207.9429321289062 L 322.7483215332031 189.0810394287109 L 323.056640625 188.0973052978516 L 324.0875549316406 188.0973052978516 L 358.240478515625 188.0973052978516 L 360.1753540039062 188.0973052978516 L 359.5745849609375 189.9365539550781 L 357.0286254882812 197.7308807373047 L 357.0552673339844 197.7308807373047 L 356.4519958496094 199.5714569091797 L 342.8004455566406 241.2234497070312 L 342.4837341308594 242.1898040771484 Z" stroke="none"/>
        <path d="M 341.466796875 240.7863464355469 L 355.1183471679688 199.1343536376953 L 355.09375 199.1343536376953 L 358.240478515625 189.5007781982422 L 324.0875549316406 189.5007781982422 L 318.1759643554688 208.3626708984375 L 333.5986938476562 208.3626708984375 L 329.0042419433594 222.3809051513672 L 302.9706420898438 222.3809051513672 L 318.4000549316406 175.5760650634766 L 362.1221313476562 175.5760650634766 L 367.9627990722656 157.170654296875 L 305.2125854492188 157.170654296875 L 277.648193359375 240.7863464355469 L 341.466796875 240.7863464355469 M 343.5006713867188 243.59326171875 L 273.7673645019531 243.59326171875 L 303.1824035644531 154.3637237548828 L 371.7984313964844 154.3637237548828 L 364.17626953125 178.3829956054688 L 320.4302673339844 178.3829956054688 L 306.8514709472656 219.573974609375 L 326.9703674316406 219.573974609375 L 329.7248840332031 211.1696014404297 L 314.3546752929688 211.1696014404297 L 322.0257263183594 186.69384765625 L 362.1102294921875 186.69384765625 L 358.9635009765625 196.3274230957031 L 358.9921875 196.3274230957031 L 343.5006713867188 243.59326171875 Z" stroke="none" fill="#fff"/>
      </g>
      <g id="パス_209" data-name="パス 209" transform="translate(-10.433)" fill="#d10000" stroke-miterlimit="10">
        <path d="M 266.2597045898438 241.6911773681641 L 265.2343444824219 241.6911773681641 L 247.5520782470703 241.6911773681641 L 246.4861755371094 241.6911773681641 L 246.2001037597656 240.6643829345703 L 236.1695098876953 204.6609344482422 L 224.6666870117188 240.7143096923828 L 224.3550109863281 241.6911773681641 L 223.3296203613281 241.6911773681641 L 203.4730224609375 241.6911773681641 L 201.5520324707031 241.6911773681641 L 202.1359710693359 239.861083984375 L 228.7926483154297 156.3183746337891 L 229.1075744628906 155.3314056396484 L 230.1435241699219 155.3415985107422 L 239.1248016357422 155.4299774169922 C 239.3000640869141 155.3865051269531 239.4820861816406 155.3645935058594 239.6691131591797 155.3645935058594 L 257.7701416015625 155.3645935058594 L 261.734130859375 155.3645935058594 L 258.6532592773438 157.8588714599609 L 251.4642028808594 163.6791229248047 L 259.4997863769531 192.5240478515625 L 271.0452270507812 156.3414306640625 L 271.3569030761719 155.3645935058594 L 272.3822631835938 155.3645935058594 L 279.5139770507812 155.3645935058594 L 279.5199279785156 155.3645935058594 L 297.6210021972656 155.3645935058594 L 301.5853271484375 155.3645935058594 L 298.5040588378906 157.8589019775391 L 291.0953063964844 163.8563385009766 L 266.5714111328125 240.7143402099609 L 266.2597045898438 241.6911773681641 Z" stroke="none"/>
        <path d="M 230.1296997070312 156.7449951171875 L 203.4730224609375 240.2877197265625 L 223.3296203613281 240.2877197265625 L 236.2605285644531 199.7582702636719 L 247.5520782470703 240.2877197265625 L 265.2343444824219 240.2877197265625 L 289.8858642578125 163.0296783447266 L 297.6209716796875 156.76806640625 L 272.3822631835938 156.76806640625 L 259.4086303710938 197.4266052246094 L 249.8649139404297 163.1681213378906 L 257.7701416015625 156.76806640625 L 239.6690979003906 156.76806640625 C 239.5306396484375 156.76806640625 239.4263610839844 156.79541015625 239.3366394042969 156.8355865478516 L 230.1296997070312 156.7449951171875 M 228.0854187011719 153.9178161621094 L 238.9815979003906 154.0250244140625 C 239.2057189941406 153.9825286865234 239.435302734375 153.9611358642578 239.6690979003906 153.9611358642578 L 265.6980895996094 153.9611358642578 L 253.0634460449219 164.1901245117188 L 259.5909423828125 187.6215362548828 L 270.33154296875 153.9611358642578 L 305.5496520996094 153.9611358642578 L 292.3047180175781 164.6829833984375 L 267.2850646972656 243.0946502685547 L 245.4202728271484 243.0946502685547 L 236.0784606933594 209.5636138916016 L 225.3804016113281 243.0946502685547 L 199.6310119628906 243.0946502685547 L 228.0854187011719 153.9178161621094 Z" stroke="none" fill="#fff"/>
      </g>
      <g id="パス_210" data-name="パス 210" transform="translate(-32.04 -0.004)" fill="#d10000" stroke-miterlimit="10">
        <path d="M 375.0641174316406 241.6949615478516 L 374.0387573242188 241.6949615478516 L 352.187744140625 241.6949615478516 L 350.2667541503906 241.6949615478516 L 350.8506774902344 239.8648681640625 L 377.4994201660156 156.3456268310547 L 377.8111267089844 155.3687744140625 L 378.8364868164062 155.3687744140625 L 389.0150146484375 155.3687744140625 L 389.0208435058594 155.3681335449219 L 389.0984191894531 155.3681335449219 L 407.1996459960938 155.3681335449219 L 411.1634826660156 155.3681335449219 L 408.082763671875 157.8623809814453 L 399.6299438476562 164.7060546875 L 375.3757934570312 240.7181243896484 L 375.0641174316406 241.6949615478516 Z" stroke="none"/>
        <path d="M 389.0984191894531 156.7716064453125 L 389.0925903320312 156.7722473144531 L 378.8364868164062 156.7722473144531 L 352.187744140625 240.2914886474609 L 374.0387573242188 240.2914886474609 L 398.4205017089844 163.8794403076172 L 407.1996459960938 156.7716064453125 L 389.0984191894531 156.7716064453125 M 388.9458312988281 153.9646759033203 L 415.1273803710938 153.9646759033203 L 400.83935546875 165.5326385498047 L 376.0894775390625 243.0984039306641 L 348.3457946777344 243.0984039306641 L 376.7857360839844 153.9653167724609 L 388.9458312988281 153.9646759033203 Z" stroke="none" fill="#fff"/>
      </g>
      <g id="パス_211" data-name="パス 211" transform="translate(0 -0.004)" fill="#d10000" stroke-miterlimit="10">
        <path d="M 190.5836029052734 241.7004089355469 L 189.5526733398438 241.6950988769531 L 131.6598052978516 241.3976745605469 L 129.7254486083984 241.3877410888672 L 130.3350677490234 239.5519256591797 L 157.9703826904297 156.3297119140625 L 158.2895660400391 155.3685455322266 L 159.3023376464844 155.3685455322266 L 203.0189971923828 155.3685455322266 L 203.0249938964844 155.3685455322266 L 221.1260375976562 155.3685455322266 L 225.0900268554688 155.3685455322266 L 222.0091400146484 157.8628082275391 L 215.7055053710938 162.9661865234375 L 211.5125579833984 176.1073608398438 L 211.2008819580078 177.0842132568359 L 210.1755065917969 177.0842132568359 L 174.3414764404297 177.0842132568359 L 170.9618225097656 187.6744842529297 L 205.6347808837891 187.6834106445312 L 207.5473175048828 187.6838989257812 L 207.5329437255859 187.7295684814453 L 210.6558380126953 187.7295684814453 L 214.61962890625 187.7295684814453 L 211.5389709472656 190.2238006591797 L 205.0040283203125 195.5148162841797 L 200.7713470458984 208.4201812744141 L 200.4545135498047 209.3861999511719 L 199.4378814697266 209.3862609863281 L 164.0328521728516 209.3887481689453 L 160.6532897949219 219.9794464111328 L 182.412353515625 219.9794464111328 C 182.4454498291016 219.9771728515625 182.4785614013672 219.9760589599609 182.5119781494141 219.9760589599609 L 200.6130065917969 219.9760589599609 L 204.5767059326172 219.9760589599609 L 201.4961700439453 222.4702758789062 L 195.0548553466797 227.6856231689453 L 190.8969573974609 240.7182312011719 L 190.5836029052734 241.7004089355469 Z" stroke="none"/>
        <path d="M 189.5598907470703 240.2916717529297 L 193.8454132080078 226.8590545654297 L 200.6130065917969 221.3795166015625 L 182.511962890625 221.3795166015625 C 182.5008544921875 221.3795166015625 182.4940185546875 221.3829040527344 182.48291015625 221.3829040527344 L 158.7322387695312 221.3829040527344 L 163.0075073242188 207.9853515625 L 199.4377746582031 207.9827880859375 L 203.7993621826172 194.6843566894531 L 210.6558380126953 189.1330261230469 L 205.6199035644531 189.1330261230469 L 205.6344299316406 189.0868835449219 L 169.0408935546875 189.0774536132812 L 173.3161468505859 175.6807556152344 L 210.1755218505859 175.6807556152344 L 214.4960632324219 162.1395874023438 L 221.1260375976562 156.7720184326172 L 159.3023376464844 156.7720184326172 L 131.6670074462891 239.9942321777344 L 189.5598907470703 240.2916717529297 M 191.6073303222656 243.1091613769531 L 127.7838821411133 242.78125 L 157.2767639160156 153.965087890625 L 229.0540466308594 153.965087890625 L 216.9149169921875 163.7928009033203 L 212.2262573242188 178.4876861572266 L 175.3667907714844 178.4876861572266 L 172.8827514648438 186.2715148925781 L 209.4605102539062 186.2809448242188 L 209.4463043212891 186.3260955810547 L 218.5834197998047 186.3260955810547 L 206.2086791992188 196.3452758789062 L 201.4712677001953 210.7895812988281 L 165.0582427978516 210.7921447753906 L 162.5743560791016 218.5759735107422 L 182.3717193603516 218.5759735107422 C 182.4182281494141 218.5737152099609 182.4649047851562 218.5725860595703 182.511962890625 218.5725860595703 L 208.5404052734375 218.5725860595703 L 196.2643280029297 228.5121459960938 L 191.6073303222656 243.1091613769531 Z" stroke="none" fill="#fff"/>
      </g>
    </g>
  </g>
</svg>
