<?xml version="1.0" encoding="utf-8"?>
<!-- Generator: Adobe Illustrator 24.2.0, SVG Export Plug-In . SVG Version: 6.00 Build 0)  -->
<svg version="1.1" id="レイヤー_1" xmlns="http://www.w3.org/2000/svg" xmlns:xlink="http://www.w3.org/1999/xlink" x="0px"
	 y="0px" viewBox="0 0 648 162" style="enable-background:new 0 0 648 162;" xml:space="preserve">
<style type="text/css">
	.st0{fill:#D10000;stroke:#D10000;}
</style>
<path id="パス_1331" class="st0" d="M189.5,47.5c0,0.7,0.1,0.7,0.7,0.7c0.4,0,2.3-0.1,8.1-0.1h0.7c-0.7,0.9-1.5,1.6-2.4,2.2
	c-3.1,2.2-7.9,3.3-14.8,3.9c0.8,1.1,1.5,2.2,2,3.5c0.4,1.2,0.7,1.5,1.3,1.5c0.5,0,1-0.1,1.4-0.2c5.7-0.9,10.1-2.4,13.5-4.8
	c2.3-1.6,4.2-3.7,5.4-6.2h10.3c-0.1,1.4-0.5,2.8-0.9,4.2c-0.4,0.9-1.1,1.2-2.7,1.2c-2.1,0-4.2-0.2-6.3-0.5c0.8,1.2,1.4,2.5,1.7,3.9
	c0.5,1.6,0.5,1.6,1.9,1.7c1.2,0.1,2.4,0.1,3.5,0.1c3.6,0,5.6-1,6.8-3c1-1.9,1.6-4,1.8-6.1c0.2-1.2,0.3-2.5,0.4-3.8
	c2.3,1.2,4.8,2.2,7.3,2.9c0.5,0.2,0.9,0.3,1.4,0.4c0.5,0,0.7-0.4,1.2-1.6c0.6-1.3,1.4-2.6,2.3-3.7c-6.3-1.4-10.8-2.8-14.4-5h4.3
	c5.6,0,7.4,0.1,7.8,0.1c0.6,0,0.7-0.1,0.7-0.7v-3.7c0-0.6-0.1-0.7-0.7-0.7c-0.4,0-2.2,0.1-7.8,0.1h-21.3c0.3-0.4,0.8-0.7,1.2-1
	c0.5-0.2,0.7-0.6,0.7-0.9c0-0.4-0.3-0.6-1-0.8l-2.2-0.5H215c6,0,8.1,0.1,8.5,0.1c0.6,0,0.7-0.1,0.7-0.7c0-0.4-0.1-1.6-0.1-4.7v-5.3
	c0-3.2,0.1-4.4,0.1-4.8c0-0.6-0.1-0.7-0.7-0.7c-0.4,0-2.5,0.1-8.5,0.1h-20c-6,0-8.1-0.1-8.6-0.1c-0.6,0-0.7,0.1-0.7,0.7
	c0,0.4,0.1,1.6,0.1,4.8v5.3c0,3.1-0.1,4.3-0.1,4.7c0,0.7,0.1,0.7,0.7,0.7c0.4,0,2.5-0.1,8.6-0.1h3.2c-0.6,1.2-1.4,2.2-2.2,3.2h-10.1
	c-5.5,0-7.4-0.1-7.8-0.1c-0.6,0-0.6,0.1-0.6,0.7v3.7c0,0.6,0.1,0.7,0.6,0.7c0.4,0,2.2-0.1,7.8-0.1h4.8c-3.5,2.4-8.1,4.3-14.5,6.2
	c1,0.9,1.9,2,2.6,3.2c0.6,1.1,0.9,1.5,1.4,1.5c0.5-0.1,1-0.2,1.4-0.5c2.7-1.1,5.4-2.3,7.9-3.8L189.5,47.5z M207,43.6
	c0.1-0.7,0.4-1.4,0.7-2c0.2-0.3,0.4-0.6,0.4-0.9c0-0.4-0.4-0.6-1.1-0.7c-1.7-0.1-3.5-0.3-5.5-0.4c0,1.4-0.1,2.7-0.4,4h-8.5
	c2.2-1.4,4.2-3,6.1-4.8h13.8c1.7,1.8,3.6,3.4,5.6,4.8H207z M217.9,27.1h-25.8v-2.5h25.8V27.1z M217.9,18.7v2.4h-25.8v-2.4H217.9z
	 M186,6.1c-5.5,0-7.4-0.1-7.8-0.1c-0.6,0-0.7,0.1-0.7,0.7v3.7c0,0.7,0.1,0.7,0.7,0.7c0.4,0,2.3-0.1,7.8-0.1h6.8c0,1.1-0.1,1.7-0.1,2
	c0,0.6,0.1,0.7,0.7,0.7h4.6c0.7,0,0.7-0.1,0.7-0.7c0-0.2-0.1-0.9-0.1-2h12.1c0,1.1-0.1,1.7-0.1,2c0,0.6,0.1,0.7,0.7,0.7h4.6
	c0.7,0,0.7-0.1,0.7-0.7c0-0.2-0.1-0.9-0.1-2h7.3c5.5,0,7.4,0.1,7.8,0.1c0.6,0,0.7-0.1,0.7-0.7V6.6c0-0.6-0.1-0.7-0.7-0.7
	c-0.4,0-2.3,0.1-7.8,0.1h-7.3c0-0.7,0.1-1.3,0.3-2c0.2-0.3,0.3-0.6,0.3-0.9c0-0.3-0.3-0.5-0.9-0.6c-1.7-0.2-3.9-0.3-5.9-0.4
	c0.2,1.3,0.3,2.6,0.3,3.8h-12.2c0-0.7,0.1-1.3,0.3-2c0.2-0.3,0.3-0.6,0.3-0.9c0-0.3-0.3-0.5-0.9-0.6c-1.7-0.2-3.9-0.3-5.9-0.4
	c0.2,1.3,0.3,2.6,0.3,3.8H186z M266.8,44.3c-5.6,4-12.3,6.3-20.6,8.2c1,1.1,1.7,2.4,2.2,3.8c0.4,1.2,0.7,1.6,1.2,1.6
	c0.5-0.1,1-0.2,1.5-0.4c7.8-2.3,15.2-5.8,20.1-10.7c-0.1,6.8-0.2,10.3-0.2,11.6c0,0.6,0.1,0.7,0.6,0.7h5.3c0.6,0,0.6-0.1,0.6-0.7
	c0-1.3-0.2-4.9-0.2-11.8c5.1,4.8,12.1,8.4,20.5,11c0.5,0.2,0.9,0.3,1.4,0.3c0.6,0,0.7-0.4,1.2-1.7c0.5-1.5,1.4-2.9,2.4-4.2
	c-8.7-1.6-15.7-4-21.5-7.8h11.7c5.6,0,7.5,0.1,7.9,0.1c0.6,0,0.7-0.1,0.7-0.7v-4c0-0.6-0.1-0.6-0.7-0.6c-0.4,0-2.3,0.1-7.9,0.1
	h-15.7v-0.4c-0.1-0.9,0-1.8,0.2-2.7l0.2-0.4h12c6.1,0,8.2,0.1,8.6,0.1c0.6,0,0.7-0.1,0.7-0.7v-3.5c0-0.6-0.1-0.7-0.7-0.7
	c-0.4,0-2.5,0.1-8.6,0.1h-11.3v-3.3h7.8c6,0,8,0.1,8.4,0.1c0.7,0,0.7-0.1,0.7-0.7v-3c0-0.6-0.1-0.7-0.7-0.7c-0.4,0-2.4,0.1-8.4,0.1
	h-7.8v-3.1h7.8c6,0,8,0.1,8.4,0.1c0.7,0,0.7-0.1,0.7-0.7V17c0-0.6-0.1-0.7-0.7-0.7c-0.4,0-2.4,0.1-8.4,0.1h-7.8v-3.1h10.7
	c6,0,8,0.1,8.4,0.1c0.6,0,0.7-0.1,0.7-0.7V9c0-0.6-0.1-0.6-0.7-0.6c-0.4,0-2.4,0.1-8.4,0.1h-9.4c0.4-0.6,0.7-1.2,1.1-1.9
	c0.3-0.6,0.7-1.1,1.2-1.5c0.3-0.2,0.6-0.5,0.6-0.9c0-0.4-0.3-0.8-0.7-0.9C280,2.8,278,2.4,276,2c-0.2,1.1-0.6,2.2-1,3.2
	c-0.5,1.1-1,2.2-1.7,3.3h-11.4L263,7c0.5-0.7,1-1.4,1.7-2c0.3-0.2,0.6-0.5,0.6-0.9c0-0.4-0.2-0.7-0.8-0.9c-1.9-0.6-3.9-1.1-5.8-1.4
	c-0.4,1.3-1,2.6-1.7,3.8c-2.8,4.8-6.7,9-11.3,12.1c1,1.1,1.9,2.3,2.5,3.6c0.4,0.9,0.7,1.3,1.1,1.3c0.3,0,0.7-0.2,1.3-0.8
	c1.2-1.1,2.5-2.3,3.7-3.5v9.9c0,4.6-0.1,6.6-0.1,7c0,0.7,0.1,0.7,0.7,0.7c0.4,0,2.6-0.1,8.7-0.1h7.7c0.1,1.1,0.1,2.2,0.1,3.2v0.3
	H256c-5.6,0-7.5-0.1-7.9-0.1c-0.6,0-0.7,0.1-0.7,0.6v4c0,0.6,0.1,0.7,0.7,0.7c0.4,0,2.3-0.1,7.9-0.1L266.8,44.3z M260.2,31.2v-3.3
	h12.5v3.3H260.2z M260.2,16.4v-3.1h12.5v3.1H260.2z M260.2,23.7v-3.1h12.5v3.1H260.2z M363.2,26.8c6,0,8.1,0.1,8.5,0.1
	c0.6,0,0.7-0.1,0.7-0.7v-4c0-0.6-0.1-0.6-0.7-0.6c-0.4,0-2.5,0.1-8.5,0.1h-0.9c-0.1-3.2-0.1-6.8-0.1-10.7c0-4.2,0.1-5.3,0.4-6.1
	c0.2-0.4,0.3-0.8,0.4-1.3c0-0.4-0.4-0.6-1.1-0.7c-1.9-0.2-3.8-0.4-5.6-0.4c0.4,2.9,0.5,5.8,0.5,8.7c0.1,3.7,0.1,7.2,0.2,10.5h-5.5
	c0.5-1.3,0.9-2.6,1.2-3.7c0.1-0.4,0.3-0.7,0.6-1c0.2-0.2,0.3-0.5,0.3-0.7c0-0.4-0.1-0.6-0.6-0.7c-1.3-0.2-3.4-0.7-5-0.9
	c-0.1,0.9-0.2,1.8-0.3,2.7c-0.3,1.5-0.7,3-1.2,4.4h-2.2c-0.5-2.2-1.1-4.3-1.9-6.5c-0.2-0.6-0.3-0.7-1.1-0.5l-3,0.7
	c-0.8,0.2-0.9,0.4-0.6,1.1c0.7,1.7,1.2,3.4,1.7,5.1c-2.5,0-3.8-0.1-4.1-0.1c-0.6,0-0.6,0-0.6,0.6v4c0,0.7,0.1,0.7,0.6,0.7
	c0.4,0,2.5-0.1,7.3-0.1H357c0.1,5.3,0.7,10.5,1.5,15.7c0.1,0.7,0.2,1.5,0.4,2.2c-1.6,1.9-3.4,3.7-5.3,5.3c-0.1-0.6-0.1-2.5-0.1-8.7
	v-5.6c0-3.8,0.1-5.5,0.1-5.9c0-0.6-0.1-0.7-0.6-0.7c-0.4,0-1.6,0.1-5.2,0.1h-5.1c-3.7,0-4.8-0.1-5.2-0.1c-0.6,0-0.7,0.1-0.7,0.7
	c0,0.4,0.1,2.2,0.1,7.4v5.5c0,8.3-0.1,9.9-0.1,10.3c0,0.6,0.1,0.7,0.7,0.7h3.8c0.6,0,0.7-0.1,0.7-0.7v-3.5h6.6v0.7
	c0,0.6,0.1,0.7,0.7,0.7h3.3c-1.7,1.4-3.6,2.6-5.5,3.7c0.9,0.8,1.7,1.8,2.3,2.8c0.6,1.1,0.9,1.6,1.4,1.6c0.5-0.1,1-0.3,1.4-0.7
	c3.2-2.1,6.1-4.7,8.7-7.5c2,4.9,4.5,6.9,6.8,6.9c2.7,0,4.8-2.2,5.8-9.3c0.3-1.8,0.2-2-0.7-2.5c-1.3-0.6-2.4-1.4-3.3-2.5
	c-0.7,5.6-1.1,7.3-1.9,7.3c-1.1,0-1.8-1.1-2.7-5c2-2.9,3.7-6,5.1-9.2c0.3-0.9,0.7-1.7,1.3-2.5c0.4-0.4,0.7-0.7,0.7-1.2
	s-0.2-0.7-0.7-1.1c-1.4-1.1-3-2-4.6-2.7c-0.3,1.6-0.7,3.2-1.2,4.7c-0.6,1.5-1.3,3-2,4.5c-0.4-3.2-0.7-7.1-0.9-11.5L363.2,26.8z
	 M342,45v-3.6h6.6V45H342z M348.6,33.8v3.3H342v-3.3H348.6z M317.9,44.9c-1,0.1-1.9,0.3-3.2,0.4c0.3,2,0.7,4.3,1.2,6
	c0.2,0.7,0.4,0.8,0.7,0.8c0.4,0,0.7-0.2,1-0.4c0.6-0.3,1.3-0.6,2-0.7c2.5-0.7,5.5-1.7,8.4-2.7v3.6c0,4.2-0.1,6.1-0.1,6.5
	c0,0.6,0.1,0.7,0.7,0.7h4.2c0.7,0,0.7-0.1,0.7-0.7c0-0.4-0.1-2.3-0.1-6.5V10.4c0.8,0.1,1.2,0.1,1.4,0.1c0.6,0,0.6-0.1,0.6-0.7V5.4
	c0-0.6-0.1-0.7-0.6-0.7c-0.4,0-1.7,0.1-6.1,0.1h-6.7c-4.4,0-5.7-0.1-6.1-0.1c-0.6,0-0.7,0.1-0.7,0.7v4.3c0,0.6,0.1,0.7,0.7,0.7
	c0.2,0,0.7-0.1,1.9-0.1L317.9,44.9z M328.2,42.2c-1.7,0.6-3.3,1.1-5,1.5v-8.7h5L328.2,42.2z M323.2,29.6v-7h5v7H323.2z M323.2,17.3
	v-6.9h5v6.9H323.2z M348.5,13.7c4.2,0,5.4,0.1,5.8,0.1c0.6,0,0.7-0.1,0.7-0.7V9.3c0-0.6-0.1-0.7-0.7-0.7c-0.4,0-1.6,0.1-5.8,0.1
	h-0.4V6.9c-0.1-0.9,0-1.9,0.2-2.8c0.2-0.3,0.3-0.6,0.4-0.9c0-0.4-0.4-0.7-1-0.7c-2-0.2-3.3-0.2-5.6-0.3c0.3,1.6,0.4,3.1,0.4,4.7v2
	h-0.3c-3.8,0-5.1-0.1-5.5-0.1c-0.6,0-0.7,0.1-0.7,0.7v3.8c0,0.6,0.1,0.7,0.7,0.7c0.4,0,1.7-0.1,5.5-0.1L348.5,13.7z M364.4,7.8
	c-0.8,0.4-0.9,0.6-0.6,1.2c1.4,2.5,2.6,5.2,3.5,7.9c0.2,0.7,0.4,0.9,1.2,0.4l3-1.6c0.6-0.3,0.6-0.6,0.4-1.1
	c-0.9-2.8-2.1-5.4-3.7-7.8c-0.3-0.6-0.6-0.8-1.2-0.4L364.4,7.8z M432.6,57.4c6,0,8.1,0.1,8.4,0.1c0.7,0,0.7-0.1,0.7-0.7V53
	c0-0.6-0.1-0.6-0.7-0.6c-0.4,0-2.4,0.1-8.4,0.1h-7.8V49h5.5c5.8,0,7.8,0.1,8.2,0.1c0.6,0,0.7-0.1,0.7-0.7v-3.6
	c0-0.6-0.1-0.7-0.7-0.7c-0.4,0-2.4,0.1-8.2,0.1h-5.5v-3.3h4.3c5.5,0,7.5,0.1,7.9,0.1c0.6,0,0.7-0.1,0.7-0.7c0-0.3-0.1-1.8-0.1-5.3
	v-7.7c0-3.5,0.1-5,0.1-5.3c0-0.6-0.1-0.6-0.7-0.6c-0.4,0-2.4,0.1-7.9,0.1h-4.3v-3.3h7.3c6,0,8.1,0.1,8.4,0.1c0.7,0,0.7-0.1,0.7-0.7
	V14c0-0.6-0.1-0.7-0.7-0.7c-0.3,0-2.4,0.1-8.4,0.1h-7.3V9.7c3.4-0.3,6.7-0.7,9.8-1.3c0.8-0.2,1.7-0.3,2.5-0.4c0.8,0,1.2-0.3,1.2-0.7
	c0-0.4-0.2-0.8-0.5-1.1c-1.2-1.3-2.6-2.4-4.1-3.3c-1.2,0.5-2.4,0.8-3.7,1.1c-8,1.4-16.1,2-24.2,2c0.7,1,1.4,2,1.9,3.1
	c0.7,1.5,0.7,1.5,2.4,1.5c3.1-0.1,6.1-0.2,8.9-0.4v3.3h-6c-6,0-8.1-0.1-8.4-0.1c-0.6,0-0.7,0.1-0.7,0.7v3.7c0,0.6,0.1,0.7,0.7,0.7
	c0.4,0,2.4-0.1,8.4-0.1h6v3.3h-3.5c-5.6,0-7.6-0.1-7.9-0.1c-0.7,0-0.7,0.1-0.7,0.6c0,0.4,0.1,1.9,0.1,5.3v7.7c0,3.5-0.1,4.9-0.1,5.3
	c0,0.6,0.1,0.7,0.7,0.7c0.4,0,2.3-0.1,7.9-0.1h3.5v3.4h-4.9c-5.8,0-7.9-0.1-8.2-0.1c-0.6,0-0.7,0.1-0.7,0.7v3.6
	c0,0.6,0.1,0.7,0.7,0.7c0.4,0,2.4-0.1,8.2-0.1h4.9v3.5h-7.6c-6,0-8.1-0.1-8.4-0.1c-0.7,0-0.7,0.1-0.7,0.6v3.8c0,0.7,0.1,0.7,0.7,0.7
	c0.4,0,2.4-0.1,8.4-0.1L432.6,57.4z M431.8,36.7h-7V33h7L431.8,36.7z M412.5,36.7V33h6.4v3.7H412.5z M431.8,25.7v3.4h-7v-3.4H431.8z
	 M412.5,29.1v-3.4h6.4v3.4H412.5z M392.5,24.7c-1.8,6.2-4.7,11.9-8.6,17c0.9,1.6,1.6,3.2,2,4.9c0.2,0.7,0.4,1.1,0.6,1.1
	c0.3,0,0.6-0.4,1-1c2.7-4.2,4.8-8.8,6.1-13.6c-0.1,13.8-0.5,24.4-0.5,25.4c0,0.6,0.1,0.6,0.7,0.6h5c0.6,0,0.7-0.1,0.7-0.6
	c0-1.1-0.4-11.6-0.4-26.7c0.8,2,1.9,4,3.1,5.8c0.4,0.6,0.6,0.9,0.9,0.9c0.2,0,0.4-0.3,0.7-1c0.6-1.4,1.4-2.7,2.3-3.9
	c-2.7-2.5-4.9-5.5-6.4-8.9c2.9,0.1,3.9,0.1,4.2,0.1c0.6,0,0.7-0.1,0.7-0.7v-4.3c0-0.6-0.1-0.7-0.7-0.7c-0.3,0-1.4,0.1-4.6,0.1v-9.2
	c1.2-0.4,2.3-0.8,3.3-1.2c0.6-0.3,1.3-0.5,1.9-0.6c0.6,0,1.1-0.3,1.1-0.8c0-0.4-0.2-0.6-0.6-1.1c-1-1.3-2.2-2.5-3.5-3.5
	c-0.8,0.5-1.7,1-2.6,1.4c-4.4,1.8-9,3-13.8,3.7c0.7,1,1.3,2.1,1.8,3.3c0.7,1.9,0.7,1.9,2.6,1.5c1.2-0.2,2.5-0.6,3.7-0.9v7.4h-1.5
	c-4.2,0-5.4-0.1-5.8-0.1c-0.7,0-0.7,0.1-0.7,0.7v4.3c0,0.6,0.1,0.7,0.7,0.7c0.4,0,1.6-0.1,5.8-0.1L392.5,24.7z M454.5,46.5
	c-0.3,0.4-0.4,0.6-0.4,0.7s0.2,0.4,0.6,0.6c4.6,3.2,8.6,7.2,11.7,11.8c0.3,0.5,0.6,0.6,0.9,0.6c0.2,0,0.4-0.2,0.9-0.6l3.8-3.2
	c0.5-0.4,0.6-0.7,0.6-1c0-0.2-0.1-0.4-0.4-0.9c-3.4-4.5-7.6-8.3-12.3-11.3c-0.2-0.2-0.5-0.4-0.8-0.4c-0.4,0-0.7,0.2-0.9,0.5
	L454.5,46.5z M21.9,112.9c-2.8,10.7-9.8,19.8-19.4,25.3c1.3,1.1,2.4,2.4,3.3,3.8c0.6,1,0.9,1.4,1.2,1.4c0.3,0,0.7-0.3,1.4-0.8
	c3-2.2,5.7-4.6,8.2-7.3v9c0,10.5-0.1,12.5-0.1,13c0,0.6,0.1,0.7,0.7,0.7h5.6c0.6,0,0.7-0.1,0.7-0.7v-3.5h22.8v3
	c0,0.6,0.1,0.7,0.7,0.7h5.6c0.7,0,0.7-0.1,0.7-0.7c0-0.4-0.1-2.4-0.1-12.8v-7.8c0-6,0.1-8,0.1-8.4c0-0.6-0.1-0.7-0.7-0.7
	c-0.4,0-2.4,0.1-8.4,0.1H22.8c2.7-4.5,4.8-9.3,6.3-14.4h20.3c5.7,0,7.6,0.1,8,0.1c0.6,0,0.7-0.1,0.7-0.7v-5c0-0.6-0.1-0.7-0.7-0.7
	c-0.4,0-2.3,0.1-8,0.1H13.6c-5.7,0-7.6-0.1-8-0.1c-0.6,0-0.7,0.1-0.7,0.7v5c0,0.6,0.1,0.7,0.7,0.7c0.4,0,2.3-0.1,8-0.1H21.9z
	 M23.5,133.3h22.8v14.4H23.5V133.3z M86.4,113.5c0-4.2,0-5.9,0.3-6.7c0.2-0.4,0.4-0.9,0.4-1.4c0-0.4-0.4-0.7-1.1-0.8
	c-2.1-0.3-4.3-0.4-6.9-0.6c0.5,3.1,0.7,6.3,0.6,9.4v6.2c0,8.1-0.4,14.1-1.2,18.2c-0.9,5.6-3.2,10.8-6.7,15.3c1.6,1,2.9,2.3,4,3.7
	c0.6,0.7,0.9,1.1,1.2,1.1s0.6-0.4,1.1-1.1c3.5-5.2,5.3-10.4,6.7-17.1c1.1-6.8,1.5-13.7,1.4-20.6L86.4,113.5z M117.7,145.9
	c0,7.8-0.1,11-0.1,11.4c0,0.6,0.1,0.7,0.7,0.7h5.5c0.6,0,0.7-0.1,0.7-0.7c0-0.4-0.1-3.7-0.1-11.5v-32.8c0-4.4,0.2-5.8,0.5-6.6
	c0.2-0.4,0.4-0.9,0.4-1.4c0-0.5-0.5-0.7-1.1-0.8c-2.3-0.3-4.6-0.5-6.9-0.6c0.4,3.1,0.6,6.3,0.5,9.5L117.7,145.9z M98.4,140.8
	c0,6.6-0.1,9.9-0.1,10.3c0,0.7,0.1,0.7,0.7,0.7h5.5c0.7,0,0.7-0.1,0.7-0.7c0-0.4-0.1-3.7-0.1-10.3v-24.9c0-4.4,0.1-5.8,0.4-6.4
	c0.2-0.5,0.4-1,0.4-1.5c0-0.4-0.5-0.7-1.1-0.8c-2.1-0.2-4.5-0.4-6.9-0.4c0.4,3.1,0.6,6.2,0.6,9.4L98.4,140.8z M167.4,104.4
	c-5.6,0-7.6-0.1-8-0.1c-0.6,0-0.7,0.1-0.7,0.7c0,0.4,0.1,2.4,0.1,6.7v13.7c0,4.3-0.1,6.3-0.1,6.7c0,0.6,0.7,0.7,1.3,0.7
	c0.4,0,2.4-0.1,8-0.1h13.8c5.6,0,7,0.1,7.4,0.1c0.7,0,1.4-0.1,1.4-0.7c0-0.4-0.1-2.4-0.1-6.7v-13.7c0-4.3,0.1-6.3,0.1-6.7
	c0-0.6-0.1-0.7-0.7-0.7c-0.4,0-2.4,0.1-8,0.1H167.4z M184.2,128h-19.2v-3.7h19.2V128z M165.1,120.1v-3.4h19.2v3.4H165.1z
	 M165.1,109.1h19.2v3.3h-19.2V109.1z M146.2,133.5c0,5.1-0.1,7.5-0.1,7.9c0,0.6,0.1,0.7,0.7,0.7c0.4,0,2.4-0.1,8.2-0.1h12.3v9.5
	c0,4.6-0.1,6.3-0.1,6.7c0,0.6,0.1,0.7,0.6,0.7h5.6c0.6,0,0.7-0.1,0.7-0.7c0-0.4-0.1-2.1-0.1-6.7v-9.5h14.8c5.8,0,7.8,0.1,8.1,0.1
	c0.6,0,0.7-0.1,0.7-0.7V137c0-0.6-0.1-0.7-0.7-0.7c-0.4,0-2.4,0.1-8.1,0.1h-36v-21c0-2.6,0.1-3.5,0.4-4.3c0.2-0.4,0.3-0.9,0.4-1.3
	c0-0.4-0.4-0.7-1-0.8c-2.2-0.3-4.5-0.4-6.8-0.4c0.3,2.3,0.5,4.6,0.4,6.9L146.2,133.5z M179.4,145.9c-0.7,0.4-0.8,0.6-0.4,1.1
	c3.6,3.9,7.8,7.3,12.4,9.9c0.4,0.3,0.9,0.6,1.4,0.7c0.4,0,0.7-0.4,1.4-1.4c0.9-1.4,2.1-2.7,3.4-3.7c-5-2-9.6-4.9-13.5-8.6
	c-0.2-0.2-0.4-0.3-0.6-0.3c-0.3,0-0.5,0.1-0.7,0.3L179.4,145.9z M156.6,143.2c-0.6,1.1-1.4,2.1-2.3,3c-3.2,3-6.9,5.3-10.9,6.8
	c1.3,0.8,2.5,1.9,3.5,3.2c0.6,0.9,0.9,1.4,1.4,1.4c0.5-0.1,1-0.3,1.4-0.6c3.6-1.9,7-4.4,9.9-7.3c0.6-0.6,1.3-1.2,2-1.7
	c0.5-0.2,0.9-0.6,0.9-0.9c0-0.2-0.2-0.5-0.9-1C159.9,144.9,158.3,144,156.6,143.2z M246.4,135.3c5.3-2.2,9.3-3.5,13.3-5
	c1.2-0.4,2.5-0.7,3.8-0.9c0.6-0.1,0.9-0.4,0.9-0.9c0-0.5-0.2-1-0.5-1.4c-1.3-1.9-2.7-3.8-4.3-5.5c-1.4,1.4-3,2.5-4.7,3.3
	c-3.2,1.6-6.7,3.2-9.1,4.3c-0.6-4.8-3.5-6.7-7.6-6.7c-2.2,0.1-4.3,0.7-6.2,1.9l-0.1-0.1c1.7-2.2,3.3-4.5,4.7-6.9
	c4.5-0.5,9.9-1.2,14.5-1.9c0.9-0.1,1.1-0.4,1.1-1c0-1.5-0.3-3-0.6-4.5c-0.1-0.6-0.3-0.7-1-0.6c-3.7,0.9-7.5,1.5-11.3,1.9
	c0.7-1.7,1.1-2.5,1.4-3.3c0.3-0.6,0.6-1.1,1.1-1.5c0.3-0.2,0.4-0.6,0.4-0.9c0-0.5-0.3-0.9-0.7-1.1c-2.3-0.8-4.7-1.4-7.1-1.7
	c0,1.3-0.1,2.5-0.4,3.8c-0.5,1.8-1.1,3.6-1.9,5.3c-4.7,0.3-9.5,0.3-14.3,0.1c0.2,1.9,0.4,4.2,0.6,5.1c0.1,0.7,0.3,1,0.9,1
	c3.7,0,7-0.1,9.9-0.2c-3.5,5.8-7.8,11-13,15.4c-0.3,0.2-0.4,0.4-0.4,0.7c0,0.2,0.1,0.4,0.2,0.6c1.1,1.5,2.2,2.8,3.5,4.1
	c0.2,0.2,0.4,0.4,0.7,0.4c0.2,0,0.4-0.2,0.7-0.6c1.9-2.4,4-4.6,6.2-6.8c2.9-2.5,5.6-4.3,8.6-4.5c2.8-0.1,3.5,1.1,3.7,4.3
	c-9.4,4.8-13.1,9.2-13.1,15.1c0,7.2,5.4,10.2,15.6,10.2c5.1,0.1,10.3-0.2,15.4-0.8c0.5,0,0.7-0.4,0.7-1.2c0-1.7-0.2-3.4-0.6-5.1
	c-0.1-0.6-0.3-0.7-0.9-0.7c-5.1,0.8-10.3,1.2-15.4,1.2c-6.5,0-8.6-1.7-8.6-4.3c0-3,2-5.4,7.5-8.2c-0.1,2.2-0.1,5.3-0.1,7.6
	c0,0.6,0.2,1,0.8,1c1.5,0,2.9-0.1,4.4-0.3c0.8-0.1,1.2-0.4,1.2-1.1L246.4,135.3z M299.9,146.2h2.3c5.3,0,7.2,0.1,7.6,0.1
	c0.6,0,0.7-0.1,0.7-0.6v-3.7c0-0.6-0.1-0.7-0.7-0.7c-0.4,0-2.2,0.1-7.6,0.1h-2.3v-2.7h2.7c5.2,0,7,0.1,7.4,0.1
	c0.6,0,0.7-0.1,0.7-0.7c0-0.4-0.1-1.9-0.1-5.1v-6.6c0-3.3,0.1-4.8,0.1-5.1c0-0.6-0.1-0.7-0.7-0.7c-0.4,0-2.2,0.1-7.4,0.1h-2.7V118
	h3.6c5.5,0,7.6,0.1,7.9,0.1c0.6,0,0.5-0.1,0.5-0.7v-3.7c0-0.6-0.1-0.7-0.6-0.7c-0.4,0-2.3,0.1-7.8,0.1h-3.6v-3.5
	c2.5-0.3,5-0.7,7.5-1.2c0.9-0.2,1.9-0.4,2.8-0.4c0.8,0,1.3-0.2,1.3-0.6c0-0.4-0.2-0.8-0.5-1.1c-1.1-1.2-2.3-2.4-3.5-3.4
	c-1.1,0.4-2.2,0.8-3.4,1.1c-7.2,1.5-14.6,2.3-21.9,2.4c0.8,1,1.5,2.1,1.9,3.3c0.5,1.4,0.6,1.5,2.3,1.4c2.7-0.1,5.3-0.4,8-0.6v2.8
	h-4.6c-5.6,0-7.5-0.1-7.9-0.1c-0.6,0-0.7,0.1-0.7,0.7v3.7c0,0.6,0.1,0.7,0.7,0.7c0.4,0,2.3-0.1,7.9-0.1h4.6v2.7h-2.5
	c-5.3,0-7.1-0.1-7.4-0.1c-0.7,0-0.7,0.1-0.7,0.7c0,0.3,0.1,1.7,0.1,5.1v6.6c0,3.3-0.1,4.7-0.1,5.1c0,0.6,0.1,0.7,0.7,0.7
	c0.4,0,2.2-0.1,7.4-0.1h2.5v2.7h-3.7c-5.4,0-7.2-0.1-7.6-0.1c-0.6,0-0.7,0.1-0.7,0.7v3.7c0,0.6,0.1,0.6,0.7,0.6
	c0.4,0,2.2-0.1,7.6-0.1h3.7v3.6c-2.5,0.2-4.8,0.4-7,0.5c-2.2,0.1-4.3,0.2-6.5,0.1c0.3,1.9,0.7,3.8,1.1,5.5c0.2,0.7,0.5,1.1,0.9,1.1
	c0.4,0,0.7-0.2,1.1-0.4c0.7-0.2,1.5-0.4,2.3-0.4c7-0.7,15.1-1.9,21.6-3.2c0.4,0,0.8-0.1,1.2-0.2c-0.6,0.7-1.3,1.3-2,1.9
	c1.5,0.7,2.9,1.7,4,3c0.6,0.6,0.9,0.9,1.2,0.9s0.7-0.3,1.3-0.9c4.5-5,7.7-11.1,9.2-17.7c1.3-5.9,2-11.8,2.3-17.8h5.2
	c-0.1,11.8-0.6,20.2-1.6,26.2c-0.4,2.9-1.5,3.9-3.3,3.9c-1.7,0-3.4-0.2-5.1-0.5c0.6,1.3,1,2.7,1.2,4.2c0.2,2,0.2,2,1.6,2.2
	c1.1,0.1,2.1,0.1,3.4,0.1c4.8,0,7.1-2.2,7.9-6.8c1.2-7.3,1.7-16.5,1.8-28.4c0-2,0-3.8,0.1-5.9c0-0.6-0.1-0.7-0.7-0.7
	c-0.4,0-2,0.1-6.8,0.1h-3.5c0.1-1.6,0.1-3.1,0.1-4.8c0-3.8,0.1-5.7,0.4-6.3c0.2-0.5,0.3-1,0.4-1.5c0-0.4-0.3-0.6-0.9-0.7
	c-2.2-0.2-4-0.4-6.2-0.4c0.4,2.9,0.5,5.8,0.4,8.7c0,1.7-0.1,3.3-0.1,5c-3.8,0-5.3-0.1-5.6-0.1c-0.7,0-0.7,0.1-0.7,0.7v4.5
	c0,0.6,0.1,0.7,0.7,0.7c0.3,0,1.7-0.1,5.3-0.1c-0.2,5.3-0.9,10.6-2,15.8c-1.3,5.1-3.7,9.8-7.1,13.9l0.2-1.1c0.1-1,0.3-1.9,0.6-2.9
	c-3.7,0.6-7.2,1.1-10.5,1.5L299.9,146.2z M305.3,134.8h-5.4v-3.3h5.4V134.8z M305.3,124.6v3.2h-5.4v-3.2L305.3,124.6z M289.2,134.8
	v-3.3h5.1v3.3L289.2,134.8z M289.2,127.9v-3.2h5.1v3.2L289.2,127.9z M368.3,119.5c-2.4,0.4-4.7,0.7-7.3,0.9
	c-2.7,0.2-5.5,0.4-8.2,0.4c0.5,2.2,1.2,4.3,1.9,6.4c0.2,0.7,1,1.1,1.7,0.9c0.1,0,0.2-0.1,0.3-0.1c1.1-0.4,2.2-0.8,3.4-1
	c1.7-0.3,3.7-0.7,6.1-1.1c-2.9,8.5-6.7,16.6-11.3,24.3c-0.2,0.2-0.2,0.4-0.2,0.7c0,0.4,0.2,0.7,0.5,0.9c1.3,1,2.8,2,4.3,2.7
	c0.4,0.3,1.1,0.3,1.4-0.2c0.1-0.1,0.2-0.2,0.2-0.4c4.8-8.7,8.4-17.2,12.5-29.1c1.7-0.3,3.5-0.4,5.2-0.4c2.7,0,3.5,1.4,3.5,5.8
	c0,5.2-0.8,10.4-2.4,15.4c-1,2.5-1.9,3.3-4,3.3c-2.3,0-4.7-0.5-6.8-1.4c0.7,1.8,1.1,3.8,1.2,5.8c-0.1,0.8,0.4,1.5,1.1,1.7
	c2,0.5,4.1,0.8,6.1,0.7c3.6,0,6.6-1.9,8.4-5.8c2.1-4.5,3.4-12.6,3.4-19.9c0-7.5-3.2-11.5-9-11.5c-1.6,0-3.2,0.1-4.8,0.2
	c0.8-2.6,1.4-4.9,2.2-7.4c0.3-0.9,0.7-1.6,1.2-2.4c0.3-0.2,0.4-0.6,0.4-0.9c0-0.6-0.4-1.1-1-1.2c-2.4-0.9-4.9-1.6-7.4-2
	c0,2.3-0.2,4.6-0.6,6.9C369.8,113.8,369.3,116,368.3,119.5L368.3,119.5z M390.4,119c4.5,4.2,7.7,9.5,10.2,16.1
	c0.2,0.7,0.8,0.8,1.4,0.5c1.7-0.9,3.2-1.9,4.6-3.1c0.4-0.3,0.5-0.8,0.3-1.2c0,0,0,0,0,0c-2.3-5.7-5.8-10.9-10.3-15.1
	c-0.4-0.4-0.7-0.6-1.2-0.3C393.7,116.8,392,117.9,390.4,119L390.4,119z M447.9,113.5c-7.4,0.4-15.4,0.9-19.2,1.2
	c-2.5,0.3-5,0.4-7.6,0.2c0.4,2.1,0.9,4.2,1.5,6.3c0.2,0.6,0.4,0.9,1.1,0.9c0.6,0,1.5-0.6,2.9-0.7c4.9-0.7,13.6-1.4,21.5-1.9
	c0,2,0.1,4.2,0.1,6.3c-1.4-0.9-3-1.4-4.7-1.2c-5-0.2-9.2,3.7-9.4,8.7c0,0.2,0,0.4,0,0.6c0,6,3.7,9.5,8.6,9.5c2,0,4.6-0.7,5.8-2.5
	c-1.1,5.2-5.5,10.4-12.7,13.6c1.7,0.5,3.3,1.4,4.7,2.5c0.5,0.5,1.2,0.8,1.9,0.9c0.9-0.2,1.7-0.6,2.4-1.2c8.1-5.3,11-12.8,11-20
	c0-2.1-0.3-4.2-0.9-6.1c-0.1-3.8-0.1-7.8-0.1-11.5c6.4-0.1,12.5-0.1,18.9,0.1c0.7,0.1,1.1-0.1,1.1-0.8c0.1-1.6,0.1-3.2,0-4.7
	c-0.1-0.8-0.2-0.9-0.9-0.9c-6,0-12.3,0.1-19,0.3c0.1-2.4,0.1-3.2,0.1-4c0.1-0.6,0.2-1.2,0.5-1.8c0.3-0.4,0.5-0.9,0.6-1.4
	c0-0.6-0.7-1-1.7-1.2c-2.4-0.4-4.8-0.7-7.3-0.9c0.4,1.5,0.7,3,0.7,4.5C447.8,110.1,447.8,111.6,447.9,113.5L447.9,113.5z
	 M443.9,129.5c2.5,0,4.1,1.4,4.1,4c0.2,2.2-1.5,4.1-3.7,4.3c-0.2,0-0.4,0-0.5,0c-2.1,0.1-3.9-1.6-4-3.7c0-0.2,0-0.3,0-0.5
	c0-2.2,1.7-4,3.9-4C443.8,129.5,443.8,129.5,443.9,129.5L443.9,129.5z M535,156c6,0,8,0.1,8.4,0.1c0.7,0,0.7-0.1,0.7-0.7v-4.8
	c0-0.6-0.1-0.7-0.7-0.7c-0.4,0-2.4,0.1-8.4,0.1h-6.6v-21.8h8c6.1,0,8.2,0.1,8.5,0.1c0.6,0,0.7-0.1,0.7-0.7v-4.8
	c0-0.6-0.1-0.7-0.7-0.7c-0.3,0-2.4,0.1-8.5,0.1h-8v-9.8c0-4.6,0.1-6.1,0.4-6.9c0.2-0.4,0.3-0.8,0.4-1.2c0-0.3-0.4-0.6-1-0.7
	c-2.1-0.2-4.6-0.4-7-0.4c0.4,3.1,0.5,6.3,0.4,9.4v9.7h-6.3c-6.1,0-8.1-0.1-8.5-0.1c-0.6,0-0.7,0.1-0.7,0.7v4.8
	c0,0.7,0.1,0.7,0.7,0.7c0.4,0,2.4-0.1,8.5-0.1h6.3v21.8h-5.3c-6,0-8.1-0.1-8.4-0.1c-0.6,0-0.6,0.1-0.6,0.7v4.8
	c0,0.7,0.1,0.7,0.6,0.7c0.4,0,2.4-0.1,8.4-0.1L535,156z M496.4,148.9c0,6.1-0.1,9.1-0.1,9.4c0,0.6,0.1,0.7,0.7,0.7h5.2
	c0.7,0,0.7-0.1,0.7-0.7c0-0.3-0.1-3.3-0.1-9.4v-31.2c1.6-2.9,2.9-6,4.1-9.1c0.2-0.9,0.6-1.7,1.2-2.4c0.4-0.2,0.6-0.7,0.7-1.1
	c0-0.4-0.3-0.7-1-0.9c-2-0.8-4.1-1.5-6.2-2c-0.1,1.5-0.4,2.9-0.9,4.3c-2.6,7.8-6.8,14.9-12.3,21c1,1.8,1.7,3.7,2.1,5.6
	c0.1,0.7,0.4,1.1,0.7,1.1s0.7-0.2,1.1-0.7c1.4-1.7,2.9-3.5,4.2-5.4c-0.1,2.3-0.1,4.7-0.1,6.6L496.4,148.9z M583.8,141.4v2.9h-10.2
	c-6.1,0-8.1-0.1-8.5-0.1c-0.6,0-0.7,0.1-0.7,0.7v3.3c0,0.7,0.1,0.7,0.7,0.7c0.4,0,2.4-0.1,8.5-0.1h10.2v1.4c0,1.8-0.6,2.2-3.2,2.3
	c-2.1,0.1-4.2,0-6.3-0.2c1,1.5,1.8,3,2.4,4.7c0.6,1.7,0.6,1.8,2.5,1.8c4.5-0.1,7.2-0.5,8.7-1.4c1.7-1,2.2-2.7,2.2-5.5
	c0-0.9,0-2-0.1-3.1h13.1v1.4c0,0.6,0.1,0.7,0.7,0.7h4.8c0.6,0,0.7-0.1,0.7-0.7c0-0.4-0.1-2-0.1-5.7v-3.2c3.7,0.1,5.1,0.1,5.4,0.1
	c0.6,0,0.6-0.1,0.6-0.7v-3.7c0-0.6-0.1-0.7-0.6-0.7c-0.3,0-1.7,0.1-5.4,0.1v-1.4c0-3.5,0.1-5,0.1-5.4c0-0.6-0.1-0.7-0.7-0.7
	c-0.3,0-2.5,0.1-8.6,0.1h-10v-2.7h8.2c6.1,0,8.2,0.1,8.7,0.1c0.6,0,0.7-0.1,0.7-0.7c0-0.4-0.1-1.2-0.1-3.2v-3.3c0-2,0.1-2.9,0.1-3.2
	c0-0.7-0.1-0.7-0.7-0.7c-0.4,0-2.6,0.1-8.7,0.1h-8.2v-2.7h15.8c5.6,0,7.5,0.1,7.9,0.1c0.6,0,0.7-0.1,0.7-0.7v-3.9
	c0-0.6-0.1-0.7-0.7-0.7c-0.4,0-2.3,0.1-7.9,0.1h-15.8c-0.1-1.2,0-2.3,0.4-3.5c0.2-0.4,0.4-0.8,0.4-1.2c0-0.4-0.4-0.6-1-0.7
	c-2.2-0.2-4.2-0.3-6.4-0.4c0.3,1.9,0.5,3.8,0.4,5.7h-15.6c-5.6,0-7.5-0.1-7.9-0.1c-0.6,0-0.7,0.1-0.7,0.7v3.9c0,0.6,0.1,0.7,0.7,0.7
	c0.4,0,2.3-0.1,7.9-0.1h15.6v2.7h-8c-6.1,0-8.2-0.1-8.6-0.1c-0.7,0-0.7,0.1-0.7,0.7c0,0.4,0.1,1.2,0.1,3.2v3.3c0,2-0.1,2.9-0.1,3.2
	c0,0.7,0.1,0.7,0.7,0.7c0.4,0,2.5-0.1,8.6-0.1h8v2.7h-10.2c-6,0-8.1-0.1-8.4-0.1c-0.6,0-0.7,0.1-0.7,0.7v3.4c0,0.6,0.1,0.6,0.7,0.6
	c0.4,0,2.4-0.1,8.4-0.1h10.2v2.9h-16.6c-5.4,0-7.3-0.1-7.6-0.1c-0.6,0-0.6,0.1-0.6,0.7v3.7c0,0.6,0.1,0.7,0.6,0.7
	c0.4,0,2.2-0.1,7.6-0.1L583.8,141.4z M603.2,133.6v2.9h-13.1v-2.9L603.2,133.6z M590.1,144.3v-2.9h13.1v2.9H590.1z M601.6,122.5
	h-11.5v-3.1h11.5V122.5z M572.6,122.5v-3.1h11.2v3.1H572.6z M636.9,142.4c-4.9,0-8.9,4.1-8.9,9c0,4.9,4.1,8.9,9,8.9
	c4.9,0,8.9-4,8.9-8.9C645.8,146.4,641.8,142.4,636.9,142.4C636.9,142.4,636.9,142.4,636.9,142.4z M636.9,146.2
	c2.8,0,5.1,2.3,5.1,5.2c0,2.8-2.3,5.1-5.2,5.1c-2.8,0-5.1-2.3-5.1-5.1c0-2.8,2.2-5.1,5-5.1C636.7,146.2,636.8,146.2,636.9,146.2z"/>
</svg>
