<?xml version="1.0" encoding="utf-8"?>
<!-- Generator: Adobe Illustrator 24.2.0, SVG Export Plug-In . SVG Version: 6.00 Build 0)  -->
<svg version="1.1" id="レイヤー_1" xmlns="http://www.w3.org/2000/svg" xmlns:xlink="http://www.w3.org/1999/xlink" x="0px"
	 y="0px" viewBox="0 0 158 81" style="enable-background:new 0 0 158 81;" xml:space="preserve">
<style type="text/css">
	.st0{fill:#FFFFFF;}
</style>
<g id="グループ_1195" transform="translate(-111.404 -12347.104)">
	<path id="パス_1339" class="st0" d="M120.9,12419.9c0,0.4,0,0.5,0.4,0.5c0.2,0,1.4-0.1,4.9-0.1h0.5c-0.4,0.5-0.9,1-1.4,1.4
		c-1.9,1.4-4.9,2.1-9,2.4c0.5,0.6,0.9,1.4,1.2,2.1c0.3,0.7,0.4,1,0.8,1c0.3,0,0.6-0.1,0.9-0.1c2.9-0.3,5.8-1.3,8.2-2.9
		c1.4-1,2.6-2.3,3.3-3.8h6.3c-0.1,0.9-0.3,1.7-0.6,2.5c-0.2,0.6-0.7,0.8-1.6,0.8c-1.3,0-2.6-0.1-3.9-0.3c0.5,0.7,0.8,1.5,1.1,2.4
		c0.3,1,0.3,1,1.2,1.1c0.7,0.1,1.4,0.1,2.2,0.1c2.2,0,3.5-0.6,4.2-1.8c0.6-1.2,1-2.4,1.1-3.7c0.1-0.8,0.2-1.5,0.3-2.3
		c1.4,0.7,2.9,1.3,4.4,1.8c0.3,0.1,0.6,0.2,0.9,0.2c0.3,0,0.4-0.3,0.8-1c0.4-0.8,0.8-1.6,1.4-2.3c-3.1-0.5-6.1-1.6-8.9-3.1h2.7
		c3.4,0,4.5,0.1,4.8,0.1c0.4,0,0.4,0,0.4-0.4v-2.2c0-0.4,0-0.4-0.4-0.4c-0.3,0-1.4,0.1-4.8,0.1h-13.1c0.2-0.2,0.5-0.5,0.8-0.6
		c0.3-0.2,0.5-0.3,0.5-0.6c0-0.3-0.2-0.4-0.6-0.5l-1.3-0.3h8.2c3.6,0,4.9,0.1,5.2,0.1c0.4,0,0.4,0,0.4-0.5c0-0.2-0.1-1-0.1-2.9v-3.2
		c0-1.9,0.1-2.7,0.1-2.9c0-0.4,0-0.4-0.4-0.4c-0.3,0-1.6,0.1-5.2,0.1h-12.3c-3.7,0-5-0.1-5.2-0.1c-0.4,0-0.4,0-0.4,0.4
		c0,0.2,0.1,1,0.1,2.9v3.2c0,1.9-0.1,2.7-0.1,2.9c0,0.4,0,0.5,0.4,0.5c0.3,0,1.6-0.1,5.2-0.1h1.9c-0.4,0.7-0.8,1.4-1.4,2h-6.2
		c-3.4,0-4.5-0.1-4.8-0.1c-0.3,0-0.4,0-0.4,0.4v2.2c0,0.4,0,0.4,0.4,0.4c0.2,0,1.4-0.1,4.8-0.1h2.9c-2.7,1.7-5.7,3-8.9,3.8
		c0.6,0.5,1.2,1.2,1.6,1.9c0.4,0.7,0.5,1,0.9,1c0.3,0,0.6-0.1,0.9-0.3c1.7-0.7,3.3-1.4,4.9-2.3V12419.9z M131.7,12417.5
		c0.1-0.4,0.2-0.8,0.5-1.2c0.1-0.2,0.2-0.4,0.3-0.6c0-0.2-0.3-0.3-0.7-0.4c-1-0.1-2.1-0.2-3.4-0.3c0,0.8-0.1,1.7-0.3,2.5h-5.2
		c1.3-0.9,2.6-1.8,3.7-2.9h8.4c1.1,1.1,2.2,2.1,3.5,2.9H131.7z M138.3,12407.4h-15.8v-1.5h15.8V12407.4z M138.3,12402.3v1.5h-15.8
		v-1.5H138.3z M118.8,12394.5c-3.4,0-4.6-0.1-4.8-0.1c-0.4,0-0.4,0-0.4,0.4v2.3c0,0.4,0,0.5,0.4,0.5c0.2,0,1.4-0.1,4.8-0.1h4.2
		c0,0.6,0,1.1,0,1.2c0,0.4,0,0.4,0.5,0.4h2.8c0.4,0,0.5,0,0.5-0.4c0-0.2,0-0.6-0.1-1.2h7.4c0,0.6,0,1.1,0,1.2c0,0.4,0,0.4,0.5,0.4
		h2.8c0.4,0,0.5,0,0.5-0.4c0-0.2,0-0.6-0.1-1.2h4.4c3.4,0,4.6,0.1,4.8,0.1c0.4,0,0.4,0,0.4-0.5v-2.3c0-0.4,0-0.4-0.4-0.4
		c-0.2,0-1.4,0.1-4.8,0.1h-4.4c0-0.4,0-0.8,0.2-1.2c0.1-0.2,0.2-0.4,0.2-0.6c0-0.2-0.2-0.3-0.5-0.3c-1-0.1-2.4-0.2-3.6-0.2
		c0.1,0.8,0.2,1.6,0.2,2.4h-7.4c0-0.4,0-0.8,0.2-1.2c0.1-0.2,0.2-0.4,0.2-0.6c0-0.2-0.2-0.3-0.5-0.3c-1-0.1-2.4-0.2-3.6-0.2
		c0.1,0.8,0.2,1.6,0.2,2.4L118.8,12394.5z M165.6,12418c-3.4,2.4-7.5,3.9-12.6,5c0.6,0.7,1.1,1.5,1.4,2.3c0.3,0.7,0.4,1,0.8,1
		c0.3,0,0.6-0.1,0.9-0.2c4.8-1.4,9.3-3.5,12.3-6.5c0,4.2-0.2,6.3-0.2,7.1c0,0.4,0,0.4,0.4,0.4h3.3c0.3,0,0.4,0,0.4-0.4
		c0-0.8-0.2-3-0.2-7.2c3.6,3.2,7.9,5.5,12.6,6.7c0.3,0.1,0.6,0.2,0.9,0.2c0.3,0,0.5-0.3,0.8-1c0.3-0.9,0.8-1.8,1.5-2.5
		c-5.4-1-9.6-2.4-13.1-4.8h7.1c3.4,0,4.6,0.1,4.8,0.1c0.4,0,0.4,0,0.4-0.4v-2.4c0-0.3,0-0.4-0.4-0.4c-0.2,0-1.4,0.1-4.8,0.1h-9.6
		v-0.2c-0.1-0.6,0-1.1,0.1-1.7l0.1-0.2h7.3c3.7,0,5,0.1,5.2,0.1c0.4,0,0.4,0,0.4-0.5v-2.1c0-0.4,0-0.4-0.4-0.4
		c-0.2,0-1.5,0.1-5.2,0.1h-6.9v-2h4.8c3.6,0,4.9,0.1,5.1,0.1c0.4,0,0.5,0,0.5-0.4v-1.9c0-0.4,0-0.4-0.5-0.4c-0.2,0-1.5,0.1-5.1,0.1
		h-4.8v-1.9h4.8c3.6,0,4.9,0.1,5.1,0.1c0.4,0,0.5,0,0.5-0.4v-1.9c0-0.4,0-0.4-0.5-0.4c-0.2,0-1.5,0.1-5.1,0.1h-4.8v-1.9h6.6
		c3.7,0,4.9,0.1,5.2,0.1c0.4,0,0.4,0,0.4-0.5v-2.2c0-0.3,0-0.4-0.4-0.4c-0.3,0-1.5,0.1-5.2,0.1h-5.8c0.2-0.3,0.4-0.7,0.6-1.1
		c0.2-0.4,0.4-0.7,0.7-1c0.2-0.1,0.3-0.3,0.4-0.6c0-0.3-0.2-0.5-0.5-0.5c-1.2-0.3-2.4-0.6-3.6-0.8c-0.1,0.7-0.3,1.3-0.6,2
		c-0.3,0.7-0.6,1.4-1,2h-7l0.6-1c0.3-0.4,0.6-0.9,1-1.2c0.2-0.1,0.3-0.3,0.3-0.6c0-0.2-0.2-0.4-0.5-0.5c-1.2-0.4-2.4-0.7-3.6-0.9
		c-0.2,0.8-0.6,1.6-1,2.4c-1.7,3-4.1,5.5-7,7.4c0.6,0.6,1.2,1.4,1.6,2.2c0.3,0.5,0.4,0.8,0.6,0.8c0.2,0,0.4-0.2,0.8-0.5
		c0.8-0.7,1.5-1.4,2.2-2.1v6c0,2.8-0.1,4.1-0.1,4.3c0,0.4,0,0.5,0.4,0.5c0.2,0,1.6-0.1,5.3-0.1h4.7c0,0.7,0,1.3,0,1.9v0.2h-9.2
		c-3.4,0-4.6-0.1-4.8-0.1c-0.4,0-0.4,0-0.4,0.4v2.4c0,0.4,0,0.4,0.4,0.4c0.2,0,1.4-0.1,4.8-0.1H165.6z M161.6,12409.9v-2h7.7v2
		H161.6z M161.6,12400.9v-1.9h7.7v1.9H161.6z M161.6,12405.3v-1.9h7.7v1.9H161.6z M204.3,12397.1v2.7h-2.1c-3.7,0-5.1-0.1-5.3-0.1
		c-0.4,0-0.4,0-0.4,0.4c0,0.3,0.1,0.9,0.1,2.8v3.1c0,1.9-0.1,2.5-0.1,2.8c0,0.4,0,0.4,0.4,0.4c0.2,0,1.6-0.1,5.3-0.1h16
		c3.7,0,5.1,0.1,5.3,0.1c0.4,0,0.4,0,0.4-0.4c0-0.3-0.1-0.9-0.1-2.8v-3.1c0-1.9,0.1-2.6,0.1-2.8c0-0.4,0-0.4-0.4-0.4
		c-0.2,0-1.6,0.1-5.3,0.1h-2.4v-2.7h6c3.4,0,4.6,0.1,4.8,0.1c0.4,0,0.4,0,0.4-0.4v-2.7c0-0.4,0-0.4-0.4-0.4c-0.2,0-1.4,0.1-4.8,0.1
		h-23.1c-3.4,0-4.6-0.1-4.8-0.1c-0.4,0-0.4,0-0.4,0.4v2.7c0,0.4,0,0.4,0.4,0.4c0.2,0,1.4-0.1,4.8-0.1H204.3z M220.1,12406.3h-4.3
		v-3.6h4.3V12406.3z M212.2,12406.3H208v-3.6h4.2V12406.3z M200.4,12406.3v-3.6h3.9v3.6H200.4z M208,12399.8v-2.7h4.2v2.7H208z
		 M202.1,12415.6l-1.1,1.4c-0.4,0.6-0.9,1.2-1.4,1.8l-0.9,1.1c-0.2,0.2-0.1,0.4,0.2,0.5l2.7,0.6c0.4,0.1,0.8,0,1-0.3
		c0.2-0.2,0.3-0.3,0.4-0.5c1.7,0.4,3.3,0.7,4.8,1.1c-3.3,1.5-7.8,2.3-14.2,2.4c0.6,0.7,1,1.5,1.3,2.3c0.5,1.2,0.5,1.1,1.7,1.1
		c6.8-0.5,11.9-1.6,15.9-4.3c3.3,1.1,6.5,2.5,9.5,4.2c0.4,0.2,0.4,0.1,0.8-0.3l1.9-2.2c0.2-0.2,0.2-0.3,0.2-0.4
		c0-0.1-0.1-0.2-0.3-0.3c-3-1.4-6-2.5-9.2-3.5c1.3-1.3,2.3-2.9,3.2-4.5h3.4c3.3,0,4.5,0.1,4.7,0.1c0.3,0,0.4,0,0.4-0.4v-2.7
		c0-0.3,0-0.4-0.4-0.4c-0.2,0-1.4,0.1-4.7,0.1h-13.7c0.3-0.5,0.6-1,1.1-1.3c0.2-0.1,0.4-0.3,0.4-0.6c0-0.2-0.1-0.4-0.6-0.5
		c-1.2-0.3-2.5-0.5-3.7-0.6c-0.4,1.1-0.9,2.1-1.5,3h-6.1c-3.3,0-4.5-0.1-4.7-0.1c-0.3,0-0.4,0-0.4,0.4v2.7c0,0.4,0,0.4,0.4,0.4
		c0.2,0,1.4-0.1,4.7-0.1L202.1,12415.6z M214.4,12415.6c-0.8,1.3-1.7,2.4-2.8,3.4c-2.1-0.5-4.3-1-6.5-1.4c0.5-0.6,0.9-1.3,1.4-2
		H214.4z M253.3,12397.4c-0.3,0.9-0.7,1.7-1.1,2.5h-0.4c-3.4,0-4.6-0.1-4.8-0.1c-0.4,0-0.5,0-0.5,0.4c0,0.3,0.1,1.5,0.1,4.4v10.1
		c0,2.8-0.1,4.1-0.1,4.4c0,0.4,0,0.5,0.5,0.5c0.2,0,1.4-0.1,4.8-0.1h7.8c3.3,0,4.5,0.1,4.8,0.1c0.4,0,0.4,0,0.4-0.5
		c0-0.2-0.1-1.5-0.1-4.4v-10.1c0-2.9,0.1-4.2,0.1-4.4c0-0.4,0-0.4-0.4-0.4c-0.3,0-1.4,0.1-4.8,0.1h-3.4c0.4-0.8,0.8-1.7,1.1-2.5h4.1
		c3.6,0,4.9,0.1,5.1,0.1c0.4,0,0.4,0,0.4-0.4v-2.8c0-0.4,0-0.5-0.4-0.5c-0.2,0-1.5,0.1-5.1,0.1h-10.9c-3.6,0-4.9-0.1-5.1-0.1
		c-0.4,0-0.5,0-0.5,0.5v2.8c0,0.3,0,0.4,0.5,0.4c0.2,0,1.5-0.1,5.1-0.1L253.3,12397.4z M260.8,12416.2h-10.5v-2.5h10.5V12416.2z
		 M260.8,12403v2.4h-10.5v-2.4H260.8z M250.4,12410.8v-2.4h10.5v2.4H250.4z M240.8,12399.3c2,0,2.7,0.1,3,0.1c0.4,0,0.4,0,0.4-0.5
		v-2.8c0-0.4,0-0.4-0.4-0.4c-0.2,0-1,0.1-3.4,0.1h-3.6c-2.5,0-3.2-0.1-3.5-0.1c-0.3,0-0.4,0-0.4,0.4v2.8c0,0.4,0,0.5,0.4,0.5
		c0.2,0,1-0.1,3.5-0.1h0.1v15.8l-1.2,0.4c-1.1,0.4-2.2,0.7-3.3,0.9c0.3,1.2,0.6,2.4,1,3.6c0.2,0.3,0.3,0.5,0.5,0.5
		c0.2,0,0.4-0.1,0.6-0.3c0.4-0.2,0.8-0.4,1.2-0.6c2.4-0.9,5.4-2.2,8.1-3.6c1-0.6,1-0.6,0.9-1.8c-0.1-0.9-0.1-1.7,0-2.6
		c-1.2,0.7-2.5,1.4-3.8,1.9V12399.3z M250.2,12419.5c-0.4,0.4-0.8,0.8-1.3,1.1c-2.4,1.6-5.2,2.7-8,3.2c0.7,0.6,1.4,1.4,1.9,2.2
		c0.4,0.7,0.6,0.9,0.9,0.9c0.3,0,0.6-0.1,0.9-0.2c2.6-0.9,5.1-2.1,7.4-3.7c0.3-0.3,0.7-0.6,1.1-0.7c0.3-0.2,0.5-0.3,0.5-0.5
		c0-0.2-0.1-0.3-0.4-0.6C252.2,12420.6,251.3,12420,250.2,12419.5z M257.6,12421.2c-0.5,0.3-0.5,0.4-0.2,0.7
		c2.2,1.8,4.6,3.3,7.1,4.5c0.3,0.2,0.6,0.3,1,0.3c0.2,0,0.4-0.2,0.6-0.6c0.5-1,1.2-1.9,1.9-2.7c-2.8-0.8-5.4-2.1-7.8-3.8
		c-0.1-0.1-0.2-0.1-0.3-0.1c-0.1,0-0.3,0.1-0.4,0.2L257.6,12421.2z"/>
	<path id="パス_1338" class="st0" d="M161.6,12350.3v4.9h1.3c0.3,0,0.6,0,0.9-0.2c0.2-0.1,0.4-0.3,0.6-0.5
		c0.1-0.2,0.2-0.5,0.2-0.8c0-0.3,0.1-0.7,0.1-1c0-0.3,0-0.7-0.1-1c0-0.3-0.1-0.5-0.3-0.8c-0.4-0.5-1-0.7-1.6-0.6H161.6z
		 M159.4,12363.9v-15.7h3.6c2.6,0,4,1.5,4,4.6c0,0.8-0.1,1.6-0.4,2.4c-0.3,0.7-0.8,1.2-1.5,1.6l2.4,7.1H165l-2.1-6.7h-1.3v6.7H159.4
		z M169.8,12363.9v-15.7h6.7v2.1h-4.4v4.6h3.9v2.1h-3.9v4.6h4.4v2.2H169.8z M186.2,12359.4v1c0,0.5-0.1,0.9-0.3,1.4
		c-0.2,0.4-0.4,0.8-0.8,1.2c-0.3,0.3-0.7,0.6-1.1,0.8c-0.4,0.2-0.9,0.3-1.4,0.3c-0.4,0-0.9-0.1-1.3-0.2c-0.4-0.1-0.8-0.3-1.2-0.6
		c-0.4-0.3-0.7-0.7-0.9-1.1c-0.2-0.6-0.4-1.2-0.3-1.8v-8.6c0-0.5,0.1-1,0.3-1.4c0.2-0.4,0.4-0.8,0.7-1.1c0.3-0.3,0.7-0.6,1.2-0.8
		c0.5-0.2,1-0.3,1.5-0.3c1,0,1.9,0.3,2.6,1c0.3,0.3,0.6,0.8,0.8,1.2c0.2,0.5,0.3,1,0.3,1.5v0.9H184v-0.7c0-0.4-0.1-0.8-0.4-1.1
		c-0.2-0.3-0.6-0.5-1-0.5c-0.4-0.1-0.9,0.1-1.1,0.5c-0.2,0.4-0.3,0.9-0.3,1.3v8c0,0.4,0.1,0.8,0.3,1.1c0.2,0.3,0.7,0.5,1.1,0.5
		c0.2,0,0.3,0,0.5-0.1c0.2-0.1,0.3-0.1,0.5-0.3c0.1-0.1,0.3-0.3,0.3-0.5c0.1-0.2,0.1-0.5,0.1-0.8v-0.8L186.2,12359.4z
		 M191.4,12350.3v4.9h1.3c0.3,0,0.6,0,0.9-0.2c0.2-0.1,0.4-0.3,0.6-0.5c0.1-0.2,0.2-0.5,0.2-0.8c0-0.3,0.1-0.7,0.1-1
		c0-0.3,0-0.7-0.1-1c0-0.3-0.1-0.5-0.3-0.8c-0.4-0.5-1-0.7-1.6-0.6H191.4z M189.1,12363.9v-15.7h3.6c2.6,0,4,1.5,4,4.6
		c0,0.8-0.1,1.6-0.4,2.4c-0.3,0.7-0.8,1.2-1.5,1.6l2.4,7.1h-2.4l-2.1-6.7h-1.3v6.7H189.1z M206.9,12348.2v12.1c0,0.5-0.1,1-0.3,1.4
		c-0.2,0.4-0.4,0.8-0.8,1.2c-0.3,0.3-0.7,0.6-1.2,0.8c-0.4,0.2-0.9,0.3-1.4,0.3c-0.5,0-1-0.1-1.4-0.3c-0.4-0.2-0.8-0.5-1.2-0.8
		c-0.3-0.3-0.6-0.7-0.8-1.2c-0.2-0.4-0.3-0.9-0.3-1.4v-12.1h2.2v11.9c0,0.4,0.1,0.9,0.4,1.2c0.3,0.3,0.6,0.4,1,0.4
		c0.4,0,0.7-0.1,1-0.4c0.3-0.3,0.4-0.8,0.4-1.2v-11.9H206.9z M210.1,12363.9v-15.7h2.2v15.7H210.1z M217.1,12363.9v-13.6h-2.6v-2.1
		h7.4v2.1h-2.6v13.6H217.1z"/>
</g>
</svg>
