<svg xmlns="http://www.w3.org/2000/svg" width="46.896" height="9.168" viewBox="0 0 46.896 9.168">
  <path id="パス_1346" data-name="パス 1346" d="M6.66-7.116a2.84,2.84,0,0,0-2.94-2.1c-1.836,0-2.8,1.1-2.8,2.328,0,1.308.588,2.028,2.508,2.544l.348.108c1.632.432,1.98.876,1.98,1.788S5.136-.9,3.756-.9A2.107,2.107,0,0,1,1.62-2.628l-1.032.36A3.022,3.022,0,0,0,3.78-.048c1.968,0,3.048-1.02,3.048-2.52,0-1.272-.528-2.028-2.64-2.568L3.8-5.244c-1.392-.348-1.836-.768-1.836-1.692,0-.864.672-1.428,1.776-1.428A1.86,1.86,0,0,1,5.616-6.8Zm8.748.432a3.1,3.1,0,0,0-3.192-2.532c-2.112,0-3.7,1.68-3.7,4.6s1.572,4.572,3.7,4.572a3.1,3.1,0,0,0,3.252-2.508l-1-.336a2.145,2.145,0,0,1-2.244,1.98c-1.488,0-2.6-1.3-2.6-3.72s1.1-3.72,2.6-3.72a2.139,2.139,0,0,1,2.148,1.944ZM17.472-9.06V-.216h1.02V-4.344h2.136L22.572-.216h1.152l-2.112-4.3a2.193,2.193,0,0,0,1.872-2.232c0-1.464-.948-2.316-3.036-2.316Zm1.02.84h1.9c1.476,0,2.028.528,2.028,1.488,0,1-.624,1.572-2.1,1.572H18.492Zm10.284-1c-2.1,0-3.648,1.68-3.648,4.6S26.652-.048,28.776-.048s3.648-1.692,3.648-4.6S30.9-9.216,28.776-9.216Zm0,.864c1.512,0,2.544,1.272,2.544,3.72s-1.032,3.72-2.544,3.72S26.232-2.2,26.232-4.632,27.276-8.352,28.776-8.352Zm6.936-.708H34.668V-.216h5.424V-1.1h-4.38Zm7.392,0H42.06V-.216h5.424V-1.1H43.1Z" transform="translate(-0.588 9.216)" fill="#fff"/>
</svg>
